<svg xmlns="http://www.w3.org/2000/svg" width="129" height="131" viewBox="0 0 129 131">
    <defs>
        <linearGradient id="1z6baey8ma" x1="-.031%" x2="99.988%" y1="49.981%" y2="49.981%">
            <stop offset="0%" stop-color="#801A14" stop-opacity=".92"/>
            <stop offset="22%" stop-color="#A51314" stop-opacity=".87"/>
            <stop offset="49%" stop-color="#C70C13" stop-opacity=".82"/>
            <stop offset="75%" stop-color="#DC0713" stop-opacity=".8"/>
            <stop offset="100%" stop-color="#E30613" stop-opacity=".79"/>
        </linearGradient>
        <linearGradient id="hkfhxseznb" x1="0%" x2="99.934%" y1="50.173%" y2="50.173%">
            <stop offset="0%" stop-color="#00676F" stop-opacity=".92"/>
            <stop offset="3%" stop-color="#006A73" stop-opacity=".91"/>
            <stop offset="37%" stop-color="#008397" stop-opacity=".84"/>
            <stop offset="69%" stop-color="#0093AE" stop-opacity=".8"/>
            <stop offset="100%" stop-color="#0098B5" stop-opacity=".79"/>
        </linearGradient>
        <linearGradient id="ubef26984c" x1="-.005%" x2="100%" y1="49.943%" y2="49.943%">
            <stop offset="0%" stop-color="#00676F" stop-opacity=".92"/>
            <stop offset="3%" stop-color="#006A73" stop-opacity=".91"/>
            <stop offset="37%" stop-color="#008397" stop-opacity=".84"/>
            <stop offset="69%" stop-color="#0093AE" stop-opacity=".8"/>
            <stop offset="100%" stop-color="#0098B5" stop-opacity=".79"/>
        </linearGradient>
        <linearGradient id="j495vjacxd" x1=".005%" x2="100.029%" y1="49.962%" y2="49.962%">
            <stop offset="0%" stop-color="#D98C00" stop-opacity=".92"/>
            <stop offset="36%" stop-color="#EBA100" stop-opacity=".84"/>
            <stop offset="100%" stop-color="#F9B000" stop-opacity=".79"/>
        </linearGradient>
        <linearGradient id="jr5dh8vy0e" x1=".027%" x2="100.018%" y1="50.039%" y2="50.039%">
            <stop offset="0%" stop-color="#73822C" stop-opacity=".92"/>
            <stop offset="22%" stop-color="#839732" stop-opacity=".87"/>
            <stop offset="62%" stop-color="#97B139" stop-opacity=".81"/>
            <stop offset="100%" stop-color="#9EBA3C" stop-opacity=".79"/>
        </linearGradient>
    </defs>
    <g fill="none" fill-rule="evenodd">
        <g>
            <g>
                <g>
                    <g>
                        <path fill="#FFF" stroke="#1D1D1B" stroke-width=".5" d="M127.514 63.64c.003 35.15-28.454 63.648-63.561 63.651-35.107.003-63.57-28.49-63.572-63.64C.378 28.501 28.835.003 63.94 0c16.86-.001 33.029 6.703 44.95 18.637 11.923 11.935 18.621 28.123 18.623 45.003h0z" transform="translate(-762 -1985) translate(86 1739) translate(643 214.116) translate(33.532 33.574)"/>
                        <path fill="#575756" fill-rule="nonzero" d="M96.301 82.913L96.301 82.32 100.869 82.32 100.869 82.913 98.963 82.913 98.963 87.656 98.207 87.656 98.207 82.913zM101.821 82.32L103.504 86.796 105.229 82.32 106.198 82.32 106.198 87.656 105.526 87.656 105.526 83.221 105.526 83.221 103.813 87.656 103.218 87.656 101.547 83.221 101.547 83.221 101.547 87.656 100.869 87.656 100.869 82.32z" transform="translate(-762 -1985) translate(86 1739) translate(643 214.116) translate(33.532 33.574)"/>
                        <path fill="url(#1z6baey8ma)" fill-rule="nonzero" d="M101.602 68.6c-.324-.61-.555-1.267-.685-1.948l-.033-.135c-.193-.807-.312-1.63-.356-2.46-.04-.713-.128-1.423-.268-2.123-.229-1.2-.535-2.382-.918-3.541-.134-.383-.256-.771-.373-1.126-.206-.75-.473-1.483-.796-2.19-.34-.687-2.227-5.134-2.706-6.626l-.067-.192h-.206c-.3-.038-.586-.159-.824-.349-2.617-1.981-5.228-3.772-7.755-5.331-.429-.26-.84-.563-1.242-.867l-.384-.282c-.316-.285-.563-.64-.724-1.036-.133-.29-.295-.565-.484-.822-.526-.601-1.142-1.116-1.826-1.525-.284-.192-.557-.383-.802-.563-2.57-2.091-5.645-3.451-8.907-3.941-.821-.118-1.65-.175-2.478-.17-.835 0-1.67.046-2.494.085-1.423.104-2.852.104-4.276 0-.348-.034-.698-.034-1.046 0-.456.07-.92.007-1.342-.18h-.156c-.312.01-.623.045-.93.107-.28.06-.565.097-.852.107-1.47 0-2.143-.687-2.149-1.177-.005-.49.507-.86 1.67-.878.67-.04 1.334-.132 1.988-.276.557-.101 1.019-.197 1.475-.236.49-.042.975-.12 1.454-.23l.178.055c.137.062.284.098.434.107h.078c.557-.073 1.069-.118 1.587-.163 1.014-.082 2.023-.235 3.017-.456 2.338-.405 4.735-.304 7.032.298 1.982.563 3.897 2.117 4.899 3.001 1.834 1.674 3.93 3.029 6.202 4.009 2.55 1.092 4.793 3.287 6.775 5.23.396.377.785.765 1.17 1.126l.484.433c.64.474 1.168 1.086 1.547 1.79l.073.113c1.82 1.88 5.194 9.875 5.484 11.26.072.276.156.523.245.771.188.475.303.976.34 1.486.027.62.088 1.25.144 1.858l.083.94c.05.507.1 1.036.1 1.543v.766c.031.418.031.837 0 1.255-.005.143-.028.285-.066.422-.261.787-.713 1.496-1.314 2.061zm2.5-18.066c-.387-.643-.738-1.306-1.052-1.988l-.14-.298c-.11-.226-.208-.457-.295-.692-.176-.578-.474-1.11-.874-1.56-.179-.163-.305-.377-.362-.614-.022-.101-.066-.197-.128-.281l-.15-.14.044-.113c-.273-.336-.573-.648-.896-.935-.196-.163-.382-.338-.557-.524l-.055-.107c-.121-.461-.38-.874-.74-1.182-.241-.279-.462-.574-.663-.884-.297-.524-.702-.98-1.186-1.334l-.084-.05c-1.344-1.216-2.842-2.246-4.453-3.063-.456-.294-.928-.56-1.415-.8-.838-.393-1.607-.922-2.277-1.565-.214-.202-.44-.39-.679-.563-.453-.343-.843-.764-1.152-1.244-.162-.297-.298-.608-.407-.929-.126-.448-.344-.864-.64-1.222-.361-.293-.695-.619-.996-.974-.513-.697-1.24-1.204-2.066-1.44-.657-.158-3.134-2.371-3.814-2.99l-.2-.068c-.813-.681-2.305-.867-3.502-1.019l-.523-.067-.507-.085c-.58-.129-1.176-.178-1.77-.146l-.84.152c-.619.118-1.265.242-1.905.31-.678.065-1.346.216-1.987.45-.182.079-.35.187-.496.32-.25.242-.56.411-.896.49-.73.253-1.445.552-2.138.896-.416.285-.912.427-1.414.405-.178 0-.356 0-.523-.028-.457-.06-.916-.09-1.376-.09-2.694 0-4.264 1.07-4.838 2.06-.211.366-.211.603-.183.648 1.458.244 2.936.35 4.415.315h.267c.728-.04 1.445-.201 2.12-.479.739-.3 1.522-.472 2.317-.506h.234c1.147 0 2.338-.563 3.485-1.047.507-.231.98-.44 1.447-.614.956-.238 1.94-.339 2.923-.298.485 0 .991 0 1.47-.04s1.03-.146 1.52-.236.99-.186 1.52-.231h.367l-.033.371c-.095 1.008 2.35 2.877 3.518 3.778.396.298.707.563.874.698.74.698 1.431 1.436 2.1 2.145 1.514 1.622 2.95 3.153 4.954 4.301 1.655.842 3.174 1.934 4.504 3.238l.674.72c.819.992 1.795 1.838 2.89 2.505.598.54 1.052 1.223 1.319 1.988.129.299.274.59.434.872.3.496.557.946.785 1.425l.35.67c.14.247.313.506.502.782.398.493.698 1.06.885 1.667.161.754.991 2.533 1.843 2.533.183-.008.358-.08.495-.202.819-.642.596-2.078-.044-3.091zM82.205 22.739c1.053.563 2.5 1.362 3.441 1.362.31.034.61-.115.774-.382.158-.236.214-.527.156-.805-.095-.321-.451-.637-1.114-.963-.378-.203-.78-.389-1.185-.563-.895-.39-1.756-.855-2.573-1.39-.302-.149-.639-.211-.974-.18h-.957c-.387.015-.774.001-1.158-.04-.472-.056-.949-.056-1.42 0-.534-.045-1.066-.116-1.592-.214-1.027-.195-2.064-.325-3.107-.389-.12-.007-.24.004-.356.034-.744.266-1.513.454-2.294.563l-1.158.231h-.095c-.637-.066-1.28.039-1.865.304-.36.12-.734.196-1.113.225-.657.085-1.409.18-1.615.603-.306.63-1.492.816-3.179.895h-.144c-.557.028-1.576.422-1.72.827-.058.131-.075.276-.05.417 0 .079.2.439 1.892.439 1.346-.036 2.687-.17 4.014-.4h.206c1.445-.228 2.862-.606 4.231-1.126.22-.107.41-.265.557-.461l.1-.119h.156c.652.034 1.598 0 2.672-.033.886 0 1.888-.057 2.884-.057 2.411 0 4.076.186 5.234.597.463.179.915.388 1.352.625zm1.23 4.087l.157.085c1.103.552 2.26.987 3.451 1.3.188.015.376-.002.557-.05l.145-.034.122.096c.43.343 1.114.793 1.849 1.306 1.887 1.278 4.237 2.877 5.305 4.414.225.36.422.736.59 1.125.507 1.048 1.353 2.815 2.122 2.815.079-.002.157-.02.228-.056.21-.075.381-.234.473-.439.054-.411-.043-.828-.273-1.171-.161-.32-.345-.647-.556-.974-.425-.718-.788-1.471-1.086-2.252-.117-.326-.707-.692-1.058-.912l-.183-.118c-.272-.185-.53-.388-.774-.608-.293-.272-.616-.508-.963-.704-.352-.293-.685-.61-.997-.946-.607-.608-1.865-1.869-2.177-1.948-.639-.199-1.258-.459-1.848-.777l-.897-.416-.083-.057c-.398-.354-.879-.598-1.397-.709-.306-.088-.599-.219-.869-.388-.484-.26-1.047-.563-1.353-.389-.557.293-1.625-.287-2.667-.968l-.094-.068c-.37-.212-.784-.335-1.208-.36-.11-.008-.221.017-.318.073-.099.05-.177.134-.222.237 0 0-.195.743 4.025 2.893zM72.224 13.44c.17.127.33.266.479.416.076.074.18.111.284.101.263-.026.52-.1.757-.22.556-.177 1.153-.177 1.71 0 .312.08.634.118.957.114.369.018.738-.046 1.08-.186.28-.114.487-.357.557-.653 0-.197-.206-.35-.379-.45-.974-.53-2.227-1.127-3.34-1.127-.38-.012-.755.088-1.08.287l-.078.04-.557.18c-.334.101-.657.208-.985.304-.04.168-.04.344 0 .512.148.268.35.5.595.682zm-8.273 3.456c.117.394.256.845.329 1.008.317.101 2.048.53 2.288.563.24.034 1.52-.225 2.784-.445l.1-.287h.395c.835 0 1.71-.09 2.043-.124h.134c.926-.094 1.84-.283 2.728-.563.119-.061.224-.145.312-.247l.105-.113h.15c.413.045 1.008.056 1.71.073 1.731.045 3.897.101 5.216.653.29.14.571.298.841.473.674.417 1.587.985 2.155.985.141.02.28-.046.356-.169.161-.247.128-.377.117-.422-.04-.174-.24-.366-.607-.563-.24-.14-.49-.276-.74-.416-.565-.283-1.105-.612-1.615-.986-.267-.114-.557-.162-.846-.14h-.279c-.266-.005-.532-.03-.796-.074-.292-.05-.589-.067-.885-.05-.35-.04-.695-.106-1.035-.197-.676-.17-1.362-.291-2.055-.36h-.1c-.495.139-1.002.227-1.514.264l-.746.101h-.1c-.387-.057-.78-.017-1.147.119-.24.073-.49.11-.74.112-.38.028-.853.062-.964.276-.2.36-.79.512-1.965.512h-.29c-.35 0-.952.209-1.03.4l-.105.36-.357-.1c-.476-.277-.851-.702-1.069-1.211-.384-.766-.484-1.346-.306-1.751.09-.2.245-.364.44-.462-.324-.252-.708-.411-1.114-.462-.445 0-.901.333-1.408 1.02l-.39 2.223z" transform="translate(-762 -1985) translate(86 1739) translate(643 214.116) translate(33.532 33.574)"/>
                        <path fill="url(#hkfhxseznb)" fill-rule="nonzero" d="M79.853 59.684c-1.093-1.44-2.098-2.95-3.01-4.52l-.033-.052c-.464-.733-1.026-1.395-1.668-1.966l-.484-.426c-1.213-1.084-2.592-2.306-4.11-2.814-1.52-.507-3.277-.882-4.901-1.234l-.401-.086c-.947-.198-1.91-.294-2.876-.288-1.151 0-2.32.115-3.337.213-2.08.208-3.727 1.055-5.468 1.954-.323.168-.64.335-.968.496-1.57.833-2.943 2.014-4.022 3.46-.49.55-1.052 1.026-1.668 1.418-.267.196-.557.386-.757.576-.413.332-.898.554-1.413.646-.406.104-.495.519-.556.796-.061.276-.106.334-.167.346-.98.05-1.934.345-2.781.859-.42.215-.851.407-1.29.576-1.353.456-2.734.817-4.134 1.078h-.178l-.06.179c-.024.07-.064.13-.118.179-.215.204-.452.382-.706.53-.192.127-.378.263-.556.41-.124.09-.24.191-.35.3-.43.5-1.01.835-1.647.95-.356 0-.557-.409-.601-1.21.032-.546.164-1.08.39-1.574.088-.237.333-.358.622-.502.314-.121.594-.319.818-.576.173-.237.47-.338.745-.254h.123l.1-.063c1.77-1 3.604-1.873 5.49-2.612l.39-.162c.71-.341 1.36-.807 1.919-1.377.467-.452.989-.84 1.551-1.153.43-.235.78-.6 1.007-1.044.108-.192.235-.372.379-.536.116-.105.24-.2.372-.283.395-.265.885-.576.885-1.153.458-.86 1.085-1.61 1.84-2.202.354-.165.68-.384.969-.652.318-.304.698-.53 1.112-.663h.09c.277 0 .99-.046 1.112-.674.242-.17.499-.317.767-.438.384-.081.768-.133 1.113-.185.791-.07 1.568-.264 2.303-.576.222-.077.462-.077.684 0 .306.083.628.083.934 0 .444-.201.936-.263 1.413-.179.401.044.804.063 1.207.058h.384c.402-.006.803.015 1.202.063.804.053 1.611.042 2.414-.035.212-.03.421-.084.623-.16.205-.083.42-.131.64-.145.26-.026.522.036.745.179l.067.092h.105c.23.022.461.003.684-.058l.195-.034-.117.282.317.104c.265.08.552.013.757-.179.05-.05.11-.086.178-.104.1.009.198.026.295.052.147.038.298.06.45.064h.061c.518.024 1.032.11 1.53.26.217.057.44.109.65.15l1.347.264c1.046.202 2.13.41 3.165.692 3.204.888 5.635 2.024 7.454 3.5.579.291.991.849 1.112 1.504v.081l.05.064.418.467c3.893 4.335 4.833 5.557 4.922 5.822l.04.093c.177.27 1.212 3.015 1.357 3.315-.19 0-.696-.41-.902-.421-2.024-.144 0 0-2.709.49 0-.07-1.068-3.696-1.079-3.765v-.086l-.05-.064c-.884-1.228-1.874-2.75-2.303-3.395l-.155-.254c-.46-.53-1.034-.943-1.675-1.205-.294-.159-.58-.334-.856-.525-.156-.115-.312-.236-.462-.363-.343-.3-.716-.56-1.112-.778-.279-.139-.557-.312-.863-.485-.759-.514-1.61-.865-2.503-1.032-.152 0-.289.099-.339.248-.184.52 1.23 2.18 1.235 2.185.178.156.364.302.556.439.462.34 1.113.807 1.218 1.153.34 1.084 1.24 1.73 2.103 2.404.862.674 1.624 1.216 1.975 2.15l.155.438c-1.168.508-2.33 1.119-3.354.963z" transform="translate(-762 -1985) translate(86 1739) translate(643 214.116) translate(33.532 33.574)"/>
                        <path fill="url(#ubef26984c)" fill-rule="nonzero" d="M95.479 63.85c.558 3.226 2.116 3.13 2.345 3.226-.156-.392-2.16-8.72-2.29-9.072-.128-.352-.228-.68-.357-1.015-.128-.335-.178-.686-.273-1.05-.408-1.604-.871-3.401-1.854-4.535-.172-.188-.359-.36-.559-.516-.341-.264-.697-.508-1.066-.732-.302-.187-.598-.374-.882-.567-.285-.192-.615-.459-.933-.714-.738-.549-1.37-1.231-1.865-2.013-.038-.048-.083-.09-.134-.125-.267-.189-.554-.348-.854-.476-.23-.098-.452-.213-.665-.346-.15-.107-.279-.187-.396-.255-.138-.081-.27-.172-.397-.272-.178-.153-.338-.329-.474-.522-.19-.245-.41-.464-.654-.652-.5-.388-1.022-.746-1.563-1.071l-.369-.233-.86-.567c-1.129-.674-2.213-1.425-3.244-2.245-1.049-.783-2.244-1.34-3.512-1.639-.905-.24-1.785-.564-2.63-.97-1.083-.566-2.792-.793-4.143-.975l-.939-.13c-1.384-.185-2.78-.28-4.176-.283h-.598c-.994-.035-1.965-.097-2.954-.165-.558-.04-1.116 0-1.675 0h-.865c-.43.003-.858-.016-1.285-.057h-.134c-.483-.086-.98-.07-1.457.046h-.134c-1.608-.091-2.54.612-2.546 1.088-.006.477.709.845 2.267.85h.078l.067.04c1.129.64 2.432.89 3.713.71.612-.064 1.228-.094 1.843-.091 1.87.044 3.735.21 5.584.499 1.44.192 2.926.396 4.355.464 3.2.154 5.824 1.81 8.024 3.357.08.053.156.11.23.17.112.095.22.195.323.3l.77.789-1.06-.261c-.989-.244-2.234-.437-3.222-.567-.542-.066-1.08-.168-1.608-.306l-.687-.284c-1.137-.527-2.333-.907-3.563-1.134-2.014-.26-4.044-.373-6.075-.34H59.44c-2.642-.039-5.275-.32-7.868-.839-1.245-.25-2.51-.384-3.78-.403-1.54-.025-3.067.3-4.467.953-.882.383-1.667.965-2.295 1.701-.285.273-.646.449-1.033.505-.28.038-.543.152-.765.328-.379.4-.778.778-1.195 1.134-.36.294-.705.607-1.033.936-.475.499-1.117 1.469-1.039 2.092.038.21.179.386.374.465.174.088.365.13.559.125.737 0 1.597-.607 2.29-1.089.295-.204.558-.402.826-.538.686-.398 1.287-.93 1.77-1.565.306-.372.634-.724.983-1.055 1.165-1.073 2.63-1.749 4.193-1.933h.218s1.943.034 2.083.714c.05.267-.118.488-.514.658-1.24.47-2.404 1.124-3.456 1.939-.764.648-1.472 1.361-2.117 2.132-.944 1.18-2.076 2.193-3.35 2.994-.557.309-1.092.655-1.603 1.037-.462.357-.943.689-1.44.992-.268.16-.559.29-.877.437-.672.22-1.27.627-1.725 1.174l-.062.107c-.301.494-1.217 1.996-.955 2.654.057.15.19.256.346.278.152.04.308.058.464.05.24-.004.478-.027.715-.067.315-.05.621-.146.91-.284.386-.223.744-.494 1.066-.805l.319-.278c.293-.25.63-.443.994-.567.167-.06.331-.13.491-.21.412-.205.81-.44 1.19-.703l.468-.3c.152-.088.308-.165.47-.233.352-.14.683-.33.982-.567.352-1.134 1.29-1.905 2.195-2.647l.351-.29c.449-.403.86-.847 1.229-1.326.257-.318.52-.641.815-.947 1.076-.996 2.334-1.766 3.702-2.268l.436-.17c.48-.157.951-.347 1.407-.567.181-.088.368-.164.558-.227.292-.061.558-.214.76-.437.463-.68 3.585-1.077 4.467-1.077h.274l.307.04c1.11.151 2.23.238 3.35.26.463.005.926-.025 1.385-.09.218-.037.438-.054.659-.051.62.02 1.236.11 1.837.266.624.17 1.269.252 1.915.244h.062c.38.051.77.09 1.155.13.923.08 1.84.216 2.748.409 2.712.775 5.497 1.257 8.309 1.44h.111l.157.142c.034.037.072.07.111.102.15.13.313.243.486.34.487.252.998.453 1.525.6.726.19 1.416.504 2.038.93.064.052.125.107.184.165 3.35 3.022 7.226 9.112 9.258 13.608.743.329 1.904.907 2.11 2.092z" transform="translate(-762 -1985) translate(86 1739) translate(643 214.116) translate(33.532 33.574)"/>
                        <path fill="url(#j495vjacxd)" fill-rule="nonzero" d="M31.266 97.555c-.827.002-1.648-.13-2.432-.39-.616-.245-1.27-.38-1.931-.4-.298-.008-.595.04-.874.144-.381.164-.788.258-1.202.278-.32.02-.632-.1-.857-.328-.268-.27-.553-.522-.852-.757-.514-.374-.95-.844-1.285-1.385-.167-.369-.181-.79-.04-1.169.557-.116 1.114-.244 1.67-.372l.997-.228h.083c.464-.258.989-.387 1.52-.373 2.003 0 4.502 1.363 6.455 2.548.423.256.924.673.902 1.18-.092.488-.425.897-.885 1.085-.407.144-.84.201-1.27.167zm5.782-34.064c-.256.178-1.747.935-1.998 1.113-1.035.679-1.92 1.235-2.426 2.348-.713 1.597-.557 2.092-.49 2.226.028.033.083.128.328.128s.874-.557 1.197-.88c.125-.13.259-.253.4-.367.156-.128.323-.256.474-.384.15-.128 2.27-1.174 2.437-1.302.228-1.174.228-1.174 0-2.125.801-1.28.123-.785.078-.757zm12.717-2.782c.595-.34 1.185-.729 1.808-1.113.954-.6 1.872-1.256 2.75-1.964 1.062-.884 1.708-2.186 2.994-2.782 1.212-.509 2.513-.775 3.828-.784 1.669.107 3.326.341 4.959.7.961.267 1.869.698 2.682 1.275.29.178.557.35.835.5.687.388 1.024 1.192.818 1.954.407.506 1.22 1.975 2.043 1.891 1.48-.155 2.07.802 3.528 1.04.712-.344 2.054-1.017 2.02-1.04-.367-.311-2.31-2.17-2.649-2.515-.172-.178-.334-.328-.5-.478-.168-.15-.323-.295-.49-.473-.167-.178-.557-.556-.379-.94l-.117-.073c-.152-.072-.283-.183-.378-.322-.403-.338-.87-.588-1.375-.735-.228-.089-.428-.167-.556-.24-.25-.116-.49-.244-.73-.377-.406-.212-.79-.412-1.201-.59-1.652-.736-3.389-1.265-5.17-1.575-.25-.073-.509-.107-.768-.1-.223 0-.457 0-.685.028-.339.025-.68.025-1.018 0l-.596-.056c-.666-.085-1.338-.12-2.009-.106-.456 0-.93.084-1.38.145-.362.05-.724.106-1.113.14-.336.056-.654.19-.93.389-.395.291-.855.482-1.34.556-.72.118-1.387.454-1.91.963-.364.314-.766.584-1.196.8-.386.225-.737.504-1.04.83-.31.317-.65.6-1.02.846-.388.257-.66.657-.756 1.113-.067.339-6.089 3.85-6.322 4.117.245-.278 3.339.295 3.934.211 1.212-.192 2.375-.613 3.429-1.24v.005zm8.598 27.704c-.46-.266-1.042-.19-1.42.183-.38.166-.752.352-1.112.557-.223.122-.429.234-.596.311-.99.48-2.086.693-3.183.618-.726-.068-1.447-.182-2.16-.34-.511-.105-1.035-.21-1.547-.278-.633-.08-1.27-.119-1.908-.116-.886.006-1.77.061-2.65.167-1.435.15-9.188 1.446-11.742 1.875l-.468.078c-.851.139-1.73.556-1.775.74 0 .089.479.934 8.804 1.569 1.237-.035 2.46-.274 3.618-.707.844-.402 1.777-.582 2.71-.523.645 0 1.263.044 1.814.083l1.18.084c1.002.072 2.042.145 3.066.189 3.34.128 6.473-.723 9.795-2.604.474-.278.895-.636 1.247-1.057.05-.05.117-.14.2-.24-2.126.206-2.966-.116-3.873-.59zM31.566 87.26s0 .039.056.111c.056.073.395.29 1.58.29 1.216-.03 2.428-.142 3.629-.334-.358-.465-.655-.974-.885-1.514-2.816.523-4.252 1.08-4.38 1.447zm1.019-4.284c.089.4.317 1.113.835 1.113h.055c.154.01.308.01.462 0 .134 0 .662-.1 1.341-.234-.15-.557-.284-1.113-.395-1.697-.793.19-1.564.464-2.298.818z" transform="translate(-762 -1985) translate(86 1739) translate(643 214.116) translate(33.532 33.574)"/>
                        <path fill="url(#jr5dh8vy0e)" fill-rule="nonzero" d="M88.494 93.204c.034.682-1.327 1.88-1.907 2.386-.167.142-.295.256-.373.335-.173.176-.332.366-.474.568-.188.262-.407.499-.652.705-.318.174-.652.315-.998.42-.519.146-1.008.384-1.444.705-.344.281-.671.583-.981.903-.537.612-1.18 1.119-1.896 1.494l-.373.142c-.602.17-1.136.527-1.528 1.022l-.128.125v.114c-.005.062-.005.125 0 .187-.19.29-1.946 1.216-3 1.773-.853.454-1.588.84-1.867 1.05-.942.585-1.973 1.008-3.05 1.25l-.223.069c-.964.485-2.07.589-3.105.29-.178-.046-.374-.091-.558-.154-1.115-.29-2.653-.625-3.506-.301-.519.199-1.037.432-1.539.653-1.433.637-2.91 1.29-4.55 1.296h-.456c-2.598 0-5.353-.245-6.094-2.046 0 0 .217-.403 2.788-.403.947 0 1.84.051 2.269.08H55.763c.862.021 1.722-.107 2.542-.381.351-.174.689-.375 1.01-.602.405-.302.852-.543 1.326-.716.836-.251 1.705-.368 2.576-.346.713 0 1.45.05 2.163.102 1.23.124 2.47.124 3.702 0 .72-.202 1.42-.466 2.096-.79 1.51-.7 3.068-1.29 4.66-1.767l.123-.034.067-.108c.505-.67 1.098-1.266 1.762-1.772.101-.076.198-.157.29-.244.624-.603 1.162-1.291 1.6-2.045.21-.33.448-.64.714-.926.264-.282.505-.586.719-.91.351-.567 1.115-.68 1.9-.817.673-.06 1.323-.273 1.902-.625l.117-.097c.775-.664 1.784-1.494 2.788-1.136.17.061.33.145.479.25.111.06.185.173.195.301zm-23.036 2.659c.351.228.75.369 1.165.409.262.043.52.102.775.176.474.159 1.01-.568 1.193-.807.5-.54 1.16-.9 1.879-1.022.887-.216 1.692-.694 2.314-1.375.249-.332.325-.765.206-1.165-.106-.204-.363-.306-.77-.312h-.172c-1.896 0-4.51.182-5.391 1.79l-.05.068-.558.568c-.301.312-.602.625-.909.931.018.277.13.538.318.739zm-22.618 4.999c-.38-.223-.798-.368-1.232-.426-.268-.049-.532-.113-.792-.193-.064-.017-.13-.027-.195-.029-.435 0-.83.477-1.004.682-.522.481-1.187.773-1.89.83-.73.107-1.973.653-2.29 1.136-.205.254-.272.594-.18.908.135.284.558.37.87.381.313.011.837.034 1.3.034 2.319 0 3.774-.454 4.303-1.358l.062-.068.557-.505c.279-.256.558-.506.848-.756-.047-.246-.173-.47-.357-.636zm42.593-13.356c-.182.053-.369.093-.557.12-.552.45-1.127.872-1.723 1.26-.79.244-1.566.533-2.325.864-.674.324-1.622.438-2.352.699l-2.108.943c-.663.21-1.115 2.034-1.672 2.545-.515.552-1.12 1.008-1.79 1.346-.758.324-1.288 1.068-1.856 1.665-.741.452-1.564.745-2.42.863-.072 0-.557-.034-.602.046-.084.261.1.477-.223.63-.82.398-2.23.165-3.116.137-.597 0-.915-.489-1.511-.568-.49-.057-1.862-.37-2.308-.035-1.149.875-2.715 1.813-4.237 1.852-2.058 0-4.081-.392-6.133-.568-1.817-.159-3.841.415-5.625.79-.517.04-1.02.19-1.478.437.21.236.351.528.407.841.037.195-.028.395-.172.528l-.246.216c.24.404.623.697 1.07.818.737.404 1.065.182 1.813-.198.747-.381 1.416 0 2.174.284 1.013.307 2.098.261 3.083-.131.379-.091 3.11.471 3.005.187 1.33-.33 2.687-.549 4.053-.653.93-.12 1.583-.846 2.492-1.08.714-.181 1.054-.567 1.856-.5.803.069 1.712.381 2.582.495 1.256.178 2.535.071 3.746-.312 1.227-.364 2.18-1.137 3.345-1.653 1.177-.39 2.235-1.083 3.072-2.011.808-.892 2.163-2.057 2.604-3.199.92-1.056 2.62-1.318 3.947-1.704 1.984-.25 3.902-2.187 5.703-2.971.836-.381 1.606-.897 2.28-1.528-2.085-.074-3.573-.813-4.778-.455zm-11.1-.568c-.234.051-.468.108-.702.148H72.382c-1.79 0-3.713-.063-5.357.568l-.313.12v-.052l-.82.54-.094.057c-.024.01-.047.023-.067.04-.789.61-1.534 1.275-2.23 1.993-1.433 1.38-2.91 2.807-5.118 3.352-1.573.407-3.166.73-4.772.966H53.444c-.156-.04-.296-.127-.402-.25-.19.01-.378.048-.557.113-.122.043-.247.075-.374.097-.837.065-1.679.033-2.509-.097l-.39-.05c-1.054-.19-2.124-.268-3.194-.234-.212 0-.218 0-.313.142-.065.087-.136.168-.211.245-.184.2-.44.315-.708.318-.164-.009-.327-.035-.485-.08-.15-.044-.303-.068-.458-.074-1.287 0-13.686 2.84-14.534 3.835.095.63 1.165 1.09 1.94 1.17v.307-.307c.62 0 6.005-.937 9.216-1.494 1.806-.312 3.116-.54 3.345-.568.228-.028.557-.034.892-.034h.117c.298.008.596-.006.892-.04.44-.057.898-.136 1.366-.216 1.283-.266 2.594-.375 3.902-.323.374.028.775.085 1.188.136.67.113 1.345.18 2.024.199.549.02 1.096-.084 1.6-.307.907-.432 1.838-.811 2.787-1.136.647-.227 1.316-.466 1.957-.739 1.133-.524 2.186-1.21 3.128-2.04l.697-.567.05-.04c.435-.346.858-.682 1.282-1.045.344-.289.718-.538 1.115-.744.321-.161.627-.352.914-.568.67-.569 1.595-.654 2.487-.739.47-.03.937-.106 1.394-.227h.73c2.637-.085 5.124-.17 7.32-1.545.238-.148.478-.29.72-.426l-1.283-.25c-1.577-.203-3.17-.25-4.756-.142v-.012z" transform="translate(-762 -1985) translate(86 1739) translate(643 214.116) translate(33.532 33.574)"/>
                        <path fill="#575756" fill-rule="nonzero" d="M45.431 63.944c.533-.404 1.186-.62 1.855-.614.688-.036 1.359.218 1.849.7s.754 1.146.727 1.831v3.983c0 .576-.47 1.043-1.048 1.043-.578 0-1.047-.467-1.047-1.043v-3.678c0-.588-.47-1.07-1.059-1.087-.298-.013-.588.095-.804.3-.215.206-.337.49-.336.787v3.656c-.018.587-.501 1.054-1.092 1.054-.273-.007-.532-.123-.719-.32-.187-.198-.288-.462-.279-.734v-3.656c.013-.297-.096-.586-.302-.8-.206-.215-.491-.336-.79-.336-.617.015-1.108.52-1.101 1.136v3.672c0 .568-.456 1.031-1.026 1.043-.588-.02-1.054-.5-1.053-1.086v-5.39c0-.59.472-1.071 1.064-1.086.212 0 .545.288.895.75.078-.096.166-.183.261-.261.46-.346 1.018-.537 1.594-.543.336-.004.669.057.982.179.417.141.785.4 1.058.744.164-.07.279-.195.371-.244zM57.257 63.277c.51-.028.947.374.98.902v5.72c-.006.266-.115.518-.303.7-.187.182-.436.279-.692.268-.248 0-.596-.322-.95-.858-.398.582-1.056.913-1.744.875-1.781 0-3.162-1.64-3.162-3.79 0-2.15 1.402-3.828 3.162-3.828.67-.025 1.313.266 1.75.793.37-.481.706-.782.96-.782zm-3.879 3.828c0 1.094.606 1.881 1.429 1.881.822 0 1.433-.776 1.433-1.881s-.58-1.898-1.433-1.898c-.854 0-1.429.766-1.429 1.887v.01zM65.362 61.317c-.028-.384.158-.75.48-.951.322-.2.726-.2 1.048 0 .322.2.508.567.48.95v8.539c.002.272-.104.535-.293.727-.19.193-.446.301-.714.3-.237 0-.59-.318-.928-.855-.394.58-1.06.905-1.75.855-1.761 0-3.164-1.662-3.164-3.764s1.387-3.731 3.164-3.731c.618-.02 1.214.236 1.634.699l.043-2.77zM62.52 67.16c0 1.075.606 1.85 1.423 1.85.817 0 1.455-.77 1.455-1.823 0-1.054-.595-1.882-1.439-1.882-.843 0-1.44.796-1.44 1.855zM71.408 68.46c.33.386.809.604 1.307.595.46-.01.911-.14 1.308-.382.459-.273.606-.322.79-.322.223-.007.438.078.6.235.16.158.255.376.26.605 0 .856-1.508 1.69-3.084 1.69-.984.056-1.946-.32-2.648-1.034-.703-.716-1.081-1.704-1.043-2.722 0-2.181 1.508-3.86 3.47-3.86 1.884.047 3.385 1.643 3.379 3.592 0 .622-.232.856-.865.856h-3.838c.085.267.207.518.364.747zm-.38-2.082h2.763c-.18-.949-.633-1.44-1.36-1.44-.728 0-1.213.502-1.403 1.44zM82.96 60.216c.652.023 1.167.567 1.16 1.225.007.314-.113.618-.331.843-.218.226-.517.353-.829.355-.632-.043-1.123-.573-1.123-1.212s.491-1.169 1.123-1.211zm0 10.67c-.58.001-1.058-.46-1.084-1.044v-5.47c0-.604.485-1.093 1.084-1.093.28.005.547.124.74.33.193.206.296.48.285.763v5.47c-.005.57-.46 1.033-1.025 1.045zM87.74 63.763c.443-.334.973-.508 1.514-.498.672-.011 1.322.255 1.817.742.467.491.708 1.18.656 1.88v3.89c.003.571-.422 1.04-.954 1.051-.532-.014-.963-.469-.984-1.04v-3.554c0-.658-.497-1.192-1.11-1.192-.613 0-1.11.534-1.11 1.192v3.543c.026.387-.151.756-.46.958-.308.202-.695.202-1.003 0-.309-.202-.486-.571-.46-.958v-5.418c0-.58.424-1.057.964-1.083.202 0 .505.303.848.758.087-.098.182-.188.282-.27zM48.692 75.682c.873-.643 1.937-.987 3.029-.979 1.128-.057 2.228.352 3.033 1.127.805.776 1.239 1.847 1.197 2.951v6.413c0 .932-.772 1.688-1.724 1.688s-1.724-.756-1.724-1.688v-5.878c.013-.95-.754-1.736-1.725-1.767-.488-.012-.96.169-1.312.5-.35.333-.551.789-.556 1.267v5.89c0 .453-.186.887-.517 1.205-.33.317-.778.491-1.241.482-.926-.028-1.655-.781-1.632-1.688v-5.89c.025-.985-.77-1.805-1.776-1.833-1.023 0-1.851.811-1.851 1.811v5.912c0 .932-.772 1.688-1.724 1.688-.953 0-1.725-.756-1.725-1.688v-8.702c.003-.936.768-1.7 1.725-1.721.35 0 .902.456 1.477 1.198.126-.15.265-.288.414-.416.76-.54 1.676-.829 2.615-.827.55-.006 1.095.089 1.609.281.68.229 1.28.645 1.724 1.198.218-.19.446-.369.684-.534zM63.172 74.698c3.242 0 5.724 2.678 5.724 6.12s-2.51 6.075-5.724 6.075c-3.214 0-5.696-2.656-5.696-6.142 0-3.487 2.453-6.053 5.696-6.053zm-2.391 6.12c0 1.83 1.01 3.133 2.39 3.133 1.382 0 2.397-1.28 2.397-3.116s-1.015-3.088-2.396-3.088c-1.382 0-2.42 1.285-2.42 3.071h.029zM74.928 75.402c.405-.417.94-.667 1.509-.704.425-.009.836.163 1.136.477.301.314.466.742.458 1.186.006.333-.11.656-.325.903-.223.26-.345.321-1.1.598-1.36.521-2.257 1.38-2.257 2.173v4.943c.095.647-.182 1.292-.71 1.648-.527.356-1.205.356-1.732 0-.527-.356-.805-1.001-.709-1.648v-8.645c.026-.899.732-1.613 1.594-1.613.361 0 .935.51 1.52 1.375.187-.248.393-.48.616-.693zM80.695 86.893c-1.05 0-1.903-.759-1.903-1.695v-8.805c0-.936.852-1.695 1.903-1.695 1.051 0 1.903.759 1.903 1.695v8.765c.012.457-.183.898-.541 1.225-.359.326-.85.51-1.362.51zM89.493 77.507c-.567 0-1.021.303-1.021.719 0 .415.306.651 1.803 1.241.787.279 1.546.629 2.268 1.045.912.575 1.467 1.57 1.475 2.64 0 2.197-1.928 3.741-4.6 3.741-2.386 0-4.535-1.174-4.535-2.483-.013-.786.612-1.438 1.406-1.466.368.04.727.143 1.06.304l.607.353c.494.277 1.044.44 1.61.478.675 0 1.191-.393 1.191-.893 0-.388-.43-.742-1.281-1.04l-.919-.325c-.799-.26-1.56-.618-2.268-1.068-.691-.568-1.082-1.419-1.06-2.308 0-2.18 1.888-3.747 4.49-3.747 2.127 0 4.015 1.045 4.015 2.286.013.738-.576 1.35-1.321 1.37-.256-.003-.507-.063-.737-.173l-.567-.259c-.509-.234-1.057-.375-1.616-.415z" transform="translate(-762 -1985) translate(86 1739) translate(643 214.116) translate(33.532 33.574)"/>
                    </g>
                </g>
            </g>
        </g>
    </g>
</svg>
