<svg xmlns="http://www.w3.org/2000/svg" xmlns:xlink="http://www.w3.org/1999/xlink">
  <symbol id="logo" viewBox="0 0 160 70">
    <path d="M43.5 15.8a2.25 2.25 0 0 0-1.76.97c.45 1.3 1.96 4.2 7.32 16.9 6.18 14.62 8.24 19.57 8.24 19.57s.92 3.88-.8-2.52S50.85 34 50.85 34 44.3 17.3 43.5 15.8zm2.82.52s1.32-1.16 1.82-.57c1.23 1.47 6.4 19.7 11.45 41.77-5.7-20.65-6.6-21.5-8.48-27.46-1.36-4.3-4.35-13.06-4.8-13.74zm5.1-.62s1.3-.95 1.62 0 3.45 14.95 3.8 17.06c1.14 6.98 2.73 19.82 2.6 22.15-.07 1.6-2.3-15.43-3.75-20.34-1.6-5.4-4.45-17.92-4.28-18.86zM68.9 33.42s-4.2 10.9-5.92 17.3-1.33 4.78-1.33 4.78 2.8-8.72 8.23-21.4c5.25-12.2 8.26-16.07 8-17.32a2.7 2.7 0 0 0-1.9-.98c-.65.42-4.1 10.8-7 17.2m4.1-16.67s-1.46-1.22-1.95-.63c-1.24 1.47-5.82 18.64-10.86 41.15 5.68-20.65 6.12-21.04 8-27 1.38-4.33 4.36-12.4 4.82-13.53zm-5.03-.23s-1.28-1.35-1.6-.4-3.63 19.08-4.05 21.18-2.47 16.46-2.38 18.03 3.02-15.24 3.92-20.28 4.28-17.58 4.1-18.52zM85.2 15a1.4 1.4 0 0 1 .75 1.2 2.57 2.57 0 0 1-.35 1.27l-23.28 50.1a1.9 1.9 0 0 1-.88 1 2.64 2.64 0 0 1-2.7 0 1.9 1.9 0 0 1-.87-1l-23.4-50a3.02 3.02 0 0 1-.23-.94 2 2 0 0 1 .64-1.48 2.6 2.6 0 0 1 3.04-.26 1.9 1.9 0 0 1 .88 1l21.18 45.78 21.3-45.78a2.4 2.4 0 0 1 2.44-1.37 2.8 2.8 0 0 1 1.47.47zm-68.1-1.05a1.68 1.68 0 0 1 .44 1.2v52.2a1.5 1.5 0 0 1-.5 1.12 1.77 1.77 0 0 1-2.4 0 1.5 1.5 0 0 1-.48-1.1V18.13l-11.74 6.9a1.15 1.15 0 0 1-.65.15 1.6 1.6 0 0 1-1.24-.6A1.77 1.77 0 0 1 0 23.43a1.73 1.73 0 0 1 .9-1.34l14.06-8.3a1.65 1.65 0 0 1 2.13.15zm77.33-7.32a3.16 3.16 0 0 1-1-2.42v-.83A3.1 3.1 0 0 1 94.48.95 4.04 4.04 0 0 1 97.26 0a3.54 3.54 0 0 1 2.5.95 3.16 3.16 0 0 1 1.03 2.42v.84a3.16 3.16 0 0 1-1.02 2.43 3.7 3.7 0 0 1-2.62.95 3.84 3.84 0 0 1-2.73-.95zm4.23 61.68a2.06 2.06 0 0 1-1.5.65 2 2 0 0 1-1.55-.64 2.08 2.08 0 0 1-.58-1.46v-50a2 2 0 0 1 .64-1.47 2.07 2.07 0 0 1 1.5-.63 2.02 2.02 0 0 1 1.55.63 2.1 2.1 0 0 1 .6 1.47v50a2 2 0 0 1-.64 1.47zm60.28-11.4a1.9 1.9 0 0 1 .53 1.3 1.94 1.94 0 0 1-.43 1.27 28.33 28.33 0 0 1-8.77 7.58A22.57 22.57 0 0 1 139.04 70a29.33 29.33 0 0 1-14.23-3.37 24.02 24.02 0 0 1-9.67-9.57 29 29 0 0 1-3.47-14.42 31.17 31.17 0 0 1 3.36-14.8 24.4 24.4 0 0 1 8.94-9.73 22.54 22.54 0 0 1 11.87-3.36 25.95 25.95 0 0 1 11.7 2.7 21.94 21.94 0 0 1 8.84 8.04A25.53 25.53 0 0 1 160 38.74a2.17 2.17 0 0 1-.63 1.53 2 2 0 0 1-1.5.68h-42.04v1.37a26.6 26.6 0 0 0 2.67 11.94 20.32 20.32 0 0 0 7.9 8.58A24.03 24.03 0 0 0 139.06 66a20.83 20.83 0 0 0 16.8-8.74 2.25 2.25 0 0 1 1.82-.94 1.7 1.7 0 0 1 1.28.57zM127.74 21a21.22 21.22 0 0 0-7.26 6.1 22.32 22.32 0 0 0-4.23 9.85h39.37V36a17.7 17.7 0 0 0-3.48-9.2 19.15 19.15 0 0 0-7.27-5.85 21.35 21.35 0 0 0-9.04-2 18.02 18.02 0 0 0-8.08 2.05z"></path>
  </symbol>
  <symbol id="user" viewBox="0 0 20 24">
    <path d="M10 0a5.88 5.88 0 105.85 5.88A5.87 5.87 0 0010 0zm0 10.29a4.4 4.4 0 114.39-4.41 4.4 4.4 0 01-4.39 4.4zm0 2.94A10.03 10.03 0 000 23.27V24h20v-.73a10.03 10.03 0 00-10-10.04zm-8.5 9.3a8.53 8.53 0 0117 0h-17z"></path>
  </symbol>
  <symbol id="menu" viewBox="0 0 32 20">
    <path d="M30.67 11.15H1.33C.6 11.15 0 10.65 0 10c0-.64.6-1.15 1.33-1.15h29.33c.74 0 1.34.5 1.34 1.15 0 .64-.6 1.15-1.33 1.15zm0-8.84H1.33C.6 2.3 0 1.8 0 1.16S.6 0 1.33 0h29.33C31.4 0 32 .52 32 1.15s-.6 1.16-1.33 1.16zm0 17.7H1.33C.6 20 0 19.48 0 18.85c0-.64.6-1.15 1.33-1.15h29.33c.74 0 1.33.52 1.33 1.15 0 .63-.6 1.15-1.33 1.15z"></path>
  </symbol>
  <symbol id="close" viewBox="0 0 20 20">
    <path d="M11.1 10l8.67-8.67a.78.78 0 0 0-1.1-1.1L10 8.9 1.33.22a.78.78 0 0 0-1.1 1.1L8.9 10 .22 18.67a.78.78 0 0 0 1.1 1.1L10 11.1l8.67 8.67a.78.78 0 0 0 1.1-1.1z"></path>
  </symbol>
  <symbol id="down" viewBox="0 0 20 14">
    <path d="M9.98 14a.39.39 0 01-.3-.17L.1.97a.73.73 0 010-.83.36.36 0 01.6 0L9.99 12.6 19.25.14a.36.36 0 01.61-.02.73.73 0 01.01.83v.02l-9.58 12.86a.39.39 0 01-.31.17z"></path>
  </symbol>
  <symbol id="up" viewBox="0 0 14 11">
    <path d="M12.67 10.82a1.97 1.97 0 01-.4-.5L6.75 1.36h.46L1.77 10.3a1.75 1.75 0 01-.42.5.97.97 0 01-.6.19.7.7 0 01-.56-.2.63.63 0 01-.18-.42 1.03 1.03 0 01.02-.2.47.47 0 01.1-.2L6 .7A2.89 2.89 0 016.4.17a.82.82 0 01.57-.18.88.88 0 01.56.16 1.95 1.95 0 01.44.55l5.86 9.25a1.28 1.28 0 01.12.24.66.66 0 01.03.22.54.54 0 01-.19.4.7.7 0 01-.5.18.96.96 0 01-.63-.17z"></path>
  </symbol>
  <symbol id="play" viewBox="0 0 84 84">
    <path d="M33.6 60.9L58.8 42 33.6 23.1v37.8zM42 0a42 42 0 1 0 42 42A42 42 0 0 0 42 0zm0 78.72A36.72 36.72 0 1 1 78.72 42 36.77 36.77 0 0 1 42 78.72z"></path>
  </symbol>
  <symbol id="delivery" viewBox="0 0 40 24">
    <path d="M37.09 0H17.73a2.94 2.94 0 00-2.9 2.63L12.8 20.69a2.95 2.95 0 002.9 3.31h19.35a2.94 2.94 0 002.9-2.63L40 3.31A2.95 2.95 0 0037.09 0zm-7.35 2.38l-.6 4.27h-4.37l.6-4.27h4.37zm7.92.66L35.6 21.1a.58.58 0 01-.57.52H15.7a.58.58 0 01-.57-.65L17.16 2.9a.58.58 0 01.57-.52H23l-.73 5.3a1.19 1.19 0 001.16 1.35h6.74a1.18 1.18 0 001.16-1.02l.77-5.63h4.99a.58.58 0 01.57.66zM9.38 15.9h-8.2a1.2 1.2 0 000 2.38h8.2a1.2 1.2 0 000-2.38zm0-5.09H2.5a1.2 1.2 0 000 2.39h6.88a1.2 1.2 0 000-2.38zm0-5.08H3.75a1.2 1.2 0 000 2.38h5.63a1.2 1.2 0 000-2.38z"></path>
  </symbol>
  <symbol id="payment" viewBox="0 0 40 24">
    <path d="M31.41 2H8.6A3.58 3.58 0 005 5.57v12.86A3.58 3.58 0 008.59 22H31.4A3.58 3.58 0 0035 18.43V5.57A3.58 3.58 0 0031.41 2zm1.6 16.43a1.6 1.6 0 01-1.6 1.6H8.6a1.6 1.6 0 01-1.6-1.6V9.8h26.03v8.62zm0-11.44H6.98V5.57a1.6 1.6 0 011.6-1.6h22.83a1.6 1.6 0 011.6 1.6V7zM9.45 18.2h5.43a.35.35 0 00.35-.35v-1.07a.35.35 0 00-.35-.35H9.45a.35.35 0 00-.36.35v1.07a.35.35 0 00.36.35zm15.94-4.94a2.47 2.47 0 011.5.5 2.47 2.47 0 110 3.93 2.47 2.47 0 11-1.5-4.43z"></path>
  </symbol>
  <symbol id="unchecked" viewBox="0 0 24 24">
    <path d="M23.99.01H3.79l-3.8 3.8v20.2h20.2l3.8-3.8V.01zM.95 23.05V4.77h18.27v18.28H.95z"></path>
  </symbol>
  <symbol id="checked" viewBox="0 0 24 24">
    <path d="M23.99 3.81L20.16.01H-.01v20.2l3.83 3.8h20.17V3.81zM.95 19.23V.97h18.27v18.26H.95z"></path>
    <path d="M17.17 3.35a9.04 9.04 0 00-1.94.3 3.57 3.57 0 00-1.25.63 8.7 8.7 0 00-1.24 1.34q-.7.88-2.01 2.86-.95 1.4-2.25 3.48a8.9 8.9 0 01-1.57 2.18 1.39 1.39 0 01-.57-.96q-.15-.42-.24-.67a1.72 1.72 0 00-.3-.53.47.47 0 00-.34-.13 2.24 2.24 0 00-1.3.48 1.3 1.3 0 00-.66 1.03 7.5 7.5 0 00.3 1.38 1.49 1.49 0 00.04.15q.27 1 .47 1.5a3.76 3.76 0 00.42.84 1.61 1.61 0 00.6.51 2.04 2.04 0 002.68-1.14q.2-.43.35-.67a72.8 72.8 0 014.13-6.3q2.25-3.06 4.81-5.93z"></path>
  </symbol>
  <symbol id="toggle" viewBox="0 0 16 10">
    <path d="M15.82.2a.55.55 0 0 0-.9 0l-6.5 8.02a.55.55 0 0 1-.88 0L1.04.2a.55.55 0 0 0-.88 0 .9.9 0 0 0 0 1.1l6.5 8.02a1.64 1.64 0 0 0 2.65 0l6.5-8.03a.9.9 0 0 0 .02-1.1z"></path>
  </symbol>
  <symbol id="writing" viewBox="0 0 27 22">
    <path d="M1.3 16.54a2.32 2.32 0 0 0 .65.2l-.34.5a.8.8 0 0 0-.13.35l-.52 3.5a.8.8 0 0 0 1.16.8l2.94-1.58a2.37 2.37 0 0 0 3.66.63 2.37 2.37 0 0 0 3.96-1.78v-.3a10.87 10.87 0 0 0 4.74 1.1 11 11 0 0 0 4.85-1.12v1.92a.8.8 0 0 0 1.15.7l3.16-1.58a.8.8 0 0 0 .44-.73V9.64a.8.8 0 0 0-.8-.8h-5.45l-5.58-2.73 2.12-3.03a.8.8 0 0 0-.2-1.1L14.5.15a.8.8 0 0 0-1.1.2l-2.8 4a2.35 2.35 0 0 0-1.92-.1l-3 1.3a2.37 2.37 0 0 0-1.07.9L.3 13.27a2.38 2.38 0 0 0 1 3.27zm1.45 3.22L3 18l.72-1a3.2 3.2 0 0 0 1.2 1.04l-.6.87zm4.37.2a.8.8 0 0 1-.8-.8v-.38l.3-.4h1.3v.8a.8.8 0 0 1-.8.78zm3.16 0a.8.8 0 0 1-.8-.8v-.8h1.6v.8a.8.8 0 0 1-.8.8zm15.14-1.3l-1.6.8v-9.02h1.6v8.24zm-5.2-8.3a.8.8 0 0 0 .35.07h1.68v6.65a10.37 10.37 0 0 1-4.85 1.3 10.66 10.66 0 0 1-5.18-1.5.8.8 0 0 0-.35-.08H6.33a1.6 1.6 0 0 1-1.57-1.4.8.8 0 0 0 0-.35 1.6 1.6 0 0 1 1.57-1.43h4.88a6.14 6.14 0 0 0 4.4-1.82.8.8 0 0 0-1.13-1.13 4.57 4.57 0 0 1-3.26 1.35h-.16l3.2-4.6zm-7.8-5.86l1.3.9-4.6 6.63H7.17zm1.82-2.6l1.3.9-.9 1.3-1.3-.9zM1.64 14.08l4.3-6.78A.8.8 0 0 1 6.3 7l2.97-1.3a.8.8 0 0 1 .4 0l-4.6 6.6a3.18 3.18 0 0 0-1.87 2.4.9.9 0 0 1-1.18.42.8.8 0 0 1-.37-1.04z"></path>
  </symbol>
  <symbol id="pencil" viewBox="0 0 16 16">
    <path d="M15.57 2.6L13.4.4a1.5 1.5 0 0 0-2.07.02l-9.78 9.87a.37.37 0 0 0-.1.14L0 15.54a.36.36 0 0 0 .45.45l5.1-1.47a.36.36 0 0 0 .15-.1l9.87-9.77a1.46 1.46 0 0 0 0-2.06zm-5.83.46L11.1 4.4l-7 7-.5-1a.36.36 0 0 0-.33-.2h-.6zM.9 15.1l.48-1.65 1.18 1.18zm4.2-1.2l-1.74.5-1.75-1.75.48-1.74h.96l.62 1.26a.36.36 0 0 0 .17.17l1.25.62v.96zm.73-.6v-.57a.36.36 0 0 0-.2-.33l-1-.5 7-7 1.34 1.35zm9.26-9.15l-1.6 1.6-3.2-3.2 1.6-1.6a.74.74 0 0 1 1.02 0l2.18 2.17a.73.73 0 0 1 0 1.03z"></path>
  </symbol>
  <symbol id="trash" viewBox="0 0 14 16">
    <path d="M9.4 5.8a.4.4 0 0 0-.4.38v7.08a.4.4 0 0 0 .8 0v-7.1a.4.4 0 0 0-.4-.36zm-4.8 0a.4.4 0 0 0-.4.38v7.08a.4.4 0 0 0 .8 0v-7.1a.4.4 0 0 0-.4-.36zM1.13 4.77V14a1.98 1.98 0 0 0 .6 1.43 2.08 2.08 0 0 0 1.45.57h7.66a2.08 2.08 0 0 0 1.45-.58 1.98 1.98 0 0 0 .6-1.42V4.77A1.44 1.44 0 0 0 14 3.2a1.5 1.5 0 0 0-1.52-1.25H10.4v-.47A1.42 1.42 0 0 0 9.94.43 1.66 1.66 0 0 0 8.8 0H5.2a1.66 1.66 0 0 0-1.14.43 1.42 1.42 0 0 0-.46 1.05v.47H1.52A1.5 1.5 0 0 0 0 3.2 1.44 1.44 0 0 0 1.1 4.77zm9.7 10.48H3.18A1.23 1.23 0 0 1 1.93 14V4.8h10.14V14a1.23 1.23 0 0 1-1.24 1.25zM4.43 1.48a.7.7 0 0 1 .22-.52.8.8 0 0 1 .56-.2h3.6a.8.8 0 0 1 .56.2.7.7 0 0 1 .23.52v.47H4.4v-.47zM1.5 2.7h10.96a.7.7 0 0 1 .73.67.7.7 0 0 1-.72.68H1.52a.7.7 0 0 1-.73-.67.7.7 0 0 1 .72-.68zM7 5.8a.4.4 0 0 0-.4.38v7.08a.4.4 0 0 0 .8 0v-7.1A.4.4 0 0 0 7 5.8z"></path>
  </symbol>
</svg>