<?xml version="1.0" encoding="UTF-8"?>
<svg width="119px" height="42px" viewBox="0 0 119 42" version="1.1" xmlns="http://www.w3.org/2000/svg" xmlns:xlink="http://www.w3.org/1999/xlink">
    <title>E0EFC26A-753E-4334-952C-728DE462F86A</title>
    <g id="Home-page" stroke="none" stroke-width="1" fill="none" fill-rule="evenodd">
        <g id="1_Home-page" transform="translate(-499.000000, -1671.000000)" fill="#ffffff" fill-rule="nonzero">
            <g id="Attitude-experience_Mosaic" transform="translate(86.000000, 1451.000000)">
                <g id="Poz" transform="translate(322.000000, 0.000000)">
                    <g id="POZ-logo" transform="translate(91.000000, 220.000000)">
                        <path d="M62.9039841,31.3636364 C58.7413574,32.1818182 52.9147675,31.4481818 50.0762421,24.8345455 C47.5830163,19.0036364 52.9147675,11.6290909 57.9610348,10.8436364 C63.2683159,10.0254545 68.292832,14.3890909 69.4075786,18.9790909 C70.6827398,24.2072727 69.3477629,30.0981818 62.8958274,31.3636364 M80.6338919,21.1527273 C79.6088689,9.93545455 71.0987306,0 59.7990071,0 C48.4503435,0 38.0668873,9.93545455 38.9070256,21.15 C39.7498827,32.2909091 47.1887767,42.6954545 61.7973942,41.9590909 C73.578362,41.3563636 81.6779472,32.2663636 80.6420486,21.15" id="Shape"></path>
                        <path d="M22.2891454,16.5027273 C22.2891454,18.24 21.5061039,22.4181818 15.4402514,22.4181818 C15.1873942,22.4181818 13.781726,22.4781818 12.9143988,22.4181818 C12.4219024,22.3827112 12.0339051,21.9829678 12.011726,21.4881818 C11.9519103,20.16 11.8539502,17.3972727 11.8539502,16.6009091 L11.8539502,12.1336364 C11.8477566,11.6526689 12.2112171,11.2477114 12.6887306,11.2036364 C13.5805279,11.1190909 15.192832,11.1545455 15.5163804,11.1654545 C21.7263343,11.2745455 22.2809887,14.4736364 22.2809887,16.5027273 M34.2441223,16.3445455 C34.4861039,9.15 27.5665186,1.15909091 15.989468,1.15909091 L2.33518224,1.15909091 C1.58212351,1.19523836 0.981405785,1.80254261 0.951265186,2.55818182 L0.796288228,21 L0.181818182,39.4254545 C0.181818182,40.1972727 0.396610809,40.8136364 1.13343109,40.8136364 L11.1933389,40.6936364 C11.9610273,40.6847687 12.5807861,40.0618882 12.5881315,39.2918182 L12.2401131,33.3545455 L12.2401131,33.0409091 C12.1969494,32.5652305 12.5284917,32.1373077 12.9986845,32.0618182 C14.1895601,31.9281818 15.9459656,31.8681818 15.989468,31.8681818 C29.6709426,31.23 34.0157352,22.9854545 34.2441223,16.3445455" id="Shape"></path>
                        <path d="M117.961588,37.8927273 C117.961588,38.6781818 117.986058,40.4509091 117.167671,40.7045455 C116.349284,40.9581818 113.426473,40.9472727 101.196887,41.1027273 C99.4296062,41.1272727 87.3713113,41.2009091 86.4196984,41.1027273 C85.2532928,40.9827273 85.0004357,39.8481818 84.9623712,39.45 C84.9270256,39.0981818 84.9623712,37.5409091 84.9623712,37.5409091 C85.0004357,36.6845455 85.1554127,35.3590909 85.710067,34.44 C85.8786385,34.0527273 92.7791915,24.6490909 94.6987306,21.5945455 C96.3001592,19.0609091 99.5737076,13.9881818 100.952187,11.8663636 C101.085312,11.6764167 101.099002,11.4270126 100.987472,11.2235532 C100.875942,11.0200939 100.658655,10.8980856 100.42744,10.9090909 L87.8525555,11.2963636 C87.0803896,11.2963636 86.6834311,11.0236364 86.5637997,10.1727273 C86.3245371,7.96363636 86.0716799,5.74363636 85.8296984,3.53454545 C85.7525582,3.13309109 85.8344884,2.71728591 86.0580855,2.37545455 C86.3075146,1.99957491 86.7370387,1.78467009 87.1864265,1.81090909 C87.1864265,1.81090909 102.265413,1.30363636 104.78039,1.15909091 C106.863062,1.03909091 115.851726,0.662727273 115.851726,0.662727273 C116.667394,0.662727273 117.235643,1.55727273 117.235643,2.34272727 L117.235643,5.61545455 C117.235643,6.45818182 116.909376,7.07454545 116.237809,8.18454545 C115.346012,9.78 103.888592,26.8227273 101.482371,30.42 C101.394951,30.5455088 101.38643,30.7100027 101.460409,30.8439246 C101.534389,30.9778465 101.677951,31.0578091 101.83039,31.05 L110.087671,30.7472727 L116.574952,30.6272727 C117.355274,30.6272727 117.969744,31.0609091 117.969744,32.6672727 L117.961588,37.8927273 Z" id="Path"></path>
                    </g>
                </g>
            </g>
        </g>
    </g>
</svg>