<svg xmlns="http://www.w3.org/2000/svg" xmlns:xlink="http://www.w3.org/1999/xlink" width="38" height="38" viewBox="0 0 38 38">
    <defs>
        <path id="wco0cir03a" d="M0.791 0L36.791 0 36.791 38 0.791 38z"/>
    </defs>
    <g fill="none" fill-rule="evenodd">
        <g>
            <g>
                <g>
                    <g transform="translate(-167 -1321) translate(0 1215) translate(138 106) translate(29.21)">
                        <mask id="1ouk7ndd2b" fill="#fff">
                            <use xlink:href="#wco0cir03a"/>
                        </mask>
                        <path fill="#EA612A" d="M10.451 19.811c.828-1.016.75-2.476.222-3.652-.528-1.178-1.438-2.163-2.23-3.202C6.074 9.85 4.696 5.69 6.316 2.185 6.73 1.292 7.396.422 8.384.118c.784-.242 1.651-.082 2.42.206 4.804 1.8 6.032 7.49 8.778 11.607.252.378.528.753.911 1.018.737.512 1.748.527 2.643.332 2.37-.514 4.187-2.243 6.29-3.393 2.099-1.146 5.164-1.55 6.669.242 1.144 1.363.78 3.457-.381 4.805-1.164 1.348-2.93 2.096-4.675 2.664-1.137.371-2.317.697-3.287 1.364-.967.667-1.698 1.777-1.495 2.89.113.615.49 1.153.843 1.68 2.369 3.538 4.058 7.475 4.963 11.566.128.585.238 1.22-.033 1.76-.295.592-.983.93-1.662 1.06-3.057.588-5.637-2.11-7.237-4.626-1.603-2.516-3.428-5.466-6.523-5.86-2.09-.266-4.095.774-5.862 1.858-1.764 1.082-3.593 2.287-5.696 2.412-2.105.125-4.474-1.391-4.244-3.36.159-1.36 1.425-2.34 2.593-3.164 2.711-1.915 5.65-3.647 7.052-5.368" mask="url(#1ouk7ndd2b)"/>
                    </g>
                </g>
            </g>
        </g>
    </g>
</svg>
