<svg xmlns="http://www.w3.org/2000/svg" xmlns:xlink="http://www.w3.org/1999/xlink" width="38" height="45" viewBox="0 0 38 45">
    <defs>
        <path id="jl7zktukia" d="M0.621 0L37.621 0 37.621 45 0.621 45z"/>
    </defs>
    <g fill="none" fill-rule="evenodd">
        <g>
            <g>
                <g>
                    <g transform="translate(-168 -1543) translate(0 1215) translate(75 328) translate(93)">
                        <mask id="5u4iie95wb" fill="#fff">
                            <use xlink:href="#jl7zktukia"/>
                        </mask>
                        <path fill="#5C584E" d="M36.65 20.338c-.272-.137-.542-.314-.824-.423-.208-.08-.445-.137-.661-.183-.24-.05-.481.01-.714-.03-.23-.038-.41-.198-.638-.256-.212-.053-.427-.052-.645-.044-.518.015-1.034.032-1.552.032-.531 0-1.063-.005-1.594.001.518-.35 1.047-.694 1.552-1.06.596-.433 1.103-.998 1.614-1.534.54-.568 1.132-1.05 1.698-1.587.414-.393 1.028-.869 1.234-1.428.211-.576-.052-1.145-.54-1.443-.5-.306-1.11-.297-1.668-.258-.253.019-.505.06-.753.117.127-.234.25-.47.366-.717.178-.377.413-.722.595-1.098.112-.234.19-.476.26-.724.14-.167.202-.37.176-.582.055-.165.1-.33.06-.49 0-.004.002-.007.003-.011h-.005c-.003-.01-.004-.023-.006-.034-.11-.308-.544-.383-.812-.443-.805-.178-1.592.366-2.27.749-.349.197-.666.474-.992.71-.356.26-.743.467-1.11.712-.37.251-.701.564-1.059.836-.17.13-.347.253-.523.373-.011.005-.023.009-.035.016-.097.05-.175.13-.27.182-.183.103-.365.183-.544.302-.15.1-.292.204-.445.297-.01-.06-.02-.121-.027-.181.112-.403.183-.805.343-1.193.075-.183.117-.379.189-.562.071-.184.165-.36.24-.543.164-.407.36-.803.54-1.202.093-.206.124-.424.195-.638.066-.2.197-.36.276-.554.076-.187.121-.375.21-.557.082-.17.146-.345.11-.537-.026-.142-.107-.291-.217-.404-.057-.079-.148-.135-.262-.17.022-.263.02-.524-.024-.768-.102-.552-.645-.873-1.145-.638-.431.203-.709.703-.93 1.111-.107.197-.192.428-.319.614-.033.05-.31.313-.403.458-.18.284-.21.62-.404.9-.214.311-.438.584-.542.96-.208.743-.435 1.479-.68 2.21-.03-.495-.06-.99-.07-1.487-.016-.88.15-1.738.27-2.606.124-.877.094-1.758.192-2.636.093-.827.21-1.656.12-2.49-.058-.526-.22-1.254-.8-1.385-.846-.19-.872.881-1.175 1.368-.194.312-.249.65-.323 1.006-.079.385-.235.738-.37 1.106-.323.88-.74 1.671-.974 2.59-.134.518-.292 1.028-.454 1.536-.166-.281-.339-.558-.52-.84-.19-.296-.467-.489-.7-.742-.3-.33-.598-.654-.92-.96-.548-.52-1.141-.952-1.719-1.432-.392-.326-.944-.7-1.46-.45-.598.293-.509 1.09-.364 1.638.09.348.223.694.388 1.011.07.133.171.212.25.33.103.155.109.32.183.499.157.38.375.732.507 1.126.135.406.173.844.21 1.269.078.892.259 1.736.401 2.617.064.385.151.786.17 1.177.009.205-.016.413-.047.616-.013.083-.047.184-.074.286-.253-.28-.52-.548-.792-.807-.289-.276-.61-.522-.888-.809-.28-.288-.514-.62-.85-.84-.335-.219-.535-.478-.81-.77-.31-.328-.645-.63-.95-.962-.287-.314-.541-.657-.807-.99-.246-.312-.548-.568-.794-.88-.44-.56-.77-1.18-1.318-1.646-.43-.365-1.202-.699-1.602-.105-.16.238-.14.49-.15.763-.018.38-.148.734-.139 1.118.013.438.136.868.17 1.307l.004.02c-.028.117-.005.246.026.366-.008.008-.018.014-.024.025-.148.236-.049.422.04.656.135.366.188.761.331 1.127.118.302.258.592.348.904.044.155.103.292.203.386.049.222.244.454.342.607.356.551.728 1.082 1.12 1.606l.009.012c.11.258.235.458.398.713.202.318.314.693.446 1.043.089.237.2.463.312.688-.103.008-.203.016-.302.02-.885.032-1.343-.64-1.949-1.204-.306-.284-.585-.6-.895-.882-.383-.35-.823-.63-1.217-.968-.346-.296-.668-.62-1.016-.913-.332-.278-.686-.473-.982-.792-.45-.486-1.28-.74-1.756-.131-.456.584-.143 1.458.079 2.071.144.396.373.74.544 1.124.179.4.384.76.685 1.074.62.643 1.288 1.217 1.985 1.766.386.305.748.5 1.033.915.263.384.606.613.964.896.104.082.21.16.32.238-.203-.008-.405-.02-.602-.03-.43-.023-.821-.143-1.242-.219-.45-.082-.906-.046-1.358-.039-1.553.026-3.314-.326-4.408 1.111-.198.261-.334.586-.302.923.04.433.286.54.518.838.203.261.235.625.492.863.128.12.285.185.401.323.138.164.224.342.39.488.624.549 1.391 1.04 2.183 1.264.406.114.827.12 1.236.207.436.094.855.183 1.307.137.24-.025.464-.106.709-.114.244-.007.478.019.72-.036.478-.105.902-.106 1.392-.103.558.003 1.12-.018 1.679.002.042 0 .092.003.144.007-.109.082-.218.164-.322.252-.436.359-.852.736-1.315 1.06-.401.278-.725.653-1.131.922-.441.295-.824.604-1.19.999-.739.798-1.52 1.621-2.089 2.56-.258.428-.603.781-.843 1.222-.243.444-.41.919-.51 1.42-.163.83-.52 1.549-.445 2.42.08.948.79 1.38 1.661 1.056.431-.16.847-.368 1.279-.533.495-.19.826-.578 1.236-.903.877-.695 1.79-1.346 2.674-2.03.474-.367.965-.663 1.424-1.055.47-.401.98-.733 1.43-1.163.425-.405.867-.703 1.342-1.036.275-.192.532-.386.8-.559-.112.291-.251.57-.355.868-.144.417-.232.853-.381 1.271-.305.85-.64 1.672-.902 2.54-.121.404-.286.801-.37 1.218-.088.45-.11.91-.21 1.361-.206.922-.463 1.815-.494 2.767-.02.565-.007 1.29.684 1.394.668.099 1.436-.53 1.712-1.113.16-.337.312-.772.39-1.14.088-.412.057-.82.183-1.23.3-.98.827-1.866 1.13-2.848l.141-.462c.014.055.026.108.043.163.314 1.013.68 1.997.845 3.053.163 1.035.353 2.068.55 3.095.157.813.32 1.695.578 2.48.209.64.823 1.094 1.42.602.472-.39.722-1.073.87-1.657.107-.423.242-.785.424-1.176.175-.378.169-.798.302-1.188.126-.375.225-.731.243-1.131.023-.47.154-.874.236-1.333.094-.52.103-1.033.151-1.556.052-.544.252-1.06.26-1.613.008-.438-.09-.853-.17-1.274.092.133.186.266.267.411.416.746.936 1.422 1.341 2.167.394.724.71 1.616 1.281 2.218.241.251.567.44.918.404.328-.034.476-.254.702-.466.22-.204.52-.283.742-.494.266-.252.42-.625.38-1-.047-.44-.305-.896-.438-1.315-.158-.491-.301-.99-.504-1.464-.352-.823-.774-1.606-1.202-2.387-.092-.166-.168-.336-.242-.51.243.186.52.319.74.535.3.293.525.633.847.908.68.578 1.289 1.197 1.998 1.74.618.474 1.242.856 1.788 1.432.48.504 1.091 1.153 1.844.777.59-.295.827-1.205.96-1.807.35-1.574.198-3.622-.827-4.896-.555-.69-.828-1.597-1.404-2.291-.247-.297-.491-.597-.745-.889.044.008.09.02.135.038.226.087.382.2.63.24.411.066.832.004 1.245-.011.424-.017.868.07 1.277-.082.69-.256 1.421-.391 1.67-1.227.105-.355.073-.741-.087-1.073-.073-.154-.184-.273-.268-.416-.127-.217-.18-.47-.316-.684-.082-.13-.207-.287-.34-.423.177-.031.353-.097.516-.158.577-.21 1.3-.447 1.552-1.092.3-.775-.26-1.4-.887-1.711" mask="url(#5u4iie95wb)"/>
                    </g>
                </g>
            </g>
        </g>
    </g>
</svg>
