<?xml version="1.0" encoding="UTF-8"?>
<svg width="34px" height="32px" viewBox="0 0 34 32" version="1.1" xmlns="http://www.w3.org/2000/svg" xmlns:xlink="http://www.w3.org/1999/xlink">
    <title>784ED2FE-D368-4D3C-9493-B68F6844B345@2x</title>
    <g id="Our-hotels" stroke="none" stroke-width="1" fill="none" fill-rule="evenodd">
        <g id="3.11_-Information-&amp;-Services" transform="translate(-700.000000, -1559.000000)" fill="#B75FA0">
            <g id="Contact-info" transform="translate(193.000000, 1437.000000)">
                <g id="Clipart_Email" transform="translate(507.500000, 122.000000)">
                    <path d="M13.9095271,12.5866055 C12.4440754,10.33867 11.1883807,7.94421216 10.1661712,5.44577079 C9.79696092,4.54394973 9.45242792,3.5910822 9.51696854,2.61363673 C9.58056003,1.63619127 10.1661712,0.629441341 11.0849259,0.401622814 C11.759755,0.235249117 12.4810913,0.51789534 13.0116532,0.982040141 C13.542215,1.44618494 13.9133236,2.07197691 14.2569075,2.69682358 C15.6492764,5.24063959 16.7284335,7.96784478 17.4554646,10.794307 C18.7510225,8.23820204 17.5693598,4.75758869 19.2398228,2.44915365 C19.7001493,1.81390862 20.3332168,1.34125608 20.9662844,0.895072073 C21.6838242,0.386497932 22.5095644,-0.124912123 23.3656767,0.0272819967 C24.4258513,0.21539771 25.1006804,1.4008103 25.1225103,2.51627031 C25.1462385,3.62983971 24.6811664,4.6866908 24.2236873,5.69533134 C23.6067549,7.06035189 22.9879243,8.42631775 22.371941,9.79133831 C22.9433153,10.3159826 23.8127154,9.81686155 24.4505286,9.38485712 C25.5258892,8.6569722 26.7236871,8.12382012 27.973687,7.81943188 C29.4476809,7.45927064 31.2709533,7.55191054 32.1232691,8.84981444 C32.9518568,10.1108514 32.3311279,12.0061881 31.0649928,12.7841742 C30.6454788,13.0412972 30.1785084,13.2001085 29.7143855,13.3560838 L23.2052743,15.5558088 C23.487165,16.7138075 24.5634747,17.4539814 25.5970737,17.9842976 C26.6306727,18.5146137 27.7677265,18.9976646 28.4169292,19.9845631 C28.8981365,20.7171746 29.059488,21.6577532 29.6394045,22.3043418 C30.4091462,23.1626789 31.8556154,23.4689577 32.077711,24.6165581 C32.2732312,25.6365423 31.1988197,26.527965 30.1955927,26.5128401 C29.1933149,26.5005511 28.3020849,25.8861028 27.4725481,25.3019043 C25.6350388,24.0068363 23.7747504,22.7439087 21.8945303,21.5140668 C21.7066032,21.3921224 21.4493899,21.2720687 21.2813944,21.4223722 C21.18838,21.5046137 21.1627536,21.638847 21.1485167,21.7645726 C21.0555023,22.6011676 21.2671575,23.4387079 21.3952896,24.2686858 C21.6990102,26.2434282 21.5272183,28.2928496 20.9007946,30.1825145 C20.649276,30.9415945 20.2307111,31.7602287 19.4818501,31.9587428 C18.7481752,32.1534756 17.9784334,31.6326125 17.6073248,30.9482116 C17.2362163,30.2628654 17.1726248,29.4517936 17.1137789,28.6681357 C16.9429361,26.3199979 16.7720933,23.9728053 16.6003014,21.6265581 C16.5756241,21.2758499 16.3839005,20.8013067 16.0640448,20.9128527 C15.9634373,20.9468837 15.8932019,21.0357424 15.8267631,21.1189292 L11.9514786,26.0449141 C11.1788895,27.0270861 10.3237263,28.0669217 9.13636872,28.3722552 C7.9499603,28.6766435 6.43135752,27.7823849 6.57467566,26.5232385 C6.6259285,26.081781 6.86226106,25.6904247 7.09669536,25.3189198 C8.73393898,22.723112 10.5448728,20.247358 12.5124125,17.9115091 C11.2747513,18.0514142 10.03709,18.1922647 8.79942873,18.3321698 C8.194835,18.4002318 7.58834301,18.4701844 6.97995277,18.4446611 C5.09024144,18.3680914 3.32866222,17.38781 1.87460006,16.1343355 C1.155162,15.5123247 0.439520438,14.6851828 0.504061056,13.7152998 C0.56100866,12.8635799 1.23393952,12.1649994 1.99608828,11.844541 C2.75918618,11.5240825 3.6048581,11.5108483 4.42870011,11.5013952 C5.82771292,11.4843797 7.22862398,11.4673642 8.62953504,11.4512941 C9.78936791,11.4371145 10.9966571,11.4333333 12.044493,11.9494698 C12.7126783,12.2793813 13.4131338,12.8257677 14.1287753,12.5090905 C14.1145384,12.5421761 14.0974542,12.5743165 13.9095271,12.5866055" id="Fill-1"></path>
                </g>
            </g>
        </g>
    </g>
</svg>