<?xml version="1.0" encoding="UTF-8"?>
<svg width="28px" height="33px" viewBox="0 0 28 33" version="1.1" xmlns="http://www.w3.org/2000/svg" xmlns:xlink="http://www.w3.org/1999/xlink">
    <title>87BC9574-DB3E-47A2-99F9-DCD3C1F395CB@2x</title>
    <defs>
        <polygon id="path-1" points="0.714285714 0.136363636 26.7142857 0.136363636 26.7142857 31.1363636 0.714285714 31.1363636"></polygon>
    </defs>
    <g id="Our-hotels" stroke="none" stroke-width="1" fill="none" fill-rule="evenodd">
        <g id="3.11_-Information-&amp;-Services" transform="translate(-971.000000, -1558.000000)">
            <g id="Contact-info" transform="translate(193.000000, 1437.000000)">
                <g id="Clipart_address" transform="translate(778.285714, 121.863636)">
                    <mask id="mask-2" fill="white">
                        <use xlink:href="#path-1"></use>
                    </mask>
                    <g id="Clip-2"></g>
                    <path d="M26.0325694,14.1468549 C25.8409207,14.0524796 25.6512014,13.9305782 25.4531216,13.8558644 C25.3071342,13.8008122 25.140567,13.7614891 24.9887916,13.7293753 C24.819652,13.69464 24.6505124,13.7359292 24.4871609,13.7090584 C24.3257387,13.6828431 24.1984016,13.5727386 24.0389088,13.5327602 C23.8897058,13.4960587 23.7385735,13.496714 23.5855118,13.5019571 C23.2215079,13.5124433 22.8587903,13.5242402 22.4947865,13.5242402 C22.121779,13.5242402 21.7481285,13.5209633 21.375121,13.5248956 C21.7391248,13.2843697 22.1108461,13.0471207 22.4652032,12.7947979 C22.884515,12.4965982 23.2401583,12.1073002 23.5996603,11.7376637 C23.979099,11.3463995 24.3951952,11.0141199 24.7926411,10.6444834 C25.0833297,10.3738099 25.5148607,10.0461179 25.6595619,9.66075221 C25.8081218,9.26424496 25.6235474,8.8723254 25.2801233,8.66719025 C24.9296249,8.45615664 24.5000232,8.4620551 24.1083654,8.48892583 C23.9302221,8.50203351 23.7533651,8.5308704 23.5790806,8.56953805 C23.6684738,8.40831362 23.7552945,8.24577842 23.8363271,8.07603399 C23.9610917,7.81584659 24.1263726,7.57859763 24.2543528,7.31906561 C24.3334561,7.15849656 24.388121,6.99137367 24.4376409,6.82097386 C24.5353946,6.7056263 24.5791265,6.56537415 24.5611192,6.41987893 C24.5997062,6.30584214 24.6312189,6.19180534 24.6035649,6.08235623 C24.6035649,6.07907931 24.604208,6.07711316 24.6048512,6.07449163 C24.6035649,6.07449163 24.6029218,6.07514701 24.6016356,6.07514701 C24.5997062,6.0672824 24.5990631,6.05876241 24.5971338,6.05089781 C24.5199598,5.83920882 24.2151227,5.78743349 24.0266896,5.7461443 C23.4613903,5.62358752 22.9083103,5.99781171 22.4317611,6.26193142 C22.1867338,6.39759588 21.9635724,6.58831259 21.734623,6.75150317 C21.4844508,6.93042297 21.2124126,7.07264127 20.955166,7.24173031 C20.6940608,7.41475166 20.4618958,7.63037295 20.2104373,7.81781274 C20.0908177,7.90760033 19.9666962,7.99148947 19.8425748,8.07472322 C19.8348574,8.07800014 19.8264969,8.08062168 19.8181364,8.08520937 C19.749966,8.11994471 19.6953012,8.17565234 19.6290602,8.21104307 C19.4997938,8.28182453 19.3718136,8.33687677 19.246406,8.41879976 C19.1409349,8.48761507 19.0412519,8.55970729 18.9338514,8.62327953 C18.926134,8.58264573 18.9197029,8.54004578 18.9145579,8.49875659 C18.9930181,8.22087383 19.0431812,7.94430183 19.1557266,7.67690521 C19.2084621,7.5510715 19.2380455,7.41606243 19.2882085,7.28957334 C19.3383716,7.16308425 19.4046126,7.04183823 19.456705,6.91600453 C19.5724659,6.63550023 19.7107359,6.36286053 19.8367867,6.08759931 C19.9017415,5.94603639 19.9236075,5.7952981 19.9737705,5.64849211 C20.0200749,5.51086149 20.1120405,5.40010162 20.1673485,5.26640331 C20.2207272,5.13794807 20.252883,5.00818206 20.3146222,4.88300374 C20.3725026,4.76634541 20.4175208,4.64509939 20.3924392,4.51271185 C20.374432,4.41505965 20.3171946,4.31216438 20.2400207,4.23482908 C20.1995044,4.18043222 20.1358358,4.14176457 20.0560894,4.11685998 C20.0715242,3.93597403 20.070238,3.75639885 20.0387253,3.58862058 C19.9673394,3.20784254 19.5859714,2.98697818 19.2341868,3.148858 C18.931279,3.28845476 18.7364147,3.63318668 18.5807806,3.91434637 C18.505536,4.05001083 18.4457261,4.20926911 18.3569761,4.33706897 C18.3338239,4.37114893 18.1383165,4.55269026 18.0733618,4.652964 C17.947311,4.84826839 17.925445,5.0796189 17.7897475,5.27295714 C17.6392583,5.48726767 17.4816948,5.67470746 17.4083795,5.93358409 C17.2623921,6.44609429 17.1028993,6.95270602 16.9311872,7.45604084 C16.9099644,7.11524123 16.8880984,6.77444161 16.8816673,6.43233122 C16.8707343,5.82544575 16.9864952,5.23494488 17.0720297,4.6365794 C17.1588504,4.03297085 17.1376275,3.42608538 17.206441,2.82116606 C17.2713957,2.25098208 17.3543577,1.68014272 17.2900461,1.10537106 C17.2501729,0.743599162 17.1356982,0.241575112 16.7279625,0.15178752 C16.133723,0.0207107449 16.1157157,0.758672992 15.9028442,1.09422954 C15.7665036,1.30854007 15.7279166,1.54120134 15.6758241,1.7869703 C15.6205161,2.05240077 15.5105433,2.29554819 15.415362,2.54852636 C15.1889851,3.15541183 14.8963672,3.70003584 14.7310863,4.33248128 C14.6371913,4.68966549 14.5265753,5.04095125 14.4121006,5.39092624 C14.2956965,5.197588 14.1741475,5.00687129 14.0468105,4.81287766 C13.9136854,4.60839789 13.7188212,4.47601035 13.5548265,4.30167824 C13.3438844,4.07426003 13.1348716,3.85077413 12.9084946,3.63974052 C12.5232679,3.28124554 12.1065286,2.98435664 11.7007222,2.65338778 C11.4254684,2.4292465 11.0370261,2.17168063 10.6743085,2.34404659 C10.2543536,2.54524944 10.317379,3.09380575 10.4189913,3.47196225 C10.4826599,3.71183275 10.5759117,3.94973709 10.6916727,4.16863531 C10.7411926,4.26038905 10.8119354,4.31478591 10.8672434,4.39539813 C10.9399156,4.5022257 10.9437743,4.61560711 10.9958667,4.73947467 C11.1064827,5.00097284 11.2595444,5.24412025 11.3521531,5.51544918 C11.4466912,5.79464271 11.4737021,6.09677468 11.5000699,6.38907589 C11.5547348,7.00382597 11.6814287,7.58515147 11.7817548,8.19203694 C11.8261299,8.45746741 11.887869,8.73403941 11.9007313,9.0027468 C11.9071625,9.14430971 11.8897984,9.28783878 11.8679324,9.42743555 C11.8589288,9.48445395 11.8351335,9.55392464 11.81584,9.6247061 C11.6383399,9.43136785 11.4505499,9.24720498 11.2595444,9.06828518 C11.0563196,8.87822386 10.8305858,8.70913482 10.6350784,8.51120889 C10.4389279,8.31262757 10.2742902,8.08455398 10.0376234,7.93250492 C9.80288591,7.78176663 9.66204343,7.60350222 9.46846542,7.40229936 C9.2510921,7.17619193 9.01571153,6.96843524 8.80155379,6.73905088 C8.59961527,6.5227742 8.42082893,6.286836 8.2343252,6.05679626 C8.06132691,5.84248573 7.84909852,5.66618747 7.67610023,5.45056618 C7.36676128,5.06585584 7.13459629,4.63854555 6.75001273,4.31740745 C6.44774806,4.06574004 5.905601,3.8357003 5.62455917,4.24465984 C5.51137069,4.40916119 5.52616237,4.58283792 5.51844497,4.77027771 C5.50622576,5.03177588 5.41490325,5.27623406 5.42133441,5.54100915 C5.43033804,5.84248573 5.51715874,6.13871925 5.54095405,6.44085122 C5.54159716,6.44609429 5.54288339,6.45002659 5.54352651,6.45461428 C5.52423302,6.53522649 5.54031093,6.6243587 5.56153377,6.70693707 C5.55638884,6.71283552 5.54931456,6.71676783 5.54481274,6.72397705 C5.44127102,6.88651225 5.51072758,7.01496749 5.57246675,7.17619193 C5.66829108,7.42851472 5.70494871,7.70049903 5.80591797,7.95282182 C5.88887998,8.16057851 5.98727677,8.36047059 6.05030217,8.57543651 C6.08117176,8.68226408 6.1223312,8.77663936 6.19307399,8.84086698 C6.22715916,8.9942268 6.36414294,9.15414047 6.43295638,9.25900189 C6.68312863,9.63912454 6.94487697,10.0048287 7.22013076,10.3659453 C7.22206011,10.3692222 7.22463257,10.3711883 7.22656192,10.3738099 C7.304379,10.5514189 7.39184282,10.6897049 7.50631752,10.8653478 C7.64844623,11.084246 7.72690642,11.3424672 7.81951517,11.5836485 C7.88189745,11.7468391 7.95971453,11.9028205 8.03881784,12.0574911 C7.96678881,12.0633895 7.89604601,12.0686326 7.82658945,12.0712541 C7.20469597,12.0935372 6.88313781,11.6301808 6.4573948,11.2421935 C6.24195084,11.0462337 6.04580036,10.8279909 5.82842704,10.6346527 C5.5589613,10.3934714 5.24962235,10.2007885 4.97308233,9.96747186 C4.72998436,9.76364748 4.50360742,9.54016158 4.25922322,9.33830334 C4.02577199,9.14693125 3.77688598,9.01257755 3.5691594,8.79302395 C3.25338929,8.45812279 2.66943967,8.28379068 2.33501918,8.70258098 C2.01474726,9.10498668 2.23469304,9.70728446 2.39032719,10.1293517 C2.49193957,10.4019914 2.65271865,10.6392403 2.7729814,10.90336 C2.89838908,11.1786213 3.04244714,11.4276671 3.25403241,11.6432884 C3.69006527,12.0863279 4.15954019,12.4821798 4.64895171,12.8603363 C4.9203468,13.0700591 5.17437774,13.2050682 5.37503003,13.4908156 C5.55960442,13.7549353 5.80077304,13.9128828 6.05223152,14.1075318 C6.12554678,14.1638948 6.20014827,14.2182917 6.27667912,14.2713778 C6.13455041,14.2661347 5.9924217,14.2576147 5.85415169,14.2510609 C5.55188702,14.2353317 5.27727635,14.1527533 4.98144285,14.1003226 C4.66567273,14.0439596 4.34475769,14.0682088 4.02705823,14.0734519 C2.93568983,14.0911472 1.69833403,13.8486552 0.929810023,14.8389402 C0.790253781,15.0185154 0.695072566,15.2426567 0.717581637,15.4746626 C0.745878755,15.7728623 0.918233929,15.8462653 1.08158547,16.0520558 C1.2243573,16.231631 1.24686637,16.4819876 1.42693894,16.646489 C1.51697522,16.7290673 1.62759123,16.7736334 1.709267,16.8686641 C1.80573445,16.9820455 1.86618739,17.1046023 1.98259144,17.204876 C2.42119677,17.5830325 2.96077136,17.9212106 3.51706698,18.0758812 C3.80261063,18.1545273 4.09780102,18.1578042 4.38527402,18.2180995 C4.6920405,18.2829825 4.98658778,18.3445886 5.30364412,18.3124748 C5.4721406,18.2954348 5.63034721,18.2397272 5.80205927,18.2338287 C5.97377133,18.229241 6.13840911,18.2469364 6.30819182,18.2095795 C6.64389854,18.1368319 6.94230451,18.1361765 7.28637174,18.1381427 C7.6786727,18.1407642 8.07354612,18.1256904 8.46584707,18.1394534 C8.49543042,18.1401088 8.53080182,18.142075 8.56745945,18.1446965 C8.49092861,18.2010595 8.41439777,18.2574225 8.34108251,18.3183732 C8.03495914,18.565453 7.74234121,18.824985 7.41692435,19.0478155 C7.13523941,19.239843 6.90757623,19.4980642 6.62203258,19.6835379 C6.31205051,19.8867069 6.04322789,20.0997066 5.78662448,20.3716909 C5.26698649,20.921558 4.71840827,21.4884651 4.31838992,22.1353289 C4.13703112,22.4302517 3.89457626,22.6733991 3.72543667,22.9768418 C3.55501085,23.2829061 3.43732056,23.6099427 3.367864,23.95533 C3.25274617,24.5268247 3.00128769,25.0222949 3.05466635,25.6219712 C3.11126058,26.2753889 3.60967573,26.5735886 4.22192247,26.3501027 C4.52483026,26.2393428 4.81680507,26.0964691 5.12035597,25.9830877 C5.4682819,25.8520109 5.70109001,25.5846143 5.98920612,25.360473 C6.60531156,24.8820428 7.24649853,24.4337602 7.86839201,23.9625392 C8.20088315,23.709561 8.54623661,23.5057366 8.86908101,23.2357185 C9.1996428,22.9591465 9.55785859,22.7304175 9.87427182,22.434184 C10.1720347,22.1549905 10.4826599,21.9498553 10.8164372,21.720471 C11.0100152,21.5880834 11.1907309,21.4550405 11.379164,21.3357606 C11.3000607,21.5363081 11.202307,21.7283356 11.1296349,21.9334707 C11.0280225,22.2205289 10.9662833,22.5213501 10.8614554,22.8090636 C10.6472976,23.3943214 10.4119171,23.9612284 10.2279858,24.5589385 C10.1424513,24.8368213 10.0266904,25.1107718 9.9681668,25.3978299 C9.90578452,25.7084818 9.89034973,26.0250323 9.81960693,26.3356842 C9.67554887,26.9707512 9.49483319,27.5855013 9.47296723,28.2415405 C9.45946179,28.6308386 9.46846542,29.1302411 9.95401824,29.2016779 C10.4234932,29.2698378 10.9630677,28.8366291 11.1566458,28.4355342 C11.2691911,28.2028729 11.3759484,27.9033625 11.4312564,27.6503843 C11.4929956,27.3659477 11.4711296,27.0854434 11.5592366,26.8029729 C11.7701787,26.1272721 12.1406137,25.5171098 12.3528421,24.8407536 C12.3862842,24.7345814 12.4197262,24.6284092 12.4525251,24.522237 C12.4621719,24.5602493 12.4705324,24.5969508 12.4827516,24.6349631 C12.7033405,25.3322915 12.960587,26.0106138 13.076348,26.7380899 C13.1908227,27.4504922 13.3245909,28.1622391 13.463504,28.8700537 C13.5734769,29.4297515 13.6879516,30.0372924 13.8693104,30.5786394 C14.0159409,31.0190574 14.447472,31.3323309 14.8674269,30.9928421 C15.1986318,30.7241347 15.3742026,30.2542244 15.4783874,29.8518187 C15.553632,29.5601729 15.6481701,29.311127 15.7761503,29.0417643 C15.8996286,28.7809215 15.8951268,28.4918972 15.9883787,28.2231898 C16.0771287,27.9649685 16.1465853,27.7191996 16.1594476,27.4439384 C16.1755255,27.1195233 16.2674912,26.8416406 16.3253716,26.5257455 C16.3909695,26.1679059 16.3974007,25.8139987 16.4314858,25.4535375 C16.4675003,25.0786579 16.6083428,24.7234399 16.6141309,24.3426618 C16.6199189,24.0405299 16.5511055,23.7547825 16.4938681,23.4651028 C16.559466,23.5562012 16.6250638,23.6479549 16.6823012,23.7482287 C16.974276,24.2620496 17.3395661,24.7273722 17.6244666,25.2405378 C17.9010066,25.7399403 18.1235249,26.354035 18.5248295,26.768893 C18.693969,26.9419143 18.9229185,27.0723357 19.1698751,27.0474311 C19.4001108,27.0238373 19.5042956,26.8724436 19.6631453,26.726293 C19.8174933,26.5853855 20.0277923,26.5309886 20.1847127,26.3854934 C20.3712164,26.2124721 20.47926,25.9555616 20.451606,25.6973403 C20.4181639,25.3938976 20.2374482,25.0799687 20.1435532,24.7909444 C20.0329372,24.4527663 19.931968,24.1093452 19.7891961,23.7823086 C19.5422395,23.2154016 19.2457628,22.6760206 18.9447844,22.1379505 C18.8804728,22.0239137 18.826451,21.9066 18.7750017,21.7873201 C18.9454275,21.91512 19.1396487,22.0062183 19.2946397,22.1549905 C19.5055818,22.3568487 19.6637885,22.5914761 19.8901654,22.7808821 C20.3673577,23.1787001 20.7956732,23.605355 21.2940883,23.9795792 C21.7281918,24.3059604 22.1667972,24.5694247 22.5507376,24.9659319 C22.8870875,25.3132854 23.3173323,25.7602572 23.8459739,25.5013805 C24.2607839,25.2982115 24.427351,24.6710092 24.521246,24.2561512 C24.7662733,23.1721462 24.6601592,21.7611048 23.9398689,20.8835457 C23.5494973,20.4083924 23.3578486,19.7838116 22.9533284,19.3053814 C22.779687,19.1009016 22.607975,18.8938003 22.4291886,18.6932528 C22.4607013,18.6984959 22.492214,18.7063605 22.5243699,18.7188128 C22.6832196,18.7791081 22.7925494,18.8570988 22.967477,18.8846249 C23.2562362,18.9298464 23.5520697,18.8872464 23.8421152,18.8767603 C24.1398781,18.8649634 24.4517895,18.9252587 24.7392625,18.8203973 C25.2248153,18.644099 25.7380221,18.5510345 25.9123066,17.9749521 C25.986265,17.7304939 25.9643991,17.464408 25.8518537,17.2356791 C25.8004044,17.1301623 25.7225873,17.0482393 25.6634206,16.9492763 C25.5740274,16.7998488 25.5367267,16.6255167 25.4415455,16.4780553 C25.383665,16.3882677 25.2962012,16.2807848 25.2023062,16.1870649 C25.3264277,16.1654372 25.4505491,16.1202157 25.5650238,16.0782711 C25.9701871,15.9327759 26.4788921,15.7702407 26.6557491,15.3258905 C26.8666913,14.7917526 26.4724609,14.3611654 26.0325694,14.1468549" id="Fill-1" fill="#5C584E" mask="url(#mask-2)"></path>
                </g>
            </g>
        </g>
    </g>
</svg>