<svg xmlns="http://www.w3.org/2000/svg" width="40" height="38" viewBox="0 0 40 38">
    <g fill="none" fill-rule="evenodd">
        <g fill="#B75FA0">
            <g>
                <g>
                    <g>
                        <path d="M16.424 14.947c-1.74-2.67-3.232-5.513-4.445-8.48-.439-1.071-.848-2.203-.771-3.363.075-1.161.77-2.357 1.862-2.627.801-.198 1.658.138 2.288.69.63.55 1.07 1.293 1.478 2.035 1.654 3.021 2.935 6.26 3.799 9.616 1.538-3.035.135-7.168 2.119-9.91.546-.754 1.298-1.315 2.05-1.845.852-.604 1.832-1.211 2.849-1.03 1.259.223 2.06 1.63 2.086 2.955.028 1.322-.524 2.577-1.067 3.775-.733 1.621-1.468 3.243-2.2 4.864.68.623 1.712.03 2.47-.482 1.276-.865 2.699-1.498 4.183-1.86 1.75-.427 3.916-.317 4.928 1.224.984 1.498.246 3.748-1.257 4.672-.498.306-1.053.494-1.604.68l-7.73 2.612c.335 1.375 1.613 2.254 2.84 2.883 1.228.63 2.578 1.204 3.35 2.376.57.87.762 1.987 1.451 2.754.914 1.02 2.632 1.383 2.896 2.746.232 1.211-1.044 2.27-2.235 2.252-1.19-.015-2.249-.744-3.234-1.438-2.182-1.538-4.391-3.038-6.624-4.498-.223-.145-.529-.287-.728-.109-.11.098-.141.257-.158.406-.11.994.141 1.988.293 2.974.36 2.345.157 4.779-.587 7.023-.299.901-.796 1.873-1.685 2.109-.871.231-1.785-.387-2.226-1.2-.44-.814-.516-1.777-.586-2.708l-.61-8.361c-.03-.417-.257-.98-.637-.848-.12.04-.203.146-.281.245l-4.602 5.85c-.918 1.166-1.933 2.4-3.343 2.763-1.41.362-3.213-.7-3.042-2.196.06-.524.341-.989.62-1.43 1.944-3.082 4.094-6.022 6.43-8.796l-4.408.5c-.718.08-1.439.163-2.161.133-2.244-.09-4.336-1.255-6.063-2.743-.854-.74-1.704-1.721-1.627-2.873.067-1.011.867-1.841 1.772-2.222.906-.38 1.91-.396 2.888-.407l4.989-.06c1.377-.016 2.81-.02 4.055.592.794.392 1.625 1.04 2.475.665-.017.039-.037.077-.26.092" transform="translate(-164 -1432) translate(0 1215) translate(97 217) translate(67.5)"/>
                    </g>
                </g>
            </g>
        </g>
    </g>
</svg>
