<?xml version="1.0" encoding="UTF-8"?>
<svg width="32px" height="32px" viewBox="0 0 32 32" version="1.1" xmlns="http://www.w3.org/2000/svg" xmlns:xlink="http://www.w3.org/1999/xlink">
    <title>421C9DCE-85F4-4FFD-A779-3F82DDDC4F12@2x</title>
    <defs>
        <polygon id="path-1" points="0.884615385 0 30.8846154 0 30.8846154 32 0.884615385 32"></polygon>
    </defs>
    <g id="Our-hotels" stroke="none" stroke-width="1" fill="none" fill-rule="evenodd">
        <g id="3.11_-Information-&amp;-Services" transform="translate(-433.000000, -1558.000000)">
            <g id="Contact-info" transform="translate(193.000000, 1437.000000)">
                <g id="Clipart_Phone" transform="translate(240.115385, 121.000000)">
                    <mask id="mask-2" fill="white">
                        <use xlink:href="#path-1"></use>
                    </mask>
                    <g id="Clip-2"></g>
                    <path d="M8.93490534,16.6830228 C9.62436724,15.8276302 9.55961778,14.5980033 9.11956122,13.6072494 C8.67950467,12.6153579 7.92169611,11.7861276 7.26101176,10.9113976 C5.28735213,8.29403275 4.13864865,4.79056299 5.48879491,1.83991347 C5.83412539,1.08803246 6.3892921,0.355488784 7.21185012,0.0995534941 C7.8653401,-0.104057248 8.5883758,0.0301665931 9.22867606,0.272452001 C13.2323513,1.78872641 14.2551531,6.58097254 16.5441666,10.0469051 C16.7540028,10.3654024 16.9842231,10.6816246 17.3031742,10.9045727 C17.9170951,11.3356815 18.7600372,11.3481939 19.5058551,11.1843953 C21.4807138,10.7510115 22.9951318,9.2950241 24.7469646,8.32701996 C26.4963992,7.3612908 29.0504059,7.02118123 30.304627,8.5306307 C31.2578831,9.67835829 30.9545198,11.4414681 29.986875,12.5766833 C29.0168321,13.7118985 27.5455804,14.342068 26.0911155,14.8198139 C25.1438548,15.1326237 24.1606222,15.4067588 23.352453,15.968679 C22.5466818,16.5305991 21.9375572,17.4656161 22.1066253,18.402908 C22.2001523,18.920466 22.5143071,19.3731871 22.8092769,19.8179458 C24.7829365,22.7970325 26.1906379,26.1116789 26.9448492,29.5571367 C27.0515659,30.0496699 27.1426948,30.5842903 26.9172708,31.0392864 C26.6714626,31.5375071 26.0983099,31.8218796 25.5323516,31.9310787 C22.9843403,32.4270244 20.8344182,30.1554565 19.5010588,28.0363123 C18.1653014,25.9171681 16.644888,23.4328895 14.0657009,23.1018799 C12.3246598,22.8777943 10.6531643,23.7536618 9.1807135,24.6659289 C7.71066082,25.5770585 6.18665026,26.5916998 4.43361843,26.6974864 C2.67938755,26.8021355 0.705727918,25.5258715 0.897578185,23.8685483 C1.02947524,22.7219582 2.08465172,21.8972778 3.05829183,21.2034088 C5.31732873,19.5904477 7.76581777,18.1321853 8.93490534,16.6830228" id="Fill-1" fill="#EA612A" mask="url(#mask-2)"></path>
                </g>
            </g>
        </g>
    </g>
</svg>