<svg xmlns="http://www.w3.org/2000/svg" xmlns:xlink="http://www.w3.org/1999/xlink" width="64" height="43" viewBox="0 0 64 43">
    <defs>
        <path id="8qkd3jc84a" d="M0.553 0.319L19.117 0.319 19.117 7.563 0.553 7.563z"/>
        <path id="pvi7jaqdjc" d="M0 0.177L12.854 0.177 12.854 5.999 0 5.999z"/>
    </defs>
    <g fill="none" fill-rule="evenodd">
        <g>
            <g>
                <g>
                    <path fill="#DF6331" d="M27.097 32c-1.446-.178-1.352-.574-1.823-1.273-.428-.637-1.151-1.183-1.69-1.79-.51-.577-.922-1.193-1.428-1.77-2.054-2.35-3.408-4.884-4.412-7.512-.052-.136-.11-.284-.233-.391-1.978-1.722-1.553-3.685-1.252-5.634.05-.317.2-.627.236-.944.2-1.755 2.679-3.174 5.814-2.526 2.552.527 4.91 1.244 7.047 2.165 2.776-.879 5.522-1.568 8.512-1.594 3.07-.027 5.612 1.225 6 3.211.217 1.1.267 2.332-.66 3.417-.923 1.077-1.833 2.128-3.195 3.02-1.312.86-2.467 1.866-3.449 2.912-1.742 1.854-3.272 3.8-4.953 5.682-.865.967-1.755 1.938-3.178 2.611-.32.152-.879.416-1.336.416" transform="translate(-688 -960) translate(457 960) translate(231)"/>
                    <g transform="translate(-688 -960) translate(457 960) translate(231) translate(44 19)">
                        <mask id="59afyeb37b" fill="#fff">
                            <use xlink:href="#8qkd3jc84a"/>
                        </mask>
                        <path fill="#DF6331" d="M2.533 2.788c.959-.197 1.611-.308 2.242-.465 2.216-.55 3.65.126 3.84 1.825.017.149.068.295.147.63.517-.217.928-.397 1.35-.561.918-.357 1.82-.738 2.932-.39 1.204.376 1.483.69 1.366 1.663-.017.144-.032.288-.06.52 1.57.076 3.264-1.032 4.715.36.493 1-2.614.784-3.91 1.095-1.286.307-2.257-.123-2.555-1.07-.116-.365-.143-.745-.243-1.3-.596.227-1.11.435-1.64.621-1.89.666-3.42.137-3.9-1.357-.117-.363-.167-.737-.256-1.147-1.618.289-3.174 1.137-4.779.179C.462 2.603.248.599.936.319c.54.12.684.185 1.078.31.526.167.806.397.55.892-.163.314-.03.71-.03 1.267" mask="url(#59afyeb37b)"/>
                    </g>
                    <path fill="#DF6331" d="M51.276 31.073c-.591.136-.938.22-1.29.297-1.567.342-2.914-.41-2.715-1.535.076-.426.264-.842.453-1.423-.727.056-1.29.077-1.841.147-.786.101-1.558.259-2.345.355-1.5.183-2.611-.49-2.534-1.53.03-.402.103-.803.2-1.198.097-.393-.53-.95.378-1.186 2.318.18 1.56 1.625 1.312 2.83.837-.13 1.536-.224 2.225-.348.958-.174 1.871-.182 2.8.129 1.732.578 2.005.894 1.706 2.28 1.253.22 2.692.23 3.501 1.088.88.933-.22 1.742-.459 2.679 1.05.524 3.603.381 3.31 1.01-.281.548-3.044.338-3.938-.055-.919-.403-1.434-.976-1.231-1.762.136-.532.28-1.065.468-1.778M37.357 35.843c.265 1.371-1.68 1.015-2.333 3.747 1.335.982 3.592 2.481 2.818 3.218-.947.608-1.869-.352-2.216-1.148-.233-.532-.911-1.017-1.53-1.434-1.31-.88-1.439-1.374-.423-2.381.53-.527 1.043-1.06 1.56-1.592.028-.027.027-.067.038-.1-.034-.062-.04-.155-.106-.178-2.088-.736-2.374-1.144-1.732-2.6.203-.463.432-1.76.69-2.224 1.05-.576 2.1.576 1.065 2.177-.285.443-.423.925-.687 1.516 1.73.05 1.797-.141 2.856.999M11.041 23c.67 0 4.287.743 4.959 2.373-.605.798-2.613-1.056-3.829-.937-.892 1.059-.157 2.612.275 3.779-1.287.375-1.965-.43-2.931-.626-1.013-.204-2.524-.538-3.497-.802-.64.595-.344.853-.362 2.11-.303.45-3.295-.66-3.656-1.662.36-.572 1.992.325 2.344.308.125-.26.023-.883.167-1.148.143-.262.578-.623.795-.98 1.016 0 2.487.33 2.638.485.903.167.989.394 1.915.508L11.04 23M59.177 12.25c1.703.202 1.29-1.44 2.262-1.232.885.962.722 1.66-.48 2.268-.97.49-1.845.246-3.579-1.009-1.593.555-1.704 1.894-2.925 2.723-1.638-.231-2.033-1.502-3.459-2.107-.474.398-.918.788-1.39 1.16-1.091.863-1.829.917-3.049.15-.526-.33-1.557-.886-1.557-1.338.798-.701 1.99.254 2.566.88.583-.447 1.124-.836 1.625-1.25.971-.8 2.254-.776 3.11.071.325.322.654.641 1.049 1.029.642-.565 1.125-1.081 1.736-1.509 1.583-1.108 2.37-1.082 4.09.164M41.1 7.862c.355-.282 1.547.122 2.524.199.066-.391.133-.738.182-1.087.166-1.188 1.131-1.766 2.767-1.617.543.05 1.073.172 1.694.276.283-.536.576-1.038.818-1.553.558-1.18.665-1.231 2.245-.912.238.047.67.255.67.564l-1.185 3.226c-.593-.061-1.134-.095-1.66-.18-.393-.063-.758-.21-1.15-.289-1.462-.294-1.553-.25-1.741.799-.312 1.73-.676 1.914-3.082 1.566-.55-.079-1.106-.14-1.65-.238-.472-.085-.668-.307-.432-.754M33.739 4.425l-4.033.569c.593.684.982 1.213 1.477 1.69 1.022.986.68 1.682-1.015 1.973-.451.078-.896.17-1.342.261-1.04.216-2.265.027-1.67-.834l2.071-.354c-.373-.769-.781-1.5-1.08-2.254-.35-.88-.222-1.047 1.06-1.344.877-.204 1.802-.31 2.887-.488 0-.325.064-.696-.014-1.052-.206-.93.06-2.36.986-2.592.743 0 .595.41.715.612.33.56.265 2.845-.042 3.813" transform="translate(-688 -960) translate(457 960) translate(231)"/>
                    <g transform="translate(-688 -960) translate(457 960) translate(231) translate(0 14)">
                        <mask id="10sp3vrzvd" fill="#fff">
                            <use xlink:href="#pvi7jaqdjc"/>
                        </mask>
                        <path fill="#DF6331" d="M8.142 5.747C7.674 6.773 1.513 4.446.065 2.789c-.04-.242-.124-.43 0-.548.125-.12.34-.276.725-.141 1.675.757 2.768 2.436 5.087 2.131.368-1.19.967-3.016 2.123-4.043.817-.214 4.854 2.665 4.854 3.93-.607.695-2.807-1.287-3.963-2.045-2.646 1.821-.646 3.353-.749 3.674" mask="url(#10sp3vrzvd)"/>
                    </g>
                    <path fill="#DF6331" d="M14.833 8c-1.053-.008-1.462-.527-1.984-.908-1.547-.598-2.118-1.077-2.965-1.663-.408-.015-.82-.057-1.226-.04-1.15.043-2.27-.56-3.05-1.025-.582-.346-.918-.908-.203-1.351.647-.134 1.685.833 2.348.932.644.096 1.973.173 2.57.316 1.454.349 2.553.59 3.43 1.701.45.572 1.252 1.004 1.247 1.593-.001.1-.008.198-.026.297-.005.03-.052.057-.141.148M21.754 35.504c-.471.05-.695.089-.92.094-1.189.027-1.862-.512-1.833-1.493.022-.752.224-1.82.97-2.068 1.222-.34-.258 1.763-.098 2.752.509-.019 1.01-.051 1.51-.051 1.345 0 1.953.659 1.431 1.67-.361.703-.872 1.363-1.403 1.993-.517.616-1.003.73-1.387.464-.424-.295-.397-.67.123-1.229.229-.247.51-.46.739-.708.17-.184.306-.393.434-.6.125-.202.222-.417.434-.824" transform="translate(-688 -960) translate(457 960) translate(231)"/>
                </g>
            </g>
        </g>
    </g>
</svg>
