<svg xmlns="http://www.w3.org/2000/svg" xmlns:xlink="http://www.w3.org/1999/xlink" width="64" height="62" viewBox="0 0 64 62">
    <defs>
        <path id="4xr1jwn4ra" d="M0.553 0.438L19.117 0.438 19.117 10.399 0.553 10.399z"/>
        <path id="y3mbw0jhcc" d="M0 0.236L12.854 0.236 12.854 7.999 0 7.999z"/>
    </defs>
    <g fill="none" fill-rule="evenodd">
        <g>
            <g>
                <g>
                    <path fill="#DF6331" d="M27.292 46.7c-1.42-.262-1.329-.842-1.79-1.866-.421-.935-1.132-1.734-1.66-2.625-.503-.844-.907-1.747-1.404-2.595-2.018-3.443-3.348-7.157-4.334-11.009-.051-.198-.109-.416-.23-.573-1.942-2.524-1.525-5.4-1.229-8.257.049-.465.196-.92.231-1.384.197-2.573 2.632-4.652 5.712-3.702 2.507.772 4.824 1.824 6.923 3.173 2.727-1.288 5.425-2.299 8.362-2.336 3.016-.039 5.513 1.796 5.895 4.707.212 1.61.261 3.418-.65 5.007-.906 1.579-1.8 3.119-3.138 4.426-1.29 1.262-2.423 2.736-3.388 4.268-1.712 2.719-3.215 5.57-4.866 8.328-.85 1.419-1.723 2.842-3.122 3.828-.314.222-.863.61-1.312.61" transform="translate(-156 -805) translate(24 805) translate(132)"/>
                    <g transform="translate(-156 -805) translate(24 805) translate(132) translate(43.778 27.731)">
                        <mask id="w762y3l3sb" fill="#fff">
                            <use xlink:href="#4xr1jwn4ra"/>
                        </mask>
                        <path fill="#DF6331" d="M2.533 3.833c.959-.27 1.611-.422 2.242-.639 2.216-.756 3.65.173 3.84 2.51.017.204.068.405.147.865.517-.297.928-.546 1.35-.77.918-.491 1.82-1.015 2.932-.536 1.204.517 1.483.947 1.366 2.286-.017.198-.032.395-.06.716 1.57.103 3.264-1.42 4.715.494.493 1.375-2.614 1.078-3.91 1.505-1.286.423-2.257-.17-2.555-1.47-.116-.503-.143-1.025-.243-1.787-.596.31-1.11.596-1.64.853-1.89.916-3.42.188-3.9-1.866-.117-.5-.167-1.014-.256-1.578-1.618.397-3.174 1.564-4.779.246C.462 3.578.248.823.936.438c.54.165.684.254 1.078.428.526.229.806.545.55 1.225-.163.432-.03.977-.03 1.742" mask="url(#w762y3l3sb)"/>
                    </g>
                    <path fill="#DF6331" d="M51.23 45.184c-.577.195-.917.315-1.26.425-1.53.488-2.846-.586-2.652-2.195.074-.608.258-1.202.443-2.032-.71.08-1.26.11-1.799.21-.767.145-1.52.37-2.29.506-1.465.263-2.55-.7-2.475-2.186.03-.573.101-1.146.196-1.712.094-.561-.519-1.356.369-1.694 2.264.256 1.523 2.322 1.281 4.045.818-.186 1.5-.321 2.173-.499.937-.248 1.828-.26 2.735.184 1.692.826 1.959 1.279 1.667 3.26 1.223.312 2.629.326 3.419 1.554.858 1.333-.215 2.488-.448 3.827 1.024.75 3.518.545 3.232 1.443-.274.783-2.973.484-3.846-.078-.897-.576-1.4-1.394-1.202-2.517.132-.761.273-1.522.457-2.541M37.69 51.055c.257 2.042-1.634 1.512-2.269 5.578 1.299 1.46 3.493 3.693 2.74 4.79-.92.904-1.817-.525-2.155-1.71-.226-.791-.886-1.513-1.488-2.133-1.274-1.311-1.399-2.045-.41-3.545.515-.783 1.013-1.577 1.517-2.369.026-.04.025-.1.036-.15-.032-.09-.039-.23-.103-.264-2.03-1.096-2.308-1.703-1.685-3.87.198-.689.42-2.617.672-3.31 1.02-.857 2.042.858 1.036 3.24-.278.66-.412 1.377-.669 2.257 1.682.075 1.748-.21 2.777 1.486M11.063 32.788c.654 0 4.182 1.085 4.838 3.463-.59 1.165-2.55-1.54-3.735-1.367-.87 1.544-.153 3.81.268 5.514-1.256.547-1.917-.628-2.86-.913-.988-.298-2.462-.786-3.411-1.17-.624.867-.336 1.243-.354 3.077-.296.658-3.214-.961-3.567-2.424.351-.835 1.944.474 2.287.45.122-.38.023-1.29.164-1.676.139-.382.564-.908.775-1.429.99 0 2.426.48 2.573.707.881.243.965.575 1.868.74l1.154-4.972M59.528 17.772c1.684.287 1.275-2.04 2.236-1.746.875 1.363.714 2.353-.473 3.214-.959.694-1.824.35-3.538-1.43-1.575.787-1.684 2.685-2.89 3.86-1.62-.328-2.01-2.129-3.42-2.986-.468.563-.907 1.116-1.373 1.644-1.079 1.222-1.807 1.3-3.014.213-.52-.469-1.538-1.257-1.538-1.897.788-.994 1.967.36 2.536 1.247.576-.633 1.11-1.186 1.606-1.772.96-1.133 2.227-1.1 3.073.1.322.457.647.91 1.037 1.459.635-.8 1.112-1.533 1.716-2.138 1.564-1.57 2.342-1.534 4.042.232M40.512 11.351c.363-.398 1.58.173 2.578.282.068-.554.136-1.044.186-1.537.17-1.681 1.155-2.499 2.826-2.288.555.07 1.096.244 1.73.39.29-.757.589-1.468.836-2.196.57-1.669.679-1.741 2.293-1.29.243.067.685.36.685.799l-1.211 4.562c-.605-.087-1.158-.134-1.695-.255-.402-.088-.775-.297-1.174-.408-1.495-.417-1.587-.354-1.78 1.13-.318 2.446-.69 2.707-3.148 2.215-.56-.111-1.13-.2-1.684-.337-.482-.12-.683-.434-.442-1.067M34.23 6.412l-4.046.824c.595.99.985 1.757 1.482 2.45 1.025 1.426.682 2.435-1.018 2.857-.452.113-.899.245-1.346.379-1.044.312-2.272.039-1.675-1.208l2.077-.514c-.374-1.114-.783-2.175-1.083-3.266-.351-1.275-.222-1.517 1.063-1.947.88-.295 1.807-.448 2.896-.708 0-.47.064-1.008-.015-1.524-.206-1.347.06-3.42.99-3.755.745 0 .597.595.716.887.331.81.266 4.122-.041 5.525" transform="translate(-156 -805) translate(24 805) translate(132)"/>
                    <g transform="translate(-156 -805) translate(24 805) translate(132) translate(0 19.89)">
                        <mask id="p8cca308ad" fill="#fff">
                            <use xlink:href="#y3mbw0jhcc"/>
                        </mask>
                        <path fill="#DF6331" d="M8.142 7.662C7.674 9.032 1.513 5.928.065 3.72c-.04-.323-.124-.575 0-.732.125-.16.34-.368.725-.187C2.465 3.81 3.558 6.048 5.877 5.64c.368-1.587.967-4.02 2.123-5.39.817-.286 4.854 3.553 4.854 5.24-.607.927-2.807-1.716-3.963-2.726-2.646 2.428-.646 4.47-.749 4.897" mask="url(#p8cca308ad)"/>
                    </g>
                    <path fill="#DF6331" d="M15.206 12.492c-1.053-.012-1.461-.81-1.983-1.395-1.547-.92-2.119-1.655-2.965-2.555-.408-.024-.82-.088-1.226-.064-1.15.068-2.27-.86-3.049-1.573-.582-.533-.919-1.396-.203-2.077.647-.205 1.684 1.281 2.347 1.433.644.147 1.973.266 2.569.486 1.454.536 2.553.905 3.43 2.613.45.88 1.252 1.542 1.247 2.449-.001.152-.008.304-.025.455-.006.047-.053.089-.142.228M22.105 51.81c-.516.067-.76.12-1.007.126-1.3.036-2.036-.687-2.003-2.004.024-1.01.245-2.443 1.06-2.776 1.336-.457-.282 2.366-.107 3.694.556-.025 1.103-.069 1.65-.069 1.471 0 2.136.885 1.565 2.243-.395.943-.953 1.829-1.533 2.675-.566.826-1.097.98-1.517.622-.464-.396-.434-.899.135-1.65.25-.33.557-.618.807-.95.187-.247.335-.527.475-.804.136-.273.243-.561.475-1.107" transform="translate(-156 -805) translate(24 805) translate(132)"/>
                </g>
            </g>
        </g>
    </g>
</svg>
