<svg xmlns="http://www.w3.org/2000/svg" xmlns:xlink="http://www.w3.org/1999/xlink" width="222" height="128" viewBox="0 0 222 128">
    <defs>
        <path id="p37khvwowa" d="M0 0L113 0 113 93 0 93z"/>
        <path id="parm8mreoc" d="M0 0L85 0 85 70 0 70z"/>
    </defs>
    <g fill="none" fill-rule="evenodd" opacity=".3">
        <g>
            <g>
                <g>
                    <g transform="translate(-1137 -848) translate(0 705) translate(1137 143) translate(109)">
                        <mask id="qf1dm7ph8b" fill="#fff">
                            <use xlink:href="#p37khvwowa"/>
                        </mask>
                        <path fill="#153F58" d="M58.425 38.033c2.913-1.871 5.27-3.468 7.715-4.922 1.13-.671 1.976-1.248 1.91-2.783-.07-1.63-.943-2.324-2.29-2.864-3.443-1.38-6.685-3.118-9.628-5.396-.864-.668-1.88-1.146-2.709-1.64-3.17 1.977-2.856 3.387-1.877 5.56.82 1.822 1.936 3.551 3.16 5.142 1.544 2.017 3.525 3.733 3.72 6.903m20.346-10.367c.377-2.586-.414-4.396-1.673-6.112-1.026-1.4-1.958-2.87-2.85-4.36-1.622-2.703-5.095-4.496-8.08-3.864-.762.16-1.86.984-1.957 1.63-.355 2.352-1.92 3.645-3.829 4.706 1.715 2.484 4.164 3.424 6.551 4.279 2.94 1.053 5.436 2.41 6.317 6.128l5.521-2.407M62.205 70.364c2.475 1.827 4.813 2.271 7.141 1.792 4.855-1 9.576-2.498 13.918-4.947 7.077-3.991 12.748-9.65 18.28-15.441 2.776-2.908 2.47-4.094-1.175-5.985-.092-.048-.173-.111-.263-.162-2.964-1.731-6.091-1.306-9.176-.528-.65.166-1.51.993-1.602 1.613-.432 2.924-2.54 4.543-4.469 6.408-2.2 2.126-4.128 4.525-6.287 6.698-1.58 1.589-3.172 3.27-5.057 4.427-3.484 2.137-7.186 3.919-11.31 6.125M29.887 14.325c2.313 2.541 3.375 5.602 4.054 8.843.232 1.098.56 2.197 1.013 3.222.94 2.12 1.409 4.316 1.03 6.594-.316 1.898-.748 3.797-1.352 5.623-1.712 5.172-1.728 10.09 1.958 14.496 1.312 1.566 2.731 3.058 4.228 4.444.403.373 1.446.545 1.905.293 4.237-2.327 8.733-4.47 9.251-10.162.054-.6.197-1.254.504-1.762 1.228-2.036 1.138-4.817 3.536-6.187-.112-.906-.21-1.808-.338-2.705-.111-.761-.015-1.918-.45-2.179-.624-.375-1.645-.095-2.622-.095-.25-.331-.479-.839-.872-1.122-2.116-1.53-3.179-3.588-3.672-6.123-.302-1.553-.971-3.088-1.745-4.483-.598-1.076-1.612-1.922-2.478-2.913 1.377-1.464 2.29-2.546 1.474-4.52-1.648-3.991-5.478-6.713-9.855-6.354-1.671.137-3.217.58-3.844 2.52-.267.828-.992 1.51-1.725 2.57m15.439 47.988c3.876 1.72 7.492 3.455 11.229 4.888.998.382 2.57.191 3.52-.351 5.275-3.011 11.474-4.647 15.289-9.891.228-.315.701-.443.992-.727 3.032-2.958 6.983-5.19 7.675-9.984.136-.937.944-1.795 1.501-2.653 2.966-4.539 6.571-8.523 11.01-12.094-3.135-3.244-6.89-3.99-10.863-3.121-2.886.632-5.73 1.747-8.386 3.056-4.702 2.321-9.206 5.03-13.868 7.431-3.206 1.652-4.56 4.434-4.953 7.688-.554 4.582-3.206 7.539-6.843 9.997-2.246 1.52-4.766 2.825-6.303 5.761M35.12 61.16c-.867-1.454-1.56-2.54-2.178-3.666-1.471-2.674-3.422-5.227-3.342-8.436.07-2.75.534-5.49.812-8.236.314-3.132 1.867-6.134 1.1-9.372-.66-2.79-1.386-5.564-2.166-8.323-.303-1.078-.725-2.156-1.28-3.125-1.934-3.373-3.72-6.864-6.017-9.979-1.543-2.092-3.85-3.627-5.815-5.41-1.931.651-3.862 1.298-5.79 1.955-.388.133-.8.254-1.14.472-2.078 1.325-3.803 2.85-3.18 5.688.082.376.114.984-.102 1.169-1.51 1.284-.744 2.786-.607 4.28.118 1.31.026 2.65-.109 3.964-.334 3.22-1.631 6.317-1.2 9.649.194 1.5.357 3.04.235 4.537-.152 1.853.56 3.033 1.99 4.153 2.664 2.085 5.597 4.041 7.635 6.652 1.96 2.513 3.64 4.719 6.863 5.918 2.162.803 3.949 2.926 5.572 4.75 2.27 2.549 5.089 3.185 8.72 3.36M27.363 8.605c3.964-2.93 8.326-4.525 13.467-2.848 4.981 1.626 7.509 5.394 8.877 9.75l7.87.826c.363-.698.77-1.502 1.196-2.295 2.13-3.994 7.696-6.355 11.634-4.444 1.573.763 3.209 1.406 4.75 2.227.804.426 1.544 1.047 2.176 1.709 1.393 1.455 5.412 8.843 6.099 11.07 2.094-.142 4.216-.426 6.336-.395 4.219.062 7.65 1.61 10.406 5.028 2.188 2.714 2.271 5.731-.032 9.336-.52.814-1.179 1.542-1.45 2.729.571-.144 1.201-.179 1.703-.45 1.418-.761 2.835-.659 4.16.038 2.2 1.158 4.13.926 5.974-.932.952.905 2.615 1.152 2.46 2.877-.188 2.092.042 4.353-1.88 5.918-.476.39-.911.846-1.438 1.156-5.424 3.18-8.896 8.41-13.374 12.578-5.115 4.764-10.672 8.686-17.637 10.29-.801.183-1.659.359-2.346.776-3.416 2.068-7.286 2.147-11.052 2.305-1.753.073-3.568-.83-5.32-1.398-1.044-.339-2.02-.89-3.242-1.442-.546 2.954 1.22 4.238 2.947 5.48 1.75 1.256 3.573 2.413 5.445 3.669v3.488c-3.085-1.497-6-2.707-8.7-4.28-2.453-1.428-3.581-3.892-3.936-6.654-.178-1.396-.688-2.343-2.709-2.25.101 3.34.147 6.657 1.405 9.796.352.879 1.247 1.618 2.042 2.234 1.614 1.249 3.396 2.283 4.986 3.559 2.84 2.278 2.782 2.777-.274 4.944-1.637-1.484-3.288-2.986-4.949-4.481-.303-.275-.594-.656-.958-.759-4.231-1.22-4.806-4.724-5.062-8.248-.264-3.604-1.646-6.84-2.83-10.305-1.725 2.731-3.165 5.481-3.572 8.599-.121.926.382 1.985.777 2.905.274.639.845 1.156 1.304 1.708 2.941 3.542 2.354 5.514-1.009 7.658-.257-.784-.662-1.519-.707-2.274-.085-1.467-.811-2.451-1.892-3.342-1.45-1.194-2.095-2.617-1.58-4.607.686-2.654 1.134-5.376 1.59-8.086.2-1.197.274-2.44.206-3.652-.067-1.162-.593-2.134-1.924-2.384-2.261 5.284-4.094 10.546-4.362 16.243-.09 1.892-1.042 3.437-2.641 4.678-1.244-.884-.862-1.947-.679-3.043.828-4.918 1.598-9.844 2.484-15.35-3.077 1.748-6.137 2.743-8.295 5.58.812.523 1.47.95 2.443 1.576-1.263 1.285-2.54 2.35-3.521 3.639-1.34 1.76-2.488 3.672-3.657 5.555-1.55 2.497-3.934 3.93-6.852 5.883.11-1.353-.066-2.14.248-2.588 1.459-2.084 3.074-4.057 4.597-6.097 4.094-5.49 8.171-10.992 12.37-16.64-.631-.468-1.051-.88-1.554-1.132-2.645-1.338-5.34-2.584-7.962-3.965-2.726-1.434-4.834-3.662-6.229-6.286-1.978-3.723-4.833-6.596-7.892-9.346-1.125-1.01-1.633-2.082-1.772-3.679-.332-3.857-1.11-7.672-1.628-11.515-.247-1.823-.213-3.684-.473-5.506-.327-2.327-.448-4.788-1.351-6.9-.912-2.14-.66-3.963.208-5.801 1.572-3.318 3.801-6.12 7.233-7.746 2.048-.97 4.122-1.89 6.218-2.753 2.428-.999 4.713-.617 6.579 1.208 2.175 2.127 4.212 4.394 6.55 6.858" mask="url(#qf1dm7ph8b)"/>
                    </g>
                    <g transform="translate(-1137 -848) translate(0 705) translate(1137 143) translate(0 58)">
                        <mask id="8j54llgdkd" fill="#fff">
                            <use xlink:href="#parm8mreoc"/>
                        </mask>
                        <path fill="#153F58" d="M43.948 28.627c2.191-1.408 3.964-2.61 5.803-3.705.85-.505 1.486-.94 1.437-2.095-.052-1.226-.71-1.748-1.722-2.155-2.59-1.038-5.029-2.347-7.243-4.062-.65-.503-1.413-.862-2.037-1.233-2.385 1.487-2.149 2.548-1.413 4.183.617 1.372 1.457 2.674 2.377 3.871 1.162 1.518 2.652 2.81 2.798 5.196m15.305-7.803c.284-1.947-.311-3.31-1.259-4.6-.77-1.054-1.472-2.161-2.143-3.282-1.22-2.035-3.832-3.384-6.078-2.909-.573.121-1.398.741-1.472 1.227-.267 1.77-1.444 2.744-2.88 3.542 1.29 1.87 3.132 2.578 4.928 3.22 2.21.793 4.088 1.816 4.751 4.613l4.153-1.811M46.792 52.962c1.86 1.375 3.62 1.71 5.37 1.349 3.653-.752 7.204-1.88 10.47-3.724 5.324-3.004 9.59-7.263 13.75-11.622 2.088-2.189 1.858-3.081-.884-4.505-.068-.036-.13-.083-.197-.122-2.23-1.303-4.582-.983-6.902-.397-.49.125-1.136.748-1.205 1.214-.325 2.201-1.912 3.42-3.362 4.823-1.655 1.6-3.105 3.406-4.729 5.041-1.188 1.197-2.386 2.462-3.804 3.333-2.62 1.608-5.406 2.95-8.507 4.61m-24.31-42.18c1.739 1.913 2.538 4.217 3.05 6.657.173.826.42 1.653.761 2.424.707 1.597 1.06 3.249.774 4.963-.237 1.43-.562 2.859-1.016 4.233-1.288 3.893-1.3 7.594 1.472 10.91.987 1.18 2.055 2.303 3.181 3.346.303.28 1.087.41 1.433.22 3.187-1.751 6.569-3.364 6.959-7.648.04-.452.148-.944.379-1.326.923-1.533.856-3.626 2.66-4.658-.085-.682-.158-1.36-.255-2.035-.083-.573-.01-1.444-.338-1.64-.47-.283-1.238-.072-1.973-.072-.187-.25-.36-.632-.656-.845-1.59-1.151-2.39-2.7-2.762-4.608-.227-1.17-.73-2.324-1.312-3.374-.45-.81-1.213-1.447-1.864-2.193 1.036-1.102 1.722-1.917 1.108-3.403-1.24-3.003-4.12-5.052-7.413-4.782-1.256.103-2.42.437-2.89 1.897-.202.623-.747 1.137-1.299 1.934m11.613 36.12c2.916 1.294 5.637 2.601 8.447 3.68.75.287 1.933.144 2.648-.265 3.968-2.266 8.63-3.498 11.5-7.445.172-.237.528-.333.747-.546 2.28-2.227 5.253-3.908 5.773-7.515.103-.706.71-1.352 1.13-1.997 2.23-3.417 4.942-6.416 8.28-9.103-2.357-2.442-5.182-3.004-8.17-2.35-2.171.476-4.31 1.315-6.308 2.3-3.537 1.748-6.925 3.787-10.432 5.594-2.412 1.243-3.43 3.337-3.726 5.786-.416 3.45-2.411 5.675-5.147 7.525-1.69 1.145-3.585 2.126-4.742 4.337m-7.676-.87c-.653-1.094-1.173-1.91-1.639-2.758-1.106-2.013-2.574-3.935-2.513-6.35.052-2.07.402-4.133.61-6.2.236-2.357 1.404-4.616.828-7.054-.496-2.1-1.043-4.188-1.63-6.264-.228-.812-.545-1.623-.963-2.353-1.454-2.538-2.798-5.166-4.526-7.51-1.16-1.575-2.896-2.73-4.374-4.072-1.452.49-2.904.976-4.355 1.471-.292.1-.601.191-.858.355-1.562.998-2.86 2.145-2.392 4.281.063.284.086.74-.077.88-1.135.967-.559 2.098-.456 3.223.09.984.02 1.993-.081 2.982-.252 2.425-1.228 4.755-.904 7.263.147 1.129.27 2.289.177 3.416-.114 1.394.422 2.282 1.497 3.125 2.004 1.57 4.21 3.042 5.743 5.007 1.475 1.891 2.74 3.552 5.163 4.454 1.626.605 2.97 2.202 4.191 3.575 1.707 1.919 3.828 2.398 6.559 2.53M20.583 6.477c2.982-2.206 6.263-3.406 10.13-2.144 3.748 1.224 5.649 4.06 6.678 7.339l5.92.621c.273-.525.58-1.13.9-1.727C45.812 7.56 50 5.783 52.96 7.222c1.184.574 2.414 1.057 3.574 1.675.604.321 1.16.789 1.636 1.287 1.049 1.095 4.072 6.656 4.588 8.332 1.575-.107 3.172-.32 4.766-.297 3.174.047 5.755 1.211 7.828 3.784 1.646 2.043 1.708 4.314-.024 7.027-.391.613-.887 1.16-1.092 2.054.431-.108.904-.134 1.282-.338 1.067-.573 2.132-.496 3.13.028 1.654.872 3.106.697 4.493-.7.716.68 1.967.866 1.85 2.165-.14 1.574.032 3.276-1.413 4.454-.359.293-.686.637-1.082.87-4.08 2.394-6.692 6.33-10.06 9.468-3.848 3.585-8.028 6.537-13.267 7.744-.603.138-1.248.27-1.765.584-2.57 1.557-5.48 1.616-8.313 1.735-1.319.055-2.684-.624-4.002-1.052-.786-.255-1.52-.67-2.438-1.085-.412 2.223.917 3.19 2.216 4.125 1.316.945 2.688 1.816 4.096 2.76v2.627c-2.32-1.127-4.513-2.038-6.545-3.222-1.845-1.075-2.693-2.93-2.96-5.009-.134-1.05-.518-1.763-2.038-1.693.076 2.514.11 5.01 1.057 7.373.265.662.938 1.219 1.536 1.682 1.214.94 2.555 1.718 3.75 2.679 2.137 1.714 2.093 2.09-.205 3.721-1.232-1.117-2.474-2.248-3.723-3.373-.228-.207-.447-.494-.721-.57-3.183-.92-3.615-3.557-3.808-6.209-.198-2.713-1.238-5.15-2.129-7.757-1.297 2.056-2.38 4.126-2.687 6.473-.09.697.288 1.493.585 2.186.206.481.635.87.981 1.286 2.212 2.665 1.77 4.15-.759 5.764-.193-.59-.498-1.143-.532-1.711-.064-1.105-.61-1.846-1.423-2.517-1.09-.898-1.576-1.969-1.189-3.467.517-1.998.853-4.046 1.196-6.086.15-.901.207-1.837.155-2.749-.05-.875-.445-1.606-1.447-1.794-1.7 3.977-3.08 7.937-3.28 12.226-.068 1.423-.785 2.587-1.988 3.52-.936-.665-.648-1.465-.51-2.29.623-3.702 1.202-7.409 1.868-11.553-2.314 1.315-4.616 2.064-6.24 4.2l1.839 1.186c-.95.967-1.91 1.768-2.65 2.739-1.007 1.325-1.87 2.764-2.75 4.181-1.165 1.88-2.96 2.958-5.154 4.428.082-1.018-.05-1.61.186-1.948 1.098-1.568 2.313-3.054 3.458-4.59 3.08-4.131 6.147-8.272 9.305-12.524-.475-.352-.79-.662-1.17-.852-1.988-1.007-4.015-1.945-5.988-2.984-2.05-1.08-3.636-2.756-4.685-4.732-1.488-2.802-3.636-4.964-5.937-7.034-.846-.76-1.229-1.567-1.333-2.77-.25-2.903-.834-5.774-1.224-8.667-.186-1.371-.16-2.773-.356-4.144-.246-1.752-.337-3.604-1.017-5.193-.686-1.611-.497-2.983.157-4.367 1.182-2.497 2.86-4.606 5.44-5.83 1.541-.73 3.102-1.423 4.678-2.072 1.826-.752 3.546-.465 4.949.91 1.636 1.6 3.168 3.306 4.927 5.16" mask="url(#8j54llgdkd)"/>
                    </g>
                </g>
            </g>
        </g>
    </g>
</svg>
