<svg xmlns="http://www.w3.org/2000/svg" xmlns:xlink="http://www.w3.org/1999/xlink" width="101" height="101" viewBox="0 0 101 101">
    <defs>
        <path id="pw9c9mrwja" d="M0 0L63.323 0 63.323 52.482 0 52.482z"/>
    </defs>
    <g fill="none" fill-rule="evenodd">
        <g>
            <g>
                <g transform="translate(-194 -3444) translate(0 3170) translate(194 274)">
                    <circle cx="50.5" cy="50.5" r="50.5" fill="#D8E7F2"/>
                    <g transform="translate(19 24)">
                        <mask id="4lmh8910cb" fill="#fff">
                            <use xlink:href="#pw9c9mrwja"/>
                        </mask>
                        <path fill="#153F58" d="M32.74 21.463c1.632-1.056 2.953-1.958 4.323-2.778.634-.379 1.107-.704 1.07-1.57-.038-.92-.528-1.312-1.282-1.616-1.93-.78-3.746-1.76-5.396-3.046-.484-.377-1.053-.647-1.518-.925-1.776 1.116-1.6 1.911-1.052 3.137.46 1.029 1.085 2.005 1.77 2.902.866 1.138 1.976 2.107 2.085 3.896m11.402-5.85c.211-1.46-.232-2.482-.938-3.45-.574-.79-1.097-1.62-1.597-2.46-.909-1.526-2.854-2.537-4.528-2.18-.426.09-1.041.555-1.096.919-.199 1.327-1.076 2.057-2.146 2.656.961 1.402 2.333 1.932 3.671 2.414 1.648.595 3.046 1.361 3.54 3.459l3.094-1.359m-9.284 24.096c1.387 1.031 2.698 1.282 4.002 1.011 2.72-.564 5.366-1.41 7.8-2.791 3.965-2.253 7.143-5.446 10.243-8.714 1.555-1.642 1.384-2.31-.659-3.378-.05-.027-.096-.062-.147-.091-1.66-.977-3.413-.737-5.142-.298-.364.093-.846.56-.897.91-.243 1.65-1.424 2.564-2.505 3.616-1.232 1.2-2.313 2.554-3.523 3.78-.885.897-1.777 1.845-2.834 2.498-1.952 1.206-4.027 2.212-6.338 3.457M16.748 8.084c1.296 1.434 1.891 3.16 2.272 4.99.13.62.314 1.24.568 1.818.526 1.197.789 2.436.576 3.721-.176 1.071-.419 2.143-.757 3.174-.96 2.918-.968 5.693 1.097 8.18.735.884 1.53 1.726 2.37 2.508.225.21.81.307 1.067.166 2.374-1.314 4.894-2.523 5.184-5.735.03-.34.11-.708.283-.994.688-1.15.637-2.719 1.98-3.492-.062-.512-.117-1.02-.188-1.526-.063-.43-.009-1.083-.252-1.23-.35-.212-.922-.054-1.47-.054-.14-.187-.268-.473-.489-.633-1.185-.864-1.78-2.025-2.057-3.456-.17-.876-.544-1.742-.978-2.53-.335-.606-.904-1.084-1.389-1.643.772-.826 1.283-1.437.826-2.551-.923-2.252-3.07-3.788-5.522-3.586-.937.077-1.803.328-2.154 1.423-.15.467-.556.852-.967 1.45m8.651 27.08c2.173.97 4.2 1.95 6.293 2.759.56.216 1.44.108 1.973-.198 2.956-1.7 6.43-2.623 8.567-5.582.128-.177.393-.25.556-.41 1.7-1.67 3.913-2.93 4.301-5.634.076-.529.53-1.013.841-1.497 1.662-2.562 3.683-4.81 6.17-6.825-1.757-1.831-3.861-2.253-6.087-1.762-1.618.357-3.212.986-4.7 1.725-2.634 1.31-5.159 2.839-7.771 4.194-1.797.931-2.556 2.502-2.776 4.338-.31 2.586-1.796 4.254-3.834 5.642-1.26.858-2.67 1.594-3.533 3.25m-5.718-.65c-.487-.821-.874-1.434-1.221-2.07-.824-1.508-1.918-2.95-1.873-4.76.04-1.552.3-3.098.455-4.648.176-1.768 1.046-3.461.616-5.289-.37-1.574-.776-3.14-1.213-4.696-.17-.61-.406-1.217-.718-1.764-1.083-1.903-2.085-3.874-3.371-5.631-.865-1.181-2.158-2.048-3.26-3.053-1.081.367-2.163.732-3.243 1.103-.218.074-.448.143-.64.266-1.164.748-2.13 1.608-1.782 3.21.047.212.064.555-.057.66-.845.724-.417 1.572-.34 2.415.067.739.015 1.495-.06 2.237-.188 1.818-.915 3.565-.673 5.445.109.846.2 1.716.132 2.56-.086 1.046.313 1.712 1.114 2.344 1.494 1.177 3.137 2.28 4.28 3.754 1.098 1.418 2.04 2.663 3.845 3.34 1.212.453 2.213 1.65 3.122 2.68 1.272 1.439 2.852 1.797 4.887 1.896M15.334 4.856C17.556 3.202 20 2.302 22.88 3.249c2.791.917 4.208 3.043 4.974 5.501l4.41.467c.204-.394.432-.848.67-1.296 1.194-2.253 4.314-3.586 6.52-2.507.882.43 1.798.793 2.662 1.256.45.241.865.592 1.22.965.78.821 3.032 4.99 3.417 6.247 1.173-.08 2.363-.24 3.55-.223 2.365.035 4.288.909 5.832 2.838 1.226 1.531 1.273 3.234-.018 5.268-.291.46-.66.87-.813 1.54.32-.08.673-.1.955-.254.794-.43 1.588-.371 2.331.022 1.233.653 2.315.522 3.348-.526.533.51 1.465.65 1.378 1.624-.105 1.18.024 2.456-1.053 3.339-.267.22-.511.478-.806.652-3.04 1.795-4.985 4.746-7.495 7.099-2.866 2.688-5.98 4.901-9.883 5.806-.449.104-.93.203-1.315.438-1.914 1.168-4.083 1.212-6.193 1.301-.982.041-2-.468-2.981-.789-.586-.19-1.133-.502-1.817-.813-.306 1.667.684 2.391 1.651 3.092.98.709 2.003 1.362 3.052 2.07v1.97c-1.729-.846-3.363-1.528-4.876-2.416-1.374-.806-2.007-2.197-2.205-3.756-.1-.787-.386-1.321-1.518-1.269.056 1.884.082 3.756.787 5.528.197.496.699.913 1.144 1.26.905.705 1.904 1.29 2.794 2.01 1.592 1.284 1.56 1.566-.153 2.79-.917-.838-1.843-1.686-2.773-2.53-.17-.155-.333-.37-.537-.428-2.371-.689-2.694-2.666-2.837-4.654-.148-2.035-.923-3.86-1.586-5.816-.966 1.541-1.773 3.093-2.002 4.853-.068.522.214 1.12.436 1.64.153.36.473.652.73.963 1.649 1.999 1.32 3.112-.565 4.322-.144-.443-.37-.857-.396-1.283-.048-.829-.455-1.384-1.06-1.887-.813-.673-1.175-1.476-.886-2.6.385-1.497.636-3.033.89-4.563.113-.675.155-1.377.117-2.06-.038-.656-.332-1.205-1.078-1.346-1.267 2.982-2.294 5.951-2.445 9.166-.05 1.068-.584 1.94-1.48 2.64-.697-.499-.483-1.098-.38-1.717.464-2.775.895-5.555 1.392-8.662-1.724.986-3.44 1.547-4.649 3.149l1.37.89c-.708.724-1.424 1.325-1.974 2.052-.75.994-1.394 2.073-2.05 3.136-.867 1.408-2.203 2.218-3.838 3.32.06-.764-.038-1.208.138-1.461.818-1.176 1.723-2.29 2.576-3.441 2.294-3.098 4.58-6.203 6.932-9.39-.354-.264-.589-.496-.87-.639-1.483-.755-2.993-1.458-4.463-2.238-1.527-.809-2.708-2.066-3.49-3.547-1.108-2.1-2.708-3.722-4.423-5.274-.63-.57-.915-1.175-.992-2.076-.186-2.177-.622-4.33-.912-6.498-.14-1.029-.12-2.08-.266-3.108-.183-1.313-.251-2.702-.757-3.894-.511-1.207-.37-2.236.117-3.274.88-1.872 2.13-3.452 4.053-4.37C5.639 1.31 6.802.79 7.976.303c1.36-.564 2.642-.348 3.687.682 1.22 1.2 2.36 2.48 3.67 3.87" mask="url(#4lmh8910cb)"/>
                    </g>
                </g>
            </g>
        </g>
    </g>
</svg>
