<svg xmlns="http://www.w3.org/2000/svg" viewBox="0 0 40 40"><linearGradient id="A" gradientUnits="userSpaceOnUse" x1="20" y1="39.884" x2="20" y2=".311"><stop offset="0" stop-color="#e09b3d"/><stop offset=".3" stop-color="#c74c4d"/><stop offset=".6" stop-color="#c21975"/><stop offset="1" stop-color="#7024c4"/></linearGradient><path d="M28.1 0H11.9C5.3 0 0 5.3 0 11.9v16.2C0 34.7 5.3 40 11.9 40h16.2C34.7 40 40 34.7 40 28.1V11.9C40 5.3 34.7 0 28.1 0zM36 28.1a7.85 7.85 0 0 1-7.9 7.9H11.9C7.6 36 4 32.4 4 28.1V11.9C4 7.6 7.6 4 11.9 4h16.2a7.85 7.85 0 0 1 7.9 7.9v16.2h0zM20 9.7C14.3 9.7 9.7 14.3 9.7 20S14.3 30.3 20 30.3 30.3 25.7 30.3 20 25.7 9.7 20 9.7zm0 16.6c-3.5 0-6.3-2.8-6.3-6.3s2.8-6.3 6.3-6.3 6.3 2.8 6.3 6.3-2.8 6.3-6.3 6.3zm10.4-19c1.4 0 2.5 1.1 2.5 2.5s-1.1 2.5-2.5 2.5-2.5-1.1-2.5-2.5 1.1-2.5 2.5-2.5z" fill="url(#A)"/></svg>