<svg xmlns="http://www.w3.org/2000/svg">
  <symbol id="hopital" viewBox="0 0 168 168">
    <path d="M138.3 168H0V0h168v138.3c0 16.4-13.3 29.7-29.7 29.7zM8 160h130.3c12 0 21.7-9.7 21.7-21.7V8H8v152zm64.6-96.6h4.9v4.9a1.58 1.58 0 0 0 1.6 1.6h9.7a1.58 1.58 0 0 0 1.6-1.6v-4.9h4.9a1.58 1.58 0 0 0 1.6-1.6V52a1.58 1.58 0 0 0-1.6-1.6h-4.9v-4.9a1.58 1.58 0 0 0-1.6-1.6h-9.7a1.58 1.58 0 0 0-1.6 1.6v4.9h-4.9A1.58 1.58 0 0 0 71 52v9.7c0 1 .7 1.7 1.6 1.7zm1.7-9.8h4.9a1.58 1.58 0 0 0 1.6-1.6v-4.9h6.5V52a1.58 1.58 0 0 0 1.6 1.6h4.9v6.5h-4.9a1.58 1.58 0 0 0-1.6 1.6v4.9h-6.5v-4.9a1.58 1.58 0 0 0-1.6-1.6h-4.9v-6.5zm-31 59.2h6.8c.9 0 1.7-.8 1.7-1.7v-6.8c0-.9-.8-1.7-1.7-1.7h-6.8c-.9 0-1.7.8-1.7 1.7v6.8c0 .9.8 1.7 1.7 1.7zM45 106h3.4v3.4H45V106zm-1.7 20.4h6.8c.9 0 1.7-.8 1.7-1.7v-6.8c0-.9-.8-1.7-1.7-1.7h-6.8c-.9 0-1.7.8-1.7 1.7v6.8c0 .9.8 1.7 1.7 1.7zm1.7-6.8h3.4v3.4H45v-3.4zm72.9-6.8h6.8c.9 0 1.7-.8 1.7-1.7v-6.8c0-.9-.8-1.7-1.7-1.7h-6.8c-.9 0-1.7.8-1.7 1.7v6.8c0 .9.7 1.7 1.7 1.7zm1.7-6.8h3.4v3.4h-3.4V106zm-1.7 20.4h6.8c.9 0 1.7-.8 1.7-1.7v-6.8c0-.9-.8-1.7-1.7-1.7h-6.8c-.9 0-1.7.8-1.7 1.7v6.8c0 .9.7 1.7 1.7 1.7zm1.7-6.8h3.4v3.4h-3.4v-3.4zM86.3 81.2h-6.8c-.9 0-1.7.8-1.7 1.7v6.8c0 .9.8 1.7 1.7 1.7h6.8c.9 0 1.7-.8 1.7-1.7v-6.8c0-1-.8-1.7-1.7-1.7zM84.6 88h-3.4v-3.4h3.4V88zm1.7 4.5h-6.8c-.9 0-1.7.8-1.7 1.7v6.8c0 .9.8 1.7 1.7 1.7h6.8c.9 0 1.7-.8 1.7-1.7v-6.8c0-1-.8-1.7-1.7-1.7zm-1.7 6.7h-3.4v-3.4h3.4v3.4zm8.4-7.9h6.8c.9 0 1.7-.8 1.7-1.7v-6.8c0-.9-.8-1.7-1.7-1.7H93c-.9 0-1.7.8-1.7 1.7v6.8c0 1 .8 1.7 1.7 1.7zm1.7-6.7h3.4V88h-3.4v-3.4zm-1.7 18h6.8c.9 0 1.7-.8 1.7-1.7v-6.8c0-.9-.8-1.7-1.7-1.7H93c-.9 0-1.7.8-1.7 1.7v6.8c0 1 .8 1.7 1.7 1.7zm1.7-6.7h3.4v3.4h-3.4v-3.4zM93 116.2h6.8c.9 0 1.7-.8 1.7-1.7v-6.8c0-.9-.8-1.7-1.7-1.7H93c-.9 0-1.7.8-1.7 1.7v6.8c0 .9.8 1.7 1.7 1.7zm1.7-6.8h3.4v3.4h-3.4v-3.4zm-8.4-3.4h-6.8c-.9 0-1.7.8-1.7 1.7v6.8c0 .9.8 1.7 1.7 1.7h6.8c.9 0 1.7-.8 1.7-1.7v-6.8c0-.9-.8-1.7-1.7-1.7zm-1.7 6.8h-3.4v-3.4h3.4v3.4zM75 106h-6.8c-.9 0-1.7.8-1.7 1.7v6.8c0 .9.8 1.7 1.7 1.7H75c.9 0 1.7-.8 1.7-1.7v-6.8c0-.9-.8-1.7-1.7-1.7zm-1.7 6.8h-3.4v-3.4h3.4v3.4zM75 81.2h-6.8c-.9 0-1.7.8-1.7 1.7v6.8c0 .9.8 1.7 1.7 1.7H75c.9 0 1.7-.8 1.7-1.7v-6.8c0-1-.8-1.7-1.7-1.7zM73.3 88h-3.4v-3.4h3.4V88zm1.7 4.5h-6.8c-.9 0-1.7.8-1.7 1.7v6.8c0 .9.8 1.7 1.7 1.7H75c.9 0 1.7-.8 1.7-1.7v-6.8c0-1-.8-1.7-1.7-1.7zm-1.7 6.7h-3.4v-3.4h3.4v3.4zm57.1-8.8h-17.6V55.2a1.58 1.58 0 0 0-1.6-1.6h-6.7c-1.8-11.3-12.4-19.1-23.7-17.4-9 1.4-16 8.4-17.4 17.4h-6.7a1.58 1.58 0 0 0-1.6 1.6v35.2H37.6A1.58 1.58 0 0 0 36 92v38.4a1.58 1.58 0 0 0 1.6 1.6h92.8a1.58 1.58 0 0 0 1.6-1.6V92a1.58 1.58 0 0 0-1.6-1.6zm-75.2 38.4h-16V100h16v28.8zm0-32h-16v-3.2h16v3.2zM84 39.2c9.7 0 17.6 7.9 17.6 17.6S93.7 74.4 84 74.4s-17.6-7.9-17.6-17.6S74.3 39.2 84 39.2zM63.2 56.8c0 6.2 2.8 12 7.5 16H58.4v-16h4.8zm25.6 72h-9.6v-6.4h9.6v6.4zm20.8 0H92v-8a1.58 1.58 0 0 0-1.6-1.6H77.6a1.58 1.58 0 0 0-1.6 1.6v8H58.4V98.4 76H76c5.1 2.1 10.9 2.1 16 0h17.6v52.8zm0-56H97.3c4.8-3.9 7.5-9.8 7.5-16h4.8v16zm19.2 56h-16V100h16v28.8zm0-32h-16v-3.2h16v3.2z"></path>
  </symbol>
  <symbol id="equipe" viewBox="0 0 168 168">
    <path d="M138.3 168H0V0h168v138.3c0 16.4-13.3 29.7-29.7 29.7zM8 160h130.3c12 0 21.7-9.7 21.7-21.7V8H8v152zm96.1-71.4l-9.7-4.3c-.7-.3-1.1-1-1.1-1.7V80c3.2-2.6 5.3-6.5 5.3-10.9v-3.7c1.1-.6 1.8-1.7 1.8-3V62c0-7.7-6.3-14-14.1-14h-3.6c-7.8 0-14.1 6.3-14.1 14v3.3c0 1.1.5 2.1 1.3 2.8.1.1.3.2.5.3v.6c0 4.4 2.1 8.4 5.3 10.9v2.6c0 .7-.4 1.4-1.1 1.7l-9.7 4.3c-3.2 1.4-5.2 4.5-5.2 7.9v21.8c0 .9.7 1.6 1.7 1.6s1.7-.7 1.7-1.6V96.5v-.6l4.5 4.4c.7.7 1.1 1.6 1.1 2.6v15.4c0 .9.7 1.6 1.7 1.6s1.7-.7 1.7-1.6v-15.4c0-1.9-.7-3.6-2-4.9l-5.3-5.3a6.57 6.57 0 0 1 1.7-1.2l9.5-4.2 7 7v24c0 .9.7 1.6 1.7 1.6s1.7-.7 1.7-1.6v-24l7-7 9.5 4.2c.7.3 1.2.7 1.7 1.2L99.1 98c-1.3 1.3-2 3.1-2 4.9v15.4c0 .9.7 1.6 1.7 1.6.9 0 1.7-.7 1.7-1.6v-15.4c0-1 .4-1.9 1.1-2.6l4.5-4.4v.6 21.8c0 .9.7 1.6 1.7 1.6.9 0 1.7-.7 1.7-1.6V96.5c-.2-3.4-2.3-6.5-5.4-7.9zm-19.6 2.8l-6.2-6.1c.5-.8.7-1.7.7-2.6V82c1.7.7 3.5 1.1 5.4 1.1s3.8-.4 5.4-1.1v.7c0 .9.3 1.9.7 2.6l-6 6.1zm0-11.7c-5.9 0-10.8-4.8-10.8-10.7v-.7c1-.4 2.1-1.1 3-1.9.7-.6.7-1.7.1-2.3-.6-.7-1.7-.7-2.4-.1-.8.8-1.7 1.3-2.5 1.5v-.1V62c0-5.9 4.8-10.7 10.8-10.7h3.6c5.9 0 10.8 4.8 10.8 10.7v.4c0 .1 0 .1-.1.1-10 1.9-15-1.7-16.6-3.4-.6-.6-1.7-.6-2.4 0-.6.6-.6 1.7 0 2.3 5.2 5.1 12.7 5.2 17.3 4.7v3c0 5.8-4.9 10.6-10.8 10.6zm-26.8 0v-3.5c0-4.3-2.2-8.1-5.6-10.2.2-.7.3-1.4.3-2.1 0-3.8-3.1-6.9-6.9-6.9s-6.9 3.1-6.9 6.9c0 .7.1 1.4.3 2.1-3.4 2.2-5.6 5.9-5.6 10.2v3.5c0 4.2 2.1 7.8 5.3 10v3.6c0 .7-.4 1.4-1 1.7l-5.7 2.8c-2.4 1.2-3.8 3.5-3.8 6.2v14.3a1.58 1.58 0 0 0 1.6 1.6 1.58 1.58 0 0 0 1.6-1.6v-13.6l2.7 2.7c.7.7 1.1 1.6 1.1 2.6v8.4a1.58 1.58 0 0 0 1.6 1.6 1.58 1.58 0 0 0 1.6-1.6V110c0-1.8-.7-3.6-2-4.9l-3.7-3.7-.1-.1c.2-.2.5-.4.8-.5L39 98c.3-.1.6-.3.8-.5l4 4v16.9a1.58 1.58 0 1 0 3.2 0v-16.9l4-4c.3.2.5.4.8.5l1.6.8c.2.1.5.2.7.2.6 0 1.2-.3 1.5-.9.4-.8.1-1.8-.7-2.2l-1.4-.9c-.6-.3-1-1-1-1.7v-3.6c3.1-2.2 5.2-5.8 5.2-10zM45.5 60.3c2 0 3.6 1.6 3.6 3.6 0 .2 0 .4-.1.6-1-.3-2.2-.5-3.5-.5-1.2 0-2.4.2-3.6.5 0-.2-.1-.4-.1-.6.1-2 1.7-3.6 3.7-3.6zm0 7c4.9 0 8.9 4 8.9 8.9v.6c-6.9 2.1-11-3.1-11.1-3.3-.3-.4-.7-.6-1.2-.7-.5 0-.9.1-1.3.5-1.6 1.6-3.1 2.3-4.2 2.7.1-4.8 4.1-8.7 8.9-8.7zm0 31.2l-3.8-3.8c.1-.4.2-.9.2-1.3v-2c1.1.4 2.4.6 3.6.6s2.5-.2 3.6-.6v2c0 .5.1.9.2 1.3l-3.8 3.8zm0-9.9c-4.9 0-8.9-4-8.9-8.9v-.3c1.3-.3 3.3-1 5.3-2.6.7.7 1.7 1.5 3.1 2.2 1.5.8 3.7 1.6 6.3 1.6 1 0 2.1-.1 3.2-.4-.3 4.7-4.2 8.4-9 8.4zm90.6 5.5l-9.4-4.6c-.6-.3-1.1-1-1.1-1.7v-2.3c2.2-1.9 3.6-4.7 3.6-7.9v-1.9h.1c.9 0 1.7-.7 1.7-1.7v-3.5c0-5.8-4.8-10.5-10.6-10.5h-3.6c-5.8 0-10.6 4.7-10.6 10.5V74c0 .9.7 1.7 1.7 1.7h.1v1.9c0 3.1 1.4 5.9 3.6 7.9v2.3c0 .7-.4 1.4-1.1 1.7-.8.4-1.2 1.4-.7 2.2.3.6.9.9 1.5.9.3 0 .5-.1.7-.2.3-.1.6-.3.8-.5L117 96v22.3c0 .9.7 1.7 1.7 1.7.9 0 1.7-.7 1.7-1.7V96l4.1-4.1c.3.2.5.4.8.5l9 4.5-2.7 2.7c-1.3 1.3-2.1 3.1-2.1 4.9v13.7c0 .9.7 1.7 1.7 1.7s1.7-.7 1.7-1.7v-13.7c0-1 .4-1.9 1.1-2.6l2.6-2.6c.1.3.1.6.1.9v18c0 .9.7 1.7 1.7 1.7s1.7-.7 1.7-1.7v-18c-.1-2.5-1.6-4.9-4-6.1zm-26.5-22v-1.5h0c0-4 3.3-7.2 7.3-7.2h3.6c4 0 7.3 3.2 7.3 7.2v1.8c-7.3-.4-11.6-3.2-11.7-3.2-.3-.2-.6-.3-.9-.3-.4 0-.9.2-1.2.5-1.7 1.5-3.2 2.3-4.4 2.7zm9.1 20.9l-3.9-3.8c.1-.4.2-.9.2-1.3v-.4c1.1.4 2.4.7 3.7.7s2.5-.2 3.7-.7v.4c0 .5.1.9.2 1.3l-3.9 3.8zm0-8.2c-4 0-7.3-3.2-7.3-7.2v-2.7h0a14.21 14.21 0 0 0 3.9-2.4c1.8.9 5.4 2.5 10.6 3v2.1a7.17 7.17 0 0 1-7.2 7.2z"></path>
  </symbol>
  <symbol id="femme" viewBox="0 0 168 168">
    <path d="M138.3 168H0V0h168v138.3c0 16.4-13.3 29.7-29.7 29.7zM8 160h130.3c12 0 21.7-9.7 21.7-21.7V8H8v152zm103.9-48.8c1 2 1.5 4.3 1.5 6.6v8.7c0 .8-.6 1.5-1.4 1.5s-1.4-.7-1.4-1.5v-8.7c0-6.4-4.9-11.7-11.1-12.2l-6 21.2c-.2.6-.8 1.1-1.4 1.1-1 0-1.7-.9-1.4-1.9l5.9-20.7c-2.4-.5-4.4-2-5.7-4.1-.4-.7-.2-1.6.5-2s1.6-.2 2 .5c1.1 1.8 2.9 2.8 4.9 2.9h.6c4.5.1 8.8 2.2 11.7 5.9l3-3.1a3.36 3.36 0 0 0 .3-4.4c-2.3-2.9-1.7-6.5.5-8.6 1.2-1.2 1.4-3.2.3-4.5l-2.1-2.7c-1.3-1.6-1.7-3.7-1.1-5.7l1.3-4.6c.5-1.6-.3-3.4-1.9-4l-1.8-.7c-2.3-1-3.8-3.2-3.8-5.8v-4.7c0-9.3-7.5-16.9-16.7-16.9h-8.7c-9.2 0-16.7 7.6-16.7 16.9v4.7c0 2.6-1.5 4.8-3.8 5.8l-1.8.7c-1.6.7-2.4 2.4-1.9 4l1.3 4.6c.6 2 .2 4.1-1.1 5.7l-2.1 2.7c-1.1 1.3-.9 3.3.3 4.5 2.2 2.1 2.8 5.7.5 8.6a3.36 3.36 0 0 0 .3 4.4l3 3.1c2.8-3.7 7.1-6 11.9-6 3.3 0 6.1-2.7 6.1-6.1V96c-6-2.9-10-8.6-10.9-15-.1-.8.4-1.5 1.2-1.7.8-.1 1.5.5 1.6 1.3 1 8.4 8 14.6 16.2 14.6 9.1 0 16.5-7.5 16.5-16.7v-9c-3.4-1.2-6.3-3.6-8.3-7-7 8.2-17 13-27.5 13.4-.8 0-1.5-.6-1.5-1.4s.6-1.5 1.4-1.5a35.08 35.08 0 0 0 26.8-14.1c.7-.9 2.1-.7 2.5.3 1.5 3.9 4.7 6.7 8.5 7.7.6.2 1 .7 1 1.3v10.4c-.1 13-12.4 22.4-24.9 18.7-.2 2.4-1.3 4.7-3.3 6.3l8.8 6.9 5.2-4c.6-.5 1.5-.4 2 .3.5.6.4 1.6-.3 2.1l-5.5 4.3v10.5c0 .8-.6 1.5-1.4 1.5s-1.4-.7-1.4-1.5v-10.5l-10.1-7.9c-1.6.5-3 .5-2.8.5-6.7 0-12.1 5.5-12.1 12.2v8.7c0 .8-.6 1.5-1.4 1.5s-1.4-.7-1.4-1.5V118c0-2.3.5-4.6 1.5-6.6l-3.5-3.6c-2.1-2.1-2.6-5.6-.4-8.5 1.1-1.4.9-3.3-.3-4.5-2.3-2.2-2.6-5.9-.6-8.5l2.1-2.7c.7-.9.9-2 .6-3L52.9 76c-.9-3.1.6-6.4 3.6-7.6l1.8-.7c1.2-.5 2-1.7 2-3.1v-4.7c0-10.9 8.8-19.8 19.6-19.8h8.7c10.8 0 19.6 8.9 19.6 19.8v4.7c0 1.4.8 2.6 2 3.1l1.8.7c3 1.2 4.5 4.5 3.6 7.6l-1.3 4.6c-.3 1-.1 2.2.6 3l2.1 2.7c2 2.5 1.7 6.2-.6 8.5-1.3 1.2-1.4 3.1-.3 4.5 2.2 2.8 1.7 6.4-.4 8.5l-3.8 3.4zm-38.8-.6c-.2-.8-1-1.2-1.8-1s-1.2 1-1 1.8l4.3 15.6c.2.8 1 1.2 1.8 1s1.2-1 1-1.8l-4.3-15.6z"></path>
  </symbol>
  <symbol id="homme" viewBox="0 0 168 168">
    <path d="M138.3 168H0V0h168v138.3c0 16.4-13.3 29.7-29.7 29.7zM8 160h130.3c12 0 21.7-9.7 21.7-21.7V8H8v152zm75.8-71.2c-11-.4-13.6-9.8-14.2-12.8-1.1-.2-2-.8-2.7-1.7-.8-1.1-1.1-2.4-1-3.7-.2-1.4.3-2.8 1.2-3.9.3-.3.6-.5.9-.7-2-3.3-3.1-7.2-2.9-11 1.3-9.1 8.6-10 10.9-10.1 1.1-1.2 2.4-2.2 3.9-2.9 2.8-1.1 5.9-1.3 8.8-.5 5.7 1.5 9.5 4.3 11.3 8.5 2.6 5.9.3 12.7-1 15.7.5.2.9.4 1.3.8 1.1 1.1 1.6 2.6 1.4 4.1.1 1.3-.2 2.6-1 3.7-.7.9-1.6 1.5-2.7 1.7-.6 3-3.2 12.4-14.2 12.8zM70 67.9c-.4 0-.9.1-1.2.4-.5.6-.6 1.4-.5 2.2v.2c-.1.7.1 1.4.5 2 .5.6 1.2.9 2 .9a1.27 1.27 0 0 1 1.1 1.1c0 .5 1.1 11.2 11.9 11.5 10.8-.2 11.8-11 11.9-11.4a1.27 1.27 0 0 1 1.1-1.1c.7 0 1.5-.4 2-.9.4-.6.6-1.3.5-2v-.2c.1-.8-.1-1.6-.6-2.2-.4-.3-.9-.4-1.3-.3-.5.1-.9-.1-1.2-.5s-.3-.9-.1-1.3c0-.1 4.5-8.6 1.6-15.2-1.5-3.4-4.7-5.8-9.7-7.1-2.4-.7-4.9-.5-7.2.4-1.3.6-2.4 1.4-3.3 2.6-.3.3-.7.5-1.1.5-.3 0-7.8-.5-9 7.9h0s-.3 6.7 3.5 10.7c.3.4.4.9.2 1.3 0 .3-.5.6-1.1.5h0zm26.8.6c-.7 0-1.2-.5-1.2-1.2 0-.3-.4-7.8-5.9-8.5-5.1.7-10.1-.9-14.1-4.2-1.5 1.2-5.1 4.8-4.4 12.5a1.3 1.3 0 0 1-1.1 1.3c-.6.1-1.2-.4-1.3-1-1-11.3 6.1-15.3 6.4-15.4.5-.2 1-.2 1.4.2 3.5 3.2 8.2 4.8 12.9 4.2h.3c6.2.7 8 7.4 8.2 10.9.1.6-.5 1.1-1.2 1.2h0zm22 58.5H49.2c-.7 0-1.2-.5-1.2-1.2v-13.6c0-9 7.4-16.2 16.5-16.2h2.4c.7 0 1.2.5 1.2 1.2s-.6 1.2-1.2 1.2h-2.4c-7.7 0-14 6.2-14 13.8v12.4h67v-12.4c0-7.6-6.3-13.8-14-13.8H101c-.7 0-1.2-.5-1.2-1.2s.6-1.2 1.2-1.2h2.5c9.1 0 16.4 7.3 16.4 16.2v13.6c.1.7-.5 1.2-1.1 1.2zm-30.5 0c-.4 0-.7-.2-.9-.4a1.69 1.69 0 0 1-.3-1L92 92.2c.1-.4.3-.7.6-.9s.7-.2 1-.1l8.5 2.6c.3.1.6.4.8.7.1.3.1.7 0 1l-3.4 6.9 2 2.2c.4.4.4 1 .1 1.5l-12.2 20.2c-.3.5-.7.7-1.1.7zm5.9-33l-3.8 25.9 8.6-14.2-1.9-2.2c-.3-.4-.4-.9-.2-1.4l3.1-6.4-5.8-1.7zm-14.5 33a1.1 1.1 0 0 1-1-.6l-12.2-19.5c-.3-.5-.2-1 .1-1.4l2-2.2-3.4-6.7a.91.91 0 0 1 0-1c.1-.3.4-.6.8-.7l8.5-2.5c.3-.1.7-.1 1 .1s.5.5.6.8l4.9 32.2c.1.3-.1.7-.3 1-.3.3-.6.5-1 .5zm-10.6-20.6l8.6 13.7-3.8-25-5.9 1.7 3.1 6.2c.2.4.2 1-.2 1.3l-1.8 2.1zm15-2.1c-2.7 0-5.4-.1-8.1-.4-.5 0-.9-.3-1-.6-.2-.3-.1-.7.2-1s.7-.4 1.2-.4a80.27 80.27 0 0 0 15.5 0c.7-.1 1.3.3 1.4.9.1.5-.4 1-1.1 1.1-2.8.3-5.4.4-8.1.4h0zM93 93.6c-.4 0-.8-.2-1.1-.5-2-2.4-2.4-7.2-2.4-7.8 0-.7.5-1.2 1.3-1.3.7 0 1.4.5 1.4 1.1.1 1.3.6 4.9 1.9 6.5.3.4.4.9.1 1.3-.2.4-.7.7-1.2.7h0zm-18 0c-.5 0-1-.3-1.2-.7s-.2-.9.1-1.3c1.3-1.6 1.8-5.2 1.9-6.5 0-.4.3-.8.7-1s1-.2 1.4.1c.4.2.6.7.6 1.1 0 .5-.4 5.4-2.4 7.8-.3.3-.7.5-1.1.5zm34 16.7c-.7 0-1.2-.5-1.2-1.2-.2-8.2-3.2-10.8-3.2-10.8-.5-.4-.6-1.2-.2-1.8.4-.5 1.1-.7 1.7-.2.2.1 3.9 3.2 4.2 12.8 0 .6-.6 1.2-1.3 1.2h0zm0 7.1c-2 0-3.8-1.2-4.5-2.9-.8-1.8-.3-3.8 1.1-5.2s3.5-1.8 5.3-1c1.8.7 3 2.5 3 4.4 0 2.6-2.2 4.7-4.9 4.7h0zm0-7.1c-1 0-1.9.6-2.2 1.5-.4.9-.2 1.9.5 2.6s1.7.9 2.6.5 1.5-1.2 1.5-2.2c0-1.3-1.1-2.4-2.4-2.4h0zm-51.3 0c-.6 0-1.1-.5-1.1-1.2-.6-9.7 4.2-12.9 4.4-13 .5-.3 1.2-.1 1.5.5s.1 1.4-.4 1.7c-.2.1-3.7 2.6-3.2 10.6 0 .7-.5 1.3-1.2 1.4h0zm-2.2 8.3c-.4 0-.8-.2-1-.5-.6-.7-1.1-1.6-1.3-2.5-1.2-3.7 1-7.6 4.9-8.7 1.8-.5 3.7-.3 5.4.6 2.9 1.6 4.5 4.6 3.9 7.7-.1.6-.8 1.1-1.4 1-.7-.1-1.1-.7-1-1.3.4-2.1-.7-4.2-2.7-5.3-1.1-.6-2.3-.7-3.5-.4-2.6.8-4 3.4-3.2 5.9.2.6.5 1.2.9 1.7a1.06 1.06 0 0 1 .1 1.2c-.2.4-.6.6-1.1.6h0zm10.9-1.2h-.1l-1.3-.1c-.4 0-.8-.3-.9-.7-.2-.4-.1-.8.1-1.1.3-.3.7-.5 1.1-.4l1.3.2c.6.1 1.1.6 1 1.2-.1.5-.6.9-1.2.9h0zm-11.2 2.4c-.6 0-1-.5-1.1-1.2s.2-1.4.7-1.6l1.4-.6c.4-.2.8-.1 1.1.2a1.69 1.69 0 0 1 .4 1.4c-.1.5-.3.9-.7 1.1l-1.4.7h-.4z"></path>
  </symbol>
  <symbol id="collaboration" viewBox="0 0 168 168">
    <path d="M138.3 168H0V0h168v138.3c0 16.4-13.3 29.7-29.7 29.7zM8 160h130.3c12 0 21.7-9.7 21.7-21.7V8H8v152zm129.4-96.3l-25.5-25.5c-2.2-2.1-5.7-2.1-7.9 0L98.2 44c-1.2 1.2-2.8 1.9-4.5 2l-4 .1c-4.9.2-9.7 1.7-13.8 4.4L64.7 39.3a5.55 5.55 0 0 0-7.9 0L30.6 65.5a5.55 5.55 0 0 0 0 7.9l18.7 18.7-2.1 2.1c-3 2.9-3.1 7.8-.2 10.8 1.1 1.1 2.6 1.8 4.1 2-1 2.7-.3 5.7 1.7 7.8a6.96 6.96 0 0 0 4 2c-1 2.7-.4 5.8 1.7 7.9a7.19 7.19 0 0 0 5.3 2.3c1.4 0 2.8-.4 4-1.1.8 3.3 3.8 5.6 7.1 5.5h.2c2-.1 4-.9 5.4-2.4l3.1-3.1a8.39 8.39 0 0 0 4.1 1.1c1.2 0 2.4-.3 3.4-.8a6.57 6.57 0 0 0 1.7-1.2c1-1 1.7-2.3 2-3.6 1 .5 2.1.7 3.2.8h.2c2 0 3.9-.8 5.3-2.2.9-.9 1.6-2.1 1.9-3.4 1.2.7 2.5 1.1 3.8 1.1h.2c4.1 0 7.4-3.2 7.4-7.3v-.2c-.1-2-.9-4-2.3-5.4l-1.3-1.2c1.2-.3 2.3-1 3.1-1.8a6.57 6.57 0 0 0 1.2-1.7c1.2-2.5 1-5.5-.6-7.9l20.4-20.3c2.3-2.4 2.3-5.9.1-8.2zM89.8 50.1l4-.1c2.5-.1 4.9-1.1 6.8-2.8l27.7 27.7-14 14-24.4-24.4h1.3.3c.9.2 1.8.5 2.7.8 1.9.8 3.9 1.3 6 1.7 3.4.1 6.7-.7 9.6-2.6 1-.4 1.5-1.6 1-2.6-.4-1-1.6-1.5-2.6-1-.1.1-.3.1-.4.2l-.2.1c-2.1 1.3-4.5 2-6.9 2-1.8-.3-3.5-.8-5.2-1.5-1.2-.5-2.4-.8-3.7-1-2.2-.2-4.4.1-6.5 1-.1 0-.2.1-.3.1-3 1.3-5.8 3.3-8 5.8-1.4 1.8-3.5 3.1-5.8 3.6-1 0-2-.4-2.6-1.2-.7-.7-1-1.7-1-2.6 0-2.1 1.4-4.7 4.1-7.4l3-3c4-4 9.5-6.4 15.2-6.6l-.1-.2zM33.5 68.4l26.2-26.2a1.57 1.57 0 0 1 2.2 0l3.9 3.9-28.4 28.3-3.9-3.9c-.6-.6-.6-1.5 0-2.1zm16.6 28.7l2.1-2.1 4.9 4.9L55 102c-1.3 1.4-3.5 1.6-4.9.3s-1.6-3.5-.3-4.9h0c0-.1.2-.2.3-.3h0zm5.8 9.8l4.1-4.1 4.9 4.9-4.1 4.1c-1.3 1.4-3.5 1.5-4.9.2s-1.5-3.3-.3-4.8c0-.1.2-.2.3-.3h0zm5.5 15c-1.4-1.5-1.3-3.7.2-5.1l6.2-6.2 4.9 4.9-2.9 2.9c-.1.2-.3.3-.4.5l-2.9 2.9c-1.3 1.4-3.6 1.5-5.1.1h0zm13.6 5.4c-.9 0-1.8-.3-2.5-1-.7-.6-1-1.5-1-2.5 0-.8.3-1.5.8-2.2l3.3-3.3 4.9 4.9-2.9 2.9c-.7.7-1.6 1.2-2.6 1.2zm38.9-29.2c-.1.3-.3.5-.5.7-1.5 1.4-3.7 1.3-5.1-.2l-9.9-9.9h0L94 84.2c-.8-.8-2.1-.8-2.9 0s-.8 2.1 0 2.9l14.4 14.4h0l6.1 6.1c.7.7 1.1 1.6 1.1 2.6 0 .9-.3 1.8-1 2.5-.7.6-1.5 1-2.5 1s-1.9-.4-2.6-1.1l-16-16h0l-3.4-3.4c-.8-.8-2.1-.8-2.9 0s-.8 2.1 0 2.9h0l16 16c1.5 1.4 1.5 3.6.2 5.1-.7.7-1.5 1-2.5 1s-1.9-.4-2.6-1.1l-2.7-2.7h0L78.4 99.8c-.8-.8-2.1-.8-2.9 0s-.8 2.1 0 2.9l1.1 1.1h0l13.3 13.3c1.4 1.4 1.5 3.6.2 5.1-.2.2-.4.4-.7.5-1.6.7-3.5.3-4.7-1l-7.6-7.6h0 0 0l-7.8-7.8h0 0 0l-7.8-7.8h0l-7.8-7.8h0L40.3 77.3 68.6 49l4.1 4c-.3.3-.6.5-.9.8l-3 3c-3.6 3.7-5.4 7.2-5.3 10.5 0 2 .9 3.9 2.3 5.3 1.5 1.5 3.5 2.4 5.6 2.3 4.6-.2 8.3-4.5 8.6-4.9 1.6-1.7 3.4-3.1 5.5-4.2l27.4 27.4h0l.1.1c1.2 1.2 1.6 3.1.9 4.8h0zm20.6-29.3l-3.3 3.2-27.7-27.6 3.3-3.3a1.57 1.57 0 0 1 2.2 0l25.5 25.5a1.57 1.57 0 0 1 0 2.2h0z"></path>
  </symbol>
  <symbol id="esante" viewBox="0 0 168 168">
    <path d="M137.1 29H30.9c-1.1 0-1.9.9-1.9 1.9v88.9c0 1.1.9 1.9 1.9 1.9h37.3l-6.8 13.5h-9.7c-1.1 0-1.9.9-1.9 1.9a1.97 1.97 0 0 0 1.9 1.9h63.8c1.1 0 1.9-.9 1.9-1.9a1.97 1.97 0 0 0-1.9-1.9h-8.7l-6.8-13.5h37.2c1.1 0 1.9-.9 1.9-1.9V30.9c-.1-1-1-1.9-2-1.9zm-41.5 92.7l6.8 13.5H65.6l6.8-13.5h23.2zM75 77.1h0-.2-.3-.1-.3L74 77c-.4.1-.8.3-1.1.6l-.1.1-.1.1C69 84 61.1 86 54.9 82.3c-1.9-1.1-3.4-2.7-4.5-4.5l-.1-.1-.3-.3h0l-.2-.2c-.1 0-.2-.1-.3-.1h-.1c-.1 0-.2-.1-.3-.1h-.4-.4-.1c-6.8 2-11.6 9.5-11.6 18.2v8.9h-3.8V32.8h102.4v71.4H86.4v-8.9c0-8.6-4.7-16.1-11.4-18.2zm-.7 15.8c-1.1 0-1.9.9-1.9 1.9v9.4H50.7v-9.4c.1-1.1-.7-2-1.8-2s-2 .7-2 1.8v.3 9.4h-6.4v-8.9c0-6.3 3.1-12 7.6-14.1 5.4 7.4 15.8 9 23.2 3.6a15.38 15.38 0 0 0 3.6-3.6c4.5 2.1 7.7 7.8 7.7 14.1v8.9h-6.4v-9.4c0-1.1-.8-2-1.9-2h0zm60.9 15.1v9.9H32.8V108h102.4zm-96 6.9h5.4c1.1.1 2-.7 2-1.8.1-1.1-.7-2-1.8-2h-.3-5.4c-1.1-.1-2 .7-2 1.8-.1 1.1.7 2 1.8 2h.3zm22.3-65.8c-8.5 0-15.3 6.9-15.3 15.3s6.9 15.3 15.3 15.3c8.5 0 15.3-6.9 15.3-15.3.1-8.4-6.8-15.3-15.3-15.3zm0 26.8c-6.4 0-11.5-5.2-11.5-11.5 0-6.4 5.2-11.5 11.5-11.5 6.4 0 11.5 5.2 11.5 11.5 0 6.4-5.1 11.5-11.5 11.5zm67.7-2.2V42c0-1.1-.9-1.9-1.9-1.9h0-43.1c-1 0-1.9.8-1.9 1.9v31.7c0 1.1.9 1.9 1.9 1.9h0 43.1c1 0 1.9-.8 1.9-1.9zm-3.8-29.8v27.9H86.1V43.9h39.3zM138.3 168H0V0h168v138.3c0 16.4-13.3 29.7-29.7 29.7zM8 160h130.3c12 0 21.7-9.7 21.7-21.7V8H8v152zM110.7 49.4c0-.7-.6-1.3-1.3-1.3h0-7.3c-.7 0-1.3.6-1.3 1.3V53h-3.6c-.7 0-1.3.6-1.3 1.3h0v7.3c0 .7.6 1.3 1.3 1.3h0 3.6v3.6c0 .7.6 1.3 1.3 1.3h0 7.3c.7 0 1.3-.6 1.3-1.3h0v-3.6h3.6c.7 0 1.3-.6 1.3-1.3h0v-7.3c0-.7-.6-1.3-1.3-1.3h0-3.6v-3.6zm-2.6 12.1v3.6h-4.7v-3.6c0-.7-.6-1.3-1.3-1.3h0-3.6v-4.7h3.6c.7 0 1.3-.6 1.3-1.3h0v-3.6h4.7v3.6c0 .7.6 1.3 1.3 1.3h0 3.6v4.7h-3.6c-.7 0-1.3.6-1.3 1.3z"></path>
  </symbol>
  <symbol id="equipements-de-pointe" viewBox="0 0 168 168">
    <path d="M119.6 117.5c9.3-9.3 14.4-22 14.4-35.1-.1-23.4-16.3-43.7-39.2-48.9h0c-.5-2.6-2.7-4.5-5.4-4.5h-11c-2.6 0-4.9 1.9-5.3 4.5h0c-22.8 5.1-39 25.4-39.1 48.8 0 13.2 5.1 25.8 14.4 35.1l-2.6 5.2c-.2.3-.2.7-.2 1v9.9c0 3 2.4 5.4 5.4 5.4h66c3 0 5.4-2.4 5.4-5.4v-9.9c0-.3-.1-.7-.2-1l-2.6-5.1zm-1.4 8.3v7.8c0 .6-.5 1.2-1.2 1.2h0-66c-.6 0-1.2-.5-1.2-1.2h0v-7.8h68.4zM78.5 33.3h11c.6 0 1.1.4 1.1 1l3.7 19.8c.1.3 0 .6-.2.9s-.4.4-.7.5h-.2-18.4c-.6 0-1.2-.5-1.2-1.2h0v-.2l3.7-19.8c.1-.6.6-1 1.2-1zm-27.4 88.2L61.9 100a1.1 1.1 0 0 1 1-.6H67v1.2c0 3 2.4 5.5 5.4 5.5h23.1c3 0 5.4-2.4 5.4-5.4v-1.2h4.1c.4 0 .8.3 1 .6l10.7 21.5-65.6-.1zm21.3-28.8h23.1c.6 0 1.2.5 1.2 1.2h0v6.6c0 .6-.5 1.2-1.2 1.2H72.4c-.6 0-1.2-.5-1.2-1.2v-6.6a1.49 1.49 0 0 1 1.2-1.2zm23.2-4.2H72.4c-3 0-5.4 2.4-5.4 5.5v1.2h-4.1c-2.1 0-4 1.2-4.9 3l-.3.6c-9-14.5-4.5-33.5 10-42.5.5-.3 1.1-.7 1.7-1 .4 2.6 2.7 4.6 5.4 4.6h18.5c.3 0 .7 0 1-.1 2.3-.4 4-2.2 4.4-4.5 15 8.1 20.7 26.8 12.6 41.8-.3.6-.6 1.1-1 1.7l-.3-.6c-.9-1.8-2.8-3-4.9-3H101V94c0-3.1-2.4-5.5-5.4-5.5zm23.6-6.2A35.21 35.21 0 0 0 98 50l-2.2-11.9c24.4 6.5 39 31.6 32.5 56-1.9 7.2-5.6 13.8-10.6 19.3l-5.2-10.3c4.3-6.1 6.7-13.3 6.7-20.8h0zM70 50.1c-17.8 7.7-26 28.4-18.3 46.3 1 2.4 2.3 4.6 3.8 6.7l-5.2 10.3c-17.1-18.6-16-47.5 2.6-64.7 5.5-5 12.1-8.7 19.3-10.6l-2.2 12zM138.3 168H0V0h168v138.3c0 16.4-13.3 29.7-29.7 29.7zM8 160h130.3c12 0 21.7-9.7 21.7-21.7V8H8v152z"></path>
  </symbol>
  <symbol id="essai-clinique" viewBox="0 0 168 168">
    <path d="M138.3 168H0V0h168v138.3c0 16.4-13.3 29.7-29.7 29.7zM8 160h130.3c12 0 21.7-9.7 21.7-21.7V8H8v152zm116-35.6H62.2v-64h26.3v9.4c-13 4.5-19.9 18.6-15.5 31.6s18.6 19.9 31.6 15.5 19.9-18.6 15.5-31.6c-2.5-7.3-8.2-13-15.5-15.5v-9.3h9a2.22 2.22 0 0 0 2.2-2.2 2.22 2.22 0 0 0-2.2-2.2h-3.4a6.28 6.28 0 0 0 .3-1.9c0-3.5-2.8-6.3-6.3-6.3H88.9c-3.4-.1-6.3 2.7-6.3 6.1 0 .7.1 1.4.3 2.1H62.2v-16c-.1-3.5-3.1-6.2-6.5-6-3.3.1-5.9 2.8-6 6V56h-2.4a2.22 2.22 0 0 0-2.2 2.2 2.22 2.22 0 0 0 2.2 2.2h2.4v64h0a4.48 4.48 0 0 0-4.5 4.5h0v5.4a4.48 4.48 0 0 0 4.5 4.5H124a4.48 4.48 0 0 0 4.5-4.5V129c.1-2.5-2-4.6-4.5-4.6zm-27.3-10.5a20.47 20.47 0 0 1-19-12.8c2.7.7 5.5 1 8.3 1 5.9.1 11.6-1.3 16.7-4.2 4.4-2.5 9.4-3.8 14.5-3.8-.4 11-9.5 19.8-20.5 19.8h0zm20.1-24.3c-5.8 0-11.4 1.6-16.5 4.4-7.1 4.3-17.6 4.4-24 2-1.5-10.2 5-20 15-22.5 1-.3 1.6-1.1 1.6-2.1v-11h7.4v11c0 1 .6 1.9 1.6 2.2 7.7 2 13.5 8.2 14.9 16h0zM87 54.2a1.97 1.97 0 0 1 1.9-1.9h0 15.6a1.97 1.97 0 0 1 1.9 1.9 1.97 1.97 0 0 1-1.9 1.9h0-15.6c-1.1-.1-1.9-.9-1.9-1.9zm-32.9-14a1.97 1.97 0 0 1 1.9-1.9 1.97 1.97 0 0 1 1.9 1.9v15.9h-3.8V40.2zm0 20.2h3.8v64h-3.8v-64zm70.1 74H49.6v-5.6l74.5.1.1 5.5z"></path>
  </symbol>
  <symbol id="groupe-experts" viewBox="0 0 168 168">
    <path d="M73.9 66.9c5.1 3.9 12.2 3.9 17.3 0 2 1.1 3.7 2.5 5.2 4.2 1.2-1.1 2.6-2 4-2.8-1.6-2-3.6-3.7-5.8-5.1 4.4-6.7 2.6-15.7-4.1-20.1s-15.7-2.6-20.1 4.1c-3.2 4.8-3.2 11.1 0 16-2.2 1.4-4.1 3.1-5.8 5.1 1.4.8 2.8 1.7 4 2.8 1.6-1.8 3.4-3.2 5.3-4.2zm8.7-21.2c5.3 0 9.6 4.3 9.6 9.7 0 5.3-4.3 9.6-9.6 9.6s-9.7-4.3-9.7-9.6c0-5.4 4.3-9.7 9.7-9.7zM138.3 168H0V0h168v138.3c0 16.4-13.3 29.7-29.7 29.7zM8 160h130.3c12 0 21.7-9.7 21.7-21.7V8H8v152zm59.7-66.3c4.4-6.7 2.6-15.6-4.1-20s-15.6-2.6-20 4.1a14.37 14.37 0 0 0 0 15.9c-6.8 4.2-11 11.6-11 19.6v1.7c0 5.1 4.2 9.3 9.3 9.3h27.6c5.1 0 9.3-4.2 9.3-9.3v-1.7c-.1-8-4.2-15.4-11.1-19.6zm-12-17.5c5.3 0 9.6 4.3 9.6 9.7 0 5.3-4.3 9.6-9.7 9.6-5.3 0-9.6-4.3-9.6-9.7 0-5.3 4.3-9.7 9.7-9.6zm18.2 38.9a4.48 4.48 0 0 1-4.5 4.5H41.9a4.48 4.48 0 0 1-4.5-4.5v-1.7c0-6.7 3.7-12.8 9.6-16 5.1 3.9 12.2 3.9 17.3 0 5.9 3.2 9.6 9.3 9.6 16v1.7zm47.7-21.4c4.4-6.7 2.6-15.6-4.1-20s-15.6-2.6-20 4.1a14.37 14.37 0 0 0 0 15.9c-6.8 4.2-11 11.6-11 19.6v1.7c0 5.1 4.2 9.3 9.3 9.3h27.6c5.1 0 9.3-4.2 9.3-9.3v-1.7c-.1-8-4.3-15.4-11.1-19.6zm-12.1-17.5c5.3 0 9.7 4.3 9.6 9.7 0 5.3-4.3 9.6-9.7 9.6-5.3 0-9.6-4.3-9.6-9.7 0-5.3 4.4-9.7 9.7-9.6zm18.2 38.9a4.48 4.48 0 0 1-4.5 4.5H95.7a4.48 4.48 0 0 1-4.5-4.5v-1.7c0-6.7 3.7-12.8 9.6-16 5.1 3.9 12.2 3.9 17.3 0 5.9 3.2 9.6 9.3 9.6 16v1.7zM90 89.1H75.1c-.2 1-.4 2-.8 3 .7.6 1.3 1.2 1.8 1.8H89l1.8-1.8c-.3-1-.6-2-.8-3zm59.2-35.7l-7.1-11 .8-.5c.5-.3.7-.9.6-1.5L143 38l1.4-2c.3-.5.3-1.1 0-1.6l-1.4-2 .5-2.3c.1-.6-.1-1.1-.6-1.5l-2-1.3-.4-2.3c-.1-.6-.6-1-1.1-1.2l-2.3-.4-1.3-2c-.3-.5-.9-.7-1.5-.6l-2.3.5-2-1.3c-.5-.3-1.1-.3-1.6 0l-2 1.3-2.4-.5c-.6-.1-1.1.1-1.4.6l-1.3 2-2.3.4c-.6.1-1 .6-1.1 1.1l-.4 2.3-2 1.3c-.5.3-.7.9-.6 1.5l.5 2.3-1.3 2c-.3.5-.3 1.1 0 1.6l1.3 2-.5 2.3c-.1.6.1 1.1.6 1.5l.8.5-7.1 11c-.4.7-.3 1.6.4 2 .3.2.7.3 1.1.2l5.3-1.1 1.4 4.9c.1.4.3.7.7.8.2.1.4.2.7.2.1 0 .3 0 .4-.1.3-.1.6-.3.8-.6l6.3-10.5h.3l2 1.3c.5.3 1.1.3 1.6 0l2-1.3h.3l6.3 10.5c.4.7 1.3.9 2 .5.3-.2.5-.5.6-.8l1.4-4.9 5.3 1.1c.8.1 1.5-.4 1.7-1.1-.2-.2-.3-.6-.6-.9h0zm-31.4-8.3l.1.3a1.49 1.49 0 0 0 1.2 1.2l2.3.4 1.3 2c.1.1.1.2.2.2l-3.7 6.2-.9-3a1.41 1.41 0 0 0-1.4-1h-.3l-3.3.7 4.5-7zm4.6-.7l-2-.4-.4-2c-.1-.4-.3-.7-.6-.9l-1.7-1.1.4-2c.1-.4 0-.8-.2-1.1l-1.1-1.7 1.2-1.7a1.39 1.39 0 0 0 .2-1.1l-.4-2 1.7-1.1c.3-.2.5-.5.6-.9l.4-2 2-.4c.4-.1.7-.3.9-.6l1.1-1.7 2 .4a1.39 1.39 0 0 0 1.1-.2l1.7-1.1 1.6 1.1a1.39 1.39 0 0 0 1.1.2l2-.4 1.1 1.7c.2.3.5.6.9.6l2 .4.4 2c.1.4.3.7.6.9l1.7 1.1-.4 2a1.39 1.39 0 0 0 .2 1.1l1.1 1.7-1.1 1.7a1.39 1.39 0 0 0-.2 1.1l.4 2-1.7 1.1c-.3.2-.5.5-.6.9l-.4 2-2 .4c-.4 0-.7.2-.9.5l-1.1 1.7-2-.4a1.39 1.39 0 0 0-1.1.2l-1.7 1.1-1.7-1.1c-.2-.2-.5-.3-.8-.2h-.3l-2 .4-1-1.7c-.2-.2-.6-.5-1-.5zm13.3 4.6l1.3-2 2.3-.4c.6-.1 1-.6 1.1-1.2l.1-.3 4.5 7-3.3-.7c-.7-.1-1.4.3-1.6 1l-.9 3-3.7-6.2c.1 0 .2-.1.2-.2zm-.2-16l-1.8-1.8-5.4 5.4-3.2-3.2-1.8 1.8 5 5 7.2-7.2z"></path>
  </symbol>
  <symbol id="innovation" viewBox="0 0 168 168">
    <path d="M138.3 168H0V0h168v138.3c0 16.4-13.3 29.7-29.7 29.7zM8 160h130.3c12 0 21.7-9.7 21.7-21.7V8H8v152zm37.7-23.9a2.22 2.22 0 0 1-2.2-2.2v-13.3a2.22 2.22 0 0 1 2.2-2.2h36.6a1.11 1.11 0 0 0 1.1-1.1V114c0-2.1.6-4.2 1.7-6.1.3-.5.1-1.2-.4-1.5-.2-.1-.4-.1-.5-.1H52.4c-1.2.1-2.3-.9-2.4-2.1s.9-2.3 2.1-2.4h.3 43.2c2.6 0 5.1.8 7.1 2.3.2.1.4.2.6.2.3 0 .5-.1.7-.3.1-.1.2-.1.2-.2h0c12.7-8.5 16.1-25.6 7.6-38.3-.3-.4-.5-.8-.8-1.2-.2-.3-.5-.4-.8-.4h-.1c-.3 0-.6.1-.8.3-2 2.1-4.6 3.4-7.5 3.8a1.08 1.08 0 0 0-.7.3L86.3 83.2a1.09 1.09 0 0 0 0 1.5l1 1a2.33 2.33 0 0 1-.1 3.2c-.9.8-2.2.8-3 0l-1-1c-.2-.2-.5-.3-.8-.3s-.6.1-.8.3L74 95.5c-.4.4-1 .7-1.6.7s-1.2-.2-1.6-.7l-10-10c-.9-.9-.9-2.3 0-3.1l7.6-7.6a1.09 1.09 0 0 0 0-1.5l-1-1a2.23 2.23 0 1 1 3.2-3.2l1 1c.2.2.5.3.8.3s.6-.1.8-.3l15-15.1c.2-.2.3-.4.3-.6.6-5.6 5.1-10 10.7-10.7.2 0 .5-.1.6-.3l10.8-10.8a2.23 2.23 0 0 1 3.2 0l10 10a2.23 2.23 0 0 1 0 3.2L113 56.5c-.2.2-.3.4-.3.6v.5c0 .2 0 .4-.1.6-.1.4 0 .7.3 1 0 .1.1.1.2.1 11.8 13.2 10.6 33.5-2.6 45.3-1.1 1-2.3 1.9-3.5 2.7-.4.3-.6.9-.4 1.4.8 1.6 1.2 3.4 1.2 5.2v3.3a1.11 1.11 0 0 0 1.1 1.1h10a2.22 2.22 0 0 1 2.2 2.2v13.3a2.22 2.22 0 0 1-2.2 2.2l-73.2.1zm3.4-13.3a1.11 1.11 0 0 0-1.1 1.1v6.6a1.11 1.11 0 0 0 1.1 1.1h66.5a1.11 1.11 0 0 0 1.1-1.1v-6.6a1.11 1.11 0 0 0-1.1-1.1H49.1zm46.6-16.6c-4.3 0-7.7 3.5-7.8 7.7v3.3a1.11 1.11 0 0 0 1.1 1.1h13.3a1.11 1.11 0 0 0 1.1-1.1v-3.3c0-4.3-3.5-7.7-7.7-7.7h0zM72.4 77.6c-.3 0-.6.1-.8.3l-5.3 5.3a1.09 1.09 0 0 0 0 1.5l5.3 5.2c.2.2.5.3.8.3s.6-.1.8-.3l5.3-5.3a1.09 1.09 0 0 0 0-1.5L73.1 78c-.2-.2-.4-.3-.7-.4zM89 61.1c-.3 0-.6.1-.8.3L76.3 73.3a1.09 1.09 0 0 0 0 1.5l5.3 5.3a1.09 1.09 0 0 0 1.5 0L95 68.2c.2-.2.4-.6.3-.9 0-.3-.3-.6-.6-.8l-.3-.2-.3-.3-.2-.1-.3-.2a10.71 10.71 0 0 1-3-3c-.1-.1-.2-.2-.2-.4l-.1-.2c0-.1-.1-.2-.2-.3s-.2-.2-.2-.3c-.2-.2-.5-.4-.9-.4h0zm11.7-13c-4.3 0-7.7 3.5-7.7 7.7 0 4.3 3.5 7.7 7.7 7.7 4.3 0 7.7-3.5 7.7-7.7h0c0-4.3-3.4-7.8-7.7-7.7 0-.1 0-.1 0 0h0zm11.6-10.3c-.3 0-.6.1-.8.3l-5.2 5.2a1.09 1.09 0 0 0 0 1.5c.1.1.2.1.2.2l.3.2.3.2.2.1.3.2a10.71 10.71 0 0 1 3 3c.1.1.2.2.2.4l.1.2.2.3c.1.1.2.2.2.4.2.3.5.5.8.6h.2c.3 0 .6-.1.8-.3l5.2-5.2a1.09 1.09 0 0 0 0-1.5l-5.3-5.3c-.1-.4-.4-.5-.7-.5h0z"></path>
  </symbol>
  <symbol id="medicaments" viewBox="0 0 168 168">
    <path d="M138.3 168H0V0h168v138.3c0 16.4-13.3 29.7-29.7 29.7zM8 160h130.3c12 0 21.7-9.7 21.7-21.7V8H8v152zm108.9-75.4l5.1-5.1c9-9.5 8.5-24.6-1-33.5-9.1-8.6-23.4-8.6-32.5 0L46 88.5c-8.8 9.7-8.1 24.7 1.5 33.5 9.1 8.3 22.9 8.3 32 0l5.1-5.1c6.4 11.4 20.9 15.4 32.3 9s15.4-20.9 9-32.3a22.91 22.91 0 0 0-9-9h0zm-35.4 20.7a23.01 23.01 0 0 0 .9 6.4l-6.6 6.6c-7.4 7-19.1 6.8-26.1-.6-6.8-7.1-6.8-18.4 0-25.5L68.9 73l17.7 17.7c-3.3 4.1-5.1 9.3-5.1 14.6zm21.1 18.2c-10.1-1.4-17.1-10.8-15.7-20.9 1.2-8.1 7.5-14.5 15.7-15.7v36.6zM90.3 86.9L72.7 69.2l19.6-19.6c7.4-7 19.1-6.8 26.1.6 6.8 7.1 6.8 18.4 0 25.5l-6.6 6.6c-7.6-2-15.5-.3-21.5 4.6zm17.6 36.6V87c10.1 1.4 17.1 10.8 15.7 20.9-1.2 8.1-7.6 14.5-15.7 15.6z"></path>
  </symbol>
  <symbol id="patient-h" viewBox="0 0 168 168">
    <path d="M138.3 168H0V0h168v138.3c0 16.4-13.3 29.7-29.7 29.7zM8 160h130.3c12 0 21.7-9.7 21.7-21.7V8H8v152zm99.6-51.2l-.4-.3.4.3h0zm-47.4.1h0l1.4-1-1.4 1zm15-13.8c1.1 1.9 3.4 2.8 5.5 2.2l.8-.3a7.55 7.55 0 0 1 4.7 0l.8.3c.5.1.9.2 1.4.2 1.7 0 3.3-.9 4.1-2.4l2.5-4.3c.9-1.4.4-3.3-1-4.1-.1-.1-.3-.2-.5-.2a25.35 25.35 0 0 0-19.5 0c-1.6.7-2.3 2.4-1.6 4 0 .1.1.2.2.3l2.6 4.3zm16.4-5.5l-2.2 3.7a1.3 1.3 0 0 1-1.3.5l-.8-.2c-2.2-.7-4.6-.7-6.8 0l-.8.2c-.5.2-1-.1-1.3-.5l-2.1-3.7c4.8-1.9 10.3-1.9 15.3 0zm36.3 35.1c-2.1-4.7-5.3-8.9-9.3-12.1h0l-1.8-1.5-12.3-9.4c6-7.1 9.2-16.2 9-25.5l-.1-3.2c3.2-2.7 3.7-7.4 1-10.6l-.3-.3c0-.1.1-.1.1-.2l.6-2.3c1.5-6 1.3-12.4-.7-18.3-1.6-6-6.6-11.4-6.6-11.4l-2.2-2.5.2-1.5c.1-.9-.1-1.8-.7-2.4-.6-.7-1.4-1-2.3-1l-5.3.3c-.7 0-1.4-.1-2.1-.3H95c-8.4-3-17.7-2.3-25.5 2.1-1.7.9-3.1 2.2-4.2 3.8l-2.2.9c-9.4 3.9-14.3 14.3-11.2 24l2.6 8.2c-3.1 2.8-3.4 7.6-.6 10.7l.6.6-.1 3.4c0 3.5.4 7.1 1.2 10.5h0c.8 5.6 5.7 12.2 5.7 12.2h0c.8 1.2 1.6 2.2 2.2 3l-6.1 4.7-.1-.1.1.1-6 4.6c-9.5 7.3-15.1 18.5-15.1 30.5v3.9h95.6v-3.9c-.1-5.9-1.5-11.7-4-17zM108.5 71h-.1v-7.8h.1c2.1-.1 4 1.5 4.1 3.7.1 2.1-1.5 4-3.7 4.1h-.4zM66.8 34.3c.3-2.8 1.9-5.2 4.4-6.5 6.9-3.9 15.1-4.5 22.5-1.9l.2.1c1.1.4 2.3.6 3.5.5l4.3-.2-.2 1.4c-.1.5.1 1.1.4 1.5l2.8 3.1.5.5c2.3 2.9 4.1 6.2 5.4 9.6 1.7 5.2 1.9 10.9.6 16.2l-.3 1.3c-.8-.2-1.6-.4-2.3-.4h-.1v-2.1c0-7.4-6-13.4-13.4-13.4H75.5c-1.6 0-3.1-.4-4.5-1.2l-1.2-.9c-2.1-1.9-3.2-4.7-3-7.6zm37.9 23.1v18.3h0c0 3.1-2.5 5.7-5.7 5.7-.9 0-1.8-.2-2.5-.6l-6.4-3.2c-1.7-.8-3.8-.6-5.3.6-.5.4-1.1.4-1.6 0-1.5-1.2-3.6-1.4-5.3-.6l-6.4 3.2c-2.8 1.4-6.2.3-7.6-2.6-.4-.8-.6-1.7-.6-2.5V61.1c0-4.4 1.3-8.6 3.8-12.2l2-3h0c1.9 1.1 4.1 1.7 6.4 1.7H95c5.3 0 9.7 4.4 9.7 9.8h0zm-49.3-5.3c-2.4-7.4 1-15.5 7.9-19 0 .3-.1.5-.1.8-.3 3.5.8 7 3.1 9.6L64 46.8c-2.6 3.8-4.1 8.2-4.4 12.7h-.1c-.6 0-1.1.1-1.7.2l-2.4-7.6zm.2 15c0-2.1 1.7-3.9 3.9-3.9h.1V71h-.1c-2.1 0-3.9-1.7-3.9-3.9h0zm5.9 25.6c-.7-1.3-1.2-2.6-1.7-4h0c-1.2-4-1.8-8.2-1.8-12.4v-1.7c.5.1 1 .1 1.4.1h.1v1a9.39 9.39 0 0 0 9.4 9.4c1.4 0 2.9-.3 4.2-1l6.4-3.2c.4-.2 1-.2 1.4.1 1.8 1.4 4.3 1.4 6.1 0 .4-.3.9-.4 1.4-.1l6.4 3.2c4.6 2.3 10.3.4 12.6-4.2.6-1.3 1-2.7 1-4.2v-1h.1c.4 0 .8 0 1.2-.1v1.7c.3 13.7-7.5 26.3-19.9 32.2l-5.7 2.7c-.1.1-.3.1-.5 0l-5.7-2.7c-4.8-2.5-9.1-6-12.5-10.2-.3-.4-.6-.8-1-1.2-1.1-1.5-2-3-2.9-4.4h0zm.1 15.2l.5-.4 3.9-3c3 2.9 6.5 5.4 10.4 7.2l5.7 2.7c.6.3 1.2.4 1.8.4s1.2-.1 1.8-.4l5.7-2.7c3.9-1.8 7.4-4.3 10.5-7.3l4.4 3.4.9.7.4.3.2.1-24 18-23.4-18.1 1.2-.9zm28.6 34.2H74.5l-9.6-25.3 16.7 12.9 2.1 1.6 2.1-1.6 17.1-12.8-9.7 25.2h-3zm-26.6 0H39.9v-.4c0-10.8 5.1-21.1 13.6-27.7l2.2-1.7 2.9-2.2L70.7 142l-7.1.1zm64.5 0h-31l12.3-31.9 5.1 3.9c.6.5 1.2.9 1.8 1.4a54.16 54.16 0 0 1 6.3 7.2c0 .1.1.2.1.2a34.6 34.6 0 0 1 5.5 18.7v.5zm-66-34.6l-.5.4.5-.4h0zm44.2.3h0l.9.7-.9-.7z"></path>
  </symbol>
  <symbol id="patiente" viewBox="0 0 168 168">
    <path d="M138.3 168H0V0h168v138.3c0 16.4-13.3 29.7-29.7 29.7zM8 160h130.3c12 0 21.7-9.7 21.7-21.7V8H8v152zm127.1-34.7c-1.2-5.2-4.6-14.3-14.8-16.5l-20.1-4.6c-.7-.1-1.1-.7-1.1-1.4v-6.1a23.48 23.48 0 0 0 2.5-1.9c12.1-.4 21.8-10.2 22-22.3.1-14.5-3.8-25.9-11.8-33.8C100.2 27.1 84.7 27.3 84 27.3c-2.8 0-17 .6-27.8 11.3-8 7.9-11.9 19.3-11.8 33.8.2 12.1 9.9 21.9 22 22.3a32.57 32.57 0 0 0 2.2 1.7v6.3c0 .7-.5 1.3-1.1 1.4l-19.8 4.5C37.5 111 34 120.1 32.8 125.3a74.26 74.26 0 0 0-.9 11.5 2.22 2.22 0 0 0 2.2 2.2h99.7a2.22 2.22 0 0 0 2.2-2.2c.1-3.9-.2-7.7-.9-11.5zm-38.8-18.5c-5.7 6.8-15.9 7.6-22.7 1.9-.7-.6-1.4-1.3-2-2.1.9-1.1 1.4-2.4 1.4-3.8v-3.7c6.9 3.2 14.8 3.2 21.7.1v3.6c0 1.5.6 2.9 1.6 4zm4.1 2l19 4.3c7.7 1.7 10.4 8.9 11.4 13.1.4 2.8.7 5.6.8 8.4H36.4c.1-2.8.3-5.6.8-8.4.9-4.2 3.7-11.4 11.4-13.1l19-4.3c6.9 9.1 19.8 10.9 28.8 4 1.5-1.1 2.9-2.5 4-4h0zm8.3-67c7.1 7 10.6 17.3 10.5 30.6-.1 7.8-5.2 14.7-12.7 17.1 4-5.6 6.2-12.4 6.1-19.3V70v-.1-.1c0-.5-2.2-9.8-13.6-11.8s-12.8-7.5-12.8-7.6c-.2-1-1.1-1.7-2.2-1.8-1 0-1.9.7-2.2 1.7 0 .3-1.5 5.7-12.8 7.7-11.4 2-13.6 11.3-13.6 11.7v.2.2c0 6.9 2.1 13.7 6.2 19.3-7.5-2.3-12.6-9.2-12.7-17.1-.1-13.3 3.4-23.6 10.5-30.6 9.3-9.3 22.2-10 24.7-10h.1c0 .1 14.4 0 24.5 10.1h0zm-39 20.5c7.9-1.4 12.1-4.4 14.3-7 2.2 2.6 6.4 5.7 14.3 7 7.6 1.3 9.6 6.8 10 8.1C108.1 85.1 97.3 97 84 97S59.9 85.1 59.8 70.4c.4-1.3 2.3-6.7 9.9-8.1h0zM84 91.1c3.9 0 7.6-1.7 10.2-4.6.8-.9.7-2.3-.2-3.1-.4-.4-1-.6-1.6-.6s-1.1.3-1.5.7c-3.3 3.8-9.2 4.2-13 .9l-.9-.9c-.4-.4-.9-.7-1.5-.7-1.2-.1-2.3.9-2.3 2.1 0 .6.2 1.2.6 1.6 2.6 2.9 6.3 4.5 10.2 4.6z"></path>
  </symbol>
  <symbol id="publication" viewBox="0 0 168 168">
    <path d="M130.2 43.1a1.95 1.95 0 0 0-1.9-2.1h-.1-5.8V31c0-1.1-.9-2-2-2H46.1a8.28 8.28 0 0 0-8.3 8.3v92.1c0 5.3 4.3 9.7 9.7 9.7h80.7c1.1 0 2-.9 2-2v-94zM90.5 81.6c.4.4.9.6 1.4.6h0c.5 0 .9-.2 1.3-.5l7.2-6 7.2 6c.8.7 2.1.6 2.8-.2v-.1c.3-.4.5-.8.5-1.3v-47h7.4v86.5H53.8V33.1h36.1v47.1c0 .5.2 1 .6 1.4zm16.5-5.8l-5.2-4.3c-.7-.6-1.9-.6-2.6 0L94 75.8V33.1h13v42.7zm-57.2 43.8h-2.3-1-.3l-.8.1-1.4.4-.9.4-.9.5-.4.3v-84c0-2.4 1.9-4.3 4.2-4.3h3.6l.2 86.6zm-2.3 4.1h73c1.1 0 2-.9 2-2V45.1h3.7V135H47.5a5.59 5.59 0 0 1-5.6-5.6c0-3.2 2.5-5.7 5.6-5.7h0zm3.4 7.6H115c1.1 0 2-.9 2-2s-.9-2-2-2H50.9c-1.1 0-2 .9-2 2s.9 2 2 2zm87.4 36.7H0V0h168v138.3c0 16.4-13.3 29.7-29.7 29.7zM8 160h130.3c12 0 21.7-9.7 21.7-21.7V8H8v152z"></path>
  </symbol>
  <symbol id="rayonnement" viewBox="0 0 168 168">
    <path d="M91.8 50.5c-6.7 0-12.2 5.5-12.2 12.2 0 3.5 4.4 10.5 8 16.2 1.3 2 2.3 3.7 3.1 5 .3.6 1.1.9 1.8.5.2-.1.4-.3.5-.5.8-1.3 1.9-3.2 3.2-5.2 3.7-5.8 7.9-12.4 7.9-16-.1-6.7-5.6-12.2-12.3-12.2zm9.5 12.2c0 2.9-4.3 9.7-7.5 14.7a82.9 82.9 0 0 0-2.1 3.3c-.6-1-1.3-2-2-3.2-3.2-5.1-7.6-12.1-7.6-14.8 0-5.3 4.3-9.6 9.6-9.6s9.6 4.3 9.6 9.6h0 0zm-9.5-6.6c-3.4 0-6.2 2.8-6.1 6.2 0 3.4 2.8 6.2 6.2 6.1 3.4 0 6.1-2.8 6.1-6.2 0-3.3-2.8-6.1-6.2-6.1zm3.5 6.2c0 2-1.6 3.5-3.6 3.5s-3.5-1.6-3.5-3.6 1.6-3.5 3.5-3.5 3.6 1.6 3.6 3.6z"></path><path d="M138.3 168H0V0h168v138.3c0 16.4-13.3 29.7-29.7 29.7zM8 160h130.3c12 0 21.7-9.7 21.7-21.7V8H8v152zM142.1 56.4a1.98 1.98 0 0 0-1.4-1.4l-7.7-2.4-5.1-1.2-1.9-2.9c-.3-.6-.9-.9-1.6-1l-4.6-.3h-3.3l-3.5-3.4v-3.3c0-1.2-.9-2.1-2.1-2.1-.5 0-.9.2-1.3.5l-2.4 1.9h-.2l-.5-2.2c-.1-.6-.5-1.1-1.1-1.4l-4.9-2.5c-.3-.2-.7-.2-1-.2h-1.3l-.4-1.8c-.2-.9-1-1.6-2-1.7h-2l-.8-.2-.6-3.4c-.2-1.1-1.3-1.9-2.4-1.7-.2 0-.4.1-.6.2l-8.2 4.2a1.92 1.92 0 0 0-1.1 1.5l-1.7 8.9-5.5 2.5-5.4 3.4c-.9.6-1.2 1.7-.8 2.6l.4.8-2.3.8-5.3-1.3-.2-1.6c-.1-1-1-1.8-2.1-1.8H56l-3.6-1c-.7-.2-1.5 0-2 .5s-.8 1.2-.6 1.9l.8 4c0 .2.1.4.2.6l1 1.8v4.5c-.5-.2-1.1-.1-1.6.2l-2.6 1.4h-2.1l-.7-.8c-.1-.2-.3-.3-.5-.4l-3-1.8c-.6-.4-1.4-.4-2-.1l-3.2 1.6h-3.7c-.2 0-.4 0-.6.1L26.6 60c-.9.3-1.5 1.1-1.5 2v2.6c0 .9.6 1.7 1.4 2h0c-1.1.4-1.7 1.6-1.3 2.7.1.2.2.5.4.7l1.7 2 1.1 2c.5.9 1.6 1.3 2.6 1l2.5-.9 10.7 3.4v1.1c0 1.2.9 2.1 2.1 2.1h.7l.6 1.2v2.7c0 .5.2 1 .5 1.4l4.3 4.9c.2.2.4.4.6.5l3.4 1.7v.5h-.6c-1.2 0-2.1.9-2.1 2.1 0 .3.1.6.2.9l2.4 5.4-2.5 21.7-2.3 1.5c-.6.4-.9 1-.9 1.7s.3 1.3.8 1.7l4.9 3.8 7.8 3.7c.2.1.5.2.7.2l9.1.9c.9.1 1.8-.4 2.1-1.2l.1-.3 8.2 3 3.6 2.8c.4.3.8.4 1.3.4h.4l7.5-1.6c1.1-.2 1.9-1.4 1.6-2.5 0-.2-.1-.4-.3-.6l-1.5-2.6v-1.8l6.5-5.1 3.4 2.8c.6.5 1.4.6 2.1.4l2.9-1.1 8.3 4a2.12 2.12 0 0 0 1.9 0l5.8-2.9c.2-.1.4-.3.6-.4l6-6.6 2.9-4.4c.6-1 .4-2.3-.6-2.9-.3-.2-.7-.3-1.2-.3h-2.2l-2.2-1.5 1-3.6c.3-.9-.1-2-1-2.4l-2.1-1.1v-.7l2.5-1.5c.9-.5 1.3-1.6.9-2.6l-1.8-4.7 1.1-1.5c.6-.8.5-1.8-.1-2.6l-1.6-1.9-1.2-3.6c-.3-.9-1.1-1.4-2-1.4h-1l.2-.2c.4-.4.6-.9.6-1.5v-1.8l3.1-2c.5-.3.9-.9.9-1.5l.1-1.2c.7.2 1.4.1 2-.4l2.5-2.1c.4-.3.6-.7.7-1.2l2.4-12.4 3.5-4.6c.5-.5.6-1.2.3-1.9zm-19.8 26.2v2.1l-2.1 2.1c-.4.4-.6.9-.6 1.5v1.5l-1.4 1.9c-.7.9-.5 2.2.4 2.9.6.5 1.4.5 2.1.2l2.9-1.3c.3-.2.6-.4.8-.7l.8-1.1.8 2.3c.1.2.2.5.4.7l.8.9-.8 1.1c-.4.6-.5 1.3-.3 2l1.6 4.1-2 1.2c-.6.4-1 1.1-1 1.8v2.8c0 .8.4 1.5 1.1 1.9l1.7.9-1 3.4c-.3.9.1 1.8.9 2.3l4 2.7c.1.1.2.1.3.1l-.7 1.1-5.5 5.9-4.5 2.3-8.1-3.9c-.5-.3-1.1-.3-1.7-.1l-2.6 1-3.7-3.1c-.8-.6-1.9-.6-2.6 0l-8.6 6.8c-.5.4-.8 1-.8 1.6v3.4a1.69 1.69 0 0 0 .3 1l.3.5-3.7.8-3.1-2.4-.6-.3-10.3-3.7c-.2-.1-.5-.1-.7-.1-.8 0-1.6.5-2 1.2l-.3.7-7.2-.7-7.1-3.4-2.1-1.6.7-.4c.5-.3.9-.9.9-1.5l2.7-23.3c0-.4 0-.8-.2-1.1l-1.4-3c.9-.2 1.6-1.1 1.6-2v-3.9c0-.8-.5-1.5-1.2-1.9l-4.2-2.1-3.5-4v-2.4c0-.3-.1-.7-.2-1L50 77.5c-.3-.7-1-1.1-1.7-1.1v-.5c0-.9-.6-1.7-1.5-2L34 69.8c-.4-.2-.9-.2-1.3 0l-1.5.5-.5-.8 1.1-.4c1.1-.4 1.7-1.6 1.3-2.7-.1-.3-.3-.5-.5-.7l-2.4-2.5 2.4-.8h3.9c.3 0 .6-.1.9-.2l2.7-1.3 1.7 1 1.1 1.4c.4.5 1 .7 1.6.7h3.6c.3 0 .7-.1 1-.2l2.2-1.2 3.7 1.3c1.1.4 2.3-.2 2.7-1.2.2-.6.2-1.2-.1-1.8L56 58.1v-4.8a1.69 1.69 0 0 0-.3-1l-1.1-2V50l.9.2.2 1.2c.1.8.8 1.5 1.6 1.7l7.2 1.7c.4.1.8.1 1.2 0l5-1.7c1.1-.4 1.7-1.6 1.3-2.6 0-.1 0-.1-.1-.2l-.6-1.3 3.7-2.4 6.2-2.8c.6-.3 1.1-.9 1.2-1.5l1.7-9 4.7-2.4.3 1.8c.1.8.7 1.4 1.4 1.7l2.3.8c.2.1.4.1.7.1h.7l.4 1.8c.2.9 1 1.6 2 1.7H99l3.6 1.9.7 2.9c.2.9 1 1.6 2 1.6h2.7c.3 0 .6-.1.9-.2 0 .5.2 1 .6 1.4l4.7 4.6c.4.4.9.6 1.5.6h4l3.4.3 1.9 2.7c.3.5.8.8 1.3.9l5.7 1.3 4.6 1.4-2 2.6c-.2.3-.3.6-.4.9l-2.4 12.1-1.1.9-1.3-.4a2.25 2.25 0 0 0-1.8.2c-.5.3-.9.9-.9 1.5l-.3 2.7-3.2 2.1c-.5.4-.9 1.1-.9 1.8zM67.4 117a2.22 2.22 0 0 1 2.2 2.2 2.22 2.22 0 0 1-2.2 2.2 2.22 2.22 0 0 1-2.2-2.2 2.22 2.22 0 0 1 2.2-2.2zm35.8-1.5a2.22 2.22 0 0 1 2.2 2.2 2.22 2.22 0 0 1-2.2 2.2 2.22 2.22 0 0 1-2.2-2.2 2.22 2.22 0 0 1 2.2-2.2zm14-12.8a2.22 2.22 0 0 1 2.2 2.2 2.22 2.22 0 0 1-2.2 2.2 2.22 2.22 0 0 1-2.2-2.2 2.22 2.22 0 0 1 2.2-2.2zm-23.9-8.6a2.22 2.22 0 0 1 2.2 2.2 2.22 2.22 0 0 1-2.2 2.2 2.22 2.22 0 0 1-2.2-2.2 2.22 2.22 0 0 1 2.2-2.2zm-18.2-5.3a2.22 2.22 0 0 1 2.2 2.2 2.22 2.22 0 0 1-2.2 2.2 2.22 2.22 0 0 1-2.2-2.2 2.22 2.22 0 0 1 2.2-2.2zm45.2-21a2.22 2.22 0 0 1 2.2 2.2 2.22 2.22 0 0 1-2.2 2.2 2.22 2.22 0 0 1-2.2-2.2 2.22 2.22 0 0 1 2.2-2.2zm-10.5-13A2.22 2.22 0 0 1 112 57a2.22 2.22 0 0 1-2.2 2.2 2.22 2.22 0 0 1-2.2-2.2 2.22 2.22 0 0 1 2.2-2.2zM90.4 38.5a2.22 2.22 0 0 1 2.2 2.2 2.22 2.22 0 0 1-2.2 2.2 2.22 2.22 0 0 1-2.2-2.2 2.22 2.22 0 0 1 2.2-2.2zm-27.1 33a2.22 2.22 0 0 1 2.2 2.2 2.22 2.22 0 0 1-2.2 2.2 2.22 2.22 0 0 1-2.2-2.2 2.22 2.22 0 0 1 2.2-2.2zm28.5 11.3A2.22 2.22 0 0 1 94 85a2.22 2.22 0 0 1-2.2 2.2 2.22 2.22 0 0 1-2.2-2.2 2.22 2.22 0 0 1 2.2-2.2z"></path>
  </symbol>
  <symbol id="recherche-big-data" viewBox="0 0 168 168">
    <path d="M138.3 168H0V0h168v138.3c0 16.4-13.3 29.7-29.7 29.7zM8 160h130.3c12 0 21.7-9.7 21.7-21.7V8H8v152zM29 36.7v94.5h45c-1.6-1.2-3-2.6-4.2-4.2H33.2V40.9h101.6V127h-23.6l4.2 4.2H139V36.7H29zm105.8 4.2v11.3H33.2V40.9h101.6m4.2-4.2H29v19.7h110V36.7zm-99.8 7.6a2.26 2.26 0 0 0-2.3 2.3 2.26 2.26 0 0 0 2.3 2.3 2.26 2.26 0 0 0 2.3-2.3c0-1.3-1.1-2.3-2.3-2.3zm6.1 0a2.26 2.26 0 0 0-2.3 2.3 2.26 2.26 0 0 0 2.3 2.3 2.26 2.26 0 0 0 2.3-2.3 2.26 2.26 0 0 0-2.3-2.3zm6 0a2.26 2.26 0 0 0-2.3 2.3 2.26 2.26 0 0 0 2.3 2.3 2.26 2.26 0 0 0 2.3-2.3 2.26 2.26 0 0 0-2.3-2.3zm-4.3 35c-1.1 0-2-.9-2-2v-5.5c0-1.1.9-2 2-2s2 .9 2 2v5.5c0 1.1-.9 2-2 2zm0 7.2c-1.1 0-2-.9-2-2V83c0-1.1.9-2 2-2s2 .9 2 2v1.5c0 1.1-.9 2-2 2zm24.3-7.2c-1.1 0-2-.9-2-2v-5.5c0-1.1.9-2 2-2s2 .9 2 2v5.5c0 1.1-.9 2-2 2zm0 7.2c-1.1 0-2-.9-2-2V83c0-1.1.9-2 2-2s2 .9 2 2v1.5c0 1.1-.9 2-2 2zm-8.1-15.3c-1.1 0-2-.9-2-2v-5.5c0-1.1.9-2 2-2s2 .9 2 2v5.5c0 1.1-.9 2-2 2zm0 7.1c-1.1 0-2-.9-2-2v-1.5c0-1.1.9-2 2-2s2 .9 2 2v1.5c0 1.1-.9 2-2 2h0zm0 15.9c-1.1 0-2-.9-2-2v-1.5c0-1.1.9-2 2-2s2 .9 2 2v1.5c0 1.1-.9 2-2 2zm-8.1-19.8c-1.1 0-2-.9-2-2v-8.7c0-1.1.9-2 2-2s2 .9 2 2v8.7c0 1.1-.9 2-2 2zm0 7.4c-1.1 0-2-.9-2-2v-2.2c0-1.1.9-2 2-2s2 .9 2 2v2.2c0 1.1-.9 2-2 2zm-15.9-7.4c-1.1 0-2-.9-2-2v-8.7c0-1.1.9-2 2-2s2 .9 2 2v8.7c0 1.1-.9 2-2 2zm0 8.8c-1.1 0-2-.9-2-2v-3.6c0-1.1.9-2 2-2s2 .9 2 2v3.6c0 1.1-.9 2-2 2zm48.2-3.9c-1.1 0-2-.9-2-2v-5.5c0-1.1.9-2 2-2s2 .9 2 2v5.5c0 1.1-.9 2-2 2zm0 7.2c-1.1 0-2-.9-2-2V83c0-1.1.9-2 2-2s2 .9 2 2v1.5c0 1.1-.9 2-2 2zm1.5 22.1c-1.1 0-2-.9-2-2v-5.5c0-1.1.9-2 2-2s2 .9 2 2v5.5c0 1.1-.9 2-2 2zm0 7.2c-1.1 0-2-.9-2-2v-1.5c0-1.1.9-2 2-2s2 .9 2 2v1.5c0 1.1-.9 2-2 2zm22.8-36.5c-1.1 0-2-.9-2-2v-5.5c0-1.1.9-2 2-2s2 .9 2 2v5.5c0 1.1-.9 2-2 2zm0 7.2c-1.1 0-2-.9-2-2V83c0-1.1.9-2 2-2s2 .9 2 2v1.5c0 1.1-.9 2-2 2zm0 8.4c-1.1 0-2-.9-2-2v-1.5c0-1.1.9-2 2-2s2 .9 2 2v1.5c0 1.1-.9 2-2 2zm-8.1-23.7c-1.1 0-2-.9-2-2v-5.5c0-1.1.9-2 2-2s2 .9 2 2v5.5c0 1.1-.9 2-2 2zm0 7.1c-1.1 0-2-.9-2-2v-1.5c0-1.1.9-2 2-2s2 .9 2 2v1.5c0 1.1-.9 2-2 2h0zm-8.1-3.9c-1.1 0-2-.9-2-2v-8.7c0-1.1.9-2 2-2s2 .9 2 2v8.7c0 1.1-.9 2-2 2zm0 7.4c-1.1 0-2-.9-2-2v-2.2c0-1.1.9-2 2-2s2 .9 2 2v2.2c0 1.1-.9 2-2 2zm.9 27.6c-1.1 0-2-.9-2-2v-2.2c0-1.1.9-2 2-2s2 .9 2 2v2.2c0 1.1-.9 2-2 2zm0 13.6c-1.1 0-2-.9-2-2v-2.2c0-1.1.9-2 2-2s2 .9 2 2v2.2c0 1.1-.9 2-2 2zm31.4-51.8c-1.1 0-2-.9-2-2v-5.5c0-1.1.9-2 2-2s2 .9 2 2v5.5c0 1.1-.9 2-2 2zm0 7.1c-1.1 0-2-.9-2-2v-1.5c0-1.1.9-2 2-2s2 .9 2 2v1.5c0 1.1-.9 2-2 2zm-8-3.9c-1.1 0-2-.9-2-2v-8.7c0-1.1.9-2 2-2s2 .9 2 2v8.7c0 1.1-.9 2-2 2zm0 7.4c-1.1 0-2-.9-2-2v-2.2c0-1.1.9-2 2-2s2 .9 2 2v2.2c0 1.1-.9 2-2 2zm-40.5-7.4c-1.1 0-2-.9-2-2v-8.7c0-1.1.9-2 2-2s2 .9 2 2v8.7c0 1.1-.9 2-2 2zm0 8.8c-1.1 0-2-.9-2-2v-3.6c0-1.1.9-2 2-2s2 .9 2 2v3.6c0 1.1-.9 2-2 2zm2 36.7c-1.1 0-2-.9-2-2v-3.6c0-1.1.9-2 2-2s2 .9 2 2v3.6c0 1.1-.9 2-2 2zm0-9.2c-1.1 0-2-.9-2-2v-3.6c0-1.1.9-2 2-2s2 .9 2 2v3.6c0 1.1-.9 2-2 2zm39.1 29.9l-15.1-15c7.3-9.1 5.9-22.4-3.2-29.7-3.8-3-8.4-4.7-13.3-4.7-11.7 0-21.2 9.4-21.2 21.1s9.4 21.2 21.1 21.2c4.8 0 9.5-1.6 13.3-4.7l15.1 15.1c.4.4 1 .7 1.6.7a2.26 2.26 0 0 0 2.3-2.3c.1-.7-.1-1.3-.6-1.7zm-15-28.3a16.52 16.52 0 0 1-16.5 16.5 16.52 16.52 0 0 1-16.5-16.5 16.52 16.52 0 0 1 16.5-16.5 16.52 16.52 0 0 1 16.5 16.5h0z"></path>
  </symbol>
  <symbol id="recherche-clinique" viewBox="0 0 168 168">
    <path d="M144.5 110.2c-2.3-3.2-5.5-5.6-9.2-6.8-.1-.1-.3-.1-.4-.2-8.1-2.9-18.2-2.4-25.4-1.5l.2-3.7c0-2.9-.2-5.8-.6-8.6v-.1C107 76.4 100.2 67.5 88.8 63h-.1c-1.3-.5-2.5-.9-3.6-1.2-2.7-.8-5.6-1.2-8.4-1.3h-.1c-4.3-.1-8.5.3-12.6 1.4.2-24.6-12.3-33.6-12.9-34-.9-.7-2.3-.4-2.9.5-.7.9-.4 2.3.5 2.9 2.3 1.9 4.2 4.3 5.7 7L34 61.3a22.11 22.11 0 0 1-7-4.7c-.7-.9-2.1-1-2.9-.3-.9.7-1 2.1-.3 2.9.4.5 10.8 12.6 35.7 7.9h0v.4c-.8 7.3.4 14.7 3.4 21.4a34.71 34.71 0 0 0 7.8 10.8l.1.1c2.7 2.5 5.9 4.4 9.3 5.8.1 0 .1.1.2.1 3.8 1.4 7.8 2.2 11.9 2.2h.1.5c3.4.1 6.8-.2 10.2-.8.2-.1 1.1-.2 2.4-.5.1 7.3 1.1 17.5 5 25l.1.2c1.7 3.6 4.6 6.6 8.2 8.4.3.1.6.2.9.2h0c1.2 0 2.1-.9 2.1-2 0-.3 0-.5-.1-.8-.2-.5-.6-.9-1.1-1.2-2.4-1.2-4.3-3-5.6-5.3l20.4-23.4c2.4 1 4.5 2.7 6.1 4.8.4.6 1 .9 1.7.9a1.92 1.92 0 0 0 1.2-.4c.6-.6.8-1.9.2-2.8zm-26.2-5l-8.5 9.8c-.3-2.8-.5-5.8-.5-9 3-.4 6-.6 9-.8h0zm12.3 1.1l-18.1 20.8c-.8-2.2-1.4-4.4-1.9-6.7l13.1-15.1c2.4.2 4.7.5 6.9 1h0zM71.8 64.8l-8.4 9.5c-.1-2.1-.1-4.2.1-6.2 0-.6.1-1.2.1-1.8h0 .2l.6-.1c2.4-.8 4.9-1.2 7.4-1.4zm33.6 33c0 .2-.2 1.9-.2 4.6-1.8.3-3 .6-3.3.7l-4.8.6 8.2-9.2c.1 1.1.1 2.2.1 3.3zm-.8-8.9l-13.1 14.8c-2.4-.1-4.7-.5-7-1.1l18.2-20.5c.8 2.2 1.5 4.5 1.9 6.8zm-4-10.8l-20.4 23c-1.9-.8-3.6-1.9-5.2-3.1l21.9-24.6c1.4 1.4 2.7 3 3.7 4.7h0zM68.3 90.3l20.2-22.8c1.8.8 3.6 1.8 5.2 3L71.9 95.1c-1.3-1.5-2.6-3.1-3.6-4.8zm16-24.3L66.2 86.4c-.9-2.1-1.6-4.4-2.1-6.6l13.3-15c2.2.2 4.3.5 6.4 1.1a.9.9 0 0 1 .5.1h0zM58.2 48.8L44.8 63.9c-2.3-.2-4.5-.6-6.8-1.2l18.1-20.4c.9 2.1 1.6 4.3 2.1 6.5zM50.3 64l8.8-10c.4 2.9.5 5.9.4 8.8-3 .7-6.1 1-9.2 1.2zm88 104H0V0h168v138.3c0 16.4-13.3 29.7-29.7 29.7zM8 160h130.3c12 0 21.7-9.7 21.7-21.7V8H8v152z"></path>
  </symbol>
  <symbol id="recherche-translationnelle" viewBox="0 0 168 168">
    <path d="M138.3 168H0V0h168v138.3c0 16.4-13.3 29.7-29.7 29.7zM8 160h130.3c12 0 21.7-9.7 21.7-21.7V8H8v152zm40.9-29.8c0 4.8 3.9 8.8 8.8 8.8a8.75 8.75 0 0 0 8.8-8.8V98.7c0-1-.8-1.8-1.7-1.8H63v-3.5h1.7c1 0 1.8-.8 1.8-1.7V85c5-1.7 9.5-4.7 12.9-8.8l9.4 3.1c.6.2 1.3.1 1.7-.4L111 60.1h16.1l-4 4 2.5 2.5 7-7a1.75 1.75 0 0 0 0-2.5l-7-7-2.5 2.5 4 4h-16.8c-.4 0-.9.2-1.2.5L88.8 75.6l-7.4-2.5c2.2-3.4 3.5-7.3 4.1-11.3h9a1.69 1.69 0 0 0 1-.3l25.8-19h11l-4 4 2.5 2.5 7-7a1.75 1.75 0 0 0 0-2.5l-7-7-2.5 2.5 4 4h-11.5a1.69 1.69 0 0 0-1 .3L94 58.3h-8.2c0-1.2-.1-2.3-.2-3.5h7.3a1.78 1.78 0 0 0 1.6-1L101 39h5.2l-4 4 2.5 2.5 7-7a1.75 1.75 0 0 0 0-2.5l-7-7-2.5 2.5 4 4h-6.3a1.78 1.78 0 0 0-1.6 1l-6.6 14.7h-6.8c-4-14.9-19.3-23.8-34.3-19.9S26.7 50.7 30.7 65.6C33.1 74.7 40 82 48.9 85v6.7a1.79 1.79 0 0 0 1.8 1.8h1.8V97h-1.8a1.79 1.79 0 0 0-1.8 1.8M33.1 58.3c0-13.6 11-24.6 24.6-24.6s24.6 11 24.6 24.6-11 24.6-24.6 24.6-24.6-11-24.6-24.6zm24.6 28.1c1.8 0 3.5-.2 5.3-.5v4H52.4v-4c1.8.3 3.5.5 5.3.5zm-1.8 7h3.5v3.5h-3.5v-3.5zm7 36.8c-.1 2.9-2.6 5.2-5.5 5-2.7-.1-4.9-2.3-5-5v-29.8H63l-.1 29.8zm75.4.7l-11.7-21.2c-2-3.5-3-7.4-3-11.4V87.6c2-1.6 2.3-4.5.7-6.5-.9-1.1-2.2-1.7-3.5-1.7H106c-2.3 0-4.3 1.7-4.6 4-.2 1.7.5 3.4 1.9 4.3v10.8c0 4-1 8-3 11.5l-11.8 21c-1 1.8-1 4.1.1 5.9s3.1 2.8 5.2 2.8h39.5c2.1 0 4.1-1.1 5.1-3 .9-1.8.9-4-.1-5.8zm-34.5-18.8c2.3-4.1 3.5-8.8 3.5-13.6V87.3c0-1-.7-1.8-1.7-2-.2-.5-.3-1-.3-1.5 0-.3.1-.3.3-.3h15a.37.37 0 0 1 .4.3c0 .5 0 .9-.1 1.4-.9.2-1.6 1.1-1.6 2v11c0 4.7 1.2 9.3 3.5 13.4l3 5.5c-1.7.9-5.1 1.4-11.2-.9-4.2-1.8-9-1.8-13.2-.1l2.4-4zm30.9 22.7c-.3.5-.8.8-1.4.8H93.5c-.9 0-1.7-.7-1.7-1.7 0-.3.1-.6.2-.8l5.8-10.3c2-2.1 7.4-6.4 15.7-3.2 7.2 2.8 11.6 2 14.1.7l7.1 12.8a1.72 1.72 0 0 1 0 1.7h0z"></path>
  </symbol>
  <symbol id="relation-patient" viewBox="0 0 168 168">
    <path d="M138.3 168H0V0h168v138.3c0 16.4-13.3 29.7-29.7 29.7zM8 160h130.3c12 0 21.7-9.7 21.7-21.7V8H8v152zm88.5-33.1c-.9-5.4-5.1-9.7-10.5-10.8l-3.8-.8c-2-3.9-5.7-6.7-10-7.6.6-.5 1.1-1 1.6-1.6 2 1.3 4.4 2 6.8 1.8 4.2-.2 8.2-1.9 11.3-4.8.4-.4.6-1 .4-1.6-.1-.6-.5-1-1.1-1.2-1.8-.6-3.1-2.3-3.2-4.2 0-7.2-1.1-24.4-11-30-2.7-1.3-5.9-1.6-8.8-.8-1.2-1.2-3.5-2.6-7.8-2.6-5.5 0-13 .6-17.7 3.6-8.7 5.5-10 21-10 29.8-.1 1.9-1.4 3.6-3.2 4.2-.6.2-1 .6-1.1 1.2s0 1.2.5 1.6c3.1 2.9 7.1 4.6 11.3 4.8 2.4.1 4.8-.5 6.8-1.8.5.6 1 1.1 1.6 1.6-4.3.9-8 3.6-10 7.6l-3.9.8c-5.4 1.1-9.6 5.3-10.5 10.8l-3 18c-.2.9.4 1.8 1.4 2h.3 74.9c.5 0 1-.2 1.3-.6s.5-.9.4-1.4l-3-18zm-14.5 8c-1.5 0-2.6-1.2-2.6-2.6 0-1.5 1.2-2.6 2.6-2.6a2.65 2.65 0 0 1 2.6 2.6 2.65 2.65 0 0 1-2.6 2.6h0zm-1.7-8.4c-3.2.9-5.1 4.2-4.2 7.4s4.2 5.1 7.4 4.2c3.2-.8 5.2-4.1 4.4-7.3-.5-2.1-2.1-3.7-4.2-4.3v-4.7a13.33 13.33 0 0 0-.3-2.8l1.9.4c4 .8 7.1 4 7.8 8.1l2.7 16.1H69l4.3-26.4 6.4 1.2a10.3 10.3 0 0 1 .6 3.5v4.6zm-12.4-15.6h1.5c3.1 0 6.1 1.3 8.1 3.6l-9.6-1.9v-1.7zm-8.8 13.8a1.69 1.69 0 0 0 1 .3 1.69 1.69 0 0 0 1-.3l8.5-6-4.1 24.9H55.2l-4-24.7 7.9 5.8zM53 110.9v1.7l-9.6 1.9c2.1-2.3 5-3.6 8.1-3.6 0 0 1.5 0 1.5 0zm7.2 10.3l-7-5.2 1.8-.4c.8-.2 1.3-.9 1.3-1.7v-2.1c2.7.7 5.5.7 8.1 0v2.1c0 .8.6 1.5 1.4 1.7l1.7.3-7.3 5.3zm8-52.2s4.3-1.4 7.2.2c8.6 4.8 9.3 21.9 9.3 27 0 2.4 1.1 4.6 3 6-2.1 1.5-4.6 2.3-7.1 2.4-1.7.1-3.4-.3-4.9-1.3 1.2-2.2 2-4.6 2.3-7.1a7.45 7.45 0 0 0 5.6-8.7c-.7-3.5-3.7-6-7.3-6h0c-.9 0-1.7.7-1.7 1.6v.1 1.1c-2.3-.9-5.9-2.7-6.7-5.8-.2-.9-1.1-1.4-2-1.2-.4.1-.8.3-1 .7-1.9 2.5-4.6 4.2-7.7 5-3.6.8-7.2 1.3-10.9 1.4v-1.1c.1-.9-.6-1.6-1.5-1.7h-.2c-4.1 0-7.4 3.4-7.4 7.5 0 3.5 2.4 6.4 5.8 7.2.2 2.5 1 4.9 2.2 7.1-1.5.9-3.2 1.4-4.9 1.3h0c-2.5-.1-5-.9-7.1-2.4 1.9-1.4 3-3.6 3-6 0-6.5.8-22.1 8.4-26.9 4-2.5 10.8-3.1 15.8-3.1 4.2 0 5.5 1.6 5.7 2 .5.7 1.3 1 2.1.7h0zM78 85.4h.1c2 1 2.8 3.5 1.8 5.5a4.36 4.36 0 0 1-1.9 1.9v-7.4zm-35.1 7.3c-2-.9-3-3.2-2.1-5.2.3-.7.8-1.3 1.4-1.8l.7-.2v7.2zm3.4-4.9c3.9-.1 7.8-.6 11.7-1.4 2.9-.7 5.6-2.2 7.8-4.3 2.2 3.4 6.4 5.1 8.9 5.9v6.8c.2 7.8-6 14.3-13.8 14.5s-14.3-6-14.5-13.8v-.8l-.1-6.9zm-9.2 34v.3c-3 .7-5.4 3.1-5.9 6.1l-1.4 7.5c-.5 2.5 1.2 4.9 3.7 5.3.3.1.6.1.9.1h1.8v-3.4h-1.9c-.4 0-.7-.2-.9-.4a1.69 1.69 0 0 1-.3-1l1.4-7.5c.4-2.4 2.7-3.9 5-3.5 1.8.3 3.2 1.7 3.5 3.5l1.4 7.5c.1.4 0 .7-.3 1-.2.3-.6.4-.9.4h-1.8v3.4h1.8c2.5 0 4.6-2 4.6-4.6 0-.3 0-.6-.1-.8l-1.4-7.5c-.6-3.1-2.9-5.5-5.9-6.1v-.3a10.3 10.3 0 0 1 .6-3.5l6.4-1.2 4.3 26.4H25l2.7-16.1c.7-4 3.8-7.2 7.8-8.1l1.9-.4a15.04 15.04 0 0 0-.3 2.9h0zm110.6-18.6l-3-18c-.9-5.4-5.1-9.7-10.5-10.8L116 70.8v-2c5.7-2.6 9.5-8.1 10.1-14.3 3.9-.9 6.4-4.8 5.6-8.8-.4-1.7-1.3-3.3-2.7-4.3.5-2.2 2.4-11.1-2-15.5-3.4-3.3-8.4-2.6-10.6-2.2-1.2-1.2-3.5-2.6-7.8-2.6-6.3 0-16.9 0-20.2 6.7-1.8 3.5-2.1 8.4-1 14.4-2.8 3-2.6 7.7.4 10.5 1 .9 2.1 1.5 3.4 1.8.5 6.2 4.4 11.7 10 14.4v1.9l-13.8 2.7.1.3c.4.8.7 1.7 1.1 2.7l.1.2 7-1.4 4.3 26.4h-4.2v.2a4.27 4.27 0 0 1-1 2.7l-.3.4H146h.3c.9 0 1.6-.9 1.4-1.8zM91.1 43.9V51c-2.1-.9-3-3.3-2-5.4.2-.5.6-1 1-1.4l1-.3zm1.6-4.1h0c-.8 0-1.6.2-2.3.4-.4-2.7-.8-7.4 1-10.9 2.4-4.8 12-4.8 17.2-4.8 4.2 0 5.5 1.6 5.7 2 .4.7 1.3 1.1 2.1.8 0 0 5.5-1.8 8.4 1 2.7 2.6 2.2 7.9 1.2 11.9l-2 .6c-.8.2-1.3 1-1.2 1.8-2.3-.9-5.9-2.7-6.7-5.8-.2-.7-.7-1.2-1.4-1.3h-.3c-.6 0-1.1.3-1.4.8-1.9 2.5-4.6 4.2-7.7 5-3.6.8-7.2 1.3-10.9 1.4v-1.2c.1-.9-.7-1.7-1.7-1.7h0zm1.7 6.3c3.9-.1 7.8-.6 11.7-1.5 2.9-.7 5.6-2.2 7.8-4.3 2.2 3.4 6.4 5.1 8.9 5.9V53c0 7.8-6.3 14.2-14.2 14.2S94.4 60.8 94.4 53v-6.9zm12.9 36.8c.6.4 1.4.4 2 0l8.5-6-4 24.9h-10.4l-4-24.7 7.9 5.8zm1-3.4l-7-5.2 1.8-.4c.8-.1 1.4-.9 1.4-1.7v-2.1c2.7.7 5.5.7 8.1 0v2.1c0 .8.5 1.5 1.3 1.7l1.7.3-7.3 5.3zm17.9-35.9c2 1 2.9 3.4 1.9 5.4-.4.9-1.1 1.6-2 2v-7.4h.1zm17.8 58.2h-26.9l4.3-26.4 12 2.3h.2c4 .8 7 4 7.7 8l2.7 16.1z"></path>
  </symbol>
  <symbol id="soins-de-qualite" viewBox="0 0 168 168">
    <path d="M138.3 168H0V0h168v138.3c0 16.4-13.3 29.7-29.7 29.7zM8 160h130.3c12 0 21.7-9.7 21.7-21.7V8H8v152zm43.8-83.8c10.3 0 18.7-8.3 18.7-18.6 0-7.5-4.5-14.4-11.5-17.2.5-1.1.8-2.3.8-3.5.1-4.4-3.5-8-7.9-8.1s-8 3.5-8.1 7.9c0 1.3.3 2.6.9 3.7-9.5 3.9-14 14.9-10.1 24.4 2.8 6.8 9.6 11.4 17.2 11.4zm0-43.9c2.5 0 4.5 2 4.4 4.5 0 1.4-.6 2.7-1.7 3.5l-.2.2-.6.3-.2.1c-.2.1-.4.1-.6.2l-.2.1c-.3.1-.6.1-.9.1s-.6 0-.9-.1c-.1 0-.1 0-.2-.1-.2-.1-.4-.1-.7-.2l-.2-.1-.6-.3c-.1 0-.1-.1-.2-.2-1.9-1.5-2.3-4.3-.8-6.3a4.6 4.6 0 0 1 3.6-1.7h0zm-4.9 10.8l.2.1.9.6.2.1c.3.1.6.3.8.4.1 0 .2.1.3.1.3.1.7.2 1 .3h.3c.4.1.8.1 1.2.1s.8 0 1.2-.1h.3c.3-.1.7-.1 1-.3.1 0 .2-.1.3-.1.3-.1.6-.2.8-.4l.2-.1.9-.6c.1 0 .1-.1.1-.1 2.7.9 5.1 2.6 6.9 4.8H40c1.8-2.2 4.2-3.9 6.9-4.8zm-8.8 7.8h27.3a15.17 15.17 0 0 1 1.5 6.6c0 8.4-6.8 15.2-15.1 15.2s-15.2-6.8-15.2-15.1c0-2.4.5-4.6 1.5-6.7zm26.5 25.5h-.9l-12.6 17-12.6-17h-.9c-5.9 0-16.9 9.6-16.9 23.4v29.8h60.6V99.8c.2-13.3-11.1-23.4-16.7-23.4zM78 126H24.3V99.8C24.3 89 32.6 81 36.9 80l14.3 19.3L65.4 80C69.3 81 78 88.8 78 99.8V126zm-22.2-11.5c0 5.4 4.3 9.7 9.7 9.7s9.7-4.3 9.7-9.7-4.3-9.7-9.7-9.7-9.7 4.3-9.7 9.7zm16.4 0a6.7 6.7 0 1 1-13.4 0 6.7 6.7 0 1 1 13.4 0zm-7.7-4.8v3.8h-3.6v2h3.6v3.8h2v-3.8h3.6v-2h-3.6v-3.8h-2zm65.8-23.6h-.9l-12.6 17-12.6-17h-.9c-5.9 0-16.9 9.6-16.9 23.4v29.8H147v-29.8c.2-13.3-11.1-23.4-16.7-23.4zm13.4 49.6H90v-26.3c0-10.8 8.2-18.8 12.6-19.8l14.3 19.3 14.3-19.3c3.9 1 12.6 8.7 12.6 19.7l-.1 26.4zM106 83.1a19.36 19.36 0 0 0 22.9 0h13.2l-5.7-12c2-10.5-4.9-20.6-15.4-22.5S100.4 53.5 98.5 64c-.2 1.2-.3 2.4-.3 3.6 0 .5 0 1 .1 1.5l-6.7 14H106zm-4.3-14c0-.6-.1-1.1-.1-1.7 0-8.7 7.1-15.8 15.8-15.8s15.8 7.1 15.8 15.8c0 1.1-.1 2.3-.4 3.4l-.1.6 3.8 8.1h-8.9l-.5.4c-5.7 4.5-13.8 4.5-19.5 0l-.5-.4h-10l4.7-9.9-.1-.5zm33.7 47.8c-1.7-1.7-4.4-1.7-6.1 0l-1.6 1.6-1.6-1.6c-1.7-1.7-4.4-1.7-6.1 0h0c-1.7 1.7-1.7 4.4 0 6.1l1.9 2h0l5.4 5.4.1.1c.2.1.5.1.6-.1l5.4-5.4h0l1.9-1.9c1.8-1.7 1.8-4.4.1-6.2 0 .1 0 .1 0 0h0z"></path>
  </symbol>
  <symbol id="statistique" viewBox="0 0 168 168">
    <path d="M138.3 168H0V0h168v138.3c0 16.4-13.3 29.7-29.7 29.7zM8 160h130.3c12 0 21.7-9.7 21.7-21.7V8H8v152zm121.6-38.5H100V89.6c0-1.1-.9-1.9-1.9-1.9H86.5c-1.1 0-1.9.9-1.9 1.9v31.9h-3.8V29.9c0-1.1-.9-1.9-1.9-1.9H67.3c-1.1 0-1.9.9-1.9 1.9v91.6h-3.8V72.4c0-1.1-.8-1.9-1.9-1.9H48c-1.1 0-1.9.9-1.9 1.9v49.1h-7.7c-1.1 0-1.9.9-1.9 1.9v9.9c0 1.1.9 1.9 1.9 1.9h91.2c1.1 0 1.9-.9 1.9-1.9v-9.9c0-1-.9-1.8-1.9-1.9zM88.4 91.4h7.7v30.1h-7.7V91.4zM69.2 31.8h7.7v89.7h-7.7V31.8zM50 74.4h7.7v47.2H50V74.4zm77.7 57H40.3v-6h87.3l.1 6zm-5.8-9.9h-2.8V79c0-1.1-.8-2-1.9-2h-.1-11.5c-1.1 0-1.9.9-1.9 1.9v.1 42.6h-4.9m8.8-40.7h7.7v40.7h-7.7V80.9zm3.8-38c.8-.3 1.4-.8 2-1.4.6-.7 1-1.4 1.3-2.3a10.56 10.56 0 0 0 0-6.1c-.3-.8-.7-1.6-1.3-2.3-.6-.6-1.2-1.1-2-1.4a7.17 7.17 0 0 0-5 0c-.8.3-1.4.8-2 1.4-.6.7-1 1.4-1.3 2.3a10.56 10.56 0 0 0 0 6.1c.3.8.7 1.6 1.3 2.3.6.6 1.2 1.1 2 1.4s1.6.5 2.5.5c.8 0 1.7-.2 2.5-.5zm-2.5-10.6c.8 0 1.5.4 1.9 1 .5.9.8 1.9.7 2.9.1 1-.2 2-.7 2.9-.8 1.1-2.3 1.3-3.3.5-.2-.1-.4-.3-.5-.5-.5-.9-.8-1.9-.7-2.9-.1-1 .2-2 .7-2.9a2.42 2.42 0 0 1 1.9-1zm13.1-2.1l-13.4 23.7c-.4.6-.2 1.4.5 1.8.2.1.4.2.7.2h1.2c.5 0 .9-.3 1.2-.7l13.3-23.7c.4-.6.2-1.4-.5-1.8-.2-.1-.4-.2-.7-.2h-1.2a1.36 1.36 0 0 0-1.1.7zm9 16.1c-.3-.8-.7-1.6-1.3-2.3-.6-.6-1.2-1.1-2-1.4a7.17 7.17 0 0 0-5 0c-.8.3-1.4.8-2 1.4-.6.7-1 1.4-1.3 2.3a10.56 10.56 0 0 0 0 6.1c.3.8.7 1.6 1.3 2.3.6.6 1.2 1.1 2 1.4 1.6.7 3.4.7 5 0 .8-.3 1.4-.8 2-1.4.6-.7 1-1.4 1.3-2.3.6-2 .6-4.2 0-6.1zm-3.2 3c.1 1-.2 2-.7 2.9-.4.6-1.1 1-1.9 1s-1.5-.3-1.9-1a6.57 6.57 0 0 1 0-5.8c.4-.7 1.1-1 1.9-1s1.5.4 1.9 1c.5.9.8 1.9.7 2.9z"></path>
  </symbol>
</svg>