<svg xmlns="http://www.w3.org/2000/svg">
  <symbol id="magnifier" viewBox="0 0 24 24">
    <path d="M17.6 15.5c1.2-1.6 1.9-3.6 1.9-5.7 0-5.4-4.4-9.8-9.7-9.8S0 4.4 0 9.8s4.4 9.8 9.7 9.8c2.1 0 4.1-.7 5.7-1.9l6.4 6.4 2.1-2.1c.1-.1-6.3-6.5-6.3-6.5h0zm-7.9 1.1c-3.8 0-6.9-3.1-6.9-6.9s3.1-6.9 6.9-6.9 6.9 3.1 6.9 6.9-3.1 6.9-6.9 6.9z"></path>
  </symbol>
  <symbol id="bar" viewBox="0 0 24 24">
    <path d="M0 21h24v-3H0v3zm0-7.5h24v-3H0v3zM0 3v3h24V3H0z"></path>
  </symbol>
  <symbol id="close" viewBox="0 0 24 24">
    <path d="M0 2.4L21.6 24l2.4-2.4L2.4 0z"></path>
    <path d="M24 2.4L2.4 24 0 21.6 21.6 0z"></path>
  </symbol>
  <symbol id="right" viewBox="0 0 48 48">
    <path d="M18.4 14.1l9.9 9.9-9.9 9.9 2.1 2.1 11.9-12-11.9-12-2.1 2.1z"></path>
  </symbol>
  <symbol id="left" viewBox="0 0 48 48">
    <path d="M29.6 33.9L19.7 24l9.9-9.9-2.1-2.1-11.9 12 11.9 12 2.1-2.1z"></path>
  </symbol>
  <symbol id="down" viewBox="0 0 13 7">
    <path d="M1.5 0l5 4.3 5-4.3L13 1.3 6.5 7 0 1.3z"></path>
  </symbol>
  <symbol id="filter" viewBox="0 0 18 12">
    <path d="M0 0h18v2H0V0zm3 5h12v2H3V5zm4 5h4v2H7v-2z"></path>
  </symbol>
  <symbol id="share" viewBox="0 0 18 20">
    <path d="M15 14.1c-.8 0-1.4.3-2 .8l-7.1-4.2c.1-.2.1-.4.1-.7 0-.2 0-.5-.1-.7l7-4.1c.6.5 1.3.8 2.1.8 1.7 0 3-1.3 3-3s-1.3-3-3-3-3 1.3-3 3c0 .2 0 .5.1.7L5 7.8C4.5 7.3 3.8 7 3 7c-1.7 0-3 1.3-3 3s1.3 3 3 3c.8 0 1.5-.3 2-.8l7.1 4.2c0 .2-.1.4-.1.7 0 1.6 1.3 2.9 2.9 2.9s2.9-1.3 2.9-2.9-1.2-3-2.8-3z"></path>
  </symbol>
  <symbol id="print" viewBox="0 0 20 18">
    <path d="M17 5H3C1.3 5 0 6.3 0 8v6h4v4h12v-4h4V8c0-1.7-1.3-3-3-3zm-3 11H6v-5h8v5zm3-7c-.5 0-1-.4-1-1s.5-1 1-1 1 .4 1 1-.5 1-1 1zm-1-9H4v4h12V0z"></path>
  </symbol>
  <symbol id="download" viewBox="0 0 14 16">
    <path d="M14 5.6h-4V0H4v5.6H0l7 6.6 7-6.6zM0 14.1V16h14v-1.9H0z"></path>
  </symbol>
  <symbol id="email" viewBox="0 0 20 16">
    <path d="M18 0H2C.9 0 0 .9 0 2v12c0 1.1.9 2 2 2h16c1.1 0 2-.9 2-2V2c0-1.1-.9-2-2-2zm0 4l-8 5-8-5V2l8 5 8-5v2z"></path>
  </symbol>
  <symbol id="link" viewBox="0 0 20 10">
    <path d="M1.9 5c0-1.7 1.4-3.1 3.1-3.1h4V0H5C2.2 0 0 2.2 0 5s2.2 5 5 5h4V8.1H5C3.3 8.1 1.9 6.7 1.9 5zM6 6h8V4H6v2zm9-6h-4v1.9h4c1.7 0 3.1 1.4 3.1 3.1S16.7 8.1 15 8.1h-4V10h4c2.8 0 5-2.2 5-5s-2.2-5-5-5z"></path>
  </symbol>
  <symbol id="pdf" viewBox="0 0 20 24">
    <path d="M5 15.4c0-.4-.3-.6-.8-.6h-.4v1.3h.3c.5 0 .9-.2.9-.7zm3.1-.6h-.5v2.8h.3c.9 0 1.5-.5 1.5-1.5 0-.8-.5-1.3-1.3-1.3zM13.8 0H3.9C2.5 0 1.3 1.1 1.3 2.6V12h-.2c-.6 0-1.1.5-1.1 1v6.2c0 .6.5 1 1.1 1h.3v1.1A2.65 2.65 0 0 0 4 23.9h13.5c1.4 0 2.6-1.1 2.6-2.6V6l-6.3-6zm-11 14.2c.3-.1.7-.1 1.4-.1.6 0 1.1.1 1.4.3s.5.6.5 1-.1.8-.4 1c-.3.3-.8.5-1.4.5H4v1.5H3v-4.2zm14.6 8.2H3.9a.94.94 0 0 1-1-1v-1.1h12.5c.6 0 1.1-.5 1.1-1V13c0-.6-.5-1-1.1-1H2.9V2.6a1.08 1.08 0 0 1 1-1h9.3v3.3A1.79 1.79 0 0 0 15 6.7h3.4v14.8c0 .5-.5.9-1 .9zm-10.8-4v-4.3C7 14 7.4 14 8 14c.8 0 1.4.1 1.8.5.5.3.7.9.7 1.6 0 .8-.3 1.4-.7 1.8-.5.4-1.2.6-2 .6-.6 0-1-.1-1.2-.1zm7.2-2.5v.8h-1.6v1.7h-1v-4.3h2.7v.8h-1.7v1h1.6z"></path>
  </symbol>
  <symbol id="date" viewBox="0 0 16 16">
    <path d="M4.2 0c-.2 0-.4.2-.4.4v3.2c0 .2.2.4.4.4s.4-.2.4-.4V.4c0-.2-.2-.4-.4-.4h0zm7.6 0c-.2 0-.4.2-.4.4v3.2c0 .2.2.4.4.4s.4-.2.4-.4V.4c0-.2-.2-.4-.4-.4zM1.5 1.1A1.54 1.54 0 0 0 0 2.6V6h16V2.6a1.54 1.54 0 0 0-1.5-1.5h-1.1-.8v1.6c.2.2.4.5.4.8a1.11 1.11 0 0 1-1.1 1.1 1.11 1.11 0 0 1-1.1-1.1c0-.3.1-.6.4-.8V1.1H5v1.6c.2.2.4.5.4.8a1.11 1.11 0 0 1-1.1 1.1 1.11 1.11 0 0 1-1.1-1.1c0-.3.1-.6.4-.8V1.1H1.5zM0 6.7v7.8A1.54 1.54 0 0 0 1.5 16h12.9a1.54 1.54 0 0 0 1.5-1.5V6.7H0z"></path>
  </symbol>
  <symbol id="theme" viewBox="0 0 14 18">
    <path d="M10.8 14.1h2.8l-3.4 3.5v-2.8c0-.4.3-.7.6-.7zM14 1.9v10.9h-3.2c-1.1 0-1.9.9-1.9 1.9V18h-7A1.97 1.97 0 0 1 0 16.1V1.9A1.97 1.97 0 0 1 1.9 0h10.2A1.97 1.97 0 0 1 14 1.9zM7 13.5c0-.4-.3-.6-.6-.6H3.2c-.4 0-.6.3-.6.6 0 .4.3.6.6.6h3.2c.3 0 .6-.2.6-.6zm4.5-3.2c0-.4-.3-.6-.6-.6H3.2c-.4 0-.6.3-.6.6 0 .4.3.6.6.6h7.6c.4 0 .7-.3.7-.6zm0-3.2c0-.4-.3-.6-.6-.6H3.2c-.4 0-.6.3-.6.6a.65.65 0 0 0 .6.6h7.6c.4 0 .7-.3.7-.6zm0-3.2c0-.4-.3-.6-.6-.6H3.2c-.4 0-.6.3-.6.6a.65.65 0 0 0 .6.6h7.6c.4 0 .7-.3.7-.6z"></path>
  </symbol>
  <symbol id="branch" viewBox="0 0 16 16">
    <path d="M12.8 6.7h.8c.1 0 .2.1.2.2v1.6c0 .1-.1.2-.2.2h-.8V10h.8c.1 0 .2.1.2.2V12c0 .1-.1.2-.2.2h-.8v1.1h2.5V4.8c0-.1-.1-.2-.2-.2h-2.3v2.1h0zm-9.6 5.5h-.8c-.1 0-.2-.1-.2-.2v-1.6c0-.1.1-.2.2-.2h.8V8.8h-.8c-.1 0-.2-.1-.2-.2V6.9c0-.1.1-.2.2-.2h.8V4.6H.9c-.1 0-.2.1-.2.2v8.5h2.5v-1.1zm12.6 1.6H.2c-.1 0-.2.1-.2.2v1.7c0 .2.1.3.2.3h15.5c.1 0 .2-.1.2-.2v-1.7c.1-.2 0-.3-.1-.3zm-3.5-.4V2.8H3.7v10.5h2.2v-1.8c0-1.3 1-2.3 2.2-2.3s2.2 1 2.2 2.3v1.8h2zM8.8 6.7v1.4c0 .1-.1.2-.2.2H7.5c-.1 0-.2-.1-.2-.2V6.7H5.8c-.1 0-.2-.1-.2-.2V5.4c0-.1.1-.2.2-.2h1.4V3.7c0-.1.1-.2.2-.2h1.1c.1 0 .2.1.2.2v1.4h1.4c.1 0 .2.1.2.2v1.1c0 .1-.1.2-.2.2H8.8zM3 2.4h10c.1 0 .2-.1.2-.2v-2c.1-.1 0-.2-.2-.2H3c-.2 0-.3.1-.3.2v1.9c0 .2.1.3.3.3z"></path>
  </symbol>
  <symbol id="magazine" viewBox="0 0 32 16">
    <path d="M8.2 16c-2.4 0-4.4-.7-5.9-2.1C.8 12.4 0 10.6 0 8.4c0-2.4 1.1-4.5 3.2-6S8 0 11.3 0c4.1 0 8.6 1.3 13.5 4 4.8 2.6 7.2 4.7 7.2 6 0 1-.2 1.9-.6 2.6s-.8 1.1-1.3 1.1c-.2 0-1.7-.9-4.5-2.6-2.8-1.8-5-2.6-6.8-2.6-.7 0-1.3.2-1.7.5s-.8 1-1.1 1.8c-.8 1.8-1.7 3.1-3 3.9-1.2.9-2.8 1.3-4.8 1.3z"></path>
  </symbol>
  <symbol id="location" viewBox="0 0 14 20">
    <path d="M7 0C3.1 0 0 3.1 0 7c0 5.2 7 13 7 13s7-7.8 7-13c0-3.9-3.1-7-7-7zm0 9.5C5.6 9.5 4.5 8.4 4.5 7S5.6 4.5 7 4.5 9.5 5.6 9.5 7 8.4 9.5 7 9.5z"></path>
  </symbol>
  <symbol id="toolkit" viewBox="0 0 88 80">
    <path d="M81.6 10.3h-37l-8.4-8.4C34.9.7 33.3 0 31.6 0H6.4C2.9 0 0 2.9 0 6.4v67.2C0 77.1 2.9 80 6.4 80h75.1a6.38 6.38 0 0 0 6.4-6.4V16.7c.1-3.5-2.8-6.4-6.3-6.4zM6.4 2.6h25.1c1 0 2 .4 2.7 1.1l8.8 8.8c.2.2.6.4.9.4h37.6c2.1 0 3.9 1.7 3.9 3.9v5.1c-.7-.6-1.6-1-2.6-1.2v-4c0-.7-.6-1.3-1.3-1.3H6.4c-.7 0-1.3.6-1.3 1.3V31c-1 .2-1.8.6-2.6 1.2V6.4c.1-2.1 1.8-3.8 3.9-3.8zm10.4 18c-.7 0-1.3.6-1.3 1.3s.6 1.3 1.3 1.3h34.4l-7.7 7.7H7.7v-7.7h3.9c.7 0 1.3-.6 1.3-1.3s-.6-1.3-1.3-1.3H7.7V18h72.5v2.6H16.8zm68.6 53c0 2.1-1.7 3.9-3.9 3.9H6.4c-2.1 0-3.9-1.7-3.9-3.9V37.3c0-2.1 1.7-3.9 3.9-3.9H44c.3 0 .7-.1.9-.4l8.8-8.8c.7-.7 1.7-1.1 2.7-1.1h25.1c2.1 0 3.9 1.7 3.9 3.9v46.6z"></path>
  </symbol>
  <symbol id="data" viewBox="0 0 68 90">
    <path d="M67.6 9.1c-.3-.3-.6-.4-1-.4H25.2V7.2A7.17 7.17 0 0 0 18 0a7.17 7.17 0 0 0-7.2 7.2v1.5H1.4c-.8 0-1.4.6-1.4 1.4v78.5c0 .4.1.7.4 1s.6.4 1 .4h65.2c.8 0 1.4-.6 1.4-1.4V10.1c0-.4-.1-.7-.4-1zM13.7 7.2c0-2.4 2-4.4 4.4-4.4s4.4 2 4.4 4.4v1.5h-8.6l-.2-1.5zm51.5 80H2.8V11.5h8.1v19.4c0 3.9 3.3 7.2 7.2 7.2s7.2-3.2 7.2-7.2V16.7c0-.8-.6-1.4-1.4-1.4-.9 0-1.4.6-1.4 1.4v14.2c0 2.4-2 4.4-4.4 4.4s-4.4-2-4.4-4.4V11.5h51.4v75.7zM35.4 41.6h19.8c.9 0 1.4-.7 1.4-1.7s-.6-1.7-1.4-1.7H35.4c-.9 0-1.4.7-1.4 1.7s.7 1.7 1.4 1.7zm19.8 9H12.8c-.9 0-1.4.7-1.4 1.7S12 54 12.8 54h42.5c.8 0 1.4-.7 1.4-1.7s-.7-1.7-1.5-1.7zm0 12.4H12.8c-.9 0-1.4.7-1.4 1.7s.6 1.7 1.4 1.7h42.5c.8 0 1.4-.7 1.4-1.7S56 63 55.2 63zm0 12.4H12.8c-.9 0-1.4.7-1.4 1.7s.6 1.7 1.4 1.7h42.5c.8 0 1.4-.7 1.4-1.7s-.7-1.7-1.5-1.7z"></path>
  </symbol>
  <symbol id="play" viewBox="0 0 50 50">
    <path d="M25,0C11.2,0,0,11.2,0,25s11.2,25,25,25s25-11.2,25-25S38.8,0,25,0z"></path>
    <path d="M20 36V14l16 11z" fill="#fff"></path>
  </symbol>
  <symbol id="tick" viewBox="0 0 16 16">
    <path d="M5 7.2L7 9l4-4 1 1-5 5-3-2.8z"></path>
  </symbol>
  <symbol id="map" viewBox="0 0 16 16">
    <path d="M8 0c4.4 0 8 3.6 8 8 0 4.3-3.5 7.9-7.8 8H8h-.2C3.5 15.9 0 12.3 0 8c0-4.4 3.6-8 8-8zm.6 1.4V4h1.8c-.1-.3-.2-.7-.4-1-.4-.8-.9-1.4-1.4-1.6zm-1.2 0c-.5.2-1 .8-1.5 1.6-.1.3-.2.7-.3 1h1.8V1.4zm3.4.4c.1.2.2.5.4.7l.6 1.5h1.7c-.7-.9-1.6-1.7-2.7-2.2zm-5.6 0c-1.1.5-2 1.3-2.7 2.2h1.7l.6-1.5c.2-.2.3-.5.4-.7zm9 3.4H12c.1.7.2 1.4.2 2.2h2.5c0-.8-.2-1.5-.5-2.2zm-3.4 0H8.6v2.2H11c0-.8-.1-1.5-.2-2.2zm-3.4 0H5.2l-.3 2.2h2.4V5.2zM4 5.2H1.8c-.3.7-.5 1.4-.5 2.2h2.5c-.1-.8 0-1.5.2-2.2zm10.7 3.4h-2.5c0 .8-.1 1.5-.2 2.2h2.1c.4-.7.6-1.4.6-2.2zm-3.6 0H8.6v2.2h2.2l.3-2.2zm-3.7 0H4.9c0 .8.1 1.5.3 2.2h2.2V8.6zm-3.7 0H1.3c.1.8.3 1.5.6 2.2H4c-.2-.7-.3-1.4-.3-2.2zm9.8 3.4h-1.7l-.6 1.5c-.1.2-.3.5-.4.7 1-.5 2-1.3 2.7-2.2zm-3.1 0H8.6v2.6c.5-.3 1-.8 1.4-1.7.2-.2.3-.6.4-.9zm-3 0H5.6c.1.3.2.7.4.9.4.9.9 1.4 1.4 1.7V12zm-3.2 0H2.5c.7.9 1.6 1.7 2.7 2.2-.1-.2-.2-.5-.4-.7L4.2 12z"></path>
  </symbol>
  <symbol id="icon-1" viewBox="0 0 18 18">
    <path d="M13 0H2C.9 0 0 .9 0 2v14c0 1.1.9 2 2 2h14c1.1 0 2-.9 2-2V5l-5-5zM4 4h5v2H4V4zm10 10H4v-2h10v2zm0-4H4V8h10v2zm-2-4V2l4 4h-4z"></path>
  </symbol>
  <symbol id="icon-2" viewBox="0 0 16 18">
    <path d="M12.4,9.9H8v4.5h4.4V9.9z M11.6,0v1.8H4.4V0H2.7v1.8H1.8C0.8,1.8,0,2.6,0,3.6l0,12.6c0,1,0.8,1.8,1.8,1.8h12.4  c1,0,1.8-0.8,1.8-1.8V3.6c0-1-0.8-1.8-1.8-1.8h-0.9V0H11.6z M14.2,16.2H1.8V6.3h12.4V16.2z"></path>
  </symbol>
  <symbol id="icon-3" viewBox="0 0 20 16">
    <path d="M16 7v2h4V7h-4zm-2 6.6l3.2 2.4 1.2-1.6-3.2-2.4-1.2 1.6zm4.4-12L17.2 0 14 2.4 15.2 4l3.2-2.4zM2 5C.9 5 0 5.9 0 7v2c0 1.1.9 2 2 2h1v4h2v-4h1l5 3V2L6 5H2zm11.5 3c0-1.3-.6-2.5-1.5-3.4v6.7A4.46 4.46 0 0 0 13.5 8z"></path>
  </symbol>
  <symbol id="icon-4" viewBox="0 0 16 24">
    <path d="M0 24V0l16 12z"></path>
  </symbol>
  <symbol id="icon-5" viewBox="0 0 24 26">
    <path d="M5.3 20.8H8V5.2H5.3v15.6zm5.4 5.2h2.7V0h-2.7v26zM0 15.6h2.7v-5.2H0v5.2zm16 5.2h2.7V5.2H16v15.6zm5.3-10.4v5.2H24v-5.2h-2.7z"></path>
  </symbol>
</svg>