<svg xmlns="http://www.w3.org/2000/svg" xmlns:xlink="http://www.w3.org/1999/xlink" width="163" height="157" viewBox="0 0 163 157">
    <defs>
        <path id="gqyhs20fka" d="M0.448 0L36.616 0 36.616 31.913 0.448 31.913z"/>
        <path id="sgsx29fh3c" d="M0 0.05L28.033 0.05 28.033 45.609 0 45.609z"/>
        <path id="wqj9ppy8qe" d="M0 0.273L25.209 0.273 25.209 73.718 0 73.718z"/>
        <path id="e732ic32lg" d="M0 0.4L25.078 0.4 25.078 41.42 0 41.42z"/>
        <path id="k2v1zqwp4i" d="M0.168 0.139L11.694 0.139 11.694 25.781 0.168 25.781z"/>
        <path id="q5hkft09ek" d="M0 0.233L8.683 0.233 8.683 24.573 0 24.573z"/>
        <path id="t5zfqwxbzm" d="M0.146 0.318L20.03 0.318 20.03 19.923 0.146 19.923z"/>
        <path id="gbgrd5yr1o" d="M0 0.028L4.215 0.028 4.215 9.663 0 9.663z"/>
        <path id="f7uz3nr8yq" d="M0.374 0.156L4.126 0.156 4.126 6.256 0.374 6.256z"/>
        <path id="vmpewlbzzs" d="M0 0.149L9.974 0.149 9.974 27.924 0 27.924z"/>
        <path id="9b7lcpemeu" d="M0.009 0.105L10.583 0.105 10.583 29.984 0.009 29.984z"/>
        <path id="gb7vel7naw" d="M0 0L37.099 0 37.099 31.713 0 31.713z"/>
    </defs>
    <g fill="none" fill-rule="evenodd">
        <g>
            <g>
                <g>
                    <g transform="translate(-106 -805) translate(0 741) translate(106 64) translate(0 75.24)">
                        <mask id="ulu7b20feb" fill="#fff">
                            <use xlink:href="#gqyhs20fka"/>
                        </mask>
                        <path fill="#6B9149" d="M17.812 16.867l-.106.222.547.126.04-.137-.48-.211zm-3.596-4.315c.225-.357.421-.759-.077-1.103l.077 1.103zm8.978 9.012l-.107-.764-.165-.047-.431.725.703.086zM20.5 16.642c.58.38 1.176.727 1.933.77-.378-1.066-1.11-1.034-1.933-.77zm-1.904 1.824c-.497.437-1.183.334-1.3 1.158l1.38.19-.08-1.348zm-6.256-1.794c-1.053-1.055-2.045-1.993-2.972-2.993-.93-1.002-1.794-2.067-2.728-3.152-.162.321-.33.606-.453.909-.31.756-.187 1.312.441 1.789.229.174.56.203.825.338.767.39 1.482.806 1.586 1.822.084.818.729 1.39 1.574 1.421.561.022 1.128-.083 1.727-.134zm1.524-7.036c.324.366.509.772.79.857.983.295 1.143 1.022 1.165 1.883.013.471.023.947.099 1.41.107.65.372.871 1.002.92.49.036.983.054 1.518.083.353-.89.457-1.827.294-2.766-.26-1.493-.586-2.974-.893-4.459-.033-.159-.082-.348-.191-.452-.597-.57-1.219-1.115-1.826-1.676-.748-.692-1.747-.749-2.645-1.143-.372.618-.277 1.159.09 1.638.305.399.675.75 1.036 1.1.336.328.717.609 1.045.942.57.578.502.85-.238 1.141-.34.134-.675.282-1.246.522zM8.197 23.03c-.166.324-.31.578-.43.843-.411.905-.843 1.8-.659 2.852.144.826.24.91 1.035.742.227-.049.46-.11.69-.104.791.018.85.147 1.026.995.084.402.347.794.617 1.116.13.155.502.24.693.166.194-.075.397-.374.42-.594.048-.464.016-.946-.044-1.412-.137-1.061.037-2.078.376-3.073.394-1.157 1.095-1.997 2.364-2.222.085-.016.157-.109.206-.144l-.375-2.824c-.847.731-1.462 1.55-1.905 2.507-.154.333-.31.682-.54.957-.416.494-.724.99-.821 1.666-.124.855-.616 1.467-1.538 1.575-.462-.496-.042-.905.05-1.235l-.525-1.201c.56-.095.977-.21.917-.806-.011-.12.05-.268.12-.373.672-1.004 1.35-2.005 2.038-3 .2-.29.434-.556.652-.834l-.112-.2c-1.274.152-2.677-.265-3.717.941-.654.759-1.32 1.516-1.88 2.344-.518.766-.404.92.482 1.086.257.048.506.135.86.232zm13.06-15.595V4.062c-.605-.176-.946.089-1.25.42-.46.5-1.012.573-1.68.423.411-.753.353-1.532.322-2.297-.054-1.311-1.166-1.967-2.422-1.439-.107 1.136.31 2.17.618 3.236.19.652.501 1.162 1.06 1.53.445.294.665.7.753 1.246.146.896.298 1.81.613 2.654.391 1.05.453 2.107.37 3.185-.056.7-.243 1.388-.348 2.085-.035.228.002.466.008.816.39-.219.61-.369.85-.47.668-.282 1.018-.746 1.206-1.483.222-.87.635-1.694 1.01-2.518.336-.735.747-1.434 1.096-2.164.304-.634.577-1.285.376-2.02-.872-.4-1.652.221-2.582.169zM3.219 5.696c.275 2.194.937 3.05 2.439 3.175l-.575-1.013c1.055-.8 2.188-.762 2.712.058.288.45.534.93.777 1.408.9 1.767 1.768 3.55 2.705 5.297.208.389.598.749.991.952.557.289 1.193.427 1.798.617.445.14.894.265 1.343.387.172.047.352.068.75.142-.288-.448-.42-.76-.644-.978-.406-.396-.837-.783-1.31-1.088-1.436-.922-1.73-2.34-1.64-3.874.046-.808-.105-1.455-.642-1.936-.439 0-.809.036-1.168-.01-.388-.05-.69-.25-.732-.704-.076-.804-.154-1.607-.25-2.408-.03-.245-.12-.482-.184-.729-1.595.413-3.048.64-4.054-.871L3.22 5.696zm21.264 23.03c-.086.111-.117.182-.17.21-.086.045-.186.074-.283.088-.92.136-1.582-.302-2.238-.903-1.2-1.1-1.407-2.63-1.874-4.053-.386-1.179-.75-2.365-1.13-3.545-.016-.048-.101-.073-.346-.237.325 1.148-.376 1.781-.88 2.51-.158.229-.26.495-.489.941.512-.143.788-.234 1.071-.296.322-.071.65-.117.969-.172.329.625.352 1.109-.059 1.717-.313.464-.355 1.14-.426 1.731-.023.194.195.49.383.62.394.274.84.47 1.268.698l-.103 1.6c-.058.898.162 1.034 1.019.88.645-.117 1.197-.404 1.713-.737.549-.356 1.08-.187 1.608-.118.395.052.663.6.648 1.144.123-.1.284-.166.308-.266.2-.818.38-1.642.551-2.467.026-.123.021-.303-.05-.387-.522-.61-1.022-1.25-1.617-1.78-.272-.243-.823-.196-.85-.716-.02-.395.048-.794.086-1.19.042-.452.096-.903.14-1.301-.751-.23-1.373-.375-1.957-.613-.63-.257-.776-.773-.309-1.274.562-.603.558-1.305.631-2.153l-1.768-.776-.163.52c-.154-.105-.307-.21-.473-.326-.388.535-.427 1.075-.282 1.662.104.422.112.872.245 1.283.214.664.355 1.433.789 1.92.399.45.606.87.627 1.413.023.61.255 1.117.658 1.542.556.583 1.144 1.135 1.708 1.71.36.368.703.753 1.045 1.121zm-.569-11.42c.413.727.482 1.471.366 2.263-.058.399-.042.812-.024 1.217.026.613.316.861.898.771.193-.03.378-.13.562-.208 1.382-.597 1.424-.58 1.954.821.012.032.018.066.033.096.25.53.258 1.334.967 1.41.665.07.993-.591 1.34-1.092.782-1.131 1.43-1.119 2.215.04.274.403.492.87 1.058.987.049-.134.11-.225.114-.319.06-1.651.132-3.303.147-4.956.002-.305-.19-.647-.378-.911-.381-.535-.895-.91-1.56-1.03-.752-.137-1.505-.39-2.254-.38-.6.01-1.196.337-1.968.579.366.112.574.178.783.24.706.213 1.418.407 2.116.643.431.146.754.428.845.92.101.551-.084 1.127-.446 1.229-.53.148-.685-.285-.9-.622-.717-1.118-2.401-1.715-3.688-1.3-.781.251-1.512.287-2.18-.398zm9.677-12.46c-.588-.245-1.206-.325-1.517-.679-.331-.378-.374-1.015-.586-1.677-.236.391-.4.676-.575.954-.18.284-.355.573-.557.841-.527.697-1.118.912-1.928.598-.475-.184-.894-.517-1.38-.81-.509.512-.547 1.214-.531 1.917.025 1.126-.326 2.108-.98 3.014-.692.955-1.34 1.94-1.997 2.919-.281.418-.477.87-.45 1.578.38-.336.641-.578.917-.803.363-.297.698-.722 1.115-.84 1.112-.313 1.651-1.162 2.275-2.015.507-.693 1.16-1.298 1.825-1.848.446-.37 1.116-.414 1.46-1.006.067-.115.612-.104.785.037.25.205.18.559-.109.779-.159.12-.337.22-.517.308-.865.417-1.535 1.01-2.078 1.839-.694 1.06-1.429 2.137-2.832 2.427-.321.066-.579.434-.869.657-.478.367-.958.732-1.437 1.095-.165.124-.333.24-.44.317.61.263 1.27.407 1.751.782 1.192.929 2.306.549 3.522.022-.273-.502-.157-.833.31-1.086.177-.095.324-.33.391-.532.303-.917.971-1.332 1.869-1.467.645-.098 1.29-.201 2.012-.314-.125-.327-.223-.57-.31-.816-.089-.254-.178-.51-.247-.77-.186-.702-.034-1.193.578-1.554.334-.198.746-.268 1.127-.385.27-.083.545-.149.833-.226-.172-.53-.346-.936-.433-1.36-.135-.662-.382-1.213-1.056-1.41l.06-.487zm-7.636 17.641l-1.202 1.798c-.109.774.433 1.188 1.249 1.465.897.304 1.16 1.039 1.266 1.994.15 1.339-.582 2.367-.889 3.619-.618 0-1.193.025-1.764-.005-1.42-.074-2.764.43-4.158.54-.298.024-.606.02-.902-.023-.81-.119-1.256-.616-1.271-1.44-.008-.47.048-.942.08-1.465-.217-.074-.438-.13-.643-.222-.564-.252-.95-.627-.88-1.319.074-.727.134-1.455.202-2.218-.397-.165-.845-.297-1.236-.528-.34-.2-.579-.573-.214-.923.724-.696.917-1.555.91-2.488l-1.593-1.187c.18.468.25.829.44 1.102.615.878.419 1.586-.577 1.907-.127.041-.263.067-.396.078-1.034.088-1.401.822-1.57 1.7-.23 1.196-.133 2.396.098 3.583.15.766.054 1.1-.564 1.536-1.487 1.051-2.939.552-3.94-.708-.226-.284-.37-.635-.58-1-1.39.136-1.94-.74-2.196-1.953-.186-.882-.385-1.76-.62-2.832.05.034-.086-.055-.22-.151-.783-.558-.847-.892-.212-1.629.548-.635 1.155-1.218 1.737-1.822.14-.145.305-.269.421-.43.87-1.209 2.072-1.833 3.519-1.945 1.102-.084 2.212-.083 3.318-.086.358-.002.715.125 1.076.155.165.014.337-.063.5-.213-1.264-.023-2.475-.527-3.77-.173-1.427.39-2.786-.224-3.3-1.444-.173-.411-.151-.905-.234-1.47-.243-.023-.534-.084-.82-.073-1.577.065-2.253-1.215-2.167-2.546.058-.915.103-.923-.68-1.315-.482-.24-1.006-.416-1.439-.723-.454-.321-.874-.725-1.213-1.167C1.18 8.022.961 7.483.68 6.99.333 6.388.366 5.958.842 5.47c.163-.167.376-.284.55-.44.575-.511 1.19-.986 1.7-1.556.814-.908 3.171-1.125 4.218-.061.245.25.35.638.549 1.015.264-.12.49-.281.736-.32.554-.086 1.123-.192 1.673-.14.666.062.912.325.91.993-.001.966-.118 1.931-.186 2.896l-.025.376c1.066-.12 2.177-.38 2.854.847l1.486-.584c-.338-.343-.598-.619-.87-.882-.46-.445-.959-.851-1.38-1.329-.432-.49-.67-1.09-.63-1.77.042-.715.337-.988 1.036-.863.682.123 1.406.16 1.935.725.08.086.24.096.465.18-.027-.254-.026-.434-.069-.603-.163-.652-.345-1.3-.512-1.952-.123-.474.013-.889.386-1.18.766-.597 1.616-.964 2.613-.772.855.165 1.43.788 1.604 1.727.061.33.085.666.125.997.779.397 1.373-.124 1.984-.337 1.353.858.7 2.213.92 3.395.69-.13 1.382-.263 2.075-.395.212-.494.4-1.116.73-1.647.237-.378.62-.727 1.018-.924 1.117-.554 1.572-.34 2.085.832.04.09.114.163.195.274.45-.18.589-.587.792-.969.423-.793.984-1.47 1.912-1.674.315-.07.668-.07.983-.005.418.086.71.331.709.841-.003.465.067.929.11 1.477.262-.02.519-.025.771-.062.264-.04.522-.144.786-.162.879-.061 1.18.225 1.149 1.102-.015.414.08.91-.591 1.049.207.33.384.607.559.886.798 1.277.45 2.18-1.003 2.585-.356.099-.722.157-1.078.258-.183.052-.353.159-.654.299.345.337.623.606.899.877.188.185.426.342.55.564.443.8.328 1.064-.47 1.526-.738.427-1.555.371-2.346.484-.167.023-.335.027-.503.036-1.194.066-1.377.26-1.438 1.569.705.322 1.387.642 2.238.595.881-.05 1.85.91 1.977 1.825.187 1.35.428 2.695.176 4.078-.098.545.053 1.13.045 1.697-.025 1.656-1.242 2.351-2.663 1.529-.461-.268-.91-.56-1.351-.833-1.668 1.204-2.844 1.804-4.621-1.058z" mask="url(#ulu7b20feb)"/>
                    </g>
                    <g>
                        <g transform="translate(-106 -805) translate(0 741) translate(106 64) translate(133.722 76.266) translate(0 .416)">
                            <mask id="7pplytztmd" fill="#fff">
                                <use xlink:href="#sgsx29fh3c"/>
                            </mask>
                            <path fill="#FFD129" d="M12.063 15.983l.001.002h.32c-.002 0-.002-.001-.003-.002h-.318zm2.061.065c-.005-.091-.01-.182-.017-.273-.284-.12-.573-.26-.794.314l.811-.04zm-12.45 4.74c.214.926.304.965 1.43.725l-1.43-.725zm8.38-13.768c.403.431.767.67 1.36.462l-.191-.658-1.17.196zm1.203 4.307v-.859c-1.187.416-1.336-.576-1.819-1.352-.303 1.089.51 1.523.728 2.21h1.09zM2.672 22.624l-.03.171c.419.085.84.165 1.257.255.612.13 1.25.195 1.826.42.947.369 1.896.26 2.849.158.204-.022.385-.268.577-.41l-.1-.213-6.38-.381zM12.95 9.111l-.33 2.111c2.595-.88 4.332-1.771 4.745-2.39-.75-.16-1.515-.32-2.335-.492l.09 1.344-.922.355-1.248-.928zm4.942-3.673c.114-.437-.167-.51-.49-.506-1.385.016-2.86 1.093-3.299 2.292.886.217 1.786.435 2.832.69-.125-.752-.237-1.421-.367-2.21l1.324-.266zm3.845 16.123l-8.365 1.624c2.507.629 4.855-.137 7.213-.754.458-.12 1.03-.218 1.152-.87zm-11.492-7.37l.111-.081c.131.15.246.318.397.443.125.102.397.245.427.211.429-.476.81.016 1.203.046.502.039 1 .14 1.687.242-.526-.878-.945-1.582-1.372-2.28-.034-.055-.121-.095-.19-.108-1.07-.205-2.143-.356-3.199-.207.173.873.32 1.62.48 2.42l.77-.126-.314-.56zm13.965-3.22c-.896-.268-1.814-.482-2.685-.817-1.245-.48-2.484-.6-3.926-.23.77.533.873 1.552 1.74 1.75.168-.346.232-.74.452-.874.372-.225.655.067.916.384.267.326.633.57.963.855.752-1.098.922-1.142 2.046-.647.264.116.538.208.757.293.28-.364.458-.775.768-.949.356-.198.83-.185 1.236-.26-.007-1.151-.316-1.568-1.362-1.716-.65-.091-1.211-.278-1.67-.756-.204-.213-.445-.388-.665-.578-1.211 1.045-1.673 1.53-3.23.601-.86.467-.86.467-1.058 1.062 4.555.538 5.324.755 5.718 1.883zm-4.685 8.622c-.962-1.035-2.816-1.331-3.905-.728-1.226.68-2.535 1.073-3.925 1.115-1.177.036-2.389.114-3.363-.81-.14-.134-.478-.137-.703-.092-1.156.232-2.306.493-3.453.76-.554.129-1.1.293-1.887.506.383.147.507.23.636.239 1.402.103 2.805.272 4.208.268 1.855-.004 3.716-.288 5.561-.195 2.324.116 4.447-.647 6.831-1.063zM7.241 7.783c-.01-.23.032-.404-.031-.517-.433-.775-.884-1.54-1.34-2.302-.052-.087-.157-.165-.254-.198-.62-.204-1.247-.39-1.868-.592-.405-.133-.804-.284-1.206-.427l-.11.221C3.217 5.017 4.7 5.134 5.551 6.157c-.841.043-1.636-.103-2.43-.097-.853.006-1.684.198-2.26.916.481 1.04 1.674.888 2.434 1.52-.536.476-1.387.211-1.79.985.865.258 1.62.256 2.403-.083.636-.276 1.236-.354 1.795.314.493.59 1.368.478 2.164-.135-.34-.608-1.37-.49-1.482-1.405l.856-.389zm3.339-5.296V.817l-1.294.792c.334.635.803.79 1.333.84-.215.22-.395.498-.65.649-.665.393-.946.931-.682 1.625.29.762.804 1.29 1.7 1.337.577-.854-.289-2.057.727-2.715l-1.134-.858zm6.624 7.753c-1.206-.014-2.107.507-3.219 1.236l1.827.485c.437 1.665.422 3.408.468 5.076 1.193.372 2.3.67 3.372 1.068.725.27 1.403.669 2.094 1.028.667.345.92.933.918 1.659-.003.696-.001 1.394-.001 2.214-2.049.438-4.032.909-6.036 1.265-.674.118-1.4-.08-2.101-.093-1.105-.02-2.21-.005-3.194-.005 0 1.22-.008 2.355.005 3.49.004.294.022.607.121.88.567 1.567.384 3.126.064 4.71-.315 1.556-.065 3.092.381 4.597.15.503.541.533.977.455.892-.16 1.764-.197 2.608.256 1.155.618 1.443 1.118 1.298 2.407-.037.33-.077.663-.1.996-.005.064.057.132.123.275.79.062 1.733-.203 2.492.737l-1.56.757 1.073 1.14c-.55.785-.89.9-1.67.541-.43-.198-.82-.546-1.316-.127-.075.063-.307.034-.4-.038-.54-.413-1.224-.374-1.71-.176-.92.374-1.704-.006-2.508-.201-.698-.17-1.345-.351-2.048-.063-.113.045-.299-.09-.687-.22.397-.125.557-.182.72-.225.347-.091.767-.081 1.029-.281.664-.508 1.378-.674 2.18-.592 1.395.143 2.79.291 4.186.417.255.023.522-.053.8-.29-.141-.089-.274-.212-.428-.261-1.473-.467-1.91-1.033-1.943-2.566-.011-.474-.002-.947-.002-1.55-2.386.43-4.687.53-6.927-.49-.719.67-.556 1.488-.374 2.269.173.747.444 1.472.691 2.268l1.087.217.01.171c-.503.08-1.005.162-1.508.241-.617.098-1.235.19-1.849.293-.972.164-1.548-.564-2.175-1.058-.272-.214-.367-.79-.097-1.241.364-.607.792-1.144 1.513-1.628.067.725.12 1.321.175 1.929.822-.371.878-.418.59-1.115-.322-.781-.432-1.565-.313-2.396.22-1.537.965-2.26 2.754-1.464.503.223.993.472 1.649.785-.11-1.06-.2-1.956-.294-2.85-.007-.073-.006-.18-.051-.212-.872-.612-.515-1.515-.57-2.326-.147-2.115-.286-4.23-.068-6.349.06-.59.13-1.178.211-1.914-.467 0-.891-.009-1.316.002-.93.024-1.842.04-2.723-.402-.413-.208-.936-.216-1.414-.274-2.146-.26-3.233-1.047-3.64-3.368-.138-.794.078-1.174.857-1.39.604-.168 1.229-.26 1.84-.403.757-.178 1.509-.377 2.264-.562.714-.174 1.432-.341 2.08-.496 0-.87-.025-1.68.008-2.49.026-.628.068-1.266.205-1.878.158-.71.558-1.168 1.214-1.634-.636-.545-1.278-.9-2.194-.743-.722.124-1.47-.015-2.159-.396-.253-.14-.617-.089-.93-.117-.806-.07-1.617-.11-2.418-.217-.418-.056-.785-.286-.867-.756-.092-.523.42-.528.682-.75.053-.045.092-.106.195-.225C.89 8.04.6 7.825.356 7.568c-.575-.602-.45-1.03.351-1.249.914-.249 1.83-.486 2.784-.739-.713-.5-1.355-.922-1.963-1.388-.285-.22-.502-.525-.854-.902.34-.136.558-.303.765-.29.627.04 1.292.04 1.869.255 1.01.377 1.992.788 3.037.54C7.798 5.917 7.96 7.059 7.58 8.452c.644.81 1.235-.127 1.995.03L8.055 7.235l.809-.731C8.547 5.68 8.126 4.924 8 4.12c-.065-.41.4-.903.693-1.495.014.107.03.01-.008-.03-.814-.817-.789-1.265.117-1.938 1.255-.932 2.97-.783 3.922.39l-.569 1.35c.488.098.952.157 1.394.288.857.256.989.703.43 1.38-.231.28-.489.54-.764.843l.632.893 2.68-1.7c-.371-.164-.954-.087-1.103-.485.162-.19.271-.448.446-.503.7-.224 1.432-.202 2.02.256.515.405.957.92 1.375 1.433.272.335.441.755.69 1.196-.315.77-1.118.589-1.77.741v1.268c.923-.808 1.82-1.304 2.734-.007.318-.322.553-.539.766-.776.953-1.059 1.434-1.042 2.267.083.087.117.19.222.337.39 1.396-.644 2.266.441 3.194 1.12.96.703.593 1.983-.548 2.373-.363.124-.728.341-1.007.606-.594.564-1.276.772-2.042.569-.496-.132-.913-.123-1.384.101-.463.222-.983.361-1.497.053-.122-.074-.293-.154-.415-.124-1.726.425-2.477-.78-3.264-1.928-.041-.06-.07-.13-.122-.227z" mask="url(#7pplytztmd)"/>
                        </g>
                        <path fill="#FFD129" d="M6.125 9.507c-.974-.184-1.915-.437-2.5-1.344.557-.291 1.03-.051 2.5 1.344M11.659 13.77c.528-.1.81.064.823.751l-.823-.75" transform="translate(-106 -805) translate(0 741) translate(106 64) translate(133.722 76.266)"/>
                    </g>
                    <g>
                        <g transform="translate(-106 -805) translate(0 741) translate(106 64) translate(71.734 46.084) translate(.12)">
                            <mask id="q1hnfq5h1f" fill="#fff">
                                <use xlink:href="#wqj9ppy8qe"/>
                            </mask>
                            <path fill="#28ACC9" d="M15.277 2.539c-.322-.343-2.283-.218-2.673-.245-1.635-.115-2.898-.102-4.95-.196-.415.043-2.284-.441-2.053.563 1.33.818 9.626.858 9.676-.122m-3.991 25.627c1.67.042 3.175-1.163 3.768-2.34 1.015-2.01 1.878-3.978 1.484-6.34-.042-.25-.031-1.314-.18-1.54-.16-.243-.479-.033-.744.057-.645.205-1.025.318-1.649.54-.579.205-2.079.22-1.788 1.023.29.066.504-.023.724-.019.569.01 1.143.145 1.71.16.153.005.351.115.433.239.055.082-.015.312-.105.408-.14.152-.33.29-.525.358-.476.167-.972.276-1.451.433-1.332.436-1.191.743-1.083 1.613.172 1.377.769 1.464-.485 2.233-.307.189-.837.405-.87.732-.047.482 1.064.343 1.213.686.247.515-.429 1.324-.452 1.757M3.814 13.534c-.617 1.69-.812 2.337-1.455 4.837-.234.748-.209 1.204-.27 1.882-.209 1.405-.145 1.225-.189 2.592-.045 1.431-.086 2.502-.21 3.932-.017.212.118 1.421.207 1.61.462 1.478.734 1.796 1.427 2.62.231.277.42.401.792.28.825-.271 1.592-.277 2.013-1.142.327-.959.597-2.122.783-2.608.224-.582.406-1.294.594-1.887.163-.516.688-.367 1.319-.458.17-.526.17-.526.092-.915-.07-.356-.05-.956-.272-1.617-.324-.744-1.198-2.091-1.287-2.378-.151-.49-.443-1.12-.611-1.726-.453.158-.866.109-1.024-.133-.125-.35-.187-.635-.364-.962-.616-.689-.842-1.529-1.092-2.369-.134-.447-.262-.896-.453-1.558m2.513 3.71c.198.408 1.458.366 1.963.343.613-.029 1.028.038 1.56.003 1.38-.09 2.757-.288 4.121-.525.601-.104 1.12-.49 1.306-1.116.338-1.139.642-2.287.94-3.436.195-.757.366-1.52.525-2.286.112-.537.187-1.082.274-1.604-1.165-.367-1.811-.203-1.74-1.195.09-.369 1.417-.124 1.943-.086.279-1.093.215-2.422-.182-3.413-1.084-.37-2.142-.2-3.171.12-2.884.897-5.716.78-8.595-.323-.206-.084-.42 1.5-.252 1.67.091.062.139.11.196.129 2.376.75 4.753 1.5 7.133 2.24.289.09.875.133.714.548-.094.181-.364.036-.504-.006-2.564-.773-5.125-1.555-7.69-2.337-.413-.114-.686 1.381-.317 3.079.577.324 1.208.123 1.644-.114.89-.367 1.183.087 1.386.637.148.259-.483.442-.652.47-.696.115-1.16.6-1.697.976-.345.241-.521.52-.442.946.143.768.247 1.545.418 2.308.12.537.324 1.055.504 1.626 1.066-.191 2.024-.376 2.987-.53.476-.077 1.34-.347 1.371.084-.004.457-2.637.857-4.13.773.119.281.295.8.387 1.018M8.22 48.391c.087.226.157.46.262.676.583 1.204.813 2.5 1.023 3.802.03.182.105.41.092.596.112.845.041 1.59.1 2.328.118 1.5-.525 2.81-.894 4.224-.361 1.389-.536 2.736-1.073 4.068-.235.636-.496 1.53-.935 2.192-.378.674-.28.424-.848 1.39-.254.433-.605.598-1.12 1.11-.234.255-.674.581-.88.786-.284.249.7.84 1.06 1.05.797.463 1.955 1.309 2.147 1.515.6.566.363.828-.052 1.368-.42.458-.964.145-1.718-.359-.57-.474-3.742-2.656-4.344-2.992-.19-.105-.072-.785.208-.851 1.432-.337 2.49-1.02 3.457-2.247.847-1.115 1.28-1.9 1.688-2.83.31-.71.453-1.176.694-1.92.886-2.723.674-5.525.525-8.3-.055-1.024-.576-2.039-.96-3.03-.383-.993-.889-1.94-1.28-2.93-.167-.16-.299-.226-.596-.339 0 0-.375-.247-.676-.482-.552-.355-.685-.56-.95-1.176-.353-.825-.43-1.615-.247-2.525.163-.797.273-1.671.396-2.475.061-.395.269-.985.396-1.597.024-.116-.006-.252.043-.352.254-1.751.659-2.739.857-4.112.148-1.026.558-1.901.968-2.897-.542.095-.998.182-1.456.254-1.002.159-1.793-.152-2.364-1.014-.36-.545-.294-.413-.68-.942-.053-.072-.796-1.966-.808-2.052-.195-1.513-.345-1.842-.193-3.385.107-1.088.218-2.014.342-3.46.107-1.43.025-1.379.223-2.45.198-.76.463-2.09.742-2.892.301-.864.373-1.204.501-1.855.085-.428.175-.857.304-1.273.149-.48.206-.951.222-1.46.016-.49.263-1.033.563-1.44.424-.575.48-1.147.486-1.83.01-1.812.135-3.623.225-5.434.01-.216.098-.426.133-.642.175-1.047.215-1.13 1.265-1.233.714-.07 1.298.18 2.018.144.91-.047 1.65.154 2.557.065.706-.07 1.369.04 2.144.033 1.062.194 1.315.036 1.869.033.64-.005.887.26 1.52.284.061.002.178.006.246.006.11-.31.13-.747.34-.873.389-.234.882-.322 1.344-.392.132-.02.399.204.446.362.409 1.38.8 2.767 1.152 4.162.09.354.174.657.227 1.025.053.365.045.34.116.588.429.49.454 1.662.511 1.895-.35 1.268-1.1 2.501-1.454 3.761-.22.785-.216.596-.525 2.138-.153.63-.174 1.552-.14 2.99.013.621.406 1.776.48 2.041.516 1.848.11 3.52-.94 5.084-.137.205-.228.443-.331.67-.62 1.376-1.547 2.448-2.854 3.276-1.149.729-2.302 1.293-3.756 1.296-.118.32-.236.636-.35.954-.315.882-.651 1.758-.934 2.65-.208.654-.217 1.285-.381 1.951-.253 1.032-.328 1.998-.512 2.99-.127.688-.193 1.355-.185 1.97.006.528.18 1.054.178 1.58-.004 2.143.635 4.007 2.032 5.696 1.64 1.984 3.135 4.089 4.653 6.17.534.732.951 1.55 1.42 2.33.16.268.28.59.432.86.37.661.482 1.041.675 1.708.164.562.468 1.04.736 1.65.989 2.254 1.562 2.9 1.721 5.116.042.58-.018 1.209-.212 2.174-.112.956-.226 1.861-.247 2.642-.01.342-.007.464-.053.804-.023.513.183.471 1.025.418.212-.013.735.014 1.04-.033 2.656-.147 1.002-.11 2.72-.039.093.004.717.117.794.137.313.082.439.184.511.409.105.324.207.948-.074 1.168-.602.278-1.379.134-2.037.172-.91.052-.53-.049-1.435.032-.49.044-1.735.187-2.228.245-.452.054-1.933.322-2.384.22-.627-.141-.437-1.24-.23-1.854.172-.381.664-1.004.673-1.38.04-1.5.095-2.645.128-4.145.01-.467-.004-.946-.1-1.4-.303-1.469-.614-2.928-1.48-4.222-.483-.722-.719-1.425-1.114-2.205-.481-.95-.906-1.514-1.412-2.45-.416-.774-.917-1.624-1.348-2.39-.388-.69-.903-1.323-1.64-2.131-.334-.288-.587-.635-.81-1.002-.416-.689-.785-1.406-1.174-2.111l-.216.145" mask="url(#q1hnfq5h1f)"/>
                        </g>
                        <path fill="#28ACC9" d="M5.241 13.503c.488-.188.964-.44 1.466-.55.855-.187 1.727-.286 2.592-.42.956-.15 1.911-.3 2.867-.447.309-.047.62-.114.928-.106.137.004.29.118.387.456 0 .244-1.43.334-2.152.447-.847.13-1.691.258-2.555.284-.864.027-1.723.279-2.583.441-.3.057-.594.142-.891.214-.129 0-.145-.168-.059-.319M15.622 10.114c-.44.513-4.4.648-4.445.256 0-.306.511-.228.678-.207.947.117 1.855-.118 2.767-.336.48-.114 1.575-.386 1 .287" transform="translate(-106 -805) translate(0 741) translate(106 64) translate(71.734 46.084)"/>
                    </g>
                    <g>
                        <g transform="translate(-106 -805) translate(0 741) translate(106 64) translate(120.983 18.468) translate(0 .065)">
                            <mask id="7wbl6impvh" fill="#fff">
                                <use xlink:href="#e732ic32lg"/>
                            </mask>
                            <path fill="#E27149" d="M10.46 28.274l-.074-.251-.993.282.076.256.991-.287zm-4.92 3.58l.373-.006-.268-1.392-.225.03.12 1.369zm1.992-8.488c-1.39 1.29-1.39 1.29-1.366 1.65.828-.207 1.622-.442 2.289-1.174l-.923-.476zM8.995 6.107c1.938.16 3.756-.625 5.814-.685-.236-1.208-.435-2.292-.664-3.368-.087-.407-.424-.466-.786-.447-.704.037-1.408.07-2.113.1-.517.024-1.043-.01-1.55.073-1.003.164-1.107.335-1.006 1.322l.305 3.005zM6.178 28.445c.256-.574.559-.92 1.252-.487.32.199.7.076 1.002-.483l-2.33-.445c.028.483.053.949.079 1.414.056.02.117.032.168.062.014.008.015.087-.003.1-.605.458-.403 1.036-.268 1.622.08.353.068.727.133 1.085.09.502.069 1.12.358 1.471.434.527.325.991.252 1.543-.079.586-.4.839-.94.92-.508.078-1.085-.16-1.292-.64-.188-.438-.29-.916-.413-1.38-.025-.097.024-.213.04-.333l.57-.104c-.074-1.331-.139-2.658-.229-3.982-.012-.17-.143-.335-.229-.496-.21-.397-.538-.77-.62-1.191-.223-1.158-.37-2.333-.498-3.506-.098-.918-.158-1.843-.166-2.766-.005-.785-.404-1.297-1.096-1.94.133 1.045.168 1.894.361 2.705.443 1.854.661 3.724.708 5.628.027 1.185.122 2.38.33 3.546.179 1.008.232 1.982.04 2.985-.16.839-.275 1.688-.386 2.535-.25 1.92 1.17 3.245 2.845 3.44 1.959.23 3.905.531 5.88.196.252-.043.52.01.78.016 1.297.03 2.599.142 3.89.068 1.63-.093 3.277-.257 4.765-1.013 2.117-1.074 2.331-1.64 1.811-3.998-.72-3.262-1.53-6.513-1.403-9.898.014-.368-.036-.747-.115-1.108-.631-2.89-1.277-5.778-1.97-8.899-4.103 3.975-8.877 5.505-14.413 4.694.594.652 1.17 1.216 1.79 1.728 1.017.84 2.167.841 3.188.01.274-.221.484-.481.909-.157l-.227.879c.86.103 1.568-.026 2.147-.575.644-.61 1.262-1.248 1.905-1.86.207-.198.432-.45.688-.513 1.223-.298 2.465-.486 3.768-.346.589.306.414.858 0 1.06-1.417 1.117-2.926 1.97-4.499 2.747-1.56.772-3.042 1.701-4.542 2.588-.161.096-.215.373-.396.708 1.403-.07 2.66.204 3.725-.634.87-.685 1.703-1.418 2.568-2.11.196-.157.442-.301.683-.343.986-.173 1.953-.723 2.986-.19.077.04.442.057.471.406-.162.358-.349.435-.575.612-.992.772-1.98 1.576-3.072 2.188-1.19.668-2.493 1.131-3.743 1.693-1.045.47-2.028 1.08-3.19 1.285-.294.052-.542.368-.731.504l-1.651-.222-.081-.82H6.178zm1.048-15.7l.008-.004c-.41.206-.826.402-1.23.62-.157.083-.272.256-.433.313-.722.26-1.47.455-2.177.746-.745.307-1.276.89-1.683 1.577-.192.324-.386.69-.062 1.026.315.326.722.427 1.099.105.361-.309.71-.157 1.043-.02.375.155.78.317 1.063.59.624.6 1.315.478 2.176.412l-.612-.724c.819-.414 1.147.113 1.452.614 1.888.059 3.615-.452 5.336-1.025-.05-.268-.087-.457-.128-.672.175-.025.315-.092.382-.048.653.426 1.165.14 1.687-.271.379-.298.798-.546 1.205-.805.55-.35 1.104-.687 1.668-1.036-.6-.77-1.566.074-2.101-.756h3.005l.292-1.22c-.653-.32-1.177-.74-1.75-.825-1.556-.229-3.062.234-4.578.445.094 1.472.234 1.275-.825 2.508l-.963-.534 1.16-.316-.322-1.358-4.712.658zm2.36-2.084c.564-.262 1.2-.37 1.882-.568l-.444-3.021c-1.345 0-2.952-.069-3.315-.593-.472-1-.448-1.852-.839-3.019-.309-.925-.04-1.434.81-1.96.938-.582 1.97-.843 3.063-.89C12.005.556 13.267.495 14.53.434c.586-.028 1.18-.113 1.599.165.124 1.1.235 2.08.347 3.058.042.37.11.738.123 1.108.038 1.028-.505 1.706-1.518 1.848-.77.108-1.548.15-2.364.225-.372.968-.104 1.886.114 2.917.781-.102 1.509-.214 2.24-.286.812-.08 1.627-.18 2.439-.161.416.01.924.15 1.221.419.76.691 1.444 1.472 2.12 2.25.15.174.17.483.196.735.06.592.03 1.198.142 1.778.274 1.417.576 2.83.924 4.231.55 2.203.916 4.423 1.004 6.7.067 1.704.201 3.422.506 5.096.284 1.559.844 3.066 1.262 4.602.488 1.794.066 2.794-1.385 3.983-2.081 1.704-4.572 2.098-7.099 2.27-1.846.124-3.712-.026-5.569-.063-1.225-.026-2.454-.037-3.676-.114-.887-.057-1.773-.178-2.65-.33-1.754-.304-3.67-2.259-3.7-4-.02-1.165.245-2.356.528-3.5.219-.89.27-1.732.151-2.637-.206-1.58-.293-3.176-.458-4.763-.154-1.476-.335-2.948-.52-4.42-.175-1.398-.585-2.808-.493-4.186.082-1.242.303-2.57 1.41-3.55 1.013-.9 2.029-1.704 3.316-2.186.93-.348 4.08-.606 4.848-.962z" mask="url(#7wbl6impvh)"/>
                        </g>
                        <path fill="#E27149" d="M9.405 36.911c.038-.02.12-.085.213-.106.154-.037.373-.115.455-.045.1.083.155.324.11.458-.102.303-.277.58-.45.928-.328-.04-.68-.132-1.025-.11-.322.02-.636.16-1.02.266l-.921-1.598.112-.13.607.31c.867-.879.067-2.91 1.099-3.215.597.13.55 2.176.82 3.242M4.09 31.106c.365.308.69.628.405 1.223-.517-.34-.244-.85-.404-1.223M7.204 14.906l-.41-.494c1.034-.341 2.568.352 3.272 1.477-.599.25-1-.138-1.39-.42-.46-.334-.903-.653-1.507-.591l.035.028z" transform="translate(-106 -805) translate(0 741) translate(106 64) translate(120.983 18.468)"/>
                        <path fill="#E27149" d="M7.169 14.878l.6.707-.16.215c-1.138-.142-2.042-.842-3.101-1.395.48-.427.867-.208 1.265-.041.472.196.956.364 1.433.544l-.037-.03M5.25 16.503c-1.216.407-1.63-.512-2.452-1.01 1.204-.22 1.445-.114 2.453 1.01M10.373 16.204c.99-.44 1.362.364 2.064.677-.79.33-1.238.168-2.064-.677M8.323 16.77c.752-.192 1.251.227 1.904.578-.902.345-1.286.212-1.904-.578M7.743 17.042c-.89.447-1.207-.186-1.786-.588.885-.43 1.258.089 1.786.588M7.226 12.81l1.247.787-.139.288-1.39-.448.293-.63-.011.003M8.948 13.38c.625-.546 1.117-.174 1.781.19-.748.425-1.243-.113-1.78-.19M13.362 12.204l2.003.417c-1.087.448-1.282.408-2.003-.417M17.555 12.287c-.583.219-1.156.285-1.7-.062.595-.374 1.16-.336 1.7.062M13.634 15.497c-.591.161-1.116.094-1.563-.425.697-.336 1.13.042 1.563.425M11.362 15.023c-.548.28-.858-.114-1.24-.376.752-.317.786-.306 1.24.376M16.287 15l-1.155-.268c.578-.495.9-.34 1.204-.022-.016.096-.032.193-.05.29M14.758 14.286l-1.12-.329c.631-.49.888-.117 1.12.33M14.531 15.189l.466.098-.12.25-.407-.192.061-.156" transform="translate(-106 -805) translate(0 741) translate(106 64) translate(120.983 18.468)"/>
                    </g>
                    <g>
                        <g transform="translate(-106 -805) translate(0 741) translate(106 64) translate(39.33 125.685) translate(3.723)">
                            <mask id="0r91692hgj" fill="#fff">
                                <use xlink:href="#k2v1zqwp4i"/>
                            </mask>
                            <path fill="#E27149" d="M5.67 6.352c-.865-1.435-1.965-2.5-3.29-3.37-.535-.351-1.047-.718-1.696-.946C-.02 1.79.014.858.68.206c.215-.372 2.488.888 3.43 1.772 1.165 1.095 2.264 2.253 3.337 3.426.82.896.56 1.988-.537 2.586-.137.075-.303.153-.457.152-1.24-.008-2.283.604-3.43.885-.405.1-.526.394-.43.718.432 1.45 1.064 2.812 2.462 3.71.383.246.922.35 1.404.398 1.748.175 3.194.88 4.372 2.033.817.801 1.07 1.754.686 2.828-.241.673-1.357 1.26-2.332 1.18-.497-.04-.99-.114-1.488-.134-.403-.017-.81.024-1.327.043.17.378.254.677.428.923.484.684.972 1.37 1.521 2.011.984 1.15 1.228 2.72-.669 3.044-.536 0-.508-.41-.691-.67-.62-.877-1.202-1.774-1.797-2.663-.145-.218-.28-.442-.431-.656-.94-1.342.06-3.682 2.04-3.887.663-.069 1.334-.073 2.001-.097.326-.013.652-.003 1.085-.003-.126-.248-.17-.46-.308-.586-.818-.743-1.69-1.406-2.917-1.503-1.63-.13-2.914-.83-3.854-2.039-.403-.518-.74-1.08-1.1-1.626-.115-.174-.192-.37-.31-.541C.291 9.935 1.295 7.958 3 7.348c.467-.167.946-.306 1.411-.477.407-.15.802-.328 1.26-.519" mask="url(#0r91692hgj)"/>
                        </g>
                        <g transform="translate(-106 -805) translate(0 741) translate(106 64) translate(39.33 125.685) translate(0 4.255)">
                            <mask id="ozas53y1xl" fill="#fff">
                                <use xlink:href="#q5hkft09ek"/>
                            </mask>
                            <path fill="#E27149" d="M6.338 24.485c-.175-.187-.4-.389-.442-.61-.12-.65-.59-1.068-1.052-1.536-.656-.664-1.246-1.387-1.787-2.129-.64-.876-1.208-1.788-1.577-2.796-.21-.572-.292-1.13-.299-1.723-.014-1.194-.113-2.388-.107-3.582.005-1.018.012-2.048.19-3.049.198-1.112.078-2.196-.148-3.267C.904 4.798.53 3.827.198 2.853-.09 2.008-.133 1.204.541.476.61.4.716.354.84.27c.51-.265 1.302.927 1.651 1.612.727 1.429 1.234 2.923 1.39 4.481.147 1.472.182 2.953.235 4.431.038 1.069-.053 2.145.06 3.206.084.774.36 1.541.631 2.288.674 1.848 1.936 3.392 3.311 4.88.51.551.774 1.194.365 1.914-.09.157-.145.333-.194.505-.103.365-.302.63-.725.789-.279.105-.789.315-1.226.108" mask="url(#ozas53y1xl)"/>
                        </g>
                    </g>
                    <g>
                        <g transform="translate(-106 -805) translate(0 741) translate(106 64) translate(101.745 129.96) translate(5.734 6.75)">
                            <mask id="zdveyk7vnn" fill="#fff">
                                <use xlink:href="#t5zfqwxbzm"/>
                            </mask>
                            <path fill="#5B7C47" d="M11.416 8.581c.493.037.869.13 1.223.08 1.553-.223 3.074.029 4.579.321 1.934.375 3.087 1.957 2.756 3.821-.11.622-.497 1.223-.864 1.76-.349.509-.758 1.069-1.28 1.345-1.557.825-2.878 2.06-4.607 2.6-.48.15-.882.592-1.281.944-.644.567-1.143.662-1.738.066-.487-.486-.965-1.073-1.19-1.707-.36-1.005-.905-1.853-1.567-2.661-.446-.543-.843-1.125-1.346-1.802-.744.5-1.442 1.002-2.172 1.453-.74.455-1.503.872-2.27 1.279-.448.237-.893.216-1.207-.244-.405-.591-.41-1.313-.006-1.69 1.548-1.448 3.106-2.886 4.697-4.361 1.215.55 1.836 1.638 2.497 2.683.243.385.422.812.67 1.194.786 1.209 1.59 2.406 2.43 3.672 1.778-1.156 3.71-2.344 5.56-3.647.685-.484 1.18-1.24 1.874-1.993-1.402-.85-2.74-.923-4.098-.887-.331.009-.662.067-.99.122-3.098.52-4.225-2.85-3.316-4.856.638-1.407 1.35-2.753 2.399-4.023l-1.075.348c-1.263.41-2.521.83-3.788 1.223-.828.257-1.676.448-2.499.718-.682.223-1.23.035-1.49-.669-.155-.418-.192-.878-.284-1.327C5.756 1.69 8.416 1.061 11.07.41c1.062-.26 1.962.057 2.797.677.871.648 1.055 1.64.414 2.51-.617.838-1.308 1.62-1.932 2.452-.518.691-.947 1.434-.933 2.532" mask="url(#zdveyk7vnn)"/>
                        </g>
                        <g transform="translate(-106 -805) translate(0 741) translate(106 64) translate(101.745 129.96) translate(0 .494)">
                            <mask id="hjbjlxo31p" fill="#fff">
                                <use xlink:href="#gbgrd5yr1o"/>
                            </mask>
                            <path fill="#5B7C47" d="M.568 9.662c-.714-1.075-.82-1.996.06-3.083.843-1.04 1.14-2.396 1.284-3.729.041-.385-.182-.798-.278-1.2-.122-.505-.235-1.012-.378-1.623 2.619 1.39 3.518 3.295 2.623 5.935-.227.67-.56 1.304-.772 1.977C2.73 9.144 1.91 9.673.567 9.662" mask="url(#hjbjlxo31p)"/>
                        </g>
                        <g transform="translate(-106 -805) translate(0 741) translate(106 64) translate(101.745 129.96) translate(6.777 .494)">
                            <mask id="ochujovp5r" fill="#fff">
                                <use xlink:href="#f7uz3nr8yq"/>
                            </mask>
                            <path fill="#5B7C47" d="M3.28.156c1.338 1.71 1.032 4.534-.524 5.602-1.16.797-1.59.69-2.382-.714C2.017 3.892 2.413 1.91 3.28.156" mask="url(#ochujovp5r)"/>
                        </g>
                    </g>
                    <g>
                        <g transform="translate(-106 -805) translate(0 741) translate(106 64) translate(18.639 21.546) translate(0 6.038)">
                            <mask id="fwticrcfut" fill="#fff">
                                <use xlink:href="#vmpewlbzzs"/>
                            </mask>
                            <path fill="#28ACC9" d="M.759.149v.976l.406-.126c.245.715.499 1.439.74 2.167.155.462.306.926.434 1.396.5 1.848.964 3.706 1.491 5.546.504 1.757 1.022 3.511 1.62 5.238.588 1.702 1.263 3.376 1.937 5.048.4.991.89 1.945 1.305 2.931.205.489.332 1.01.495 1.517.246.762.495 1.523.737 2.285.166.524-.094.85-.635.79-.499-.056-.88-.24-.979-.812-.09-.525-.207-1.052-.38-1.555-.231-.671-.484-1.342-.804-1.974-.906-1.791-1.723-3.621-2.355-5.522-.418-1.255-.688-2.558-1.024-3.84-.017-.064-.062-.173-.041-.187.535-.38-.048-.428-.21-.634.148-.401.062-.76-.186-1.148-.448-.7-.498-1.297-.306-2.099-.281.05-.452-.034-.532-.338-.213-.816-.399-1.65-.728-2.421C1.164 6.03.652 4.658.3 3.229.174 2.714.15 2.175.083 1.646.057 1.45.05 1.254.023 1.06-.054.504.033.38.76.149" mask="url(#fwticrcfut)"/>
                        </g>
                        <path fill="#28ACC9" d="M12.547 6.7l.406.335.11-.054-.414-.996.22-.169c.018.088.016.186.056.262.578 1.103 1.165 2.2 1.741 3.303.43.823.612 1.708.704 2.63.129 1.305.31 2.607.5 3.905.045.3 1.102 4.967 1.166 5.721.05.577.3 1.075.713 1.476.893.87 1.243 1.97 1.38 3.165.046.399.178.737.39 1.1.312.539.681 1.461.14 1.9-.576.376-.926-.57-1.105-1.087-.124-.356-.198-.734-.244-1.109-.125-1.009-.493-1.92-1.263-2.577-.817-.697-.913-3.752-.988-3.854-.168-.231-1.05-4.244-1.084-4.506-.122-.948-.307-1.894-.342-2.846-.066-1.796-.733-3.373-1.59-4.9-.196-.35-.37-.711-.553-1.068-.121-.233-.152-.456.077-.648l-.02.017z" transform="translate(-106 -805) translate(0 741) translate(106 64) translate(18.639 21.546)"/>
                        <path fill="#28ACC9" d="M12.567 6.683c-.416-.077-.416-.077-.323-.63l.302.649.02-.02M12.227 30.201c-.491-.91-.48-1.94-.753-2.898-.097-.338-.154-.687-.223-1.032-.09-.453-.106-.933-.273-1.355-.728-1.84-1.502-3.663-2.252-5.495-.1-.244-.186-.499-.24-.757-.244-1.178-.815-4.583-1.227-5.654-.046-.48-.127-1.04-.255-1.416-.372-1.093-.26-2.296-.816-3.353-.33-.624-.442-1.388-.856-1.935-.584-.77-.746-1.652-1.012-2.518-.044-.145-.11-.283-.167-.424l-.102.02v1.011c-.41-.327-.293-.985-.9-1.17 0 .09-.004.171 0 .25.03.53.293.997.412 1.496.406 1.7 1.087 3.297 1.759 4.898.431 1.027.834 2.062 1.023 3.164.022.128-.012.26-.029.374v.003c-.012.084-.012.156.023.209.101.386.443 1.095.453 1.203.077.744.167 1.488.304 2.223.223 1.2.48 2.392.734 3.585.16.75.482 1.452.663 2.201.111.457.423.88.705 1.277.993 1.395 1.55 2.938 1.722 4.639.063.617.216 1.227.353 1.835.12.532.48 1.376 1.035 1.065.062-.153.177-.295.16-.42-.047-.348-.079-.726-.24-1.026" transform="translate(-106 -805) translate(0 741) translate(106 64) translate(18.639 21.546)"/>
                        <g transform="translate(-106 -805) translate(0 741) translate(106 64) translate(18.639 21.546) translate(6.98 .175)">
                            <mask id="tsdnj0qotv" fill="#fff">
                                <use xlink:href="#9b7lcpemeu"/>
                            </mask>
                            <path fill="#28ACC9" d="M6.648 22.962c-.322.29-.953-1.431-1.039-1.723-.134-.463-.346-.912-.41-1.382-.031-.226-.088-.344-.234-.488-.048-.048.035-.227.142-.35.438.809 1.635 3.52 1.54 3.943M4.665 18.09l-.058-.472.117-.025.134.477-.193.02m5.455 9.676c-.262-1.085-.537-2.147-1.195-3.093-.399-.574-.663-1.249-.949-1.895-.258-.585-.453-1.197-.696-1.79-.624-1.517-1.352-2.994-1.771-4.592 0 0-.7-2.473-.77-2.961-.07-.489-.42-3.246-.49-4.224-.07-.977-.174-3.106-.174-3.333 0-.227-.523-2.775-.488-3.054.034-.28-.557-2.374-.593-2.618-.036-.244-.245.035-.35 0C2.538.17 2.4.555 2.47.695s.698 3.77.767 4.014c.07.244.14 2.617.245 3.106.105.489.14 1.431.21 1.99.069.558.018 3.455.288 3.84.27.383.305 1.954.305 1.954l.275 1.257.082.566c-.371-.231-.593-.463-.68-.789-.318-1.196-.847-2.333-.995-3.577-.012-.107-.099-.205-.181-.367l-.129.415c-.583-1.151-.793-2.31-.63-3.487.078-.562.042-1.07-.068-1.6-.028-.132-.027-.267-.043-.4-.118-.94-.203-1.886-.368-2.817-.084-.474-.33-.917-.473-1.383-.14-.454-.263-.91-.608-1.28l-.457.4c.019.28.032.518.052.754.018.218.011.446.073.65.359 1.186.611 2.397.848 3.61.093.473.173.945.07 1.455-.067.338 0 .861.222 1.067.455.42.317.85.264 1.326.156.08.33.11.372.2.103.229.204.485.201.73-.003.419-.001.845-.162 1.255-.082.21-.05.425.202.57.088.051.106.248.125.383.016.12-.04.25-.016.367.18.858.322 1.727.568 2.566.301 1.022.634 2.043 1.058 3.019.642 1.479 1.17 3.007 1.888 4.454.037.074.024.173.038.26.162.978.503 1.89 1.053 2.715.193.29.467.84.94.583.272-.255.033-.529-.01-.755-.037-.19-.186-.354-.244-.543-.292-.953-.573-1.91-.851-2.868-.026-.091-.004-.196-.004-.294l.13-.045c.141.26.288.517.422.78.24.473.432.977.72 1.417.383.584.699 1.178.824 1.873.09.503.212 1.001.353 1.492.122.421.344.49.763.377.51-.138.752-.363.654-.824-.175-.524-.342-.926-.443-1.345" mask="url(#tsdnj0qotv)"/>
                        </g>
                    </g>
                    <g transform="translate(-106 -805) translate(0 741) translate(106 64) translate(60.962)">
                        <mask id="oo20pijqkx" fill="#fff">
                            <use xlink:href="#gb7vel7naw"/>
                        </mask>
                        <path fill="#FFD13B" d="M22.531 23.927l-.914 2.017c1.229.24 1.21.24 1.195 1.375-.004.39.11.781.166 1.147l2.114.168c-.143-.63-.09-1.389-.473-1.837-.44-.512-.414-.96-.371-1.482.128-1.57-.211-3.05-1.045-4.613l-1.412 2.616.74.609zm5.45-.341c-.855-1.595-2.53-2.267-3.857-3.3.056.456.223.862.302 1.281.42 2.228.803 4.462 1.237 6.687.09.457.09.837-.391 1.143l.98 1.33c.216-.714-.102-1.441.643-1.803-.024-.928-.772-1.625-.55-2.55l1.124-.201c-.42-.872-.957-1.657-.404-2.587h.916zM8.76 16.446l.181-.295-3.298-2.475c-.58-.436-.947-.972-1.047-1.895 1.889.952 3.013 2.415 4.498 3.534-.07-.678-.121-1.358-.39-1.955-.328-.731-.83-1.4-1.28-2.083-.126-.19-.434-.499-.493-.47-.6.292-.649-.226-.908-.452-.396-.344-.648-.902-1.464-.867.173.61.692 1.126.275 1.79-.444-.192-.855-.407-1.293-.552-.383-.126-.604-.715-1.27-.367.71.631 1.313 1.246.795 2.21l-1.409-.583.257 1.744c.36.08.776.19 1.2.258 1.134.18 2.19.491 3.148 1.118.781.512 1.662.898 2.498 1.34zm16.667-5.902c.478-.33.853-.545 1.16-.823.155-.14.244-.393.262-.601.046-.558-.005-1.124.064-1.678.072-.59.312-1.161-.248-1.69-.136-.127-.111-.456-.06-.674.184-.798-.099-1.513-.333-2.173-.407.059-.738.148-1.068.146-.551-.004-1.103-.068-1.654-.106-.605-.04-.895.116-.835.64.072.62.301 1.228.511 1.827.128.367.348.706.512 1.03-.702.713-1.566.26-2.367.506.061 1.573 1.556 2.246 2.402 3.446.45-.813.521-1.525.537-2.268.015-.742.145-1.482.23-2.26 1.234.48 1.375.63 1.288 1.603-.086.963-.247 1.92-.401 3.075zm-12.302-4.8l.677 1.47-3.1.338c-.013 1.307 1.66 1.226 1.834 2.223l-.4.471c1.188.616 2.513.976 3.21 2.114.936-.197 1.842-.388 2.807-.593-.292-.535-.672-.869-1.22-1.052-.38-.126-.764-.253-1.128-.414-.464-.206-.832-.49-.764-1.111 1.295.2 2.167 1.2 3.483 1.223-.245-.678-.407-1.334-.72-1.925-.315-.596-.646-1.343-1.212-1.636-.965-.502-2.119-.7-3.467-1.109zm19.054 9.879c-.539.428-1.117.562-1.757.545-1.55-.043-3.099-.082-4.649-.092-.562-.003-1.126.082-1.847.139.802.925 1.846 1.236 2.633 1.892 1.143-.909 2.32-.802 3.473-.255.973.46 1.863.49 2.799-.064.692-.41 1.434-.746 2.267-1.173-.743-.513-1.753-.35-2.128-1.188.902-.278 1.704-.595 2.296-1.457-.623-.246-1.175-.482-1.741-.682-.445-.158-.964-.196-1.352-.425-.764-.45-1.577-.402-2.353-.235-1.39.3-2.555 1.02-3.573 1.92-.218.193-.338.475-.576.82 2.28.139 4.407-.075 6.508.255zM9.356 17.01c-1.058.453-1.93-.053-2.595-.536-1.263-.919-2.766-1.166-4.213-1.34-1.906-.23-2.738-1.788-2.512-3.19.042-.264.094-.528.102-.794.028-.878.02-.878 1.024-1.098.415-1.327.415-1.327 2.453-1.009l.396-1.15c.194.013.417-.035.538.045 1.443.955 2.954 1.797 3.785 3.386.644 1.232 1.135 2.497 1.31 3.813.124.939.514 1.681.998 2.466.497.803.837 1.685 1.294 2.633 2.053-2.546 5.196-3.146 8.082-4.35.074-1.048-.437-1.973-.973-2.873-.087-.146-.53-.222-.764-.168-.496.114-.958.345-1.442.509-.88.3-1.716.41-2.658.012-.78-.328-1.187-.742-1.214-1.5-.005-.13-.03-.261-.047-.407-.645-.35-1.297-.665-1.902-1.044-.589-.369-1.126-.802-.81-1.481-.403-.472-.85-.85-1.097-1.316-.396-.748-.09-1.181.818-1.34.536-.093 1.075-.17 1.688-.265l-.679-1.429c.85-.124 1.492.17 2.158.307.69.141 1.303.546 2.11.233.269-.105.849.206 1.149.46.943.804 1.921 1.603 2.693 2.535.603.73 1.046 1.623 1.318 2.505.198.648.808 1.308.317 2.064-.014.02.011.065.027.095.46.937.918 1.874 1.423 2.9.72-1.294 1.285-2.568 1.448-3.801-.681-.776-1.27-1.449-1.862-2.119-.347-.393-.701-.78-1.049-1.174-.795-.9-1.264-1.89-.986-3.22h2.09c-.135-.377-.225-.585-.285-.8-.115-.424-.282-.848-.305-1.276-.063-1.213.424-1.717 1.984-1.634.349.019.69.126 1.1.204L23.742 0c1.435.289 2.22 1.09 2.968 1.903.659.715 1.018 1.55.909 2.518-.03.263-.074.605.07.792.92 1.183.22 2.542.54 3.786.066.253-.034.661-.23.83-.927.796-1.912 1.534-3.005 2.394l-.897 3.023c.255-.248.421-.394.57-.555.685-.744 1.33-1.52 2.057-2.228.571-.557 1.347-.846 2.181-.885 1.338-.063 2.63.101 3.86.668.65.3 1.388.44 2.085.657.898.28 1.63.754 2.217 1.583l-1.473 1.276 1.504.904c-.253.65-.92.806-1.392 1.135-.524.366-1.098.676-1.677.97-1.003.508-2.042.501-3.09.097-.374-.143-.753-.277-1.133-.406-1.173-.4-1.55-.132-1.352 1.062-.285 0-.582.065-.821-.014-.412-.138-.819-.326-1.17-.563-1.036-.7-2.08-1.395-3.047-2.168-.559-.447-1.06-.506-1.691-.227.3.446.586.86.857 1.28.333.522.634 1.037 1.327 1.283.314.112.517.465.793.685.694.555 1.39 1.107 2.105 1.639.891.664 1.756 1.334 2.225 2.338.14.294.412.537.738.95l-1.836-.402c-.354.502-.146.925.13 1.335.272.408.528.814.316 1.377l-.83.162c.157.589.325 1.137.445 1.693.082.382.224.78-.286 1.08-.147.085-.157.416-.165.636-.015.33.026.66.05 1.105-2.009.011-2.738-1.253-3.41-2.563-.702-.176-1.654.196-1.994-.588-.248-.572-.21-1.246-.308-1.937-.024-.016-.1-.096-.196-.13-.873-.313-1.075-.563-.844-1.342.194-.646.236-1.258.21-1.936-.028-.691.409-1.406.689-2.095.266-.654.533-1.262.43-2.015-.119-.854-.67-1.448-1.153-2.088-.216-.287-.628-.263-1.017-.122-2.279.823-4.371 1.952-6.298 3.313-.625.44-1.128 1.078-1.535 1.707-.842 1.298-1.566 2.659-2.372 3.977-.303.494-.736.92-1.038 1.415-.426.698-.95 1.362-.996 2.218-.013.242-.228.477-.39.795l-1.033-.537c.19-.303.348-.521.47-.756.202-.392.488-.78.55-1.193.193-1.266.771-2.357 1.539-3.405.794-1.082 1.53-2.2 2.257-3.322.128-.2.203-.531.112-.73-.522-1.142-.94-2.34-1.912-3.37z" mask="url(#oo20pijqkx)"/>
                    </g>
                </g>
            </g>
        </g>
    </g>
</svg>
