<svg xmlns="http://www.w3.org/2000/svg" xmlns:xlink="http://www.w3.org/1999/xlink" width="212" height="282" viewBox="0 0 212 282">
    <defs>
        <path id="046dchn93a" d="M0.728 0L59.48 0 59.48 51.84 0.728 51.84z"/>
        <path id="g6yttuptdc" d="M0 0.081L45.538 0.081 45.538 74.088 0 74.088z"/>
        <path id="21xa941b5e" d="M0 0.443L40.95 0.443 40.95 119.75 0 119.75z"/>
        <path id="2zpqu0crhg" d="M0 0.65L40.737 0.65 40.737 67.284 0 67.284z"/>
        <path id="kkjgy0epfi" d="M0.274 0.225L18.995 0.225 18.995 41.879 0.274 41.879z"/>
        <path id="jbnd9tx19k" d="M0 0.379L14.105 0.379 14.105 39.917 0 39.917z"/>
        <path id="f4sdg2t94m" d="M0.263 0.575L36.153 0.575 36.153 35.96 0.263 35.96z"/>
        <path id="r5o28a55no" d="M0 0.05L7.608 0.05 7.608 17.44 0 17.44z"/>
        <path id="76sydds72q" d="M0.674 0.282L7.446 0.282 7.446 11.291 0.674 11.291z"/>
        <path id="d3qzmnzdas" d="M0 0.242L16.202 0.242 16.202 45.36 0 45.36z"/>
        <path id="mrr11hbfyu" d="M0.015 0.17L17.192 0.17 17.192 48.707 0.015 48.707z"/>
        <path id="ux9ugbxm9w" d="M0 0L66.96 0 66.96 57.24 0 57.24z"/>
    </defs>
    <g fill="none" fill-rule="evenodd">
        <g>
            <g>
                <g>
                    <g transform="translate(-909 -928) translate(0 841) translate(909 87) translate(0 125.76)">
                        <mask id="09aeqmxhub" fill="#fff">
                            <use xlink:href="#046dchn93a"/>
                        </mask>
                        <path fill="#6B9149" d="M28.935 27.4l-.174.36.89.204c.02-.074.042-.148.064-.223l-.78-.342zm-5.842-7.01c.366-.58.684-1.233-.124-1.791.04.596.084 1.194.124 1.79zm14.584 14.64l-.173-1.241-.27-.077-.699 1.178 1.142.14zm-4.375-7.996c.94.617 1.91 1.18 3.138 1.25-.613-1.73-1.802-1.68-3.138-1.25zm-3.093 2.963c-.809.71-1.923.543-2.113 1.881l2.242.308-.13-2.189zm-10.163-2.915c-1.711-1.714-3.323-3.237-4.83-4.861-1.51-1.628-2.913-3.358-4.43-5.12-.263.522-.535.984-.736 1.476-.502 1.228-.304 2.131.717 2.906.372.282.91.33 1.34.549 1.245.634 2.407 1.31 2.576 2.96.137 1.328 1.184 2.257 2.558 2.309.911.034 1.83-.136 2.805-.219zm2.475-11.429c.526.594.826 1.255 1.282 1.392 1.599.48 1.857 1.66 1.894 3.06.02.765.037 1.538.16 2.29.174 1.056.604 1.415 1.628 1.493.797.06 1.596.089 2.466.136.574-1.447.743-2.968.477-4.493-.422-2.426-.95-4.832-1.45-7.243-.053-.259-.133-.566-.31-.734-.97-.928-1.98-1.813-2.966-2.724-1.216-1.123-2.838-1.216-4.297-1.856-.603 1.004-.45 1.882.147 2.66.496.648 1.097 1.218 1.683 1.789.545.53 1.164.988 1.697 1.529.924.938.815 1.38-.387 1.853-.553.218-1.097.459-2.024.848zm-9.205 21.758c-.27.526-.504.94-.7 1.37-.667 1.468-1.368 2.923-1.07 4.632.235 1.341.391 1.48 1.681 1.205.37-.079.749-.177 1.12-.168 1.287.03 1.382.238 1.668 1.616.136.652.564 1.29 1.002 1.813.21.25.817.39 1.126.27.315-.122.645-.608.683-.965.078-.755.026-1.537-.071-2.294-.223-1.724.06-3.377.61-4.992.64-1.88 1.78-3.244 3.84-3.61.138-.025.256-.176.335-.234l-.609-4.587c-1.376 1.187-2.376 2.517-3.096 4.073-.25.54-.502 1.106-.878 1.553-.674.803-1.174 1.61-1.332 2.708-.202 1.387-1 2.383-2.498 2.557-.751-.805-.07-1.469.08-2.006-.306-.7-.554-1.27-.853-1.95.91-.155 1.587-.343 1.491-1.31-.018-.195.08-.435.194-.606 1.092-1.63 2.194-3.257 3.311-4.873.326-.47.705-.904 1.06-1.355l-.183-.323c-2.07.246-4.348-.432-6.038 1.528-1.062 1.231-2.144 2.462-3.053 3.806-.842 1.246-.657 1.495.783 1.765.416.078.822.22 1.397.377zM34.53 12.077V6.6c-.981-.287-1.536.144-2.03.68-.747.812-1.644.932-2.728.689.667-1.223.572-2.49.522-3.732-.088-2.13-1.893-3.195-3.935-2.337-.173 1.845.504 3.526 1.004 5.256.308 1.06.815 1.888 1.723 2.487.723.476 1.079 1.137 1.223 2.024.237 1.455.484 2.94.995 4.31.636 1.706.736 3.423.6 5.173-.09 1.137-.394 2.255-.564 3.388-.056.37.003.757.014 1.325.634-.354.99-.598 1.38-.763 1.085-.459 1.654-1.212 1.959-2.409.36-1.412 1.031-2.752 1.64-4.09.546-1.195 1.215-2.33 1.78-3.515.494-1.03.938-2.088.612-3.283-1.416-.65-2.683.36-4.195.275zM5.23 9.253c.447 3.564 1.522 4.953 3.962 5.157l-.934-1.645c1.714-1.3 3.554-1.238 4.406.094.468.731.867 1.511 1.262 2.286 1.462 2.87 2.872 5.769 4.394 8.606.338.631.971 1.216 1.61 1.546.905.47 1.938.694 2.92 1.002.723.228 1.452.431 2.182.63.28.076.572.11 1.22.23-.47-.728-.684-1.236-1.048-1.59-.66-.642-1.359-1.271-2.13-1.766-2.33-1.498-2.807-3.802-2.663-6.294.076-1.312-.17-2.363-1.042-3.144-.713 0-1.314.059-1.897-.017-.63-.08-1.12-.404-1.19-1.144-.123-1.305-.249-2.61-.405-3.911-.048-.397-.196-.782-.3-1.184-2.59.672-4.95 1.04-6.585-1.415L5.23 9.253zm34.542 37.41c-.14.18-.19.297-.276.34-.14.074-.302.122-.46.145-1.494.22-2.57-.49-3.635-1.467-1.95-1.787-2.286-4.274-3.044-6.584-.628-1.915-1.218-3.842-1.837-5.76-.025-.077-.164-.117-.56-.384.527 1.864-.612 2.893-1.43 4.078-.257.37-.422.803-.795 1.528.832-.233 1.28-.38 1.74-.482.523-.114 1.055-.189 1.573-.279.534 1.016.573 1.802-.095 2.79-.509.754-.577 1.85-.691 2.812-.039.315.315.795.622 1.008.638.444 1.364.761 2.059 1.132l-.168 2.601c-.093 1.458.264 1.678 1.655 1.428 1.048-.19 1.946-.655 2.783-1.197.892-.578 1.753-.304 2.612-.191.642.083 1.078.975 1.054 1.859.199-.165.46-.271.5-.433.325-1.33.617-2.668.895-4.008.041-.2.034-.492-.082-.628-.847-.991-1.66-2.03-2.626-2.893-.442-.393-1.336-.316-1.38-1.163-.034-.64.077-1.289.138-1.932.07-.734.156-1.467.227-2.114-1.22-.374-2.23-.608-3.178-.995-1.022-.417-1.26-1.257-.502-2.07.913-.978.906-2.12 1.025-3.497-.938-.412-1.887-.83-2.872-1.261l-.265.846-.769-.53c-.629.868-.693 1.746-.457 2.7.17.685.183 1.417.397 2.084.348 1.078.577 2.327 1.283 3.12.647.73.984 1.412 1.018 2.293.038.991.414 1.816 1.07 2.505.901.949 1.857 1.844 2.773 2.778.586.597 1.143 1.224 1.698 1.822zm-.924-18.551c.67 1.181.782 2.39.594 3.677-.094.648-.068 1.318-.04 1.976.043.995.515 1.4 1.46 1.253.314-.048.614-.21.912-.339 2.246-.968 2.314-.94 3.175 1.335.02.052.03.107.053.156.408.86.42 2.167 1.572 2.289 1.08.114 1.613-.96 2.175-1.773 1.272-1.838 2.323-1.817 3.6.064.445.656.8 1.415 1.718 1.604.08-.217.18-.365.185-.517.097-2.683.215-5.367.238-8.05.005-.496-.309-1.053-.614-1.481-.619-.869-1.452-1.477-2.533-1.675-1.222-.222-2.446-.633-3.662-.615-.974.014-1.942.547-3.196.94.594.182.931.289 1.271.39 1.146.345 2.304.66 3.438 1.044.7.237 1.224.695 1.372 1.495.165.895-.136 1.83-.725 1.996-.86.24-1.111-.462-1.462-1.01-1.163-1.817-3.9-2.786-5.99-2.112-1.27.408-2.456.466-3.541-.647zM54.567 7.87c-.956-.397-1.96-.527-2.464-1.102-.539-.614-.608-1.649-.953-2.725-.383.636-.65 1.099-.935 1.55-.29.462-.576.932-.904 1.367-.856 1.132-1.815 1.482-3.132.972-.771-.3-1.451-.84-2.243-1.316-.825.831-.887 1.97-.862 3.114.041 1.829-.528 3.424-1.592 4.896-1.123 1.55-2.175 3.152-3.243 4.74-.457.68-.775 1.414-.732 2.564.62-.545 1.043-.94 1.49-1.305.59-.48 1.135-1.172 1.813-1.362 1.806-.51 2.681-1.89 3.694-3.274.825-1.127 1.886-2.109 2.965-3.003.725-.601 1.814-.672 2.371-1.634.11-.186.994-.17 1.275.06.408.333.294.908-.176 1.265-.258.196-.548.36-.84.502-1.405.677-2.494 1.638-3.375 2.986-1.127 1.723-2.321 3.472-4.602 3.943-.52.108-.939.704-1.41 1.068-.776.596-1.556 1.187-2.335 1.778-.267.2-.54.39-.715.515.992.427 2.063.66 2.845 1.27 1.936 1.51 3.746.891 5.722.036-.445-.816-.256-1.353.502-1.764.288-.155.527-.535.636-.865.492-1.488 1.577-2.163 3.035-2.383 1.05-.158 2.096-.326 3.27-.509-.203-.531-.363-.925-.503-1.326-.145-.413-.29-.827-.402-1.25-.302-1.141-.055-1.938.938-2.525.544-.323 1.212-.436 1.83-.626.44-.135.887-.242 1.355-.368-.28-.86-.563-1.52-.704-2.21-.22-1.073-.621-1.968-1.715-2.287l.096-.792zM42.16 36.529l-1.951 2.92c-.177 1.258.703 1.93 2.028 2.38 1.457.494 1.885 1.687 2.057 3.239.242 2.175-.945 3.845-1.444 5.879-1.004 0-1.938.04-2.866-.008-2.308-.12-4.49.7-6.754.877-.485.039-.984.033-1.466-.037-1.316-.193-2.04-1.001-2.064-2.34-.013-.764.078-1.53.129-2.38-.351-.12-.71-.212-1.043-.36-.916-.41-1.544-1.018-1.43-2.142.121-1.18.217-2.364.328-3.604-.645-.267-1.373-.482-2.008-.857-.55-.324-.94-.931-.347-1.5 1.175-1.13 1.49-2.525 1.477-4.042l-2.587-1.927c.294.76.405 1.346.716 1.79.998 1.427.68 2.576-.938 3.098-.207.066-.427.109-.643.127-1.68.143-2.276 1.335-2.55 2.76-.374 1.944-.216 3.894.159 5.822.243 1.243.087 1.785-.916 2.495-2.416 1.707-4.775.896-6.402-1.15-.367-.463-.602-1.032-.94-1.626-2.26.222-3.153-1.2-3.57-3.172-.3-1.433-.624-2.86-1.005-4.6.081.055-.141-.09-.359-.245-1.271-.906-1.375-1.449-.344-2.646.89-1.032 1.877-1.979 2.822-2.96.226-.236.496-.437.685-.698 1.412-1.964 3.365-2.979 5.715-3.16 1.79-.137 3.593-.136 5.39-.14.582-.003 1.162.202 1.748.251.268.023.548-.1.813-.345-2.053-.038-4.022-.856-6.125-.281-2.318.634-4.525-.364-5.36-2.346-.281-.668-.246-1.47-.38-2.387-.395-.038-.867-.138-1.333-.119-2.562.105-3.659-1.975-3.52-4.137.095-1.485.168-1.499-1.105-2.135-.782-.39-1.633-.676-2.337-1.175-.737-.522-1.42-1.178-1.97-1.896-.554-.721-.909-1.597-1.367-2.396-.564-.98-.51-1.678.264-2.47.265-.27.61-.46.894-.713.933-.83 1.932-1.603 2.761-2.528 1.322-1.475 5.15-1.827 6.851-.1.399.405.57 1.038.892 1.65.43-.194.797-.457 1.197-.52.9-.14 1.824-.312 2.717-.228 1.082.1 1.48.528 1.479 1.613-.003 1.569-.193 3.137-.304 4.705l-.04.61c1.733-.195 3.536-.617 4.636 1.377l2.414-.949c-.548-.558-.972-1.005-1.413-1.434-.746-.721-1.557-1.382-2.241-2.158-.703-.796-1.089-1.77-1.023-2.875.067-1.16.547-1.606 1.682-1.401 1.107.199 2.283.259 3.143 1.177.13.14.389.156.755.291-.044-.411-.042-.704-.112-.978-.264-1.06-.56-2.113-.832-3.172-.199-.77.022-1.443.628-1.916 1.244-.97 2.624-1.566 4.244-1.254 1.39.268 2.324 1.28 2.605 2.806.1.535.139 1.082.204 1.618 1.265.645 2.23-.2 3.222-.547 2.2 1.394 1.138 3.595 1.494 5.516l3.372-.642c.344-.803.649-1.813 1.187-2.676.384-.614 1.006-1.18 1.653-1.501 1.814-.9 2.553-.553 3.386 1.351.064.146.186.265.317.446.73-.292.957-.953 1.287-1.574.686-1.289 1.598-2.388 3.105-2.72.512-.113 1.085-.114 1.598-.008.678.14 1.154.538 1.15 1.367-.004.754.11 1.508.181 2.4.424-.033.842-.041 1.252-.103.429-.064.847-.233 1.276-.262 1.428-.1 1.917.365 1.866 1.79-.023.673.13 1.477-.96 1.704.337.535.625.986.909 1.44 1.296 2.074.731 3.542-1.63 4.198-.578.161-1.173.255-1.75.42-.299.085-.574.257-1.064.485.561.548 1.013.985 1.46 1.425.306.3.694.555.894.916.72 1.301.533 1.73-.764 2.48-1.198.693-2.525.602-3.81.785-.27.038-.544.044-.817.059-1.94.106-2.236.423-2.336 2.548 1.146.523 2.252 1.044 3.636.967 1.431-.08 3.004 1.478 3.211 2.965.304 2.193.695 4.378.287 6.624-.16.885.085 1.837.071 2.757-.04 2.69-2.016 3.82-4.324 2.483-.75-.434-1.48-.91-2.196-1.353-2.71 1.956-4.62 2.93-7.507-1.718z" mask="url(#09aeqmxhub)"/>
                    </g>
                    <g>
                        <g transform="translate(-909 -928) translate(0 841) translate(909 87) translate(160.04 166.96) translate(0 .675)">
                            <mask id="j2852g5k2d" fill="#fff">
                                <use xlink:href="#g6yttuptdc"/>
                            </mask>
                            <path fill="#FFD129" d="M19.595 25.964c.001 0 .003.001.003.003h.518l-.004-.003h-.517zm3.349.106l-.028-.444c-.461-.194-.93-.423-1.29.509.531-.028.925-.046 1.318-.065zM2.718 33.769c.348 1.503.496 1.568 2.324 1.178-.746-.38-1.427-.723-2.324-1.178zm13.613-22.366c.655.701 1.247 1.089 2.21.752l-.31-1.07-1.9.318zm1.955 6.996v-1.395c-1.928.677-2.17-.935-2.954-2.196-.493 1.769.827 2.475 1.181 3.591h1.773zM4.34 36.751l-.048.278c.68.137 1.363.268 2.042.414.993.212 2.03.317 2.966.682 1.539.6 3.08.424 4.628.258.332-.036.626-.436.937-.668l-.164-.345-10.36-.619zm16.697-21.95c-.2 1.293-.361 2.325-.534 3.429 4.214-1.431 7.036-2.878 7.707-3.884l-3.793-.799c.053.81.098 1.454.146 2.184l-1.498.576c-.618-.46-1.19-.885-2.028-1.506zm8.028-5.967c.186-.711-.27-.829-.796-.823-2.25.027-4.646 1.776-5.358 3.724l4.6 1.122-.596-3.59c.712-.145 1.43-.289 2.15-.433zm6.246 26.19l-13.587 2.638c4.072 1.022 7.886-.223 11.716-1.224.745-.194 1.673-.354 1.871-1.414zm-18.668-11.97l.182-.134c.212.243.398.517.645.72.202.166.644.398.692.344.697-.774 1.316.025 1.955.074.816.063 1.623.227 2.74.392-.853-1.425-1.535-2.569-2.229-3.703-.054-.09-.196-.154-.308-.175-1.74-.333-3.481-.578-5.196-.337l.778 3.931 1.251-.205-.51-.908zm22.687-5.232c-1.457-.435-2.948-.783-4.363-1.327-2.023-.779-4.035-.974-6.377-.374 1.251.866 1.419 2.522 2.828 2.842.271-.561.375-1.201.733-1.419.604-.366 1.064.11 1.487.624.434.53 1.03.925 1.565 1.389 1.222-1.784 1.498-1.855 3.324-1.052.428.188.873.339 1.229.476.455-.59.744-1.26 1.247-1.54.58-.323 1.349-.301 2.009-.424-.012-1.87-.514-2.546-2.214-2.786-1.056-.15-1.967-.452-2.712-1.23-.331-.344-.722-.63-1.08-.938-1.968 1.698-2.717 2.485-5.246.976-1.398.76-1.398.76-1.719 1.725 7.399.874 8.647 1.227 9.289 3.058zm-7.611 14.006c-1.564-1.682-4.575-2.163-6.344-1.183-1.991 1.103-4.118 1.743-6.375 1.811-1.912.059-3.88.186-5.464-1.316-.228-.217-.776-.222-1.142-.15-1.877.378-3.745.801-5.61 1.235-.9.21-1.785.477-3.064.823.622.238.823.372 1.032.387 2.279.167 4.558.443 6.837.437 3.013-.008 6.037-.468 9.033-.318 3.775.19 7.224-1.052 11.097-1.726zM11.762 12.643c-.017-.375.053-.656-.05-.84-.703-1.26-1.436-2.502-2.176-3.739-.085-.141-.255-.27-.413-.321-1.009-.333-2.026-.634-3.034-.963-.659-.215-1.307-.462-1.96-.694l-.178.36C5.226 8.15 7.635 8.34 9.017 10.001c-1.366.071-2.658-.166-3.949-.157-1.383.01-2.734.322-3.67 1.488.782 1.688 2.72 1.443 3.954 2.469-.87.773-2.253.344-2.908 1.6 1.406.42 2.632.417 3.905-.135 1.032-.449 2.006-.574 2.914.51.803.959 2.224.776 3.516-.22-.552-.986-2.224-.795-2.407-2.28.424-.194.845-.386 1.39-.633zm5.424-8.603V1.326l-2.102 1.288c.543 1.03 1.305 1.284 2.166 1.365-.349.358-.642.809-1.057 1.053-1.08.639-1.536 1.513-1.106 2.64.47 1.238 1.305 2.096 2.76 2.172.937-1.387-.469-3.341 1.18-4.41-.622-.473-1.23-.934-1.84-1.394zm10.76 12.595c-1.96-.023-3.421.823-5.228 2.006l2.968.79c.71 2.704.685 5.534.759 8.245 1.938.603 3.738 1.088 5.478 1.734 1.178.437 2.28 1.087 3.402 1.67 1.083.561 1.495 1.516 1.49 2.695-.004 1.132 0 2.264 0 3.596-3.329.712-6.55 1.477-9.806 2.055-1.095.193-2.273-.129-3.413-.15-1.795-.032-3.59-.008-5.188-.008 0 1.982-.014 3.825.008 5.668.006.479.036.986.197 1.43.921 2.546.623 5.079.103 7.652-.51 2.527-.105 5.022.62 7.466.243.818.879.866 1.586.74 1.45-.26 2.866-.32 4.238.415 1.875 1.005 2.343 1.817 2.108 3.91-.06.538-.125 1.077-.163 1.619-.008.103.093.214.2.446 1.283.102 2.815-.33 4.048 1.198l-2.534 1.23c.6.64 1.178 1.252 1.742 1.851-.893 1.276-1.445 1.462-2.71.88-.7-.323-1.333-.887-2.14-.207-.121.102-.497.055-.65-.062-.877-.671-1.987-.608-2.777-.286-1.495.607-2.768-.01-4.074-.327-1.134-.277-2.186-.57-3.326-.102-.184.074-.487-.145-1.117-.358.646-.202.905-.294 1.17-.365.563-.148 1.245-.131 1.671-.456 1.078-.825 2.238-1.094 3.542-.961 2.265.231 4.53.472 6.799.676.415.038.849-.085 1.301-.471-.231-.144-.446-.344-.697-.424-2.392-.759-3.102-1.678-3.156-4.168-.018-.77-.003-1.539-.003-2.519-3.876.7-7.614.862-11.252-.795-1.168 1.09-.903 2.417-.608 3.686.28 1.214.722 2.39 1.123 3.684l1.765.353.018.278c-.818.13-1.635.262-2.451.391-1.002.16-2.006.307-3.004.476-1.578.267-2.514-.916-3.533-1.718-.442-.347-.597-1.283-.157-2.017.59-.985 1.286-1.857 2.457-2.643l.285 3.132c1.335-.603 1.425-.68.959-1.81-.525-1.27-.703-2.543-.51-3.893.36-2.497 1.568-3.672 4.474-2.378.817.362 1.613.767 2.679 1.275-.178-1.723-.325-3.176-.477-4.63-.012-.118-.01-.291-.084-.344-1.416-.994-.836-2.46-.926-3.778-.237-3.437-.464-6.872-.11-10.313.096-.958.21-1.915.344-3.11-.76 0-1.449-.014-2.138.003-1.512.04-2.993.066-4.425-.653-.67-.337-1.52-.35-2.296-.444-3.485-.425-5.251-1.701-5.911-5.472-.227-1.29.125-1.907 1.39-2.257.982-.274 1.996-.423 2.989-.656 1.23-.288 2.451-.612 3.678-.912 1.16-.283 2.325-.555 3.38-.807 0-1.411-.042-2.729.011-4.043.043-1.022.112-2.058.333-3.051.258-1.154.906-1.898 1.972-2.656-1.033-.884-2.076-1.462-3.563-1.206-1.174.202-2.389-.024-3.507-.643-.412-.229-1.002-.144-1.512-.19-1.31-.115-2.626-.179-3.927-.353-.679-.09-1.275-.464-1.409-1.228-.15-.85.684-.858 1.108-1.218.087-.074.15-.173.318-.366-.434-.377-.902-.727-1.299-1.143-.933-.978-.732-1.673.57-2.029 1.485-.404 2.972-.79 4.523-1.2-1.159-.812-2.202-1.498-3.19-2.256-.462-.356-.815-.853-1.386-1.465.552-.22.906-.492 1.242-.471 1.02.065 2.1.066 3.036.415 1.643.612 3.236 1.28 4.934.876 2.36 3.448 2.623 5.304 2.004 7.565 1.047 1.317 2.007-.206 3.24.049-.904-.744-1.598-1.312-2.466-2.025l1.314-1.188c-.516-1.337-1.2-2.567-1.404-3.872-.105-.666.651-1.468 1.126-2.429.022.173.05.018-.013-.047-1.322-1.33-1.282-2.057.19-3.15 2.04-1.513 4.826-1.272 6.372.635l-.925 2.191c.793.16 1.546.256 2.264.469 1.392.415 1.606 1.141.7 2.24-.377.457-.795.88-1.241 1.37l1.025 1.451 4.355-2.762c-.604-.265-1.55-.14-1.792-.786.262-.31.44-.728.723-.818 1.139-.363 2.327-.328 3.281.416.838.657 1.556 1.493 2.234 2.327.443.545.717 1.226 1.122 1.943-.513 1.251-1.816.956-2.877 1.204v2.06c1.501-1.312 2.958-2.118 4.442-.012.517-.522.9-.875 1.245-1.26 1.548-1.72 2.328-1.693 3.682.134.142.19.31.362.547.635 2.269-1.047 3.681.716 5.188 1.82 1.56 1.141.964 3.22-.889 3.853-.59.202-1.182.555-1.636.984-.965.917-2.073 1.255-3.316.925-.806-.214-1.484-.2-2.248.165-.753.36-1.597.586-2.433.085-.198-.12-.477-.25-.675-.2-2.802.689-4.023-1.268-5.301-3.134-.067-.097-.115-.21-.199-.367z" mask="url(#j2852g5k2d)"/>
                        </g>
                        <path fill="#FFD129" d="M9.95 15.444c-1.583-.3-3.11-.711-4.06-2.184.903-.473 1.671-.083 4.06 2.184M18.94 22.369c.857-.163 1.316.104 1.336 1.22-.575-.523-.956-.872-1.337-1.22" transform="translate(-909 -928) translate(0 841) translate(909 87) translate(160.04 166.96)"/>
                    </g>
                    <g>
                        <g transform="translate(-909 -928) translate(0 841) translate(909 87) translate(93.08 89.2) translate(.194)">
                            <mask id="xygal5rurf" fill="#fff">
                                <use xlink:href="#21xa941b5e"/>
                            </mask>
                            <path fill="#28ACC9" d="M24.816 4.124c-.522-.557-3.709-.353-4.341-.398-2.656-.186-4.709-.165-8.04-.318-.675.07-3.712-.717-3.337.915 2.162 1.329 15.638 1.394 15.718-.199m-6.483 41.629c2.713.07 5.157-1.888 6.122-3.799 1.647-3.265 3.05-6.463 2.41-10.3-.068-.407-.05-2.134-.293-2.502-.259-.395-.778-.053-1.208.093-1.048.333-1.666.516-2.679.876-.94.334-3.377.358-2.905 1.663.47.107.819-.038 1.177-.031.924.017 1.857.235 2.779.261.247.007.569.186.702.387.09.133-.025.507-.17.662-.23.247-.536.47-.854.582-.773.271-1.578.449-2.357.704-2.163.708-1.934 1.206-1.758 2.62.278 2.237 1.248 2.379-.788 3.627-.5.307-1.36.657-1.413 1.19-.077.781 1.728.557 1.97 1.114.401.836-.697 2.15-.735 2.853M6.195 21.984c-1.001 2.747-1.318 3.797-2.363 7.858-.38 1.215-.339 1.956-.44 3.058-.338 2.282-.233 1.99-.305 4.21-.074 2.325-.14 4.065-.34 6.387-.029.345.19 2.309.335 2.616.75 2.4 1.193 2.918 2.317 4.257.376.45.682.65 1.287.453 1.34-.44 2.587-.449 3.27-1.854.532-1.558.97-3.448 1.273-4.238.364-.944.659-2.101.964-3.065.265-.837 1.118-.596 2.142-.743.276-.854.276-.854.15-1.486-.114-.58-.08-1.553-.442-2.628-.526-1.207-1.946-3.396-2.09-3.862-.246-.795-.72-1.82-.993-2.804-.735.256-1.406.177-1.663-.216-.204-.568-.305-1.031-.592-1.562-1.001-1.12-1.368-2.484-1.774-3.849-.218-.726-.425-1.456-.736-2.532m4.082 6.027c.322.663 2.37.595 3.19.557.995-.046 1.67.063 2.534.006 2.241-.147 4.479-.468 6.694-.852.977-.17 1.818-.798 2.121-1.815.55-1.849 1.043-3.714 1.526-5.581.318-1.23.596-2.47.855-3.713.182-.872.302-1.757.445-2.606-1.893-.596-2.943-.33-2.826-1.94.146-.6 2.301-.202 3.156-.14.452-1.776.348-3.936-.297-5.545-1.761-.6-3.478-.326-5.151.195-4.685 1.457-9.285 1.266-13.961-.525-.335-.136-.683 2.438-.41 2.715.149.098.225.178.318.207 3.86 1.218 7.721 2.437 11.588 3.64.468.145 1.42.216 1.16.89-.154.295-.593.059-.82-.01-4.164-1.255-8.324-2.526-12.49-3.795-.673-.187-1.115 2.243-.517 5 .938.526 1.964.2 2.671-.184 1.447-.597 1.922.141 2.251 1.035.242.42-.784.716-1.059.762-1.13.187-1.884.974-2.756 1.586-.56.392-.847.844-.717 1.537.232 1.248.4 2.51.678 3.748.195.873.527 1.715.82 2.642 1.73-.31 3.287-.61 4.85-.86.775-.125 2.177-.564 2.228.135-.006.743-4.283 1.394-6.708 1.257.192.456.478 1.299.627 1.654m3.076 50.597c.14.367.255.746.426 1.099.946 1.955 1.32 4.061 1.662 6.174.048.297.17.667.15.97.18 1.371.066 2.583.16 3.782.192 2.434-.852 4.563-1.451 6.861-.587 2.256-.872 4.444-1.744 6.608-.381 1.033-.804 2.485-1.518 3.56-.613 1.095-.455.69-1.377 2.26-.413.703-.984.97-1.82 1.8-.38.415-1.095.946-1.429 1.278-.462.404 1.137 1.364 1.722 1.705 1.294.753 3.175 2.127 3.486 2.462.975.919.59 1.346-.083 2.222-.683.744-1.567.235-2.792-.583-.926-.77-6.078-4.314-7.056-4.86-.307-.171-.117-1.276.339-1.383 2.326-.547 4.045-1.656 5.616-3.65 1.375-1.812 2.078-3.085 2.741-4.598.505-1.153.736-1.91 1.127-3.117 1.44-4.424 1.095-8.976.854-13.483-.09-1.665-.936-3.313-1.56-4.922-.622-1.613-1.444-3.15-2.08-4.76-.27-.259-.485-.367-.967-.55 0 0-.61-.402-1.1-.784-.896-.577-1.111-.911-1.54-1.91-.575-1.34-.702-2.624-.403-4.101.264-1.296.443-2.716.644-4.02.099-.642.436-1.601.643-2.595.039-.189-.01-.41.07-.572.412-2.846 1.069-4.45 1.39-6.68.241-1.667.908-3.089 1.574-4.706-.88.155-1.621.296-2.365.413-1.629.258-2.913-.247-3.84-1.648-.587-.885-.479-.67-1.105-1.53-.086-.117-1.293-3.194-1.312-3.333-.318-2.457-.56-2.993-.314-5.499.174-1.768.354-3.271.555-5.62.175-2.323.04-2.24.362-3.98.322-1.235.753-3.394 1.206-4.698.489-1.404.607-1.956.814-3.013.137-.696.284-1.392.494-2.068.24-.78.334-1.545.36-2.372.027-.797.428-1.678.915-2.34.688-.933.78-1.863.789-2.973.018-2.943.22-5.884.366-8.826.017-.35.16-.692.216-1.043.285-1.7.35-1.835 2.055-2.003 1.16-.114 2.109.293 3.277.233 1.48-.075 2.68.251 4.154.107 1.148-.113 2.224.065 3.484.053 1.725.316 2.136.06 3.035.053 1.041-.007 1.44.424 2.47.462.099.004.289.01.4.01.179-.505.211-1.213.552-1.418.63-.38 1.432-.523 2.182-.637.215-.033.648.331.725.588.664 2.243 1.3 4.495 1.872 6.761.146.575.283 1.067.369 1.665.085.593.072.552.187.955.697.797.738 2.7.83 3.079-.568 2.059-1.787 4.063-2.36 6.11-.36 1.274-.351.968-.854 3.471-.249 1.024-.283 2.521-.229 4.857.023 1.01.66 2.887.782 3.317.838 3.002.178 5.719-1.527 8.258-.223.333-.371.72-.539 1.088-1.006 2.235-2.512 3.977-4.635 5.322-1.867 1.184-3.74 2.101-6.101 2.105-.193.521-.385 1.034-.57 1.55-.51 1.433-1.058 2.856-1.517 4.306-.337 1.062-.352 2.086-.619 3.169-.411 1.676-.532 3.245-.831 4.857-.206 1.117-.314 2.2-.301 3.2.01.857.291 1.71.29 2.566-.008 3.481 1.03 6.51 3.3 9.253 2.664 3.223 5.093 6.641 7.559 10.022.867 1.19 1.545 2.517 2.306 3.784.261.437.456.961.701 1.398.603 1.075.784 1.691 1.098 2.775.265.912.76 1.69 1.195 2.68 1.606 3.662 2.537 4.712 2.796 8.31.068.944-.03 1.965-.345 3.532-.181 1.553-.367 3.024-.401 4.292-.015.556-.011.754-.085 1.306-.038.833.296.766 1.665.68.343-.022 1.192.022 1.688-.054 4.315-.239 1.629-.18 4.418-.064.153.007 1.165.19 1.29.223.51.133.713.298.83.664.172.526.337 1.54-.12 1.898-.978.45-2.239.217-3.309.279-1.476.084-.86-.08-2.331.052-.796.072-2.819.304-3.618.399-.735.087-3.14.522-3.873.357-1.019-.23-.71-2.016-.374-3.012.28-.62 1.078-1.632 1.094-2.241.064-2.437.154-4.297.207-6.734.016-.758-.007-1.537-.16-2.276-.494-2.385-.999-4.756-2.406-6.857-.786-1.172-1.168-2.314-1.81-3.582-.782-1.542-1.472-2.46-2.293-3.98-.676-1.257-1.491-2.637-2.19-3.883-.63-1.12-1.468-2.149-2.663-3.462-.543-.466-.954-1.03-1.317-1.626-.676-1.12-1.276-2.285-1.907-3.43l-.35.236" mask="url(#xygal5rurf)"/>
                        </g>
                        <path fill="#28ACC9" d="M8.514 21.935c.792-.305 1.565-.715 2.38-.894 1.39-.304 2.807-.464 4.212-.683 1.552-.242 3.104-.488 4.657-.725.501-.076 1.007-.185 1.508-.173.222.007.471.193.628.742 0 .396-2.323.543-3.495.725-1.377.213-2.748.42-4.152.462-1.403.043-2.799.453-4.195.717-.487.092-.965.23-1.448.347-.209 0-.235-.274-.095-.518M25.376 16.43c-.714.832-7.146 1.052-7.22.416 0-.498.83-.37 1.102-.337 1.539.19 3.013-.192 4.495-.545.778-.186 2.558-.628 1.623.466" transform="translate(-909 -928) translate(0 841) translate(909 87) translate(93.08 89.2)"/>
                    </g>
                    <g>
                        <g transform="translate(-909 -928) translate(0 841) translate(909 87) translate(170.9 55) translate(0 .106)">
                            <mask id="wii7d3fmjh" fill="#fff">
                                <use xlink:href="#2zpqu0crhg"/>
                            </mask>
                            <path fill="#E27149" d="M16.992 45.93l-.121-.409-1.613.459.124.415 1.61-.465zm-7.993 5.816c.202-.005.405-.007.607-.011l-.436-2.261-.366.05L9 51.746zm3.237-13.79c-2.258 2.096-2.258 2.096-2.22 2.682 1.346-.338 2.635-.719 3.718-1.908l-1.498-.774zm2.376-28.035c3.148.26 6.1-1.016 9.444-1.113-.383-1.963-.706-3.723-1.078-5.472-.141-.66-.69-.756-1.276-.725-1.144.06-2.289.113-3.433.163-.84.038-1.695-.016-2.52.117-1.628.266-1.796.544-1.632 2.148.158 1.546.313 3.092.495 4.882zm-4.576 36.285c.416-.931.908-1.493 2.034-.79.519.323 1.137.123 1.628-.785l-3.785-.722.127 2.297c.092.03.19.051.273.1.024.014.025.14-.004.162-.982.744-.654 1.683-.436 2.635.132.574.11 1.181.216 1.763.147.816.112 1.82.582 2.39.705.855.528 1.61.409 2.506-.127.952-.649 1.362-1.526 1.496-.825.125-1.763-.26-2.1-1.042-.305-.712-.47-1.487-.67-2.241-.041-.157.039-.346.065-.54l.926-.17c-.12-2.163-.226-4.317-.372-6.469-.02-.276-.233-.543-.372-.806-.343-.645-.874-1.25-1.007-1.934-.363-1.88-.603-3.789-.81-5.695-.159-1.49-.256-2.994-.268-4.493-.009-1.276-.657-2.107-1.782-3.152.217 1.698.273 3.078.587 4.395.72 3.011 1.074 6.048 1.15 9.142.045 1.925.199 3.867.535 5.76.291 1.637.378 3.22.067 4.849-.26 1.363-.448 2.742-.628 4.118-.407 3.119 1.902 5.27 4.622 5.588 3.182.372 6.343.863 9.552.318.409-.07.843.017 1.266.027 2.108.048 4.222.23 6.32.11 2.646-.152 5.322-.417 7.74-1.646 3.44-1.745 3.786-2.663 2.942-6.494-1.17-5.298-2.487-10.58-2.279-16.078.022-.598-.059-1.214-.187-1.8-1.026-4.697-2.075-9.387-3.2-14.457-6.665 6.458-14.42 8.943-23.414 7.625.966 1.059 1.902 1.975 2.908 2.807 1.652 1.364 3.521 1.367 5.18.018.444-.36.785-.783 1.476-.256-.11.43-.232.898-.37 1.427 1.398.168 2.548-.04 3.488-.934 1.047-.992 2.051-2.027 3.095-3.022.337-.32.702-.73 1.118-.832 1.987-.484 4.004-.79 6.12-.563.957.497.674 1.395 0 1.724-2.302 1.813-4.753 3.198-7.307 4.462-2.534 1.252-4.942 2.763-7.378 4.204-.263.155-.35.604-.644 1.149 2.278-.114 4.322.33 6.05-1.03 1.415-1.113 2.768-2.303 4.172-3.428.319-.255.718-.489 1.11-.557 1.602-.28 3.173-1.174 4.85-.31.126.065.718.095.766.662-.263.58-.567.706-.935.993-1.61 1.255-3.217 2.56-4.99 3.555-1.932 1.085-4.05 1.838-6.08 2.75-1.698.763-3.294 1.754-5.181 2.088-.478.083-.882.597-1.189.818-.915-.124-1.772-.238-2.681-.36l-.133-1.332h-1.646zm1.702-25.503l.013-.006c-.667.334-1.342.654-1.999 1.006-.254.136-.441.416-.703.51-1.172.422-2.386.738-3.535 1.211-1.21.498-2.073 1.447-2.734 2.562-.312.526-.628 1.12-.101 1.667.511.53 1.173.693 1.784.17.588-.502 1.155-.255 1.695-.031.609.25 1.269.514 1.728.956 1.013.976 2.135.778 3.533.67-.43-.51-.701-.829-.994-1.175 1.33-.673 1.864.184 2.359.996 3.068.096 5.873-.733 8.668-1.664l-.208-1.092c.285-.04.513-.15.622-.079 1.06.694 1.891.227 2.74-.44.615-.483 1.295-.886 1.957-1.307.892-.567 1.794-1.116 2.71-1.683-.975-1.25-2.545.12-3.414-1.227h4.882c.13-.548.299-1.25.474-1.981-1.061-.52-1.912-1.204-2.843-1.342-2.527-.371-4.973.38-7.436.724.152 2.39.38 2.07-1.34 4.074l-1.565-.868 1.884-.514-.522-2.206c-2.671.372-5.164.72-7.655 1.069zm3.835-3.386c.915-.425 1.949-.6 3.056-.921l-.722-4.908c-2.184 0-4.794-.112-5.385-.963-.766-1.623-.726-3.008-1.361-4.905-.502-1.502-.065-2.33 1.315-3.185 1.523-.943 3.199-1.368 4.976-1.444 2.05-.088 4.1-.186 6.149-.285.952-.046 1.916-.184 2.597.267l.564 4.968c.068.6.179 1.198.2 1.8.063 1.67-.82 2.77-2.465 3-1.251.176-2.516.245-3.84.367-.604 1.572-.17 3.063.184 4.738 1.27-.165 2.451-.347 3.64-.465 1.318-.13 2.643-.292 3.961-.261.677.015 1.5.244 1.984.68 1.235 1.123 2.346 2.392 3.443 3.657.243.281.276.784.319 1.194.099.96.049 1.945.23 2.887.446 2.302.936 4.598 1.502 6.873.892 3.58 1.488 7.185 1.631 10.884.108 2.767.327 5.558.821 8.278.461 2.532 1.37 4.98 2.05 7.475.793 2.915.108 4.54-2.249 6.47-3.381 2.768-7.427 3.408-11.532 3.687-2.999.203-6.03-.04-9.047-.102-1.99-.04-3.985-.059-5.971-.185-1.441-.092-2.88-.288-4.304-.536-2.85-.494-5.961-3.67-6.01-6.496-.034-1.894.397-3.829.857-5.688.355-1.445.437-2.813.245-4.283-.335-2.567-.476-5.16-.744-7.737-.25-2.397-.544-4.789-.844-7.18-.285-2.27-.951-4.56-.801-6.799.133-2.018.491-4.174 2.288-5.767 1.647-1.462 3.297-2.768 5.388-3.55 1.512-.566 6.627-.986 7.875-1.565z" mask="url(#wii7d3fmjh)"/>
                        </g>
                        <path fill="#E27149" d="M15.277 59.96c.062-.033.197-.138.347-.173.25-.06.606-.186.74-.074.162.136.25.528.177.744-.165.493-.449.945-.73 1.508-.534-.065-1.105-.214-1.666-.18-.523.033-1.032.262-1.656.434-.515-.893-1.007-1.744-1.497-2.596l.182-.211.986.505c1.409-1.43.11-4.729 1.785-5.223.97.21.894 3.534 1.332 5.266M6.645 50.53c.592.5 1.12 1.019.657 1.986-.84-.55-.397-1.38-.657-1.986M11.703 24.215c-.216-.26-.431-.52-.668-.803 1.68-.555 4.173.57 5.317 2.4-.973.406-1.625-.226-2.257-.684-.749-.542-1.468-1.06-2.45-.96l.058.047z" transform="translate(-909 -928) translate(0 841) translate(909 87) translate(170.9 55)"/>
                        <path fill="#E27149" d="M11.645 24.168l.976 1.15-.262.348c-1.848-.23-3.315-1.368-5.036-2.265.78-.694 1.408-.338 2.054-.068.768.318 1.554.592 2.329.883-.003-.001-.061-.048-.061-.048M8.53 26.807c-1.977.662-2.648-.831-3.985-1.639 1.955-.358 2.347-.186 3.984 1.64M16.85 26.322c1.608-.713 2.212.592 3.353 1.1-1.283.535-2.011.273-3.353-1.1M13.52 27.242c1.221-.313 2.033.368 3.092.938-1.465.56-2.088.345-3.092-.938M12.578 27.683c-1.445.726-1.96-.3-2.901-.955 1.437-.7 2.043.145 2.901.955M11.738 20.809l2.026 1.279-.226.468-2.259-.728c.22-.468.35-.748.476-1.025l-.017.006M14.536 21.735c1.015-.887 1.815-.282 2.893.308-1.215.69-2.019-.184-2.893-.308M21.706 19.824l3.253.678c-1.766.728-2.082.663-3.253-.678M28.518 19.96c-.948.355-1.878.462-2.761-.1.965-.61 1.884-.547 2.76.1M22.148 25.174c-.961.262-1.813.152-2.54-.69 1.133-.546 1.835.068 2.54.69M18.456 24.404c-.89.455-1.392-.186-2.014-.61 1.221-.515 1.277-.499 2.014.61M26.456 24.365l-1.874-.433c.939-.804 1.46-.554 1.955-.037l-.08.47M23.973 23.207l-1.818-.535c1.025-.796 1.441-.19 1.818.535M23.605 24.673l.756.16-.193.407-.662-.314.1-.253" transform="translate(-909 -928) translate(0 841) translate(909 87) translate(170.9 55)"/>
                    </g>
                    <g>
                        <g transform="translate(-909 -928) translate(0 841) translate(909 87) translate(36.32 203.76) translate(6.048)">
                            <mask id="0vo5zgb53j" fill="#fff">
                                <use xlink:href="#kkjgy0epfi"/>
                            </mask>
                            <path fill="#E27149" d="M9.212 10.32C7.805 7.986 6.018 6.258 3.867 4.843c-.87-.57-1.701-1.167-2.756-1.536C-.033 2.907.024 1.394 1.106.333c.35-.603 4.042 1.443 5.572 2.88 1.893 1.78 3.678 3.66 5.42 5.565 1.332 1.457.912 3.23-.871 4.202-.223.121-.494.247-.742.246-2.014-.013-3.71.98-5.572 1.438-.659.162-.855.64-.7 1.167.703 2.353 1.73 4.566 4 6.025.623.4 1.498.57 2.28.648 2.84.284 5.189 1.427 7.103 3.302 1.328 1.302 1.738 2.848 1.114 4.593-.392 1.093-2.203 2.048-3.788 1.918-.807-.065-1.61-.185-2.418-.218-.654-.027-1.314.038-2.156.07.279.614.414 1.1.697 1.499.786 1.111 1.58 2.226 2.47 3.267 1.599 1.868 1.995 4.418-1.086 4.944-.87 0-.825-.666-1.123-1.09-1.006-1.422-1.952-2.879-2.92-4.324-.235-.354-.455-.717-.7-1.066-1.527-2.179.098-5.98 3.315-6.313 1.076-.112 2.166-.12 3.25-.159.53-.02 1.06-.003 1.763-.003-.205-.404-.276-.749-.5-.952-1.33-1.207-2.747-2.284-4.739-2.443-2.647-.21-4.734-1.348-6.26-3.312-.656-.842-1.204-1.753-1.788-2.64-.187-.283-.31-.601-.503-.88-1.752-2.558-.12-5.77 2.647-6.76.759-.272 1.538-.498 2.293-.776.66-.244 1.302-.533 2.048-.842" mask="url(#0vo5zgb53j)"/>
                        </g>
                        <g transform="translate(-909 -928) translate(0 841) translate(909 87) translate(36.32 203.76) translate(0 6.912)">
                            <mask id="fupd7qfw0l" fill="#fff">
                                <use xlink:href="#jbnd9tx19k"/>
                            </mask>
                            <path fill="#E27149" d="M10.295 39.774c-.283-.303-.65-.631-.717-.99-.195-1.057-.96-1.736-1.71-2.496-1.064-1.08-2.023-2.253-2.902-3.458-1.04-1.424-1.963-2.905-2.562-4.542-.341-.929-.474-1.837-.486-2.8-.022-1.94-.183-3.879-.174-5.818.008-1.653.02-3.327.309-4.953.321-1.807.127-3.566-.24-5.306C1.468 7.794.86 6.217.322 4.635-.147 3.262-.217 1.956.878.773c.111-.12.284-.198.485-.333.829-.43 2.116 1.506 2.683 2.62 1.18 2.32 2.003 4.747 2.257 7.278.239 2.39.296 4.797.382 7.198.062 1.736-.086 3.485.099 5.207.134 1.258.582 2.504 1.024 3.717 1.094 3.003 3.145 5.51 5.378 7.927.827.896 1.257 1.94.592 3.11-.145.256-.234.54-.313.82-.17.593-.492 1.023-1.178 1.281-.454.17-1.282.513-1.993.176" mask="url(#fupd7qfw0l)"/>
                        </g>
                    </g>
                    <g>
                        <g transform="translate(-909 -928) translate(0 841) translate(909 87) translate(88 233) translate(10.35 12.182)">
                            <mask id="2ksr1xqhdn" fill="#fff">
                                <use xlink:href="#f4sdg2t94m"/>
                            </mask>
                            <path fill="#5B7C47" d="M20.606 15.488c.889.067 1.567.236 2.207.144 2.802-.403 5.547.053 8.264.58 3.491.677 5.572 3.533 4.974 6.897-.198 1.122-.896 2.208-1.56 3.178-.628.916-1.367 1.928-2.308 2.425-2.812 1.49-5.195 3.72-8.317 4.693-.866.271-1.592 1.07-2.312 1.704-1.162 1.024-2.062 1.194-3.137.12-.879-.878-1.74-1.937-2.148-3.082-.65-1.814-1.633-3.344-2.828-4.803-.804-.98-1.522-2.03-2.43-3.252-1.342.903-2.602 1.809-3.92 2.622-1.334.821-2.712 1.574-4.096 2.309-.808.429-1.612.39-2.18-.44-.73-1.068-.738-2.37-.01-3.05 2.795-2.614 5.606-5.21 8.477-7.872 2.194.992 3.315 2.957 4.508 4.843.44.695.762 1.465 1.21 2.155 1.418 2.182 2.87 4.342 4.383 6.628 3.21-2.086 6.697-4.23 10.036-6.584 1.237-.872 2.13-2.235 3.383-3.596-2.53-1.535-4.945-1.665-7.396-1.601-.597.016-1.195.121-1.787.22-5.592.937-7.626-5.144-5.985-8.766 1.152-2.54 2.435-4.968 4.33-7.26l-1.94.629c-2.28.739-4.551 1.497-6.837 2.207-1.495.464-3.025.809-4.51 1.295-1.23.404-2.222.064-2.69-1.206-.28-.755-.347-1.586-.513-2.396C10.388 3.05 15.19 1.915 19.981.74c1.916-.47 3.541.104 5.048 1.224 1.573 1.17 1.904 2.959.748 4.53-1.114 1.511-2.362 2.923-3.488 4.425-.935 1.248-1.709 2.588-1.683 4.57" mask="url(#2ksr1xqhdn)"/>
                        </g>
                        <g transform="translate(-909 -928) translate(0 841) translate(909 87) translate(88 233) translate(0 .891)">
                            <mask id="o5or530hcp" fill="#fff">
                                <use xlink:href="#r5o28a55no"/>
                            </mask>
                            <path fill="#5B7C47" d="M1.025 17.44c-1.288-1.942-1.481-3.603.11-5.566 1.52-1.877 2.057-4.324 2.316-6.73.075-.695-.329-1.44-.502-2.165-.22-.912-.424-1.827-.682-2.93C6.994 2.556 8.617 5.996 7 10.762c-.41 1.207-1.011 2.352-1.393 3.567-.682 2.175-2.163 3.13-4.583 3.111" mask="url(#o5or530hcp)"/>
                        </g>
                        <g transform="translate(-909 -928) translate(0 841) translate(909 87) translate(88 233) translate(12.232 .891)">
                            <mask id="4ubf5euw9r" fill="#fff">
                                <use xlink:href="#76sydds72q"/>
                            </mask>
                            <path fill="#5B7C47" d="M5.92.282c2.415 3.086 1.864 8.183-.946 10.111-2.093 1.438-2.869 1.246-4.3-1.29C3.64 7.025 4.354 3.45 5.921.282" mask="url(#4ubf5euw9r)"/>
                        </g>
                    </g>
                    <g>
                        <g transform="translate(-909 -928) translate(0 841) translate(909 87) translate(7 38.8) translate(0 9.81)">
                            <mask id="1oywt7g6dt" fill="#fff">
                                <use xlink:href="#d3qzmnzdas"/>
                            </mask>
                            <path fill="#28ACC9" d="M1.233.242v1.585l.66-.205c.397 1.162.81 2.338 1.203 3.52.25.752.496 1.505.703 2.27.813 3 1.566 6.019 2.423 9.008.818 2.853 1.66 5.704 2.63 8.508.956 2.766 2.052 5.485 3.147 8.2.65 1.61 1.446 3.16 2.12 4.762.334.794.54 1.642.805 2.465.4 1.237.804 2.472 1.198 3.712.27.85-.155 1.379-1.033 1.282-.81-.09-1.429-.39-1.59-1.319-.147-.853-.336-1.709-.618-2.526-.375-1.09-.786-2.18-1.306-3.207-1.47-2.909-2.798-5.881-3.825-8.97-.678-2.038-1.118-4.155-1.663-6.237-.028-.104-.1-.281-.067-.304.869-.616-.078-.696-.34-1.03.24-.652.1-1.234-.303-1.864-.728-1.139-.81-2.107-.498-3.41-.456.08-.734-.056-.863-.55-.347-1.325-.648-2.681-1.183-3.933C1.892 9.798 1.06 7.567.487 5.245.282 4.41.243 3.533.134 2.673c-.04-.316-.052-.636-.097-.952C-.088.818.052.616 1.233.241" mask="url(#1oywt7g6dt)"/>
                        </g>
                        <path fill="#28ACC9" d="M20.382 10.884l.66.543.18-.087c-.226-.539-.45-1.078-.674-1.617l.356-.275c.03.142.028.302.092.426.938 1.79 1.892 3.573 2.828 5.365.697 1.337.994 2.774 1.143 4.272.21 2.12.504 4.234.813 6.343.072.486 1.79 8.068 1.894 9.294.081.937.487 1.746 1.157 2.398 1.452 1.413 2.02 3.2 2.244 5.141.074.648.288 1.197.631 1.788.508.874 1.108 2.373.228 3.085-.935.61-1.504-.925-1.795-1.766-.2-.577-.32-1.193-.396-1.8-.203-1.64-.8-3.12-2.051-4.188-1.327-1.131-1.484-6.095-1.605-6.26-.274-.376-1.707-6.894-1.762-7.319-.198-1.54-.498-3.078-.555-4.624-.107-2.917-1.19-5.478-2.583-7.96-.318-.567-.6-1.155-.899-1.734-.196-.38-.245-.742.126-1.053l-.032.028z" transform="translate(-909 -928) translate(0 841) translate(909 87) translate(7 38.8)"/>
                        <path fill="#28ACC9" d="M20.414 10.856c-.675-.126-.675-.126-.524-1.024.218.474.353.765.49 1.054l.034-.03M19.862 49.06c-.798-1.48-.779-3.15-1.224-4.709-.157-.548-.25-1.115-.362-1.676-.147-.735-.172-1.516-.444-2.2-1.182-2.99-2.439-5.952-3.657-8.927-.163-.397-.302-.81-.389-1.229-.397-1.914-1.325-7.445-1.994-9.184-.074-.78-.206-1.69-.414-2.3-.605-1.777-.422-3.732-1.327-5.447-.534-1.014-.716-2.256-1.39-3.144-.948-1.252-1.21-2.684-1.643-4.09-.072-.236-.18-.46-.271-.69l-.167.034V7.14c-.667-.532-.475-1.601-1.462-1.902 0 .148-.006.279.001.408.049.86.476 1.619.67 2.429.658 2.763 1.764 5.356 2.856 7.956.7 1.668 1.355 3.35 1.662 5.14.035.208-.019.423-.047.609v.004c-.02.135-.02.252.038.339.163.628.718 1.778.736 1.954.125 1.208.27 2.418.492 3.612.363 1.947.78 3.885 1.194 5.823.26 1.218.782 2.36 1.077 3.576.18.742.687 1.43 1.145 2.074 1.612 2.266 2.518 4.772 2.797 7.535.102 1.003.35 1.994.574 2.981.196.865.78 2.235 1.68 1.73.101-.248.288-.48.26-.682-.076-.566-.128-1.18-.39-1.666" transform="translate(-909 -928) translate(0 841) translate(909 87) translate(7 38.8)"/>
                        <g transform="translate(-909 -928) translate(0 841) translate(909 87) translate(7 38.8) translate(11.34 .283)">
                            <mask id="6lrxgs0wnv" fill="#fff">
                                <use xlink:href="#mrr11hbfyu"/>
                            </mask>
                            <path fill="#28ACC9" d="M10.799 37.3c-.523.471-1.549-2.324-1.687-2.8-.218-.751-.562-1.48-.667-2.244-.05-.366-.143-.56-.379-.793-.078-.077.056-.368.23-.568.71 1.314 2.656 5.718 2.503 6.406m-3.222-7.916l-.095-.765.19-.042.218.775-.313.032m8.861 15.719c-.425-1.762-.873-3.488-1.941-5.024-.648-.933-1.078-2.029-1.542-3.079-.42-.95-.736-1.945-1.13-2.906-1.014-2.466-2.197-4.865-2.878-7.46 0 0-1.138-4.017-1.251-4.811-.114-.794-.68-5.273-.794-6.86-.114-1.588-.284-5.046-.284-5.415 0-.37-.85-4.508-.794-4.962.057-.454-.904-3.856-.962-4.252-.058-.397-.398.056-.568 0-.17-.057-.397.567-.284.793.113.227 1.134 6.124 1.247 6.52.114.398.227 4.253.397 5.047.17.794.227 2.325.34 3.232.114.907.032 5.613.47 6.237.438.624.494 3.175.494 3.175l.447 2.042.134.92c-.603-.375-.963-.753-1.104-1.281-.518-1.943-1.377-3.79-1.617-5.812-.02-.173-.16-.333-.294-.595-.09.292-.136.437-.21.673-.946-1.87-1.287-3.752-1.022-5.664.127-.912.067-1.739-.112-2.6-.045-.213-.044-.433-.07-.65-.19-1.526-.329-3.062-.597-4.575-.136-.77-.535-1.49-.768-2.247-.227-.738-.428-1.478-.988-2.077-.27.235-.547.478-.742.65.03.453.052.84.085 1.224.029.354.017.723.117 1.056.583 1.926.993 3.893 1.379 5.863.15.768.28 1.535.114 2.363-.11.55-.002 1.4.36 1.734.738.683.514 1.38.428 2.154.253.129.537.178.604.326.168.37.331.787.328 1.183-.006.682-.003 1.374-.264 2.04-.134.34-.08.69.328.927.143.082.172.403.203.621.026.194-.064.408-.025.596.29 1.394.522 2.807.923 4.17.488 1.66 1.03 3.317 1.717 4.903 1.043 2.402 1.901 4.884 3.068 7.235.06.12.038.28.061.422.263 1.589.817 3.071 1.71 4.41.314.47.76 1.365 1.528.948.441-.414.053-.86-.017-1.227-.059-.307-.302-.575-.396-.881-.474-1.55-.93-3.104-1.383-4.66-.042-.147-.005-.317-.005-.477l.21-.074c.23.423.469.84.686 1.27.391.766.701 1.584 1.17 2.3.622.948 1.135 1.913 1.338 3.043.147.816.344 1.626.574 2.422.197.685.559.798 1.238.614.829-.224 1.222-.59 1.064-1.34-.285-.85-.556-1.504-.72-2.184" mask="url(#6lrxgs0wnv)"/>
                        </g>
                    </g>
                    <g transform="translate(-909 -928) translate(0 841) translate(909 87) translate(72.1)">
                        <mask id="0lu1ybyd3x" fill="#fff">
                            <use xlink:href="#ux9ugbxm9w"/>
                        </mask>
                        <path fill="#FFD13B" d="M40.668 43.186l-1.651 3.64c2.218.434 2.183.434 2.157 2.483-.008.703.197 1.41.3 2.07l3.815.303c-.257-1.137-.16-2.506-.854-3.315-.792-.925-.747-1.732-.67-2.676.231-2.834-.38-5.506-1.886-8.326l-2.547 4.723 1.336 1.098zm9.836-.615c-1.544-2.88-4.567-4.093-6.962-5.958.1.825.402 1.557.546 2.314.759 4.021 1.449 8.053 2.232 12.07.162.823.162 1.51-.706 2.062l1.768 2.402c.39-1.29-.182-2.602 1.16-3.256-.043-1.674-1.392-2.932-.99-4.6l2.028-.365c-.757-1.574-1.728-2.99-.73-4.67h1.654zM15.811 29.682l.328-.53c-1.986-1.49-3.971-2.978-5.955-4.468-1.045-.787-1.709-1.754-1.888-3.42 3.408 1.718 5.437 4.359 8.118 6.378-.127-1.223-.219-2.45-.702-3.528-.595-1.32-1.499-2.528-2.312-3.76-.227-.341-.784-.9-.89-.848-1.084.527-1.17-.407-1.64-.816-.713-.62-1.17-1.629-2.64-1.566.312 1.102 1.248 2.034.495 3.233-.801-.348-1.543-.736-2.334-.997-.692-.227-1.09-1.29-2.293-.663 1.283 1.14 2.372 2.25 1.435 3.99l-2.542-1.053.463 3.148c.65.142 1.4.344 2.166.465 2.047.325 3.952.887 5.682 2.018 1.41.924 3 1.62 4.509 2.417zm30.083-10.65c.863-.598 1.54-.985 2.092-1.486.282-.255.442-.709.474-1.086.083-1.006-.008-2.027.115-3.027.131-1.064.564-2.097-.447-3.052-.245-.229-.2-.823-.11-1.215.335-1.442-.176-2.73-.598-3.922-.735.106-1.333.267-1.929.262-.995-.007-1.99-.122-2.985-.19-1.091-.074-1.615.208-1.507 1.156.13 1.117.543 2.215.923 3.296.23.662.627 1.275.923 1.86-1.267 1.286-2.827.468-4.272.912.11 2.84 2.81 4.054 4.336 6.22.812-1.468.94-2.752.969-4.093.027-1.34.262-2.675.413-4.08 2.23.867 2.483 1.138 2.327 2.895-.156 1.738-.446 3.465-.724 5.55zM23.69 10.366l1.222 2.654-5.594.61c-.025 2.36 2.996 2.214 3.308 4.012-.226.265-.45.53-.722.852 2.144 1.11 4.535 1.762 5.795 3.816l5.067-1.07c-.53-.968-1.214-1.57-2.202-1.9-.687-.228-1.38-.456-2.038-.747-.838-.372-1.5-.885-1.379-2.006 2.338.36 3.913 2.166 6.288 2.208-.443-1.223-.734-2.408-1.299-3.475-.57-1.076-1.166-2.423-2.189-2.953-1.74-.905-3.824-1.263-6.257-2zm34.39 17.832c-.972.772-2.016 1.016-3.171.984-2.796-.078-5.592-.149-8.39-.165-1.015-.006-2.033.146-3.335.25 1.447 1.669 3.332 2.23 4.754 3.414 2.062-1.64 4.186-1.447 6.267-.46 1.756.832 3.362.884 5.052-.115 1.25-.739 2.59-1.347 4.093-2.117-1.342-.927-3.165-.632-3.842-2.144 1.629-.503 3.076-1.074 4.144-2.63-1.125-.445-2.12-.87-3.142-1.231-.803-.286-1.74-.354-2.44-.766-1.38-.812-2.847-.727-4.247-.425-2.508.542-4.612 1.84-6.45 3.465-.392.348-.61.858-1.038 1.48 4.113.251 7.954-.135 11.745.46zM16.887 30.7c-1.91.819-3.484-.094-4.683-.966-2.28-1.66-4.993-2.105-7.605-2.42-3.44-.414-4.941-3.226-4.534-5.757.076-.476.17-.954.184-1.432.05-1.586.037-1.586 1.848-1.982.75-2.396.75-2.396 4.427-1.822.226-.658.46-1.33.716-2.076.35.023.752-.063.97.082 2.605 1.723 5.333 3.244 6.833 6.11 1.162 2.225 2.049 4.509 2.363 6.883.224 1.695.928 3.035 1.803 4.45.895 1.45 1.51 3.043 2.334 4.754 3.706-4.596 9.379-5.678 14.588-7.85.133-1.893-.789-3.563-1.756-5.188-.158-.263-.957-.4-1.38-.303-.895.205-1.729.622-2.602.919-1.59.54-3.097.74-4.797.022-1.408-.593-2.142-1.34-2.192-2.706-.009-.238-.053-.473-.084-.736-1.164-.632-2.341-1.201-3.433-1.884-1.063-.666-2.033-1.448-1.462-2.674-.728-.851-1.536-1.533-1.98-2.374-.715-1.35-.161-2.133 1.475-2.42.968-.167 1.942-.306 3.047-.478-.417-.879-.79-1.666-1.225-2.579 1.533-.225 2.693.308 3.896.554 1.244.255 2.351.985 3.808.42.485-.188 1.532.372 2.073.832 1.703 1.45 3.468 2.891 4.86 4.574 1.089 1.316 1.889 2.93 2.38 4.522.358 1.168 1.458 2.36.572 3.725-.025.036.02.118.049.171.829 1.691 1.657 3.382 2.568 5.235 1.3-2.336 2.32-4.635 2.613-6.862-1.229-1.4-2.293-2.614-3.36-3.823-.626-.71-1.266-1.41-1.893-2.119-1.435-1.624-2.282-3.41-1.78-5.811H39.3c-.244-.682-.407-1.058-.515-1.447-.208-.763-.509-1.528-.55-2.301-.114-2.19.766-3.1 3.581-2.95.629.034 1.246.228 1.984.369-.333-1.18-.601-2.137-.946-3.363 2.59.521 4.006 1.967 5.356 3.434 1.189 1.292 1.837 2.798 1.64 4.545-.054.475-.133 1.093.129 1.43 1.659 2.135.396 4.588.973 6.833.12.458-.061 1.194-.417 1.5-1.67 1.436-3.449 2.767-5.423 4.32l-1.618 5.456c.46-.448.76-.712 1.027-1.002 1.238-1.342 2.404-2.744 3.715-4.02 1.03-1.006 2.431-1.528 3.936-1.598 2.415-.114 4.749.183 6.967 1.206 1.174.54 2.506.792 3.764 1.186 1.62.506 2.942 1.36 4.001 2.856l-2.658 2.303 2.713 1.632c-.456 1.174-1.66 1.454-2.512 2.049-.945.66-1.982 1.22-3.026 1.749-1.811.918-3.686.906-5.578.177-.674-.26-1.359-.501-2.044-.733-2.119-.721-2.797-.239-2.441 1.916-.515 0-1.05.118-1.482-.026-.743-.248-1.478-.587-2.112-1.015-1.869-1.262-3.752-2.518-5.498-3.913-1.01-.807-1.914-.913-3.054-.41.54.805 1.058 1.55 1.547 2.312.601.94 1.145 1.87 2.396 2.315.567.2.933.839 1.431 1.236 1.253 1 2.51 1.997 3.8 2.958 1.608 1.198 3.17 2.408 4.016 4.219.25.532.742.97 1.332 1.716-1.305-.287-2.303-.505-3.314-.726-.64.905-.264 1.67.233 2.41.493.735.954 1.468.571 2.484-.436.085-.926.18-1.498.293.283 1.063.588 2.051.803 3.055.148.69.405 1.41-.516 1.948-.265.155-.282.753-.298 1.15-.027.595.048 1.193.093 1.995-3.627.02-4.945-2.263-6.156-4.627-1.269-.317-2.987.354-3.6-1.06-.447-1.034-.379-2.25-.556-3.497-.043-.03-.18-.174-.354-.235-1.575-.564-1.94-1.015-1.522-2.421.348-1.167.424-2.272.378-3.496-.05-1.247.737-2.538 1.244-3.781.48-1.18.962-2.278.775-3.636-.213-1.541-1.207-2.615-2.08-3.769-.39-.518-1.133-.474-1.836-.22-4.113 1.486-7.89 3.523-11.368 5.979-1.127.794-2.036 1.946-2.77 3.082-1.52 2.343-2.827 4.798-4.281 7.178-.546.891-1.33 1.662-1.873 2.554-.77 1.26-1.717 2.457-1.798 4.002-.023.439-.412.862-.705 1.435l-1.864-.968c.344-.548.63-.942.848-1.365.366-.707.882-1.407.994-2.153.347-2.285 1.391-4.255 2.777-6.145 1.433-1.953 2.76-3.973 4.073-5.997.233-.36.368-.959.203-1.316-.943-2.063-1.698-4.223-3.451-6.083z" mask="url(#0lu1ybyd3x)"/>
                    </g>
                </g>
            </g>
        </g>
    </g>
</svg>
