<svg xmlns="http://www.w3.org/2000/svg" width="242" height="242" viewBox="0 0 242 242">
    <defs>
        <linearGradient id="tasedwbv6a" x1="-.031%" x2="99.988%" y1="49.981%" y2="49.981%">
            <stop offset="0%" stop-color="#801A14" stop-opacity=".92"/>
            <stop offset="22%" stop-color="#A51314" stop-opacity=".87"/>
            <stop offset="49%" stop-color="#C70C13" stop-opacity=".82"/>
            <stop offset="75%" stop-color="#DC0713" stop-opacity=".8"/>
            <stop offset="100%" stop-color="#E30613" stop-opacity=".79"/>
        </linearGradient>
        <linearGradient id="e0cxcvt7db" x1="0%" x2="99.934%" y1="50.173%" y2="50.173%">
            <stop offset="0%" stop-color="#00676F" stop-opacity=".92"/>
            <stop offset="3%" stop-color="#006A73" stop-opacity=".91"/>
            <stop offset="37%" stop-color="#008397" stop-opacity=".84"/>
            <stop offset="69%" stop-color="#0093AE" stop-opacity=".8"/>
            <stop offset="100%" stop-color="#0098B5" stop-opacity=".79"/>
        </linearGradient>
        <linearGradient id="h3dxvxt4ec" x1="-.005%" x2="100%" y1="49.943%" y2="49.943%">
            <stop offset="0%" stop-color="#00676F" stop-opacity=".92"/>
            <stop offset="3%" stop-color="#006A73" stop-opacity=".91"/>
            <stop offset="37%" stop-color="#008397" stop-opacity=".84"/>
            <stop offset="69%" stop-color="#0093AE" stop-opacity=".8"/>
            <stop offset="100%" stop-color="#0098B5" stop-opacity=".79"/>
        </linearGradient>
        <linearGradient id="lfv5yjz7hd" x1=".005%" x2="100.029%" y1="49.962%" y2="49.962%">
            <stop offset="0%" stop-color="#D98C00" stop-opacity=".92"/>
            <stop offset="36%" stop-color="#EBA100" stop-opacity=".84"/>
            <stop offset="100%" stop-color="#F9B000" stop-opacity=".79"/>
        </linearGradient>
        <linearGradient id="mzbdd2kz6e" x1=".027%" x2="100.018%" y1="50.039%" y2="50.039%">
            <stop offset="0%" stop-color="#73822C" stop-opacity=".92"/>
            <stop offset="22%" stop-color="#839732" stop-opacity=".87"/>
            <stop offset="62%" stop-color="#97B139" stop-opacity=".81"/>
            <stop offset="100%" stop-color="#9EBA3C" stop-opacity=".79"/>
        </linearGradient>
    </defs>
    <g fill="none" fill-rule="evenodd">
        <g>
            <g>
                <g>
                    <path fill="#FFF" stroke="#1D1D1B" stroke-width=".6" d="M240 119.99c.006 66.274-53.715 120.004-119.99 120.01C53.737 240.006.007 186.285 0 120.01-.006 53.737 53.715.007 119.99 0c31.825-.003 62.349 12.637 84.855 35.14 22.507 22.502 35.152 53.023 35.155 84.85h0z" transform="translate(-875 -5073) translate(0 4954) translate(876 120)"/>
                    <path fill="#575756" fill-rule="nonzero" d="M181.875 156.34L181.875 155.294 190.313 155.294 190.313 156.34 186.792 156.34 186.792 164.706 185.396 164.706 185.396 156.34zM192.924 155.294L195.885 163.19 198.92 155.294 200.625 155.294 200.625 164.706 199.443 164.706 199.443 156.884 199.443 156.884 196.429 164.706 195.383 164.706 192.443 156.884 192.443 156.884 192.443 164.706 191.25 164.706 191.25 155.294z" transform="translate(-875 -5073) translate(0 4954) translate(876 120)"/>
                    <path fill="url(#tasedwbv6a)" fill-rule="nonzero" d="M191.08 128.941c-.613-1.146-1.048-2.378-1.292-3.656l-.063-.253c-.364-1.516-.589-3.061-.672-4.618-.073-1.338-.241-2.67-.504-3.984-.431-2.25-1.01-4.471-1.732-6.646-.252-.718-.483-1.448-.703-2.113-.389-1.41-.891-2.784-1.502-4.11-.64-1.29-4.2-9.637-5.102-12.437l-.126-.36h-.388c-.568-.072-1.105-.298-1.554-.655-4.934-3.72-9.858-7.08-14.624-10.006-.809-.486-1.586-1.057-2.341-1.627l-.725-.529c-.596-.535-1.063-1.2-1.365-1.944-.25-.544-.557-1.061-.913-1.543-.992-1.13-2.154-2.095-3.443-2.863-.536-.36-1.05-.719-1.512-1.057-4.847-3.924-10.645-6.477-16.798-7.396-1.547-.222-3.108-.328-4.671-.317-1.575 0-3.15.084-4.704.158-2.684.196-5.378.196-8.062 0-.657-.065-1.318-.065-1.974 0-.858.13-1.735.012-2.53-.338H113.486c-.59.017-1.176.084-1.753.2-.529.114-1.066.182-1.607.201-2.771 0-4.041-1.289-4.052-2.208-.01-.92.955-1.617 3.15-1.648 1.26-.075 2.513-.248 3.747-.518 1.05-.19 1.922-.37 2.783-.444.922-.079 1.838-.223 2.74-.433l.336.106c.259.114.536.182.818.2h.147c1.05-.137 2.016-.222 2.992-.306 1.914-.155 3.815-.44 5.69-.856 4.41-.761 8.93-.57 13.26.56 3.737 1.057 7.349 3.973 9.239 5.632 3.457 3.142 7.41 5.684 11.695 7.523 4.808 2.05 9.039 6.171 12.776 9.817.746.708 1.48 1.437 2.205 2.113l.913.814c1.207.89 2.204 2.037 2.919 3.36l.136.211c3.433 3.53 9.795 18.534 10.341 21.133.137.518.294.983.462 1.448.356.89.572 1.832.64 2.79.053 1.162.168 2.345.273 3.486l.158 1.765c.094.95.189 1.944.189 2.895v1.437c.058.784.058 1.572 0 2.356-.012.269-.054.534-.126.793-.492 1.477-1.344 2.806-2.478 3.867zm4.713-33.908c-.729-1.206-1.391-2.45-1.984-3.73l-.263-.56c-.207-.423-.392-.857-.556-1.3-.332-1.084-.895-2.082-1.648-2.926-.338-.306-.576-.708-.683-1.152-.043-.191-.125-.371-.241-.528l-.284-.265.084-.21c-.515-.63-1.08-1.217-1.69-1.755-.37-.306-.72-.634-1.05-.983l-.105-.2c-.228-.867-.716-1.641-1.396-2.22-.453-.523-.87-1.078-1.25-1.658-.56-.985-1.322-1.839-2.235-2.505l-.158-.095c-2.535-2.28-5.36-4.213-8.399-5.748-.86-.55-1.75-1.052-2.666-1.5-1.58-.738-3.03-1.73-4.294-2.938-.404-.38-.832-.732-1.28-1.056-.856-.645-1.591-1.435-2.174-2.336-.306-.557-.562-1.14-.766-1.743-.238-.841-.65-1.623-1.208-2.293-.68-.55-1.31-1.162-1.879-1.828-.966-1.31-2.336-2.26-3.895-2.705-1.239-.296-5.91-4.449-7.191-5.61l-.378-.128c-1.533-1.278-4.346-1.627-6.604-1.912l-.986-.127-.956-.159c-1.095-.241-2.218-.334-3.338-.274l-1.585.285c-1.166.222-2.384.454-3.59.581-1.28.124-2.54.408-3.749.846-.342.148-.657.351-.934.602-.472.453-1.055.77-1.69.92-1.378.473-2.725 1.034-4.032 1.68-.784.535-1.72.801-2.666.76-.336 0-.672 0-.987-.053-.86-.111-1.726-.168-2.593-.169-5.081 0-8.042 2.008-9.123 3.867-.4.687-.4 1.131-.347 1.216 2.75.458 5.538.656 8.325.591h.504c1.374-.074 2.726-.377 4-.898 1.392-.565 2.869-.886 4.368-.95h.44c2.163 0 4.41-1.058 6.572-1.966.956-.433 1.848-.824 2.73-1.152 1.802-.447 3.657-.636 5.512-.56.913 0 1.868 0 2.771-.074.903-.074 1.942-.275 2.866-.444.924-.169 1.869-.348 2.866-.433h.693l-.063.697c-.178 1.892 4.43 5.4 6.635 7.09.746.56 1.333 1.057 1.648 1.31 1.397 1.311 2.698 2.695 3.958 4.027 2.856 3.043 5.564 5.917 9.344 8.072 3.12 1.58 5.984 3.63 8.493 6.076l1.27 1.353c1.544 1.86 3.386 3.45 5.449 4.702 1.13 1.011 1.986 2.295 2.488 3.73.243.56.517 1.107.819 1.638.567.93 1.05 1.775 1.48 2.673l.662 1.257c.262.465.587.951.944 1.469.75.925 1.318 1.987 1.67 3.128.304 1.416 1.868 4.755 3.475 4.755.345-.016.675-.15.934-.38 1.543-1.205 1.123-3.9-.084-5.802zm-41.29-52.167c1.984 1.057 4.714 2.557 6.488 2.557.583.064 1.151-.215 1.46-.718.297-.442.403-.988.293-1.511-.178-.602-.85-1.194-2.1-1.807-.713-.38-1.47-.729-2.236-1.057-1.687-.73-3.31-1.603-4.85-2.61-.57-.278-1.206-.395-1.837-.338h-1.806c-.729.03-1.458.005-2.183-.074-.89-.105-1.788-.105-2.678 0-1.006-.083-2.009-.217-3.002-.401-1.936-.366-3.892-.61-5.858-.73-.226-.014-.453.008-.672.064-1.403.498-2.852.852-4.325 1.057l-2.184.433h-.179c-1.201-.124-2.414.073-3.516.57-.68.227-1.386.37-2.1.423-1.239.159-2.656.338-3.045 1.13-.577 1.184-2.813 1.533-5.994 1.681h-.273c-1.05.053-2.971.793-3.244 1.553-.107.246-.14.518-.095.782 0 .148.378.824 3.57.824 2.537-.067 5.067-.318 7.57-.75h.388c2.724-.43 5.397-1.137 7.978-2.113.414-.2.774-.498 1.05-.867l.19-.221h.293c1.228.063 3.013 0 5.04-.064 1.669 0 3.558-.106 5.437-.106 4.546 0 7.685.35 9.869 1.12.874.336 1.726.728 2.551 1.173zm2.32 7.672l.294.158c2.081 1.036 4.262 1.854 6.509 2.441.353.028.708-.004 1.05-.095l.273-.063.23.18c.81.644 2.1 1.49 3.486 2.45 3.56 2.4 7.99 5.4 10.005 8.285.424.675.796 1.381 1.113 2.113.955 1.965 2.551 5.283 4 5.283.15-.004.296-.04.43-.105.397-.141.72-.439.893-.825.102-.77-.081-1.553-.515-2.197-.304-.603-.65-1.216-1.05-1.828-.8-1.348-1.485-2.762-2.047-4.227-.22-.613-1.333-1.3-1.994-1.712l-.347-.222c-.511-.347-.999-.728-1.46-1.14-.551-.51-1.161-.954-1.815-1.322-.664-.55-1.292-1.143-1.88-1.775-1.144-1.141-3.517-3.508-4.104-3.656-1.206-.373-2.373-.862-3.486-1.458l-1.69-.782-.158-.106c-.75-.665-1.657-1.123-2.635-1.331-.577-.165-1.128-.41-1.637-.73-.914-.485-1.974-1.056-2.552-.728-1.05.55-3.065-.54-5.028-1.818l-.179-.126c-.698-.398-1.477-.63-2.278-.677-.208-.015-.417.033-.598.138-.187.094-.336.251-.42.444 0 0-.368 1.394 7.59 5.43zM135.68 25.41c.32.238.621.5.903.781.143.14.338.209.536.19.496-.049.98-.188 1.427-.411 1.05-.334 2.175-.334 3.223 0 .59.148 1.198.219 1.806.21.696.035 1.391-.084 2.037-.348.526-.213.917-.67 1.05-1.226 0-.37-.389-.655-.714-.845-1.837-.993-4.2-2.113-6.3-2.113-.716-.023-1.423.165-2.036.539l-.147.074-1.05.338c-.63.19-1.238.39-1.858.57-.073.317-.073.646 0 .962.28.502.662.938 1.123 1.279zm-15.6 6.487c.22.74.483 1.585.62 1.892.598.19 3.863.993 4.314 1.056.452.064 2.866-.422 5.25-.834l.188-.54h.746c1.574 0 3.223-.168 3.853-.232h.251c1.746-.177 3.47-.53 5.145-1.056.224-.116.423-.274.588-.465l.199-.212h.284c.776.085 1.9.106 3.222.138 3.265.084 7.35.19 9.837 1.225.547.262 1.076.559 1.586.888 1.27.782 2.992 1.85 4.063 1.85.266.036.53-.088.671-.318.305-.465.242-.708.22-.792-.073-.328-.45-.687-1.143-1.057-.452-.264-.924-.518-1.397-.782-1.064-.53-2.082-1.148-3.044-1.849-.504-.214-1.05-.304-1.596-.264h-.525c-.503-.009-1.005-.054-1.501-.138-.551-.095-1.111-.127-1.67-.095-.658-.075-1.31-.199-1.952-.37-1.273-.32-2.568-.546-3.874-.676h-.189c-.933.262-1.89.428-2.855.497l-1.407.19h-.19c-.727-.108-1.47-.032-2.162.222-.453.137-.923.209-1.396.211-.714.053-1.606.117-1.816.518-.378.676-1.491.962-3.706.962h-.546c-.662 0-1.795.39-1.942.75l-.2.676-.672-.19c-.898-.518-1.605-1.315-2.015-2.272-.725-1.437-.914-2.525-.578-3.286.17-.376.462-.682.83-.866-.61-.474-1.336-.773-2.1-.867-.84 0-1.7.623-2.656 1.913l-.735 4.173z" transform="translate(-875 -5073) translate(0 4954) translate(876 120)"/>
                    <path fill="url(#e0cxcvt7db)" fill-rule="nonzero" d="M151.433 111.957c-2.07-2.668-3.974-5.464-5.701-8.372l-.063-.096c-.88-1.358-1.944-2.584-3.162-3.641l-.917-.79c-2.297-2.008-4.91-4.272-7.788-5.211-2.877-.94-6.207-1.634-9.284-2.286l-.76-.16c-1.793-.366-3.618-.545-5.448-.534-2.181 0-4.394.214-6.323.395-3.941.385-7.06 1.955-10.36 3.62-.61.31-1.211.62-1.833.919-2.973 1.542-5.575 3.73-7.62 6.407-.93 1.018-1.994 1.902-3.161 2.627-.506.363-1.054.715-1.433 1.067-.783.615-1.702 1.026-2.677 1.196-.77.193-.938.961-1.054 1.474-.116.513-.2.62-.316.64-1.857.095-3.664.64-5.27 1.592-.796.398-1.612.754-2.444 1.068-2.563.845-5.179 1.512-7.83 1.996h-.338l-.116.331c-.044.129-.12.243-.221.331-.408.378-.857.708-1.339.983-.363.234-.715.488-1.053.758-.234.17-.456.355-.664.555-.814.928-1.913 1.55-3.12 1.762-.674 0-1.054-.758-1.138-2.242.06-1.01.311-2 .738-2.915.168-.438.632-.662 1.18-.93.593-.224 1.125-.59 1.55-1.067.328-.44.89-.626 1.411-.47h.232l.19-.118c3.353-1.852 6.829-3.468 10.402-4.837l.737-.299c1.348-.632 2.578-1.496 3.636-2.552.886-.837 1.874-1.555 2.94-2.136.814-.435 1.478-1.108 1.908-1.932.204-.356.444-.689.717-.993.22-.194.457-.369.706-.524.748-.49 1.675-1.067 1.675-2.135.869-1.592 2.057-2.982 3.489-4.08.668-.305 1.286-.711 1.833-1.206.603-.564 1.324-.984 2.108-1.228h.169c.527 0 1.875-.086 2.107-1.25.46-.315.946-.586 1.455-.811.727-.15 1.454-.246 2.107-.342 1.5-.13 2.971-.49 4.363-1.068.421-.142.876-.142 1.297 0 .58.155 1.19.155 1.77 0 .842-.372 1.772-.487 2.677-.33.76.081 1.523.117 2.287.106h.727c.76-.011 1.52.028 2.276.118 1.524.098 3.053.077 4.574-.064.403-.056.8-.156 1.18-.3.388-.15.797-.241 1.212-.266.494-.049.99.067 1.413.33l.126.172h.2c.435.041.874.005 1.297-.107l.368-.064-.22.523.6.192c.502.15 1.044.024 1.433-.33.094-.094.21-.16.337-.193.189.015.376.048.559.096.28.07.566.11.853.117h.116c.982.045 1.954.206 2.898.481.411.107.833.203 1.234.278l2.55.49c1.981.375 4.036.759 5.996 1.282 6.07 1.645 10.676 3.748 14.122 6.482 1.097.54 1.878 1.573 2.108 2.787v.15l.095.117.79.865c7.377 8.03 9.158 10.294 9.327 10.785l.074.17c.337.503 2.297 5.586 2.571 6.14-.358 0-1.317-.757-1.707-.779-3.836-.267 0 0-5.133.908 0-.128-2.023-6.845-2.044-6.973v-.16l-.095-.118c-1.676-2.274-3.551-5.093-4.363-6.29l-.295-.469c-.873-.983-1.959-1.746-3.172-2.232-.558-.294-1.1-.618-1.623-.971-.295-.214-.59-.438-.875-.673-.65-.554-1.357-1.038-2.108-1.442-.526-.256-1.053-.576-1.633-.897-1.439-.952-3.051-1.602-4.742-1.911-.29-.003-.548.182-.643.459-.348.961 2.329 4.036 2.34 4.047.337.289.689.56 1.053.812.875.63 2.108 1.495 2.308 2.135.643 2.008 2.35 3.204 3.984 4.453 1.633 1.25 3.077 2.253 3.741 3.983l.295.812c-2.213.94-4.416 2.071-6.355 1.783z" transform="translate(-875 -5073) translate(0 4954) translate(876 120)"/>
                    <path fill="url(#h3dxvxt4ec)" fill-rule="nonzero" d="M180.27 120.094c1.052 6.024 3.986 5.844 4.417 6.024-.294-.73-4.07-16.283-4.311-16.94-.242-.656-.432-1.27-.674-1.895-.241-.624-.336-1.28-.515-1.958-.768-2.997-1.64-6.353-3.492-8.47-.323-.35-.675-.672-1.051-.964-.644-.492-1.315-.948-2.009-1.365-.568-.35-1.125-.7-1.662-1.059-.536-.36-1.157-.858-1.756-1.334-1.39-1.025-2.581-2.299-3.513-3.758-.071-.09-.157-.17-.252-.233-.504-.353-1.043-.651-1.61-.89-.432-.182-.85-.398-1.25-.645-.285-.202-.527-.35-.747-.477-.26-.152-.51-.322-.747-.508-.337-.286-.637-.614-.894-.974-.356-.458-.77-.867-1.23-1.218-.942-.724-1.926-1.392-2.945-2l-.694-.435-1.62-1.058c-2.127-1.26-4.168-2.66-6.11-4.193-1.976-1.462-4.227-2.503-6.616-3.06-1.703-.447-3.361-1.053-4.953-1.81-2.04-1.059-5.259-1.482-7.804-1.82l-1.767-.244c-2.608-.347-5.236-.524-7.866-.53h-1.126c-1.872-.063-3.702-.18-5.563-.307-1.052-.074-2.104 0-3.155 0h-1.63c-.808.006-1.615-.03-2.42-.106h-.252c-.91-.16-1.845-.132-2.745.085h-.252c-3.03-.17-4.785 1.143-4.796 2.033-.01.889 1.336 1.577 4.27 1.588h.147l.126.074c2.127 1.195 4.582 1.66 6.994 1.323 1.153-.118 2.312-.174 3.47-.17 3.523.083 7.036.395 10.518.933 2.713.36 5.51.74 8.203.868 6.026.286 10.97 3.377 15.113 6.267.15.099.293.205.431.318.213.176.417.363.61.561l1.452 1.472-1.999-.487c-1.861-.456-4.206-.816-6.068-1.06-1.021-.122-2.033-.313-3.029-.57l-1.293-.53c-2.14-.984-4.395-1.695-6.71-2.118-3.795-.485-7.618-.697-11.443-.635h-5.058c-4.977-.072-9.936-.597-14.819-1.567-2.346-.465-4.729-.717-7.12-.751-2.901-.048-5.776.56-8.414 1.778-1.66.716-3.139 1.802-4.322 3.176-.536.51-1.216.839-1.946.943-.526.071-1.023.283-1.44.614-.714.744-1.465 1.451-2.251 2.117-.678.549-1.327 1.132-1.946 1.747-.894.932-2.103 2.742-1.956 3.907.07.392.337.72.705.868.326.164.687.244 1.051.233 1.389 0 3.008-1.133 4.312-2.033.558-.381 1.052-.752 1.557-1.006 1.292-.743 2.425-1.736 3.334-2.922.577-.693 1.195-1.35 1.85-1.97 2.195-2.002 4.957-3.265 7.899-3.61h.41s3.66.064 3.923 1.335c.095.497-.22.91-.968 1.228-2.334.878-4.528 2.099-6.51 3.62-1.438 1.21-2.772 2.543-3.986 3.981-1.778 2.206-3.91 4.095-6.31 5.59-1.048.577-2.056 1.225-3.018 1.938-.87.667-1.776 1.285-2.714 1.853-.504.296-1.051.54-1.65.815-1.265.412-2.39 1.17-3.25 2.191l-.116.201c-.568.922-2.293 3.727-1.799 4.955.108.28.358.478.653.519.284.076.578.108.872.095.452-.009.902-.051 1.347-.127.593-.093 1.17-.271 1.714-.53.728-.416 1.402-.921 2.009-1.502l.6-.52c.551-.468 1.186-.827 1.871-1.058.316-.112.625-.243.926-.392.776-.383 1.525-.822 2.24-1.312l.883-.562c.285-.163.58-.308.884-.434.664-.261 1.287-.618 1.85-1.058.663-2.118 2.43-3.558 4.134-4.945l.662-.54c.845-.752 1.62-1.582 2.314-2.477.484-.593.978-1.196 1.536-1.768 2.025-1.859 4.394-3.298 6.972-4.235l.82-.317c.907-.293 1.792-.647 2.651-1.06.341-.163.692-.304 1.052-.423.55-.113 1.05-.399 1.43-.815.873-1.27 6.752-2.011 8.414-2.011h.515l.578.074c2.093.283 4.2.446 6.31.487.873.009 1.745-.048 2.609-.17.41-.069.825-.1 1.24-.095 1.169.039 2.329.206 3.46.498 1.177.317 2.39.47 3.608.455h.116c.715.095 1.451.17 2.177.243 1.738.15 3.466.404 5.174.763 5.109 1.447 10.354 2.348 15.65 2.689h.21l.294.264c.066.07.136.133.21.191.284.242.59.455.916.635.917.47 1.879.846 2.87 1.123 1.37.352 2.669.94 3.84 1.736.12.096.237.198.347.307 6.31 5.643 13.609 17.013 17.437 25.409 1.399.614 3.586 1.694 3.975 3.907z" transform="translate(-875 -5073) translate(0 4954) translate(876 120)"/>
                    <path fill="url(#lfv5yjz7hd)" fill-rule="nonzero" d="M59.405 183.51c-1.568.006-3.127-.243-4.614-.737-1.168-.463-2.408-.72-3.664-.758-.565-.015-1.128.078-1.658.274-.722.31-1.495.488-2.28.527-.606.035-1.199-.191-1.626-.622-.509-.51-1.048-.988-1.615-1.433-.976-.708-1.805-1.599-2.44-2.623-.316-.698-.343-1.494-.073-2.212 1.056-.221 2.111-.464 3.167-.706l1.89-.432h.158c.88-.488 1.876-.731 2.883-.706 3.8 0 8.541 2.581 12.247 4.825.803.485 1.753 1.275 1.71 2.234-.173.924-.805 1.698-1.678 2.054-.771.274-1.592.381-2.407.316zm10.97-64.492c-.486.337-3.316 1.77-3.791 2.107-1.964 1.285-3.642 2.338-4.603 4.445-1.352 3.024-1.056 3.961-.93 4.214.053.063.159.242.624.242.464 0 1.657-1.053 2.27-1.664.237-.248.491-.48.76-.695.295-.243.612-.485.897-.727.285-.243 4.308-2.223 4.625-2.465.432-2.223.432-2.223 0-4.025 1.52-2.423.232-1.485.147-1.432zM94.5 113.75c1.13-.642 2.248-1.38 3.43-2.107 1.811-1.136 3.553-2.378 5.217-3.718 2.016-1.675 3.24-4.14 5.68-5.268 2.3-.964 4.768-1.468 7.264-1.485 3.165.202 6.31.646 9.407 1.327 1.824.504 3.546 1.32 5.089 2.413.549.337 1.056.663 1.584.948 1.303.733 1.943 2.256 1.552 3.697.77.96 2.312 3.74 3.874 3.582 2.809-.295 3.928 1.517 6.694 1.97 1.352-.653 3.896-1.928 3.833-1.97-.697-.59-4.382-4.108-5.026-4.761-.327-.338-.633-.622-.95-.906-.317-.285-.612-.559-.93-.896-.316-.337-1.055-1.053-.717-1.78l-.222-.137c-.29-.137-.537-.348-.718-.611-.763-.639-1.651-1.112-2.608-1.39-.432-.17-.813-.317-1.055-.454-.475-.221-.93-.463-1.383-.716-.771-.4-1.5-.78-2.281-1.117-3.134-1.394-6.428-2.395-9.808-2.981-.473-.14-.965-.203-1.457-.19-.423 0-.866 0-1.3.053-.642.047-1.288.047-1.931 0l-1.13-.105c-1.264-.162-2.538-.229-3.811-.2-.866 0-1.764.157-2.619.273-.686.095-1.372.2-2.111.264-.637.108-1.24.36-1.764.737-.75.552-1.623.914-2.544 1.054-1.366.223-2.63.859-3.621 1.822-.692.596-1.455 1.106-2.27 1.517-.732.424-1.397.953-1.975 1.57-.585.6-1.233 1.137-1.932 1.601-.737.487-1.253 1.244-1.436 2.107-.127.643-11.55 7.29-11.994 7.796.465-.527 6.335.558 7.465.4 2.298-.364 4.505-1.161 6.504-2.35v.011zm16.312 52.452c-.874-.502-1.976-.36-2.693.348-.722.314-1.427.665-2.111 1.053-.423.232-.813.443-1.13.59-1.877.908-3.958 1.311-6.04 1.17-1.377-.13-2.745-.344-4.096-.643-.971-.2-1.963-.4-2.935-.527-1.2-.151-2.41-.225-3.621-.22-1.68.01-3.358.116-5.026.315-2.724.285-17.431 2.74-22.277 3.55l-.887.148c-1.616.263-3.284 1.053-3.368 1.401 0 .169.908 1.77 16.703 2.97 2.346-.064 4.664-.516 6.862-1.337 1.602-.761 3.372-1.102 5.142-.99 1.225 0 2.397.084 3.442.158l2.238.158c1.9.137 3.875.274 5.818.358 6.335.242 12.279-1.37 18.582-4.93.898-.527 1.698-1.204 2.365-2.002.095-.095.222-.263.38-.453-4.033.39-5.627-.221-7.348-1.117zm-50.837-2.18s0 .073.105.21c.106.137.75.548 2.999.548 2.306-.056 4.606-.267 6.884-.632-.68-.88-1.244-1.843-1.68-2.865-5.341.99-8.065 2.043-8.308 2.739zm1.932-8.112c.169.758.602 2.107 1.584 2.107h.105c.292.019.585.019.876 0 .254 0 1.257-.19 2.545-.443-.285-1.053-.539-2.106-.75-3.213-1.504.36-2.966.879-4.36 1.549z" transform="translate(-875 -5073) translate(0 4954) translate(876 120)"/>
                    <path fill="url(#mzbdd2kz6e)" fill-rule="nonzero" d="M167.374 176.395c.063 1.262-2.513 3.482-3.61 4.419-.317.263-.56.473-.708.62-.327.326-.627.678-.897 1.053-.355.484-.77.923-1.235 1.304-.602.323-1.235.584-1.89.779-.981.27-1.907.711-2.733 1.305-.651.522-1.271 1.08-1.858 1.673-1.015 1.134-2.232 2.073-3.59 2.767l-.706.263c-1.14.315-2.15.977-2.893 1.894l-.243.231v.21c-.009.116-.009.232 0 .348-.358.537-3.684 2.252-5.679 3.283-1.615.842-3.008 1.557-3.536 1.946-1.784 1.083-3.735 1.865-5.774 2.315l-.422.126c-1.825.9-3.92 1.09-5.88.537-.338-.084-.707-.168-1.055-.284-2.112-.537-5.025-1.157-6.64-.558-.982.369-1.963.8-2.913 1.21-2.713 1.179-5.51 2.389-8.614 2.4h-.866c-4.919 0-10.133-.453-11.537-3.789 0 0 .412-.747 5.278-.747 1.794 0 3.483.095 4.296.148H105.4c1.633.04 3.261-.199 4.814-.705.665-.322 1.304-.695 1.91-1.116.77-.56 1.616-1.006 2.513-1.325 1.582-.466 3.227-.683 4.876-.642 1.352 0 2.745.095 4.096.19 2.33.23 4.679.23 7.01 0 1.362-.374 2.69-.863 3.968-1.463 2.86-1.297 5.81-2.39 8.825-3.273l.232-.063.127-.2c.956-1.24 2.079-2.345 3.335-3.282.192-.14.375-.292.55-.453 1.18-1.117 2.2-2.391 3.029-3.788.397-.611.849-1.186 1.351-1.715.501-.521.957-1.084 1.362-1.683.665-1.052 2.111-1.263 3.6-1.515 1.272-.11 2.502-.506 3.599-1.158l.222-.179c1.467-1.23 3.377-2.767 5.278-2.104.322.113.627.269.907.463.211.11.35.321.37.558zm-43.617 4.924c.665.423 1.42.683 2.206.757.495.08.985.19 1.467.327.898.294 1.91-1.053 2.26-1.495.946-1 2.195-1.665 3.557-1.893 1.68-.4 3.204-1.286 4.38-2.547.472-.614.617-1.417.39-2.157-.2-.379-.685-.568-1.456-.578h-.327c-3.59 0-8.54.336-10.208 3.314l-.095.126-1.055 1.052c-.57.58-1.14 1.158-1.72 1.726.033.512.246.996.6 1.368zm-42.825 9.259c-.719-.413-1.511-.68-2.333-.79-.506-.09-1.007-.209-1.5-.357-.12-.031-.244-.05-.369-.052-.823 0-1.572.883-1.9 1.262-.99.892-2.248 1.432-3.578 1.536-1.383.2-3.737 1.21-4.339 2.105-.386.47-.512 1.1-.337 1.683.253.526 1.055.684 1.646.705.591.021 1.584.063 2.46.063 4.391 0 7.146-.841 8.149-2.514l.116-.127 1.056-.936c.528-.474 1.055-.937 1.604-1.4-.088-.456-.326-.87-.675-1.178zm80.647-24.737c-.347.098-.7.172-1.056.221-1.045.835-2.134 1.615-3.262 2.336-1.496.451-2.965.985-4.402 1.6-1.277.6-3.071.81-4.454 1.294l-3.99 1.746c-1.256.39-2.111 3.767-3.167 4.714-.974 1.023-2.121 1.867-3.388 2.494-1.436.6-2.439 1.978-3.516 3.082-1.402.837-2.96 1.381-4.58 1.6-.138 0-1.056-.063-1.14.084-.16.484.19.884-.423 1.168-1.552.736-4.222.305-5.9.252-1.13 0-1.732-.904-2.861-1.052-.93-.105-3.526-.684-4.37-.063-2.175 1.62-5.141 3.357-8.023 3.43-3.895 0-7.727-.726-11.612-1.052-3.44-.295-7.273.768-10.65 1.463-.979.074-1.931.35-2.798.81.398.437.665.976.77 1.557.07.36-.053.732-.326.978l-.465.4c.454.748 1.18 1.29 2.027 1.515 1.393.747 2.016.337 3.43-.368 1.415-.705 2.682 0 4.117.526 1.919.57 3.973.485 5.838-.242.718-.168 5.89.874 5.69.347 2.52-.612 5.086-1.017 7.673-1.21 1.763-.22 2.998-1.567 4.719-1.999 1.351-.336 1.995-1.052 3.515-.926 1.52.127 3.24.705 4.887.916 2.379.33 4.8.132 7.094-.579 2.322-.673 4.127-2.104 6.334-3.062 2.228-.721 4.231-2.004 5.816-3.724 1.53-1.652 4.095-3.81 4.93-5.924 1.741-1.957 4.96-2.441 7.473-3.157 3.758-.463 7.39-4.05 10.799-5.503 1.582-.706 3.04-1.661 4.317-2.83-3.948-.137-6.766-1.505-9.046-.842zm-21.017-1.052c-.444.095-.887.2-1.33.274h-2.364c-3.39 0-7.03-.116-10.145 1.052l-.591.22v-.094l-1.552 1-.18.105c-.045.018-.088.043-.126.074-1.494 1.129-2.905 2.363-4.222 3.693-2.713 2.556-5.51 5.197-9.69 6.208-2.979.753-5.995 1.35-9.036 1.788h-.317c-.295-.073-.56-.234-.76-.463-.36.019-.716.09-1.056.21-.23.079-.467.139-.707.18-1.585.12-3.179.06-4.75-.18l-.739-.094c-1.996-.35-4.023-.495-6.049-.431-.4 0-.411 0-.59.263-.124.16-.258.31-.402.452-.347.371-.831.584-1.34.59-.31-.016-.619-.066-.919-.148-.281-.081-.572-.127-.865-.137-2.439 0-25.915 5.261-27.52 7.102.18 1.168 2.207 2.02 3.674 2.168v.568-.568c1.172 0 11.369-1.736 17.449-2.767 3.42-.579 5.9-1 6.333-1.052.433-.053 1.056-.064 1.69-.064h.221c.564.015 1.128-.01 1.689-.073.834-.105 1.7-.253 2.586-.4 2.43-.494 4.911-.695 7.39-.6.706.053 1.466.158 2.248.253 1.267.21 2.547.333 3.831.368 1.04.039 2.075-.155 3.03-.568 1.718-.8 3.48-1.502 5.278-2.105 1.224-.42 2.491-.862 3.705-1.367 2.144-.972 4.139-2.244 5.922-3.778l1.32-1.052.094-.074c.824-.641 1.626-1.262 2.428-1.936.652-.534 1.36-.996 2.111-1.378.608-.298 1.187-.65 1.732-1.052 1.266-1.052 3.019-1.21 4.707-1.368.892-.056 1.775-.197 2.64-.42h1.382c4.993-.159 9.701-.316 13.86-2.863.45-.273.904-.536 1.362-.789l-2.428-.463c-2.986-.375-6.001-.463-9.004-.263v-.02z" transform="translate(-875 -5073) translate(0 4954) translate(876 120)"/>
                    <path fill="#575756" fill-rule="nonzero" d="M85.173 119.93c1.031-.797 2.294-1.224 3.59-1.213 1.33-.07 2.629.432 3.577 1.384.948.951 1.459 2.265 1.406 3.618v7.867c0 1.138-.907 2.061-2.027 2.061s-2.027-.923-2.027-2.06v-7.267c0-1.16-.907-2.112-2.049-2.147-.576-.026-1.138.188-1.555.594-.417.405-.652.967-.651 1.553v7.223c-.035 1.16-.97 2.083-2.112 2.083-.529-.014-1.03-.242-1.392-.633-.363-.39-.558-.913-.54-1.45v-7.223c.026-.586-.185-1.157-.584-1.58-.4-.424-.951-.664-1.528-.663-1.195.03-2.145 1.028-2.133 2.243v7.256c0 1.121-.882 2.037-1.985 2.06-1.137-.04-2.039-.99-2.038-2.146v-10.648c0-1.164.913-2.117 2.059-2.146.412 0 1.056.569 1.732 1.481.151-.188.321-.36.506-.515.889-.684 1.97-1.06 3.084-1.073.65-.008 1.295.113 1.9.354.808.28 1.52.79 2.049 1.47.316-.14.538-.386.718-.483zM108.747 118.613c.976-.056 1.813.739 1.878 1.783v11.3c-.013.526-.222 1.024-.58 1.383-.36.36-.837.55-1.328.53-.475 0-1.141-.638-1.817-1.696-.764 1.15-2.025 1.803-3.342 1.728-3.413 0-6.058-3.241-6.058-7.487s2.686-7.563 6.058-7.563c1.281-.05 2.515.527 3.352 1.567.706-.95 1.353-1.545 1.837-1.545zm-7.43 7.563c0 2.16 1.16 3.716 2.735 3.716s2.747-1.534 2.747-3.716c0-2.183-1.111-3.75-2.747-3.75-1.635 0-2.736 1.513-2.736 3.728v.022zM123.647 115.078c-.052-.745.302-1.457.92-1.845.616-.389 1.392-.389 2.008 0 .617.388.972 1.1.92 1.845v16.567c.003.529-.2 1.037-.562 1.412-.362.374-.855.583-1.367.58-.455 0-1.131-.615-1.778-1.658-.756 1.125-2.03 1.755-3.353 1.658-3.373 0-6.06-3.223-6.06-7.302 0-4.08 2.656-7.24 6.06-7.24 1.184-.037 2.326.458 3.131 1.356l.08-5.373zm-5.444 11.34c0 2.086 1.161 3.589 2.727 3.589 1.565 0 2.788-1.492 2.788-3.537s-1.142-3.651-2.758-3.651-2.757 1.544-2.757 3.599zM135.125 128.854c.634.762 1.55 1.191 2.505 1.174.882-.018 1.744-.278 2.505-.754.878-.539 1.161-.636 1.515-.636.425-.014.838.153 1.147.464.309.312.488.742.499 1.195 0 1.691-2.889 3.34-5.908 3.34-1.886.11-3.728-.632-5.074-2.045-1.345-1.413-2.07-3.365-1.996-5.377 0-4.31 2.888-7.627 6.645-7.627 3.61.094 6.486 3.248 6.474 7.099 0 1.228-.444 1.69-1.656 1.69h-7.353c.163.527.398 1.024.697 1.477zm-.727-4.115h5.292c-.343-1.874-1.212-2.844-2.605-2.844-1.394 0-2.323.991-2.687 2.844zM156.532 112.941c1.07.046 1.916 1.1 1.905 2.377.01.611-.187 1.2-.545 1.638-.358.437-.848.684-1.36.687-1.038-.083-1.845-1.111-1.845-2.351s.807-2.268 1.845-2.35zm0 20.706c-.953.001-1.738-.892-1.781-2.027v-10.613c0-1.172.797-2.123 1.78-2.123.461.011.899.242 1.215.641.317.4.485.933.469 1.482v10.613c-.01 1.107-.755 2.004-1.683 2.027zM165.446 119.574c.886-.66 1.947-1.005 3.03-.985 1.343-.021 2.644.503 3.635 1.466.935.97 1.416 2.331 1.313 3.715v7.685c.005 1.128-.844 2.053-1.909 2.076-1.065-.027-1.927-.926-1.97-2.055v-7.021c0-1.3-.994-2.355-2.22-2.355-1.228 0-2.222 1.054-2.222 2.355v7c.052.764-.303 1.494-.92 1.893s-1.392.399-2.009 0c-.616-.399-.971-1.13-.919-1.893V120.75c-.001-1.145.85-2.089 1.929-2.14.404 0 1.01.599 1.696 1.498.176-.194.365-.373.566-.535zM91.392 143c1.635-1.191 3.63-1.828 5.676-1.814 2.113-.106 4.176.651 5.683 2.088 1.508 1.437 2.322 3.42 2.244 5.466v11.878c0 1.726-1.447 3.125-3.231 3.125-1.785 0-3.232-1.4-3.232-3.125V149.73c.025-1.76-1.412-3.215-3.23-3.272-.916-.022-1.801.312-2.46.927-.658.615-1.033 1.46-1.041 2.345v10.908c0 .84-.35 1.645-.97 2.233-.62.588-1.458.91-2.326.893-1.735-.051-3.101-1.447-3.059-3.126V149.73c.048-1.826-1.44-3.346-3.328-3.397-1.915 0-3.468 1.502-3.468 3.355v10.95c0 1.727-1.447 3.126-3.231 3.126-1.785 0-3.231-1.4-3.231-3.126V144.52c.005-1.734 1.438-3.148 3.23-3.188.658 0 1.692.844 2.769 2.22.237-.277.496-.535.775-.772 1.425-.998 3.141-1.534 4.9-1.531 1.031-.012 2.054.165 3.017.52 1.275.425 2.397 1.195 3.23 2.22.409-.353.837-.683 1.283-.99zM119.505 141.176c6.122 0 10.808 4.961 10.808 11.336s-4.739 11.253-10.808 11.253c-6.07 0-10.755-4.92-10.755-11.378s4.632-11.21 10.755-11.21zm-4.515 11.336c0 3.39 1.906 5.803 4.515 5.803 2.608 0 4.525-2.37 4.525-5.772 0-3.4-1.917-5.72-4.525-5.72-2.61 0-4.568 2.382-4.568 5.69h.053zM141.243 142.48c.776-.771 1.803-1.234 2.89-1.303.815-.017 1.602.302 2.178.883.576.581.893 1.375.876 2.196.013.618-.21 1.216-.621 1.673-.427.483-.662.596-2.107 1.109-2.605.965-4.325 2.555-4.325 4.023v9.156c.183 1.198-.349 2.394-1.359 3.053-1.01.66-2.309.66-3.318 0-1.01-.659-1.542-1.855-1.359-3.053v-16.012c.05-1.664 1.402-2.988 3.054-2.987.692 0 1.79.944 2.91 2.546.36-.46.754-.888 1.181-1.283zM152.343 163.765c-1.812 0-3.28-1.406-3.28-3.14v-16.308c0-1.735 1.468-3.14 3.28-3.14 1.812 0 3.281 1.405 3.281 3.14v16.234c.02.846-.316 1.663-.933 2.268-.618.605-1.464.946-2.348.946zM169.302 146.379c-1.106 0-1.99.562-1.99 1.332s.597 1.206 3.516 2.299c1.534.517 3.014 1.164 4.422 1.935 1.778 1.066 2.86 2.907 2.875 4.89 0 4.068-3.76 6.93-8.967 6.93-4.655 0-8.845-2.175-8.845-4.6-.025-1.456 1.194-2.664 2.742-2.715.718.074 1.418.264 2.067.562l1.184.656c.962.512 2.036.815 3.14.884 1.315 0 2.321-.728 2.321-1.654 0-.718-.84-1.374-2.498-1.925l-1.791-.604c-1.558-.48-3.044-1.144-4.423-1.976-1.348-1.053-2.11-2.629-2.068-4.277 0-4.037 3.682-6.94 8.757-6.94 4.146 0 7.828 1.936 7.828 4.235.025 1.367-1.123 2.5-2.576 2.539-.498-.008-.989-.118-1.437-.323l-1.106-.478c-.992-.435-2.06-.696-3.151-.77z" transform="translate(-875 -5073) translate(0 4954) translate(876 120)"/>
                </g>
            </g>
        </g>
    </g>
</svg>
