<?xml version="1.0" encoding="UTF-8"?>
<svg width="24px" height="18px" viewBox="0 0 24 18" version="1.1" xmlns="http://www.w3.org/2000/svg" xmlns:xlink="http://www.w3.org/1999/xlink">
    <title>4D4A0CD0-D1C3-456B-A8C4-B4ED04C4B8DD</title>
    <g id="Home-page" stroke="none" stroke-width="1" fill="none" fill-rule="evenodd" stroke-linecap="round" stroke-linejoin="round">
        <g id="1_Home-page" transform="translate(-518.000000, -5467.000000)" stroke="#FFFFFF" stroke-width="1.5">
            <g id="Footer" transform="translate(0.000000, 5288.000000)">
                <g id="Social-networks" transform="translate(424.000000, 178.000000)">
                    <g id="youtube" transform="translate(95.000000, 2.000000)">
                        <path d="M21.54,2.42 C21.2982108,1.45399138 20.5581982,0.691091858 19.6,0.42 C17.88,0 11,0 11,0 C11,0 4.12,0 2.4,0.46 C1.44180175,0.731091858 0.701789215,1.49399138 0.46,2.46 C0.145214557,4.20555551 -0.00876407277,5.97630975 2.66442684e-15,7.75 C-0.0112207058,9.53704498 0.142767688,11.3213018 0.46,13.08 C0.726350304,14.0152563 1.46203386,14.7433555 2.4,15 C4.12,15.46 11,15.46 11,15.46 C11,15.46 17.88,15.46 19.6,15 C20.5581982,14.7289081 21.2982108,13.9660086 21.54,13 C21.8523572,11.2675885 22.0063261,9.51033425 22,7.75 C22.0112207,5.96295502 21.8572323,4.1786982 21.54,2.42 Z" id="Path"></path>
                        <polygon id="Path" points="8.75 11.02 14.5 7.75 8.75 4.48"></polygon>
                    </g>
                </g>
            </g>
        </g>
    </g>
</svg>