<svg xmlns="http://www.w3.org/2000/svg" xmlns:xlink="http://www.w3.org/1999/xlink" width="40" height="33" viewBox="0 0 40 33">
    <defs>
        <path id="mc82du29da" d="M0 0L39.577 0 39.577 32.801 0 32.801z"/>
    </defs>
    <g fill="none" fill-rule="evenodd">
        <g>
            <g>
                <g transform="translate(-24 -3172) translate(24 2990) translate(0 182)">
                    <mask id="02zfovb5lb" fill="#fff">
                        <use xlink:href="#mc82du29da"/>
                    </mask>
                    <path fill="#153F58" d="M20.463 13.414c1.02-.66 1.845-1.223 2.702-1.736.395-.237.692-.44.669-.981-.025-.575-.33-.82-.802-1.01-1.206-.487-2.342-1.1-3.373-1.904-.302-.235-.658-.404-.948-.578-1.11.697-1 1.194-.658 1.96.287.644.678 1.254 1.107 1.814.54.712 1.235 1.317 1.303 2.435m7.126-3.656c.132-.912-.145-1.55-.586-2.156-.36-.493-.686-1.013-.998-1.538-.568-.953-1.785-1.585-2.83-1.363-.267.057-.651.348-.686.575-.124.83-.672 1.286-1.34 1.66.6.876 1.458 1.208 2.294 1.51 1.03.37 1.904.85 2.212 2.16l1.934-.848m-5.802 15.06c.866.644 1.685.8 2.5.631 1.701-.352 3.354-.88 4.875-1.744 2.479-1.408 4.465-3.404 6.402-5.446.973-1.026.865-1.444-.411-2.111-.032-.017-.06-.04-.092-.058-1.038-.61-2.134-.46-3.214-.186-.228.059-.529.35-.561.57-.151 1.03-.89 1.602-1.565 2.26-.77.75-1.446 1.595-2.202 2.362-.553.56-1.111 1.153-1.772 1.561-1.22.754-2.516 1.382-3.96 2.16M10.467 5.053c.81.897 1.182 1.976 1.42 3.12.081.387.197.774.355 1.136.33.748.494 1.522.36 2.325-.11.67-.261 1.34-.473 1.984-.6 1.824-.605 3.558.686 5.112.46.553.957 1.079 1.481 1.568.141.132.506.192.667.103 1.484-.82 3.059-1.576 3.24-3.584.02-.212.07-.442.177-.621.43-.718.398-1.7 1.238-2.183-.04-.32-.073-.637-.118-.953-.04-.269-.005-.677-.158-.769-.218-.132-.576-.034-.918-.034-.087-.117-.168-.296-.306-.396-.74-.54-1.113-1.265-1.286-2.16-.105-.547-.34-1.088-.61-1.58-.21-.38-.565-.678-.869-1.028.483-.516.802-.898.516-1.594-.577-1.408-1.918-2.368-3.451-2.24-.585.047-1.127.204-1.346.888-.094.292-.348.533-.605.906m5.408 16.926c1.357.606 2.624 1.219 3.932 1.724.35.135.9.067 1.233-.124 1.848-1.062 4.019-1.639 5.355-3.489.08-.11.246-.156.348-.256 1.062-1.043 2.445-1.83 2.688-3.521.047-.33.33-.633.526-.936 1.038-1.6 2.301-3.006 3.855-4.266-1.097-1.144-2.413-1.407-3.804-1.1-1.011.222-2.007.616-2.937 1.078-1.647.818-3.224 1.774-4.857 2.62-1.123.583-1.597 1.564-1.735 2.712-.194 1.616-1.123 2.659-2.397 3.526-.786.536-1.669.996-2.207 2.032m-3.575-.407c-.303-.513-.546-.896-.763-1.293-.515-.943-1.198-1.844-1.17-2.976.024-.97.187-1.936.284-2.904.11-1.105.654-2.164.386-3.306-.231-.984-.486-1.963-.759-2.935-.106-.38-.254-.76-.449-1.103-.677-1.19-1.302-2.42-2.107-3.52-.54-.737-1.348-1.279-2.036-1.907-.677.23-1.353.457-2.028.69-.136.046-.28.089-.4.165-.727.468-1.331 1.006-1.113 2.007.029.132.04.347-.036.412-.529.453-.26.983-.212 1.51.041.461.009.934-.039 1.398-.117 1.136-.571 2.228-.42 3.403.068.529.125 1.072.082 1.6-.053.654.197 1.07.697 1.465.933.735 1.96 1.425 2.674 2.346.687.886 1.276 1.665 2.404 2.087.757.284 1.383 1.032 1.952 1.676.794.899 1.782 1.123 3.053 1.185M9.584 3.035C10.972 2 12.5 1.439 14.3 2.03c1.745.574 2.63 1.903 3.11 3.439l2.756.291c.127-.246.27-.53.419-.81.746-1.408 2.695-2.24 4.074-1.566.551.269 1.124.495 1.664.785.282.15.54.37.762.603.488.513 1.896 3.119 2.136 3.904.734-.05 1.477-.15 2.22-.139 1.477.022 2.679.568 3.644 1.773.766.958.795 2.022-.011 3.293-.182.287-.413.544-.508.963.2-.05.42-.063.596-.159.497-.268.993-.232 1.457.013.77.409 1.447.327 2.093-.328.333.319.915.406.861 1.015-.066.737.015 1.535-.658 2.087-.167.137-.32.298-.504.407-1.9 1.122-3.115 2.967-4.684 4.437-1.791 1.68-3.738 3.063-6.177 3.63-.28.064-.581.126-.822.273-1.196.73-2.551.757-3.87.813-.614.025-1.25-.293-1.864-.493-.366-.12-.707-.314-1.135-.509-.192 1.042.427 1.495 1.032 1.933.613.443 1.251.851 1.907 1.294v1.23c-1.08-.528-2.101-.954-3.047-1.509-.86-.504-1.254-1.373-1.379-2.347-.062-.493-.24-.826-.948-.794.035 1.178.051 2.348.492 3.455.123.31.436.571.715.788.565.44 1.19.806 1.746 1.256.995.803.974.98-.096 1.743-.573-.523-1.152-1.053-1.733-1.58-.106-.097-.208-.232-.336-.268-1.482-.43-1.683-1.666-1.773-2.909-.092-1.271-.576-2.413-.991-3.635-.604.964-1.108 1.934-1.251 3.033-.042.327.134.7.272 1.025.096.225.296.408.457.602 1.03 1.25.824 1.945-.353 2.701-.09-.276-.232-.535-.248-.801-.03-.518-.284-.865-.663-1.18-.507-.42-.734-.922-.553-1.624.24-.936.397-1.896.557-2.852.07-.423.096-.861.072-1.288-.023-.41-.208-.753-.674-.841-.792 1.864-1.434 3.72-1.527 5.729-.032.667-.366 1.212-.926 1.65-.435-.312-.302-.687-.237-1.074.29-1.734.56-3.471.87-5.413-1.078.616-2.15.967-2.906 1.968l.856.555c-.442.454-.89.829-1.233 1.284-.47.62-.872 1.295-1.281 1.96-.543.88-1.378 1.386-2.4 2.074.038-.477-.023-.755.087-.913.511-.735 1.077-1.43 1.61-2.15 1.434-1.936 2.862-3.877 4.332-5.87-.22-.164-.368-.31-.544-.398-.926-.472-1.87-.912-2.788-1.399-.955-.506-1.693-1.291-2.182-2.217-.693-1.313-1.693-2.326-2.764-3.296-.394-.356-.572-.735-.62-1.298-.117-1.36-.39-2.706-.57-4.061-.087-.643-.075-1.3-.166-1.942C.56 7.552.517 6.683.2 5.939c-.32-.755-.231-1.398.073-2.046.55-1.17 1.332-2.158 2.533-2.732C3.525.819 4.251.494 4.985.19c.85-.352 1.651-.218 2.304.426.762.75 1.476 1.55 2.295 2.419" mask="url(#02zfovb5lb)"/>
                </g>
            </g>
        </g>
    </g>
</svg>
