<?xml version="1.0" encoding="utf-8"?>
<!-- Generator: Adobe Illustrator 27.7.0, SVG Export Plug-In . SVG Version: 6.00 Build 0)  -->
<svg version="1.1" id="Layer_1" xmlns="http://www.w3.org/2000/svg" xmlns:xlink="http://www.w3.org/1999/xlink" x="0px" y="0px"
	 viewBox="0 0 280 312.1" style="enable-background:new 0 0 280 312.1;" xml:space="preserve">
<style type="text/css">
	.st0{fill:#FFFFFF;}
</style>
<g>
	<path class="st0" d="M140,107.2c-38.2,0-69.1,31-69.1,69.1s31,69.1,69.1,69.1s69.1-31,69.1-69.1S178.2,107.2,140,107.2L140,107.2z
		 M140,237.8c-33.9,0-61.4-27.5-61.4-61.4S106.1,115,140,115s61.4,27.5,61.4,61.4l0,0C201.4,210.3,173.9,237.8,140,237.8z
		 M124.6,181.1c0,4.7-3.8,8.5-8.5,8.5s-8.5-3.8-8.5-8.5s3.8-8.5,8.5-8.5S124.6,176.3,124.6,181.1C124.6,181,124.6,181,124.6,181.1
		L124.6,181.1z M172.2,181.1c0,4.7-3.8,8.5-8.5,8.5s-8.5-3.8-8.5-8.5s3.8-8.5,8.5-8.5l0,0C168.5,172.6,172.2,176.4,172.2,181.1
		C172.2,181,172.2,181,172.2,181.1L172.2,181.1z M180,163.4l7.8-8.5h-17.3c-18.4-12.5-42.5-12.5-60.8,0H92.3l7.8,8.5
		c-9.7,8.9-10.3,24-1.4,33.7s24,10.3,33.7,1.4l0,0l7.6,8.3l7.6-8.3c9.7,8.9,24.8,8.3,33.7-1.4C190.2,187.5,189.7,172.4,180,163.4z
		 M116.2,197.2c-8.9,0-16.1-7.2-16.1-16.1s7.2-16.1,16.1-16.1s16.1,7.2,16.1,16.1C132.4,190,125.1,197.2,116.2,197.2L116.2,197.2
		L116.2,197.2z M140,180.6c0-10.6-7.7-19.7-17.9-23.6c11.5-4.8,24.4-4.8,35.8,0C147.7,160.9,140,170,140,180.6z M163.9,197.2
		c-8.9,0-16.1-7.2-16.1-16.1c0-8.9,7.2-16.1,16.1-16.1s16.1,7.2,16.1,16.1S172.8,197.2,163.9,197.2L163.9,197.2z"/>
	<path class="st0" d="M101.5,252.8c0,0-8.4-6.4-23.5-8.2c-9.1-0.9-18.3,1.2-26.1,6.2c0,0,10,4.1,25.4,5.7S101.5,252.8,101.5,252.8z"
		/>
	<path class="st0" d="M78.1,239.6c0,0-7.5-7.8-21.6-13.1c-8.9-3.2-18.4-3.9-27.6-2c0,0,8.6,8.2,23.6,13.9S78.1,239.6,78.1,239.6z"/>
	<path class="st0" d="M55.7,221.2c0,0-4.4-10.7-16.1-21.5c-7.4-6.6-16.5-11-26.3-12.7c0,0,5.3,11.6,17.7,23.1S55.7,221.2,55.7,221.2
		z"/>
	<path class="st0" d="M51.3,200.6c0,0-1.5-11.6-9.9-25c-5.4-8.3-13-14.9-22-19c0,0,2.1,12.6,11.1,26.9S51.3,200.6,51.3,200.6z"/>
	<path class="st0" d="M51.8,173c0,0-0.4-11.8-7.5-26.2c-4.5-8.8-11.4-16.2-19.9-21.2c1.2,9.8,4,19.4,8.5,28.3
		C40.5,169.1,51.8,173,51.8,173z"/>
	<path class="st0" d="M85.3,231.7c0,0-3.5-8.8-13-17.7c-6-5.4-13.4-9.1-21.3-10.6c3.6,7.1,8.4,13.6,14.3,19
		C75.3,231.9,85.3,231.7,85.3,231.7z"/>
	<path class="st0" d="M109.2,244.8c-4-3.5-8.7-6.3-13.7-8.2c-5.5-2.1-11.5-2.7-17.3-1.8c4.5,3.7,9.6,6.6,15,8.7
		C102.6,247.2,109.2,244.8,109.2,244.8z"/>
	<path class="st0" d="M132.3,249.5c-4-1.4-8.3-2-12.6-1.8c-4.7,0.2-9.2,1.7-13.1,4.4c4.4,1.4,9.1,2,13.7,1.8
		C128.3,253.6,132.3,249.5,132.3,249.5z"/>
	<path class="st0" d="M74.9,210.5c0,0-1.6-9.4-9.1-20c-4.7-6.6-11.2-11.6-18.7-14.7c2,7.7,5.5,15,10.1,21.5
		C65.1,208.7,74.9,210.5,74.9,210.5z"/>
	<path class="st0" d="M65.6,181.9c0,0,1.8-9.5-1.2-22.2c-2-7.8-6.1-15-12-20.5c-0.8,8.1-0.3,16.2,1.7,24.1
		C57.2,176.8,65.6,181.9,65.6,181.9z"/>
	<path class="st0" d="M178.5,252.8c0,0,8.4-6.4,23.5-8.2c9.1-0.9,18.4,1.2,26.1,6.2c0,0-10.1,4.1-25.4,5.7
		C187.4,258.1,178.5,252.8,178.5,252.8z"/>
	<path class="st0" d="M202,239.6c0,0,7.5-7.8,21.6-13.1c8.9-3.2,18.4-3.9,27.6-2c0,0-8.6,8.2-23.6,13.9S202,239.6,202,239.6z"/>
	<path class="st0" d="M224.4,221.2c0,0,4.4-10.7,16.1-21.5c7.4-6.6,16.5-11,26.3-12.7c0,0-5.3,11.6-17.7,23.1
		S224.4,221.2,224.4,221.2z"/>
	<path class="st0" d="M228.8,200.6c0,0,1.5-11.6,9.9-25c5.4-8.3,13-14.9,22-19c0,0-2.1,12.6-11.1,26.9S228.8,200.6,228.8,200.6z"/>
	<path class="st0" d="M228.2,173c0,0,0.4-11.8,7.5-26.2c4.5-8.8,11.4-16.2,19.9-21.2c0,0-1,12.9-8.5,28.3S228.2,173,228.2,173z"/>
	<path class="st0" d="M194.7,231.7c0,0,3.5-8.8,13-17.7c6-5.4,13.4-9.1,21.4-10.6c-3.6,7.1-8.4,13.6-14.3,19
		C204.7,231.9,194.7,231.7,194.7,231.7z"/>
	<path class="st0" d="M170.9,244.8c4-3.5,8.7-6.3,13.8-8.2c5.5-2.1,11.5-2.7,17.3-1.8c-4.5,3.7-9.6,6.6-15,8.7
		C177.4,247.2,170.9,244.8,170.9,244.8z"/>
	<path class="st0" d="M147.7,249.5c4-1.4,8.3-2,12.6-1.8c4.7,0.2,9.2,1.7,13.1,4.4c-4.4,1.4-9,2-13.7,1.8
		C151.7,253.6,147.7,249.5,147.7,249.5z"/>
	<path class="st0" d="M205.2,210.5c0,0,1.6-9.4,9.1-20c4.7-6.6,11.2-11.6,18.7-14.7c-2,7.7-5.5,15-10.1,21.5
		C214.9,208.7,205.2,210.5,205.2,210.5z"/>
	<path class="st0" d="M214.5,181.9c0,0-1.8-9.5,1.2-22.2c2-7.8,6.1-15,12-20.5c0.9,8.1,0.3,16.2-1.7,24.1
		C222.8,176.8,214.5,181.9,214.5,181.9z"/>
	<circle class="st0" cx="140" cy="252.9" r="3.8"/>
	<path class="st0" d="M65.6,30.5h-9V57h-7V30.5h-9v-6.4h24.9L65.6,30.5z"/>
	<path class="st0" d="M77.9,33.8V40h-3.5c-2.5,0-3.8,1.2-3.8,3.8V57H64V33.8h6.1v4.3c0.2-2.5,2.3-4.4,4.8-4.3H77.9z"/>
	<path class="st0" d="M78.6,45.4c0-6.8,4.8-12.3,11.5-12.3c2.7-0.1,5.3,0.8,7.3,2.6v-2h6.1v23.2h-6.1v-2.8c-1.5,2-3.7,3.5-7.5,3.5
		C83.4,57.7,78.6,52.2,78.6,45.4z M97.4,45.4c0-3.4-2.8-6.1-6.1-6.1c-3.4,0-6.1,2.8-6.1,6.1c0,3.4,2.8,6.1,6.1,6.1
		c3.3,0.1,6-2.5,6.1-5.8C97.4,45.7,97.4,45.5,97.4,45.4z"/>
	<path class="st0" d="M106.1,33.8h7l3.5,12.3c0.4,1.4,0.6,2.3,0.9,3.4c0.2-1.1,0.5-2,0.9-3.4l3.6-12.3h7L121.3,57h-7.5L106.1,33.8z"
		/>
	<path class="st0" d="M152.5,47h-17.2c0.1,3,2.6,5.3,5.5,5.3c2.7,0,4.6-1.4,5.2-3.5h6.3c-1.1,5.7-5.3,9-11.5,9
		c-7.3,0-12.1-5.4-12.1-12.3c-0.2-6.6,5-12.1,11.6-12.3c0.1,0,0.3,0,0.4,0c7.3,0,11.8,4.5,11.8,12.8V47z M135.6,42h10.8
		c-0.6-2.3-2.5-3.8-5.5-3.8C138.5,38.2,136.4,39.8,135.6,42z"/>
	<path class="st0" d="M155.5,24.1h6.5V57h-6.6L155.5,24.1z"/>
	<path class="st0" d="M188.5,47h-17.2c0.1,3,2.6,5.3,5.5,5.3c2.7,0,4.6-1.4,5.2-3.5h6.3c-1.1,5.7-5.3,9-11.5,9
		c-7.3,0-12.1-5.4-12.1-12.3c-0.2-6.6,5-12.1,11.6-12.3c0.1,0,0.3,0,0.4,0c7.3,0,11.8,4.5,11.8,12.8L188.5,47L188.5,47z M171.6,42
		h10.8c-0.6-2.3-2.5-3.8-5.5-3.8C174.4,38.2,172.2,39.8,171.6,42z"/>
	<path class="st0" d="M205.2,33.8V40h-3.5c-2.5,0-3.8,1.2-3.8,3.8V57h-6.6V33.8h6.1v4.3c0.2-2.5,2.3-4.4,4.8-4.3H205.2z"/>
	<path class="st0" d="M207,49.4h6.7c-0.1,1.4,0.9,2.5,2.2,2.7c0.1,0,0.2,0,0.4,0c1.5,0,2.5-0.8,2.5-1.9s-1-2-3.1-2.6l-3-0.9
		c-3.1-0.9-5.2-3-5.2-6.4c0-4.3,3.9-7.1,8.7-7.1c5.5,0,8.5,3.1,8.5,7.4h-6.2c0-1.2-1-2.2-2.2-2.2c0,0,0,0-0.1,0
		c-1.3,0-2.2,0.8-2.2,1.6c0,1.1,0.9,1.6,2.7,2.1L220,43c3.1,0.8,5.3,3,5.3,6.4c0,4.4-3.4,8.2-8.9,8.2C211.1,57.7,207,54.5,207,49.4z
		"/>
	<path class="st0" d="M227.6,34.8h0.6c1.6,0,3.1-0.8,3.3-3.2c-0.3,0.1-0.6,0.2-0.9,0.2c-2.2,0.1-4-1.7-4.1-3.9c0-0.1,0-0.1,0-0.2
		c0-2.3,1.9-4.1,4.1-4.1l0,0c3,0,4.6,2.7,4.6,6.3c0,5.7-2.8,8.4-6.7,8.4h-1L227.6,34.8z"/>
	<path class="st0" d="M65.1,82.8c0-10.1,7.5-17.1,16.6-17.1c8.8,0,14.4,4.9,15.6,12.7h-7.1c-1-3.8-4.1-6.2-8.6-6.2
		c-5.3,0-9.6,4.3-9.6,10.6s4.3,10.7,9.6,10.7c4.4,0,7.5-2.3,8.6-6.2h7.2C96,95.2,89.8,100,81.6,100C72.5,99.9,65.1,92.9,65.1,82.8z"
		/>
	<path class="st0" d="M100.3,66.4h6.6v12.8c1.6-2.5,4.4-4,7.4-3.8c4.6,0,7.9,3.2,7.9,8.6v15.3h-6.6V85.8c0.1-2.4-1.7-4.4-4.1-4.5
		c-2.4-0.1-4.4,1.7-4.5,4.1c0,0.1,0,0.3,0,0.4v13.4h-6.6L100.3,66.4z"/>
	<path class="st0" d="M124.7,87.7c0-6.8,5-12.3,12.5-12.3s12.6,5.4,12.6,12.3s-5,12.3-12.6,12.3S124.7,94.5,124.7,87.7z M143.2,87.7
		c-0.1-3.3-2.8-5.9-6.1-5.8c-3.3,0.1-5.9,2.8-5.8,6.1c0.1,3.3,2.7,5.8,6,5.8c3.2,0.1,5.9-2.4,6-5.6C143.2,88,143.2,87.8,143.2,87.7z
		"/>
	<path class="st0" d="M151.4,69c0-2.3,1.8-4.1,4.1-4.1s4.1,1.8,4.1,4.1c0,2.3-1.8,4.1-4.1,4.1l0,0C153.3,73.1,151.4,71.3,151.4,69
		L151.4,69z M152.3,76.1h6.6v23.2h-6.6L152.3,76.1L152.3,76.1z"/>
	<path class="st0" d="M161.4,87.7c-0.2-6.6,4.9-12.1,11.5-12.3c0.2,0,0.5,0,0.7,0c7.3,0,11.3,3.9,12,9.3h-6.9
		c-0.7-1.9-2.3-3.2-5.1-3.2c-3.4,0.2-6,3.2-5.7,6.6c0.2,3.1,2.7,5.5,5.7,5.7c2.8,0,4.4-1.2,5.1-3.2h6.9c-1.1,5.7-4.9,9.3-12,9.3
		c-6.6,0.2-12.1-5-12.3-11.5C161.4,88.2,161.4,87.9,161.4,87.7z"/>
	<path class="st0" d="M210.6,89.2h-17.2c0.1,3,2.6,5.3,5.6,5.3c2.7,0,4.6-1.4,5.2-3.5h6.3c-1.1,5.7-5.3,9-11.5,9
		c-7.3,0-12.1-5.4-12.1-12.3c-0.2-6.6,5-12.1,11.6-12.3c0.1,0,0.3,0,0.4,0c7.3,0,11.7,4.5,11.7,12.8V89.2z M193.7,84.3h10.8
		c-0.7-2.3-2.5-3.8-5.5-3.8C196.6,80.5,194.4,82,193.7,84.3z"/>
	<polygon class="st0" points="208.4,67.2 212.9,67.2 212.9,68.2 211.2,68.2 211.2,73.4 210.1,73.4 210.1,68.2 208.4,68.2 	"/>
	<path class="st0" d="M216.8,71.8l-1.7-4.6h-1.3v6.2h1V70c0-0.3,0-0.6-0.1-0.9l1.6,4.4h0.8l1.6-4.4c0,0.3,0,0.6,0,0.9v3.4h1v-6.2
		h-1.3L216.8,71.8z"/>
	<g>
		<path class="st0" d="M91.8,282.6l10.9-8.5c1.4-1.1,2.1-2.2,2.1-3.7c0-1.8-1.2-3.1-3.4-3.1c-2.1,0-3.6,1.5-3.7,3.3h-6.6
			c0-4.6,3.4-9.1,10.4-9.1c6.4,0,10.3,3.4,10.3,8.4c0,4-1.8,6.3-6.1,9.3l-3.3,2.3h9.8v5.9H91.7v-4.8L91.8,282.6L91.8,282.6z"/>
		<path class="st0" d="M114.1,274.8c0-7.3,5.4-13.2,13.5-13.2s13.5,5.9,13.5,13.2s-5.4,13.2-13.5,13.2
			C119.4,288,114.1,282.1,114.1,274.8z M134.3,274.8c0-4.2-2.9-6.9-6.7-6.9c-3.8,0-6.7,2.7-6.7,6.9c0,4.2,2.9,6.9,6.7,6.9
			C131.4,281.7,134.3,278.9,134.3,274.8z"/>
		<path class="st0" d="M143.5,282.6l10.9-8.5c1.4-1.1,2.1-2.2,2.1-3.7c0-1.8-1.2-3.1-3.4-3.1c-2.1,0-3.6,1.5-3.7,3.3h-6.6
			c0-4.6,3.4-9.1,10.4-9.1c6.4,0,10.3,3.4,10.3,8.4c0,4-1.8,6.3-6.1,9.3l-3.3,2.3h9.8v5.9h-20.5v-4.8L143.5,282.6L143.5,282.6z"/>
		<path class="st0" d="M166.5,283.3h6.8c0.1,2.5,1.9,4,4.4,4c2.4,0,4.2-1.4,4.2-3.7c0-2.5-1.8-3.7-4.5-3.7h-1.6v-5.4h1.7
			c2.3,0,3.9-1.4,3.9-3.3c0-2-1.5-3.2-3.8-3.2c-2.1,0-3.7,1.4-3.9,3.2h-6.4c0-5.1,4-9.5,10.3-9.5c6.4,0,10.5,3.5,10.5,8.7
			c0,3.1-1.7,5.3-3.8,6.5c2.7,1,4.6,3.5,4.6,7.1c0,5.8-4.6,9.8-11.2,9.8C170.2,293.7,166.5,288.9,166.5,283.3z"/>
	</g>
</g>
</svg>
