<?xml version="1.0" encoding="utf-8"?>
<!-- Generator: Adobe Illustrator 16.0.4, SVG Export Plug-In . SVG Version: 6.00 Build 0)  -->
<!DOCTYPE svg PUBLIC "-//W3C//DTD SVG 1.1//EN" "http://www.w3.org/Graphics/SVG/1.1/DTD/svg11.dtd">
<svg version="1.1" id="Layer_1" xmlns="http://www.w3.org/2000/svg" xmlns:xlink="http://www.w3.org/1999/xlink" x="0px" y="0px"
	 width="32px" height="32px" viewBox="109 109 32 32" enable-background="new 109 109 32 32" xml:space="preserve">
<g>
	<path fill="#06A7CA" d="M127.127,120.556c-0.501-0.377-1.069-0.588-1.702-0.682c-0.396-0.06-0.361-0.175-0.732-0.343
		c-0.545-0.246-0.915-0.58-0.986-1.276c-0.065-0.65-0.32-0.488-0.515-1.126c-0.059-0.196-0.102-0.401-0.112-0.604
		c-0.05-1.004-0.256-1.187,0.015-2.149c0.068-0.245,0.087-0.504,0.126-0.757c0.038-0.253,0.02-0.527,0.115-0.754
		c0.229-0.544,0.023-0.954-0.288-1.342c-0.349-0.181-0.62-0.225-1.09-0.091c-0.457,0.099-0.629,0.426-0.917,0.666
		c-0.125,0.105-0.211,0.646-0.232,0.983c0.025,0.118,0.132,0.417,0.164,0.473c0.295,0.519,0.202,0.851,0.16,1.428
		c-0.056,0.786-0.202,0.959-0.233,1.747c0,0-2.287-0.792-2.535-0.161c-0.249,0.631-0.366,1.162-0.269,1.328
		c0.099,0.166,1.18,0.624,1.275,0.843c0.096,0.22-1.064,0.242-1.091,0.724c-0.025,0.482,0.326,0.931,0.424,1.096
		c0.098,0.167,1.002,0.323,1.002,0.323s-0.126,0.369-0.302,0.628c-0.175,0.259-0.371,0.893-0.215,1.009
		c0.154,0.116,0.086,0.38,0.354,0.395c0.268,0.015,0.75,0.042,0.75,0.042l0.662,0.09c-0.601,0.846-0.592,0.778-1.307,1.516
		c-0.057,0.06-0.141,0.095-0.21,0.145c-0.319,0.225-0.645,0.446-0.957,0.683c-0.071,0.056-0.309,0.521-0.087,0.852
		c0.549,0.284,0.875,0.013,1.251-0.207c0.355-0.206,0.697-0.434,1.026-0.678c0.413-0.306-0.033,0.044,0.4-0.23
		c0.522-0.331,0.922-0.772,1.271-1.26c0.517-0.722,0.335-0.479,0.829-1.217c0.519,0.156,1.642,0.175,2.039,0.787
		c0,0,0.498,0.725,0.841,2.302c0.345,1.575-0.53,6.844-0.548,7.165s-0.685,3.721-0.685,3.721s1.126,1.028,1.698,1.382
		c0.57,0.353,2.073,0.38,2.282,0.499c0.208,0.118,1.499-6.898,1.591-7.592c0.091-0.693-0.338-3.67-0.374-3.994
		s-0.675-3.42-0.666-3.58c0.009-0.161-0.664-1.593-0.664-1.593L127.127,120.556z"/>
</g>
<path fill="#E06431" d="M118.365,112.614c-0.193,0.117-0.323,0.248-0.47,0.275c-0.667,0.125-1.136,0.609-1.708,0.901
	c-0.218,0.111-0.434,0.227-0.657,0.328c-1.073,0.484-1.921,1.283-2.807,2.026c-0.168,0.14-0.239,0.385-0.522,0.377
	c-0.036-0.001-0.085,0.141-0.111,0.222c-0.104,0.329-1.258,1.284-1.584,1.251c-0.147-0.014-0.282-0.177-0.423-0.271
	c0.069-0.1,0.131-0.205,0.207-0.298c0.365-0.447,0.716-0.906,1.103-1.333c0.781-0.864,1.693-1.568,2.682-2.188
	c0.849-0.532,1.632-1.167,2.479-1.701c0.239-0.15,0.604-0.141,0.909-0.133c0.239,0.006,0.486,0.097,0.709,0.199
	C118.261,112.308,118.292,112.477,118.365,112.614z"/>
<path fill="#FFD209" d="M129.455,118.45c0.108-0.082,0.207-0.155,0.306-0.23c-0.005,0.032-0.009,0.063-0.012,0.095
	c0.461,0.118,0.925,0.231,1.383,0.359c0.188,0.052,0.396,0.106,0.549,0.22c0.831,0.619,1.649,1.254,2.469,1.89
	c0.083,0.064,0.197,0.174,0.193,0.257c-0.028,0.548,0.392,0.82,0.67,1.188c0.137,0.181,0.164,0.44,0.268,0.653
	c0.094,0.19,0.235,0.355,0.336,0.542c0.452,0.839,0.906,1.677,1.339,2.526c0.107,0.212,0.131,0.466,0.2,0.7
	c0.167,0.559,0.354,1.113,0.502,1.678c0.078,0.296,0.085,0.609,0.137,0.913c0.017,0.091,0.07,0.177,0.116,0.259
	c0.153,0.271,0.098,0.818-0.159,0.879c-0.267,0.062-0.505,0.429-0.842,0.144c-0.053-0.043-0.189,0.013-0.287,0.028
	c-0.143,0.022-0.283,0.049-0.425,0.074c-0.015-0.169-0.027-0.338-0.049-0.604c-0.338-0.312-0.428-0.849-0.513-1.386
	c-0.156-0.981-0.313-1.947-0.717-2.885c-0.36-0.838-0.89-1.583-1.213-2.417c-0.457-1.171-1.346-1.963-2.156-2.836
	c-0.273-0.294-0.566-0.571-0.861-0.846c-0.128-0.119-0.279-0.293-0.427-0.299C129.678,119.333,129.579,118.913,129.455,118.45z"/>
</svg>
