<?xml version="1.0" encoding="utf-8"?>
<!-- Generator: Adobe Illustrator 16.0.4, SVG Export Plug-In . SVG Version: 6.00 Build 0)  -->
<!DOCTYPE svg PUBLIC "-//W3C//DTD SVG 1.1//EN" "http://www.w3.org/Graphics/SVG/1.1/DTD/svg11.dtd">
<svg version="1.1" id="Layer_1" xmlns="http://www.w3.org/2000/svg" xmlns:xlink="http://www.w3.org/1999/xlink" x="0px" y="0px"
	 width="32px" height="32px" viewBox="109 109 32 32" enable-background="new 109 109 32 32" xml:space="preserve">
<path fill="#06A7CA" d="M134.075,129.378c0.435,1.13,0.826,2.326,1.352,3.462c0.424,0.917-0.11,2.609-1.26,3.171
	c-1.776,0.867-3.59,1.635-5.653,1.599c-2.147-0.037-4.31,0.2-6.447,0.049c-2.055-0.146-4.093-0.6-6.125-0.99
	c-0.834-0.159-1.624-0.535-2.447-0.769c-1.315-0.37-1.426-1.853-0.84-3.079c0.358-0.753,0.823-1.532,0.889-2.327
	c0.12-1.44,0.698-2.444,1.896-3.234c0.759-0.502,1.392-1.208,2.042-1.862c0.609-0.611,0.766-1.344,0.447-2.013
	c-2.058-0.06-4.027-0.07-5.987-0.213c-0.385-0.028-0.928-0.499-1.055-0.88c-0.265-0.79-0.014-1.56,0.6-2.193
	c0.344-0.356,0.683-0.75,0.904-1.188c1.083-2.135,2.028-4.459,4.613-5.15c1.735-0.464,3.558-0.64,5.356-0.822
	c1.276-0.129,2.573-0.028,3.86-0.076c1.964-0.075,3.943-0.396,5.881-0.226c1.83,0.161,3.628,0.835,4.54,2.699
	c0.57,1.167,1.047,2.383,1.532,3.59c0.321,0.798,0.515,1.652,0.894,2.417c0.344,0.691,0.028,1.03-0.495,1.259
	c-0.478,0.21-1.008,0.36-1.525,0.414c-1.287,0.133-2.581,0.238-3.873,0.269c-0.592,0.014-0.867,0.261-0.913,0.774
	c-0.085,0.981-0.176,1.971-0.143,2.952c0.013,0.378,0.313,0.771,0.553,1.108c0.298,0.416,0.653,0.797,1.021,1.157
	C133.799,129.384,134.034,129.367,134.075,129.378z M130.619,122.422c-1.694,0.147-3.083,0.365-4.468,0.363
	c-1.982-0.003-3.966-0.152-5.947-0.268c-0.61-0.035-1.013,0.005-1.034,0.792c-0.05,1.771-1.156,2.918-2.444,3.966
	c-1.079,0.88-2.379,1.621-2.377,3.309c0,0.656-0.066,1.321-0.176,1.97c-0.17,0.996,0.209,1.602,1.174,1.847
	c0.35,0.089,0.709,0.187,1.066,0.195c1.856,0.049,3.713,0.109,5.568,0.088c1.39-0.015,2.784-0.109,4.169-0.238
	c1.714-0.158,3.421-0.419,5.137-0.575c1.31-0.121,1.873-0.932,1.948-2.092c0.033-0.511-0.116-1.267-0.468-1.53
	c-1.768-1.328-2.021-3.106-1.891-5.12C130.934,124.241,130.716,123.337,130.619,122.422z M137.551,120.25
	c-0.066-0.141-0.176-0.516-0.248-0.509c-1.056,0.1-1.13-0.685-1.286-1.381c-0.62-2.761-2.702-4.811-5.793-4.647
	c-3.054,0.161-6.118,0.108-9.167,0.304c-1.458,0.094-2.959,0.371-4.324,0.879c-2.026,0.757-2.271,2.916-3.262,4.648
	c1.318,0.172,2.506,0.329,3.756,0.492c0.181-0.28,0.341-0.668,0.618-0.934c0.72-0.689,1.387-1.635,2.259-1.926
	c3.37-1.119,6.862-1.421,10.348-0.588c1.3,0.311,2.825,0.577,3.202,2.267c0.131,0.592,0.122,1.213,0.179,1.846
	c0.599-0.083,1.216-0.175,1.837-0.251C136.276,120.375,136.887,120.319,137.551,120.25z M134.471,133.337
	c-6.979,2.361-13.985,2.77-21.195,1.041c0.145,0.138,0.295,0.354,0.502,0.474c2.472,1.434,5.245,1.704,7.995,1.876
	c2.136,0.133,4.306,0.069,6.436-0.15c1.743-0.182,3.47-0.657,5.166-1.135C134.307,135.182,134.741,133.974,134.471,133.337z
	 M122.433,120.739c2.025-0.032,4.013-0.063,6.017-0.095c-0.181-1.177-0.332-2.167-0.492-3.217c-1.731,0.026-3.725,0.058-5.576,0.088
	C122.402,118.756,122.417,119.741,122.433,120.739z M117.168,121.091c-1.354-0.155-2.69-0.37-4.033-0.415
	c-0.326-0.011-0.823,0.488-0.97,0.859c-0.229,0.581,0.23,0.762,0.77,0.794c1.001,0.06,1.998,0.194,3,0.237
	C117.227,122.623,117.39,122.395,117.168,121.091z M133.093,122.577c0.441,0.033,0.862,0.129,1.265,0.083
	c0.914-0.102,1.816-0.301,2.73-0.409c0.978-0.117,1.066-0.279,0.657-1.025c-0.996,0.016-1.891-0.033-2.769,0.062
	C134.217,121.371,133.259,121.275,133.093,122.577z M131.769,122.015c0.64-2.788,0.259-3.909-1.177-3.987
	c-0.081,0.97-0.162,1.935-0.246,2.927C130.775,121.276,131.259,121.634,131.769,122.015z M119.027,121.472
	c0.441-0.158,0.823-0.293,1.188-0.424c-0.106-0.788-0.201-1.476-0.313-2.3C118.906,119.514,118.974,120.445,119.027,121.472z"/>
<path fill="#06A7CA" d="M129.758,129.312c0.197,2.648-1.254,3.118-3.603,3.661c-1.771,0.408-3.589,0.637-5.482,0.188
	c-2.023-0.479-3.522-2.904-2.788-4.85c1.022-2.705,3.369-3.495,5.806-4.025c3.087-0.673,4.829,1.68,5.915,3.759
	C129.79,128.398,129.715,128.887,129.758,129.312z M123.217,132.658c0.215-0.524,0.358-0.874,0.503-1.225
	c0.538,0.243,1.075,0.486,1.72,0.776c-0.017,0.076,0.033-0.082,0.052-0.244c0.039-0.339-0.062-0.867,0.11-0.976
	c0.286-0.182,0.797-0.216,1.11-0.081c0.28,0.122,0.424,0.558,0.724,1c0.391-0.381,0.868-0.705,1.139-1.154
	c0.273-0.456,0.361-0.966-0.567-0.822c-0.365,0.056-0.91-0.22-1.166-0.52c-0.212-0.247-0.119-0.754-0.16-1.146
	c0.39,0.064,0.794,0.089,1.164,0.211c0.169,0.056,0.272,0.305,0.497,0.575c0.124-1.962-1.055-3.043-2.36-3.774
	c-1.264-0.709-2.685-0.318-4.025,0.399c0.525,0.552,1.892,0.1,1.562,1.29c-0.095,0.343-0.988,0.68-1.488,0.645
	c-0.819-0.056-1.03-0.734-0.721-1.568c-0.106-0.042-0.213-0.084-0.32-0.125c-0.563,0.616-1.127,1.231-1.732,1.892
	c0.611,0.223,1.069,0.391,1.542,0.562c-0.132,0.729-0.139,1.599-1.046,1.71c-0.31,0.039-0.697-0.557-0.976-0.8
	c-0.216,1.406,0.151,2.188,1.336,2.852c0.021-0.472,0.045-1.038,0.07-1.606c0.167-0.062,0.333-0.12,0.5-0.181
	c0.623,0.71,1.244,1.42,1.866,2.129c-0.07,0.065-0.141,0.131-0.21,0.195C122.703,132.666,123.066,132.66,123.217,132.658z"/>
<path fill="#06A7CA" d="M122.464,129.208c0.526-0.665,2.299-0.853,2.858-0.219c0.12,0.135,0.185,0.532,0.104,0.599
	c-0.394,0.323-0.827,0.744-1.288,0.802c-0.374,0.049-0.824-0.341-1.21-0.584C122.757,129.695,122.66,129.467,122.464,129.208z"/>
<path fill="#06A7CA" d="M123.98,127.033c1.277-1.103,2.01-0.999,2.666,0.335C125.687,128.057,124.908,127.483,123.98,127.033z"/>
</svg>
