<?xml version="1.0" encoding="utf-8"?>
<!-- Generator: Adobe Illustrator 16.0.4, SVG Export Plug-In . SVG Version: 6.00 Build 0)  -->
<!DOCTYPE svg PUBLIC "-//W3C//DTD SVG 1.1//EN" "http://www.w3.org/Graphics/SVG/1.1/DTD/svg11.dtd">
<svg version="1.1" id="Layer_1" xmlns="http://www.w3.org/2000/svg" xmlns:xlink="http://www.w3.org/1999/xlink" x="0px" y="0px"
	 width="32px" height="32px" viewBox="109 109 32 32" enable-background="new 109 109 32 32" xml:space="preserve">
<g>
	<path fill="#678D2D" d="M119.819,111.097c2.329,0.269,5.518,0.626,8.704,1.01c1.519,0.183,3.044,0.354,4.543,0.646
		c1.342,0.26,2.677,0.605,3.971,1.044c1.284,0.435,1.728,1.583,1.901,2.811c0.086,0.604,0.102,1.251-0.019,1.844
		c-0.419,2.061-0.89,4.112-1.383,6.157c-0.669,2.774-1.384,5.538-2.06,8.31c-0.101,0.414-0.167,0.856-0.131,1.275
		c0.088,1.014-0.874,1.52-1.078,2.38c-0.027,0.117-0.104,0.229-0.108,0.345c-0.069,1.954-1.474,2.096-2.809,1.946
		c-2.948-0.331-5.884-0.76-8.83-1.096c-0.654-0.074-1.337,0.131-2.001,0.104c-0.692-0.029-1.382-0.174-2.069-0.287
		c-1.534-0.254-3.057-0.602-4.6-0.759c-1.79-0.183-2.681-1.079-2.834-2.84c-0.199-2.304,0.847-4.361,1.13-6.561
		c0.254-1.977,0.349-3.974,0.607-5.951c0.159-1.207,0.475-2.395,0.758-3.582c0.248-1.042,0.517-2.082,0.843-3.101
		c0.097-0.302,0.408-0.543,0.645-0.789c0.256-0.267,0.67-0.454,0.792-0.764C116.468,111.534,117.16,111.029,119.819,111.097z
		 M119.603,111.776c-1.812,0.088-2.444,0.575-2.869,2.276c-0.126,0.503-0.292,1-0.487,1.481c-0.168,0.415-0.52,0.783-0.588,1.205
		c-0.314,1.921-0.479,3.869-0.845,5.779c-0.505,2.64-1.133,5.257-1.728,7.88c-0.297,1.311-0.712,2.595-0.431,3.978
		c0.147,0.724,0.476,1.362,1.164,1.484c2.437,0.432,4.886,0.823,7.345,1.1c3.272,0.368,6.556,0.635,9.84,0.889
		c0.376,0.029,0.936-0.193,1.137-0.487c0.33-0.485,0.483-1.112,0.63-1.7c0.497-1.981,0.943-3.977,1.434-5.96
		c0.606-2.45,1.269-4.887,1.842-7.344c0.422-1.811,0.787-3.639,1.086-5.474c0.176-1.076-0.446-1.914-1.474-2.252
		c-0.465-0.153-0.929-0.319-1.406-0.42c-2.053-0.427-4.1-0.895-6.167-1.231C125.267,112.522,122.431,112.172,119.603,111.776z"/>
	<path fill="#678D2D" d="M117.728,120.822c0.314-0.104,0.631-0.306,0.941-0.295c0.946,0.03,1.891,0.121,2.832,0.227
		c2.294,0.258,4.589,0.515,6.879,0.815c1.702,0.222,3.502,0.077,4.989,1.201c0.114,0.087,0.198,0.214,0.297,0.321
		c-0.017,0.095-0.034,0.19-0.051,0.285c-0.675-0.048-1.439,0.093-2.008-0.177c-2.046-0.975-4.255-0.718-6.387-1.03
		c-1.146-0.167-2.288-0.373-3.435-0.54c-1.026-0.149-2.056-0.271-3.084-0.402c-0.31-0.04-0.621-0.075-0.931-0.112
		C117.756,121.018,117.742,120.92,117.728,120.822z"/>
	<path fill="#678D2D" d="M116.066,124.637c0.67-0.132,1.336-0.351,2.01-0.379c2.327-0.101,4.633,0.02,6.936,0.479
		c1.669,0.333,3.396,0.357,5.08,0.628c0.715,0.115,1.385,0.51,2.075,0.778c-0.017,0.129-0.035,0.258-0.052,0.387
		c-0.863-0.039-1.758,0.06-2.581-0.142c-4.271-1.045-8.592-1.537-12.987-1.376c-0.144,0.005-0.289-0.049-0.434-0.076
		C116.097,124.835,116.082,124.736,116.066,124.637z"/>
	<path fill="#678D2D" d="M131.516,129.055c-1.173-0.08-2.349-0.141-3.52-0.241c-1.644-0.142-3.234-0.457-4.804-1.041
		c-0.84-0.312-1.871-0.125-2.815-0.135c-1.448-0.015-2.896-0.004-4.344-0.004c-0.023-0.124-0.046-0.247-0.069-0.37
		c0.208-0.105,0.411-0.296,0.622-0.305c1.99-0.074,3.981-0.136,5.974-0.156c0.447-0.005,0.961,0.057,1.332,0.277
		c1.392,0.826,2.897,0.896,4.445,0.855C129.495,127.906,130.674,127.842,131.516,129.055z"/>
	<path fill="#678D2D" d="M115.388,130.529c0.698-0.067,1.396-0.145,2.094-0.201c1.032-0.085,2.073-0.272,3.093-0.194
		c0.874,0.065,1.712,0.502,2.586,0.674c1.894,0.371,3.803,0.666,5.7,1.02c0.867,0.161,1.722,0.387,2.584,0.583
		c-0.025,0.159-0.052,0.317-0.078,0.477c-1.337-0.15-2.69-0.215-4.007-0.471c-1.764-0.343-3.479-0.965-5.251-1.221
		c-1.735-0.252-3.514-0.193-5.274-0.271c-0.476-0.021-0.95-0.044-1.426-0.064C115.402,130.75,115.395,130.641,115.388,130.529z"/>
	<path fill="#678D2D" d="M115.081,133.709c0.24-0.182,0.375-0.373,0.514-0.375c1.458-0.023,3.069-0.414,4.341,0.072
		c2.107,0.807,4.227,0.653,6.325,0.686c1.549,0.022,2.844,0.308,4.002,1.432c-0.561-0.083-1.163-0.062-1.676-0.267
		c-1.785-0.709-3.666-0.467-5.5-0.679c-0.78-0.09-1.546-0.306-2.326-0.407c-1.021-0.135-2.047-0.249-3.075-0.298
		c-0.622-0.03-1.249,0.105-1.874,0.114C115.603,133.991,115.391,133.834,115.081,133.709z"/>
	<path fill="#678D2D" d="M120.649,114.659c1.182-0.753,3.217-0.761,4.044,0C123.31,114.659,122.094,114.659,120.649,114.659z"/>
	<path fill="#678D2D" d="M121.544,115.847c1.088-0.567,1.967-0.151,2.9-0.035C123.889,116.444,122.936,116.472,121.544,115.847z"/>
</g>
</svg>
