<?xml version="1.0" encoding="UTF-8"?><svg id="Layer_1" xmlns="http://www.w3.org/2000/svg" viewBox="0 0 193.85 201.69"><defs><style>.cls-1{fill:none;stroke:#fff;stroke-miterlimit:10;stroke-width:3.65px;}.cls-2{fill:#fff;}</style></defs><path class="cls-1" d="M185.08,102.69c-2.77-50.21-25.56-89.16-71-92.88-45.42-3.73-81.31,3.86-96.61,36.57C-.55,84.94,6.42,178.08,61.24,189.76c56.46,12.04,128.01-11.32,123.84-87.07Z"/><path class="cls-2" d="M133.16,101.28c-2.23,10.88-12.14,18.03-21.83,21.2-10.87,3.57-19.53,12.52-31,14.56-1.88,.33-4.12,.29-5.32-1.2-.49-.6-.72-1.37-.94-2.11-5.74-19.12-4.88-40.99-3.94-60.9,.14-3.02,.3-6.11,1.4-8.94,.37-.95,.87-1.87,1.49-2.7,1.2-1.63,2.84-2.92,4.8-3.36,3.77-.85,7.51,1.49,10.39,4.07,9.08,8.1,21.4,13.72,31.71,20.76,6.41,4.38,15.04,9.86,13.23,18.62Z"/></svg>