<?xml version="1.0" encoding="utf-8"?>
<!-- Generator: Adobe Illustrator 26.3.1, SVG Export Plug-In . SVG Version: 6.00 Build 0)  -->
<svg version="1.1" id="Layer_1" xmlns="http://www.w3.org/2000/svg" xmlns:xlink="http://www.w3.org/1999/xlink" x="0px" y="0px"
	 viewBox="0 0 518.4 120" style="enable-background:new 0 0 518.4 120;" xml:space="preserve">
<style type="text/css">
	.st0{fill:#273240;}
	.st1{fill:#273240;}
	.st2{fill:#273240;}
	.st3{fill:#273240;}
	.st4{fill:#273240;}
	.st5{fill:#273240;}
	.st6{fill:#273240;}
</style>
<path class="st0" d="M518.4,70.7c-0.3,0.1-0.2,0.4-0.2,0.6c-0.6,2.8-1.9,5.3-4.2,7.1c-4.6,3.5-9.1,7.2-14,10.3c-1.6,1-3.3,1.9-5,2.5
	c-3.3,1.1-6.3,0.6-9-1.5c-2.2-1.7-3.9-3.7-5.7-5.8c-0.3-0.4-0.7-0.8-1.1-1.2c-1.4,3.3-2.8,6.5-4.2,9.6c-0.7,1.6-1.5,3.2-2.4,4.7
	c-1.4,2.2-3.4,3.2-6,2.6c-1.5-0.3-2.9-0.8-4.5-1.4c0.6-0.3,1.1-0.6,1.6-0.9c2.6-1.5,4.2-3.8,5.1-6.6c1.8-5.9,3.5-11.9,4.4-18.1
	c1-7.1,1.1-14.3,0.9-21.5c0-2.1-0.2-4.2-0.2-6.3c0-0.7-0.1-1-0.9-0.7c-3.5,1.5-7,3-10.6,4.5c-0.7,0.3-0.7,0.7-0.4,1.2
	c-0.1,0.1-0.2,0.1-0.3,0.1c-2.2-0.9-3.9-2.6-5.2-4.5c-0.4-0.7,0-1.4,0.4-2c1-1.5,2.5-2.5,4.2-3.3c2.9-1.3,6-2,9.1-2.6
	c2.9-0.6,3.9-1.7,4.1-4.6c0.8-8.7,2.1-17.3,3.6-25.9c0.2-1,0.5-1.9,0.9-2.8c1-2,2.6-3,4.9-2.7c1.3,0.2,2.4,0,3.3-0.9
	c0.7-0.7,1.1-0.5,1.5,0.4c2.2,5.6,2.7,11.5,2.3,17.4c-0.3,4.3-1.1,8.6-1.8,13c2.1-0.3,4-0.9,6-1.4c4.5-1.3,9.1-1.1,13.7-0.4
	c2.1,0.3,3.8,1.3,5.3,2.9c0.4,0.4,0.5,0.7,0,1.2c-1.3,1.1-2.5,2.3-3.7,3.5c-0.3,0.3-0.5,0.4-0.9,0.2c-4.3-2.1-8.5-1.3-12.6,0.4
	c-2.8,1.1-5.6,2.6-8.5,3.6c-0.5,0.2-0.6,0.5-0.7,1c-1.1,4.3-1.6,8.7-1.7,13.1c-0.1,5.4,0,10.9,0.6,16.3c0.6,5.2,3.1,9.6,6.7,13.4
	c0.7,0.8,1.3,2.1,2.3,2.1c1,0,1.7-1.2,2.5-1.9c3-2.7,6-5.5,9.1-8.1c1.7-1.5,2.4-3.3,2.2-5.5c0-0.4,0-0.7,0-1.1
	c0-2.9,1.3-4.4,4.1-4.5c1.5-0.1,3-0.3,4.4-0.8c0.7-0.3,0.9,0.1,1.2,0.5C518.4,67.3,518.4,69,518.4,70.7z"/>
<path class="st0" d="M363.6,120c-0.1-0.1-0.2-0.2-0.3-0.2c-2.4-0.5-3-1.1-2.8-3.5c0.4-3.7-0.3-7.3-1.4-10.8
	c-2.6-8.9-2.7-17.9-1.6-27c0.8-6.8,1.5-13.7,3.2-20.4c1.2-4.7,3-9.2,5.7-13.2c1.6-2.4,3.7-3.6,6.6-3.7c0.6,0,1.3,0.1,1.9,0
	c2.5-0.3,3.9,1.1,5,3.1c2,3.8,2.6,7.8,1.4,11.8c-1.9,6.1-4.9,11.6-9.1,16.4c-1.2,1.3-2.5,2.4-4,3.4c-3.9,2.6-5.1,6.4-4.7,10.8
	c1,10.2,2.4,20.4,3.9,30.5c0.1,0.7,0.4,1.5,0.2,2.1c-0.2,0.8-1.3,0.2-1.8,0.7C365.1,120,364.3,120,363.6,120z M368.8,52.7
	c-1.3,5.4-2.5,10.7-3.7,16c0,0.1,0,0.1,0.1,0.2C370.4,64,372.4,56.6,368.8,52.7z"/>
<path class="st1" d="M0.2,45.2l-0.1,0l-0.1,0c0-2.2,0-4.5,0-6.7c0.1,0,0.2,0,0.2,0C0.2,40.7,0.2,43,0.2,45.2z"/>
<path class="st0" d="M184.2,86.5c1.1-1.1,2.1-2.1,2.7-3.6c2.2-6.2,4.4-12.4,6.7-18.5c0.6-1.6,0.9-3.1,0.8-4.8
	c-0.1-1.1,0.1-2.2,0.3-3.3c0.7-3.8,3.4-6.1,7.3-6.4c3.2-0.3,3.2-0.3,2.9,2.8c-0.6,6.2-1.3,12.4-3.5,18.3c-1.1,3-2.8,5.8-4.3,8.7
	c-2.7,5.4-5.4,10.8-8,16.2c-1.3,2.7-3.1,4.9-5.5,6.7c-3.1,2.2-6.2,1.9-9-0.7c-1.4-1.4-2.5-3-3.4-4.7c-1.9-3.4-3.7-6.8-5.5-10.2
	c-0.3-0.5-0.5-1-0.8-1.5c-1.5,1.4-2.8,2.7-4.4,3.8c-6.6,4.7-13.5,5-20.4,0.8c-0.8-0.5-1.3-0.4-2,0.1c-2.5,1.9-5.1,3.7-7.7,5.5
	c-6.5,4.5-13.9,2.6-18.7-0.9c-2.6-1.9-4.4-4.4-5.5-7.5c-2.6-7.3-3.7-14.8-4.1-22.5c-0.2-4.7,0-9.3-0.1-14c0-1-0.2-1.6-1.2-1.8
	c-0.9-0.2-1.7-0.7-2.4-1.3c-1.1-0.9-1.4-1.8-0.7-3c0.5-0.9,1.1-1.8,1.9-2.4c1.9-1.6,2.5-3.8,3-6.1c0.8-3.6,1.6-7.2,2.2-10.9
	c0.4-2,1.6-3.3,3.7-3.8c1-0.2,2.1-0.3,3.1-0.3c1.7,0,2.6,0.7,2.7,2.4c0.1,1.8,0.6,3.5,1.2,5.2c0.5,1.4,0.6,2.9,0.4,4.4
	c-0.1,1,0.3,1,1,0.8c7-1.4,13.9-2.8,20.9-4.1c4.5-0.9,8.9-1.7,13.4-2.7c0.7-0.1,0.9,0,1.1,0.7c0.3,1.2,0.6,2.3,0.9,3.5
	c0.2,0.6,0.1,0.7-0.5,0.8c-2.5,0.4-5,0.8-7.5,1c-5.6,0.5-10.8,2.3-16,4.3c-1.9,0.8-3.8,1.6-5.8,2.3c-4.5,1.7-7,4.8-7.4,9.6
	c-0.6,8.6-1.6,17.2-1.5,25.8c0.1,5.3,1.7,10.3,4,15c0.3,0.7,0.8,1.4,1.4,1.9c1.5,1.5,3.4,1.7,5.2,0.6c0.9-0.5,1.7-1.2,2.4-2
	c3.9-4.8,7.6-9.9,10.3-15.5c0.9-1.8,2.4-3,4.2-3.6c1.5-0.5,3-0.9,4.3-1.7c0.3-0.1,0.4-0.2,0.7,0.1c0.8,1.4,1.4,2.7,1.3,4.4
	c-0.3,3.3-0.7,6.6-0.6,9.9c0,0.7,0.1,1.4,0.5,2.1c0.8,1.4,2.4,1.7,4,0.6c3.5-2.4,6.7-5.1,9.2-8.5c0.6-0.8,0.7-1.7,0.4-2.6
	c-1.5-4.7-2-9.5-2.6-14.3c-0.2-2.2-0.3-4.4,0.1-6.6c0.4-2.3,1.8-3.8,3.9-4.7c2.5-1,5.2-1.4,8-1.5c1.9-0.1,2.6,0.6,3.1,2.5
	c0.8,3.5,1.3,7,2.1,10.4c2,8.4,4.4,16.7,7.8,24.7C184,86.1,184.1,86.3,184.2,86.5z"/>
<path class="st2" d="M306.6,80.5c-0.8,4.8-1.6,9.5-2.5,14.1c-0.8,4.2-2.8,5-6.6,3.3c-4-1.8-5.8-4.9-6.3-9.1
	c-0.6-5.1-1.1-10.2-0.7-15.3c0.3-3.8,1.1-7.5,2-11.2c1-4,4-5.9,8.1-5.4c2,0.3,3.8,0,5.5-1c1.3-0.8,2.8-1.3,4.3-1.7
	c2.7-0.7,4.8,0.2,6.4,2.4c1.3,1.9,2.2,4,3.8,5.8c1.6-2.6,3.2-5.1,4.8-7.7c2.5-4.1,5.1-7.9,8.9-10.8c2.8-2.1,5.8-4,9.6-4
	c4.6,0,8.1,3,9,7.5c0.5,2.5-0.1,4.9-0.4,7.4c-0.7,6.3-1.4,12.6-2.1,18.9c-0.2,2.3-0.4,4.7-0.7,7c-0.3,2.3,0.2,4.5,0.8,6.7
	c0.5,1.8,0.9,3.5,0.9,5.4c0,1.6-0.8,2.4-2.4,2.5c-1.7,0.1-3.2-0.6-4.7-1.2c-2.8-1-4.1-3.1-4.5-6c-1.3-8.7-2.8-17.3-4.3-26
	c0-0.3-0.1-0.5-0.2-0.8c-0.1-0.7-0.5-0.4-0.7-0.2c-0.2,0.2-0.4,0.5-0.5,0.8c-3.2,6.8-6.3,13.6-9.2,20.5c-0.2,0.5-0.5,1-0.8,1.5
	c-1.7,2.8-3.9,3.6-6.9,2.2c-3.2-1.5-6.2-3.4-9.3-5.1C307.5,81,307.1,80.8,306.6,80.5z"/>
<path class="st0" d="M0.2,45.2c0-2.2,0-4.5,0-6.7c0.5-5.7,2.4-10.9,5.3-15.9c1.9-3.2,4.1-6.1,6.5-8.9C15.4,9.7,20,8,25,7
	c2.8-0.5,4.8,0.5,6.7,2.3c4.3,4.1,6.5,8.9,5.5,14.9c-0.5,3.1-1.8,6-3.1,8.9c-1.6,3.4-3.1,6.9-5,10.2c-0.3,0.5-0.4,1-0.3,1.6
	c0.2,2.1-0.5,3.8-2.1,5.2c-1.7,1.5-3.6,2.6-5.4,4c-1.3,1-5.2-0.3-5.8-1.8c-1.3-2.9-1.7-5.8-0.2-8.9c2.4-4.8,5.2-9.4,7.7-14.1
	c1-1.9,1.9-3.8,2.2-5.9c0.4-2.8-0.6-5.1-2.4-7.1c-0.6-0.7-0.8,0-1.1,0.3c-3.5,3.9-5.5,8.6-6.7,13.6c-1.5,6.4-2.1,13-2.3,19.6
	c-0.4,11.9,1.1,23.7,2.9,35.5c0.9,5.7,1.8,11.3,2.6,17c0.2,1.1,0.4,2.1,1,3.1c0.7,1.1,0.8,2.4,0,3.5c-0.8,1.1-2,1.3-3.3,1.1
	c-2.4-0.4-4.1-1.5-5.2-3.9C7.5,99.7,5.8,93,5,86C4,77,2.8,68.1,1.8,59.2C1.2,54.6,0.7,49.9,0.2,45.2z"/>
<path class="st0" d="M402.9,76.8c-1,1.8-2,3.6-2.8,5.4c-0.6,1.3-1.2,2.6-2,3.8c-2,2.8-4.5,3.7-7.8,2.7c-4.5-1.3-8.1-5.9-8.4-10.5
	c-0.6-7.9,2.5-14.4,7.5-20.2c0.4-0.5,0.8-0.9,1.2-1.3c2-2.6,4.6-4.1,7.9-4.4c4.1-0.5,8.1-1.6,12.1-2.4c1.5-0.3,1.4-0.3,1.5,1.2
	c0.2,4.1-0.6,8.2-0.8,12.3c-0.3,4.6-0.1,9.1,1.6,13.4c1,2.5,1.9,2.9,4.3,1.7c2.6-1.2,5.2-2.3,8-3.2c1.2-0.4,1.8,0.4,2.5,1
	c0.7,0.7,0.2,1.4-0.2,1.9c-3.6,4.5-8,7.5-14,7.2c-1.3-0.1-2.5-0.7-3.5-1.5c-1.8-1.4-3.6-2.9-5.4-4.4C403.7,79,403.6,77.8,402.9,76.8
	z M390.7,81.2c6.1-4.9,7.5-11.4,7.3-18.7C392.9,67.7,390.2,73.7,390.7,81.2z"/>
<path class="st0" d="M61.8,99.9c-2.9-0.2-6.5-0.9-9.5-3.5c-3-2.5-2.2-6-0.7-8.1c1.3-1.8,2.8-1.9,4.2-0.2c1.1,1.3,2.2,2.5,3.5,3.6
	c2.8,2.6,3.9,2.5,6.2-0.5c1.4-1.8,2.7-3.7,3.7-5.7c1.7-3.4,1.3-5.9-1.4-8.6c-1.2-1.2-2.5-2.2-3.9-3.2c-4.8-3.5-9.7-6.8-14.8-9.8
	c-2.1-1.2-3.6-2.8-3.5-5.4c0-0.9,0.3-1.8,0.8-2.6c3-4.8,6.2-9.4,10-13.6c1.9-2.1,4.2-3.5,7-4.2c1.5-0.4,3-0.8,4.5-1.2
	c1.6-0.4,2.3,0.1,2.2,1.7c-0.1,1.7-0.3,3.4-0.5,5.1c-0.1,0.9-0.6,1.7-1.2,2.3c-0.4,0.4-0.9,0.6-1.5,0.4c-1.7-0.4-3.2,0.2-4.3,1.5
	c-1.8,2.3-3.7,4.6-5.6,6.8c-0.6,0.7-0.1,0.9,0.3,1.3c4.8,3.7,9.7,7.3,14.5,11c1.4,1,2.6,2.3,4,3.3c2.1,1.5,2.9,3.6,3.1,6
	c0.3,3.2,0.1,6.3-0.9,9.3c-0.6,1.8-5.5,9.9-6.9,11.1C69,98.8,66.2,99.9,61.8,99.9z"/>
<path class="st0" d="M231.8,58.9c0,1-0.1,2.1-0.4,3.2c-1.8,5.3-3.5,10.6-7,15.1c-1.1,1.4-2.2,2.6-3.4,3.9c-1.3,1.5-1.2,2.4,0.1,3.8
	c2.6,2.8,5.7,3.4,9.3,2.3c3.1-1,6-2.6,8.9-4.1c1.1-0.6,1.6-0.4,2.2,0.6c1.1,1.9,0.9,3.4-0.8,4.9c-5.6,4.9-11.9,6.4-19,3.7
	c-2.6-1-4.9-2.3-7-4.1c-1.8-1.5-3.7-2.6-5.9-3.3c-2.4-0.8-2.6-1.8-1.2-3.8c0.9-1.2,1.2-2.6,1-4.1c-1-7.7,1.8-14.1,6.9-19.6
	c2.8-3.1,6.2-5.2,10.4-6c2.3-0.5,3.7,0.2,4.7,2.3C231.4,55.2,231.8,56.9,231.8,58.9z M217.8,74.3c0.2-0.4,0.3-0.6,0.5-0.9
	c1.5-3,3-6,4.4-9c0.3-0.6-0.3-1.2-1-1.1c-0.3,0-0.6,0.2-0.9,0.4C217.3,65.6,216,69.9,217.8,74.3z"/>
<path class="st0" d="M429.6,67.8c0-6.7,1.2-12.8,4.5-18.3c3.4-5.6,8.5-8.4,15.1-8.3c1.1,0,2.1,0.4,3.1,0.9c0.8,0.5,1.1,1.1,0.8,2
	c-0.6,1.8-1.7,3.3-3.2,4.4c-1.5,1.1-3.1,2.2-4.6,3.2c-4.9,3.1-7.1,7.7-7.5,13.3c-0.3,4.4,0.3,8.5,2.4,12.4c0.9,1.7,2.1,3.3,4,4.2
	c2.5,1.1,4.8,0.9,6.8-0.9c2.9-2.7,6.6-4.2,10.1-5.9c0.8-0.4,1.7-0.2,2.3,0.4c0.6,0.6,0.6,2.5,0.1,3.3c-0.7,1.1-1.4,2-2.3,2.9
	c-2.5,2.5-4.9,5-7.6,7.1c-4.2,3.3-8.4,3.6-13,1c-5.6-3.1-8.7-8-10.1-14.2C429.8,72.8,429.5,70.2,429.6,67.8z"/>
<path class="st0" d="M49,78.3c0,1.1-0.1,2.2-0.6,3.1c-1.9,3.8-4.3,7.4-7.6,10.2c-3.7,3.1-8.2,2.5-11.1-1.3c-1.3-1.6-2.2-3.5-3.3-5.3
	c-0.2-0.3-0.2-0.6-0.2-0.9c0.8-5.5,2.8-10.5,7.6-13.8c2.2-1.6,4.7-2.4,7.3-2.7c1.7-0.2,3.2,0.3,4.1,2c1.2,2,2.6,3.8,3.3,6.1
	C48.8,76.5,49,77.4,49,78.3z M35.5,83.1c0,1,0.2,1.9,0.5,2.8c0.3,0.8,0.7,0.8,1.3,0.4c2-1.3,3.5-2.9,4.1-5.2c0.6-2,0.3-3.8-0.9-5.4
	c-0.4-0.5-0.7-0.8-1.3-0.2C36.9,77.6,35.5,80,35.5,83.1z"/>
<path class="st3" d="M83,68.5c0-3.7,0-7.3,0-11c0-0.9,0.3-1.4,1.1-1.7c0.5-0.2,1-0.5,1.5-0.7c3.3-1.4,6.1,0.4,6.1,4
	c-0.1,6.6,1.5,13,2.1,19.6c0.3,3.4,0.8,6.7,1.3,10.1c0.1,1-0.2,1.9-0.5,2.8c-0.1,0.4-0.3,0.7-0.8,0.7c-1.2,0-2.5,0.1-3.7,0.1
	c-1.3,0-2.2-0.6-2.9-1.7c-3-4.2-4.2-8.9-4.1-14c0-2.7,0-5.4,0-8.1C82.9,68.5,83,68.5,83,68.5z"/>
<path class="st0" d="M271.7,55.2c0-3.6,1.4-22.4,1.3-26c0-0.7,0.2-1.1,0.8-1.4c0.8-0.3,1.5-0.8,2.3-1.1c2.8-1,5.4,0.5,5.5,3.5
	c2.6,11.7,2.8,55.3,3.7,65.4c0.1,0.6,0,1.2-0.1,1.8c-0.4,1.7-0.6,1.9-2.4,2c-4.5,0.1-4.5,0.1-6.8-3.8c-2.3-3.8-2.8-7.9-2.8-12.2
	C273.3,80.7,271.7,58,271.7,55.2C271.7,55.2,271.7,55.2,271.7,55.2z"/>
<path class="st4" d="M88.1,51.4c-1.2-0.2-2.9-0.4-4.5-0.8c-2.6-0.7-3.5-4.2-1.7-6.3c1.7-1.9,3.9-2.1,6.3-2c0.4,0,0.4,0.3,0.5,0.6
	c0.5,2.2,1,4.3,1.6,6.5C90.6,50.7,90,51.4,88.1,51.4z"/>
<path class="st5" d="M139,51c3.6,0.1,3.8,0.3,4,3.6c0.1,1,0.1,1.9,0.1,2.9c0,0.5-0.1,0.8-0.7,0.9c-1.8,0.2-3.7,0.3-5.4-0.3
	c-2-0.7-2.8-2-2.6-4.1c0.1-1.5,0.9-2.4,2.4-2.7C137.6,51,138.4,50.9,139,51z"/>
<path class="st6" d="M368.8,52.7c3.6,3.9,1.6,11.3-3.6,16.2c0-0.1-0.1-0.1-0.1-0.2C366.3,63.4,367.5,58.1,368.8,52.7z"/>
</svg>
