<?xml version="1.0" encoding="UTF-8"?><svg id="Layer_1" xmlns="http://www.w3.org/2000/svg" viewBox="0 0 200 200"><defs><style>.cls-1{fill:#163f58;}</style></defs><path class="cls-1" d="M142.31,152.1c-3.14,0-6.29,0-9.43,0-1.68,0-1.64,.03-2.04,1.63-1.09,4.42-3.04,8.44-5.84,12.04-4.07,5.25-9.32,8.82-15.59,10.81-3.75,1.19-7.62,1.58-11.6,1.31-5.4-.37-10.33-2-14.85-4.89-5.71-3.65-9.82-8.63-12.4-14.9-.63-1.53-1.16-3.09-1.42-4.7-.16-1.01-.6-1.32-1.55-1.31-4.18,.02-8.36,.01-12.54,0-3.21,0-6.43,.14-9.63-.21-3.81-.42-6.99-2.2-9.55-5-2.94-3.22-4.38-7.09-4.24-11.45,.07-2.28,.78-4.46,1.65-6.6,2.59-6.34,5.15-12.68,7.59-19.08,1.08-2.83,1.29-5.9,1.81-8.87,.48-2.76,.96-5.53,1.43-8.29,.7-4.1,1.39-8.2,2.07-12.3,1.28-7.78,3.28-15.31,7.38-22.17,6.36-10.64,15.34-18.2,26.8-22.84,2.71-1.09,5.54-1.85,8.38-2.53,.7-.17,.92-.47,.93-1.16,.06-4.85,4.46-8.99,8.98-9.5,5.4-.62,10.11,2.67,11.52,7.76,.09,.34,.11,.7,.13,1.06,.09,1.55,.23,1.8,1.73,2.1,6.93,1.42,13.19,4.37,18.96,8.37,4.39,3.04,8.2,6.72,11.5,10.96,3.8,4.87,6.62,10.24,8.6,16.06,1.13,3.33,1.88,6.78,2.34,10.29,.32,2.43,.86,4.83,1.28,7.24,.43,2.45,.83,4.9,1.26,7.35,.57,3.29,1.13,6.59,1.73,9.87,.29,1.6,.58,3.21,.92,4.81,.51,2.36,1.56,4.51,2.42,6.74,1.89,4.93,3.87,9.81,5.88,14.69,.87,2.1,1.5,4.27,1.44,6.53-.16,6.55-3.15,11.4-8.96,14.51-2.44,1.31-5.08,1.6-7.76,1.65-3.11,.05-6.21,.01-9.32,.01Zm-42.37-11.8c17.43,0,34.86-.04,52.29,.04,3.04,.01,5.22-2.94,4.07-5.95-1.43-3.73-2.94-7.42-4.43-11.13-2.36-5.88-4.99-11.65-5.74-18.05-.33-2.82-.94-5.6-1.4-8.41-.23-1.44-.49-2.88-.72-4.32-.52-3.23-1.2-6.43-1.77-9.64-.47-2.66-.82-5.33-1.48-7.96-1.34-5.34-3.71-10.16-6.95-14.58-3.58-4.88-8.07-8.74-13.33-11.71-4.07-2.3-8.44-3.82-13.02-4.65-3.37-.61-6.79-.72-10.23-.53-3.37,.19-6.64,.85-9.84,1.82-4.8,1.45-9.15,3.79-13.12,6.84-5.76,4.42-9.99,10.03-12.95,16.63-2.62,5.83-3.18,12.15-4.35,18.32-.46,2.41-.79,4.84-1.21,7.25-.58,3.36-1.26,6.71-1.77,10.08-.47,3.1-.88,6.24-1.99,9.16-2.57,6.76-5.29,13.47-8.07,20.15-1.46,3.5,.56,6.74,4.38,6.71,17.21-.15,34.43-.06,51.64-.06Zm.11,11.8c-5.89,0-11.78,0-17.68,0-1.4,0-1.48,.1-.98,1.37,3.46,8.86,12.71,14.41,22.48,12.39,7.04-1.46,11.83-5.66,14.66-12.19,.63-1.45,.54-1.57-1.02-1.57-5.82,0-11.64,0-17.46,0Z"/></svg>