<?xml version="1.0" encoding="utf-8"?>
<!-- Generator: Adobe Illustrator 16.0.4, SVG Export Plug-In . SVG Version: 6.00 Build 0)  -->
<!DOCTYPE svg PUBLIC "-//W3C//DTD SVG 1.1//EN" "http://www.w3.org/Graphics/SVG/1.1/DTD/svg11.dtd">
<svg version="1.1" id="Layer_1" xmlns="http://www.w3.org/2000/svg" xmlns:xlink="http://www.w3.org/1999/xlink" x="0px" y="0px"
	 width="32px" height="32px" viewBox="109 109 32 32" enable-background="new 109 109 32 32" xml:space="preserve">
<g>
	<g>
		<path fill="#E06431" d="M136.544,127.793c-0.236-1.835-0.324-3.689-0.565-5.524c-0.146-1.121-0.439-2.222-0.702-3.325
			c-0.012-0.049-0.024-0.097-0.037-0.146c-0.202,0.15-0.408,0.298-0.609,0.448c-0.012,0.008-0.244,0.188-0.268,0.203
			c-0.102,0.082-0.204,0.162-0.303,0.249c-0.16,0.142-0.312,0.288-0.457,0.443c0.134,1.035,0.27,2.071,0.465,3.095
			c0.469,2.45,1.051,4.879,1.604,7.315c0.276,1.217,0.661,2.408,0.4,3.692c-0.137,0.671-0.441,1.265-1.079,1.378
			c-2.264,0.4-4.536,0.764-6.819,1.021c-3.038,0.343-6.086,0.59-9.134,0.825c-0.349,0.027-0.87-0.179-1.055-0.451
			c-0.307-0.451-0.449-1.033-0.585-1.579c-0.46-1.84-0.875-3.69-1.331-5.534c-0.562-2.273-1.178-4.535-1.708-6.816
			c-0.393-1.682-0.731-3.378-1.009-5.082c-0.163-0.999,0.414-1.777,1.368-2.09c0.432-0.141,0.862-0.296,1.306-0.39
			c1.905-0.396,3.806-0.831,5.726-1.143c2.616-0.424,5.248-0.75,7.874-1.118c1.681,0.083,2.269,0.534,2.662,2.114
			c0.005,0.015,0.01,0.03,0.014,0.045c0.069-0.108,0.135-0.218,0.186-0.337c0.109-0.252,0.347-0.47,0.607-0.624
			c-0.607-1.452-1.29-1.889-3.67-1.827c-2.162,0.249-5.123,0.581-8.08,0.938c-1.41,0.17-2.825,0.329-4.219,0.599
			c-1.245,0.241-2.484,0.562-3.684,0.97c-1.192,0.403-1.604,1.469-1.766,2.609c-0.08,0.561-0.095,1.162,0.017,1.712
			c0.389,1.914,0.826,3.817,1.283,5.715c0.621,2.576,1.285,5.141,1.913,7.715c0.093,0.382,0.155,0.794,0.121,1.183
			c-0.082,0.94,0.812,1.41,1.001,2.21c0.026,0.107,0.098,0.213,0.101,0.319c0.063,1.814,1.368,1.945,2.607,1.808
			c2.736-0.308,5.462-0.706,8.197-1.018c0.608-0.07,1.241,0.121,1.858,0.096c0.642-0.026,1.281-0.162,1.92-0.267
			c1.423-0.235,2.838-0.559,4.271-0.705c1.66-0.169,2.489-1.001,2.631-2.635C137.775,131.745,136.806,129.834,136.544,127.793z"/>
	</g>
	<g>
		<path fill="#163F58" d="M137.627,111.25c0.555,0.003,1.054,0.504,0.928,0.894c-0.115,0.354-0.416,0.65-0.647,0.964
			c-0.078,0.105-0.2,0.177-0.288,0.277c-0.858,0.983-1.728,1.957-2.563,2.958c-0.757,0.908-1.471,1.852-2.215,2.771
			c-0.211,0.262-0.452,0.502-0.686,0.745c-0.923,0.958-1.908,1.864-2.749,2.888c-0.469,0.571-1.18,0.787-1.617,1.364
			c-0.076,0.101-0.428,0.117-0.543,0.03c-0.108-0.083-0.154-0.392-0.088-0.537c0.407-0.898,0.761-1.841,1.314-2.644
			c0.558-0.805,1.349-1.445,1.997-2.192c1.086-1.252,2.124-2.549,3.218-3.796c1.033-1.177,2.098-2.33,3.188-3.454
			C137.072,111.317,137.462,111.304,137.627,111.25z M132.622,118.52c0.014-0.016,0.025-0.034,0.037-0.053
			c0.856-0.92,1.719-1.837,2.566-2.767c0.581-0.637,1.198-1.254,1.688-1.957c0.327-0.465,0.722-0.996,0.521-1.625
			c-0.599-0.183-0.84,0.251-1.107,0.562c-1.312,1.522-2.596,3.067-3.903,4.594c-0.871,1.019-1.769,2.014-2.644,3.03
			c-0.269,0.312-0.156,0.6,0.257,0.629c0.219,0.017,0.524-0.032,0.657-0.176C131.362,120.035,131.983,119.271,132.622,118.52z
			 M128.988,121.243c-0.007,0.544-0.814,0.921-0.133,1.581c0.296-0.413,0.554-0.777,0.821-1.15
			C129.435,121.522,129.25,121.407,128.988,121.243z"/>
		<path fill="#163F58" d="M132.622,118.52c-0.585,0.538-1.169,1.078-1.754,1.613c-0.132,0.118-0.272,0.225-0.41,0.336
			c-0.04-0.041-0.078-0.083-0.118-0.125c0.367-0.394,0.751-0.774,1.103-1.183c1.058-1.238,2.107-2.484,3.152-3.734
			c0.479-0.573,0.945-1.156,1.402-1.748c0.13-0.168,0.215-0.375,0.304-0.571c0.172-0.377,0.396-0.417,0.762-0.092
			c-0.476,0.54-0.961,1.073-1.425,1.624c-0.394,0.465-0.761,0.953-1.145,1.425c-0.545,0.672-1.096,1.339-1.636,2.014
			c-0.089,0.112-0.132,0.258-0.198,0.388C132.647,118.486,132.636,118.504,132.622,118.52z"/>
	</g>
	<path fill="#06A7CA" d="M122.907,123.797c0.092-0.024,0.184-0.074,0.27-0.066c0.132,0.011,0.289,0.028,0.385,0.103
		c0.252,0.197,0.478,0.428,0.711,0.646c0.137,0.129,0.314,0.118,0.447-0.008c0.299-0.287,0.64-0.539,0.899-0.855
		c0.188-0.231,0.428-0.279,0.673-0.359c0.161-0.051,0.518,0.092,0.575,0.247c0.094,0.252,0.311,0.374,0.512,0.52
		c0.058,0.041,0.095,0.111,0.142,0.168c0.039,0.052,0.078,0.105,0.115,0.159c0.049,0.069,0.134,0.14,0.134,0.209
		c0,0.127-0.043,0.255-0.23,0.23c-0.042-0.006-0.091,0.045-0.097,0.049c-0.19-0.062-0.352-0.115-0.511-0.167
		c-0.073-0.064-0.165-0.127-0.232-0.207c-0.128-0.154-0.245-0.317-0.365-0.478c-0.083-0.112-0.159-0.084-0.243-0.002
		c-0.232,0.227-0.481,0.437-0.7,0.675c-0.179,0.196-0.486,0.325-0.417,0.684c0.004,0.023-0.166,0.124-0.229,0.103
		c-0.306-0.095-0.602-0.205-0.809-0.487c-0.137-0.188-0.328-0.336-0.494-0.503c-0.149-0.15-0.417-0.174-0.589-0.035
		c-0.12,0.096-0.223,0.215-0.337,0.32c-0.083,0.077-0.163,0.163-0.26,0.219c-0.303,0.174-0.222,0.564-0.468,0.79
		c-0.136,0.125-0.144,0.388-0.211,0.587c-0.058,0.171-0.172,0.188-0.349,0.146c-0.375-0.088-0.54-0.406-0.776-0.644
		c-0.251-0.252-0.46-0.547-0.729-0.775c-0.214-0.182-0.606-0.155-0.812,0.05c-0.181,0.18-0.386,0.338-0.559,0.524
		c-0.115,0.123-0.236,0.266-0.28,0.422c-0.066,0.23-0.154,0.386-0.409,0.435c-0.096,0.019-0.172,0.123-0.258,0.188
		c-0.018-0.012-0.036-0.025-0.055-0.038c0.123-0.254,0.246-0.507,0.37-0.76c0.01-0.02,0.031-0.035,0.038-0.056
		c0.105-0.336,0.451-0.478,0.623-0.748c0.198-0.312,0.583-0.344,0.804-0.612c0.081-0.101,0.561-0.013,0.663,0.102
		c0.231,0.259,0.451,0.528,0.685,0.786c0.15,0.165,0.325,0.307,0.474,0.471c0.15,0.167,0.257,0.083,0.336-0.047
		c0.149-0.246,0.295-0.496,0.409-0.758c0.118-0.274,0.358-0.431,0.545-0.639c0.093-0.103,0.193-0.199,0.297-0.291
		c0.076-0.067,0.167-0.118,0.243-0.185C122.873,123.881,122.89,123.828,122.907,123.797z"/>
</g>
</svg>
