<?xml version="1.0" encoding="UTF-8"?><svg id="Layer_1" xmlns="http://www.w3.org/2000/svg" viewBox="0 0 1691.5 1691.5"><defs><style>.cls-1{fill:#fff;}.cls-2{fill:#163f58;}</style></defs><rect class="cls-2" x="0" width="1691.5" height="1691.5" rx="615.81" ry="615.81"/><g><path class="cls-1" d="M1439.7,866.11c-.23-4.25-.8-8.51-1.66-12.67-6.02-29.22-11.57-58.56-18.49-87.57-3.32-13.91-9.02-27.27-14.14-40.7-2.81-7.37-6.94-14.22-9.94-21.52-5.56-13.51-9.97-27.53-16.23-40.7-13.74-28.9-27.09-57.7-49.46-81.94-22.77-24.68-46.47-48.25-71.43-70.56-12.36-11.05-25.67-21.4-39.79-30.04-18.82-11.51-36.45-24.32-52.49-39.37-10.08-9.44-21.54-16.61-34.43-21.43-17.47-6.52-35.1-12.62-52.5-19.32-29.73-11.44-59.32-23.27-89.02-34.79-7.57-2.93-15.34-5.33-23.03-7.93-21.46-7.27-43.86-5.3-65.88-6.01-29.23-.94-58.51-.28-87.77-.21-3.84,0-7.73,.24-11.51,.9-21.79,3.84-43.71,7.15-65.26,12.04-13.74,3.11-27.68,7.17-40.11,13.58-8.87,4.56-17.42,9.13-27.07,11.71-4.48,1.2-8.62,3.63-13.1,4.84-6.58,1.78-13.29,3.87-20.03,4.22-13.17,.68-26.43-.25-39.6,.41-13.05,.66-25.87,2.74-35.82,12.81-4.35,4.41-9.21,8.35-14.03,12.26-32.18,26.07-64.94,51.46-96.42,78.33-18.62,15.91-36.55,33.02-52.49,51.57-28.02,32.62-43.27,72.42-56.09,112.7-13.22,41.55-22.86,84.25-35.91,125.87-12.93,41.22-18.44,83.02-17.32,126.03,.6,23.14,.58,46.33-.12,69.47-.53,17.78,3.9,34.14,10.94,50.08,12.31,27.86,29.23,52.96,47.34,77.21,14.87,19.91,31.64,38.17,52.23,52.49,20.48,14.27,40.9,28.61,61.44,42.8,27.4,18.91,55.36,37.04,82.2,56.71,37.4,27.42,79.63,41.45,125.03,45.23,47.12,3.92,94.44,5.83,141.72,7.42,33.48,1.12,67.05,.64,100.56,.04,12.49-.21,25.12-1.9,37.36-4.46,33.89-7.07,66.19-19.3,98.6-31.22,27.17-10,53.09-22.41,78.13-36.76,2.73-1.56,4.4-1.66,6.94,.21,16.1,11.85,33.53,21.33,52.05,28.88,17.09,6.98,34.31,13.76,50.97,21.69,22.73,10.81,44.9,22.76,67.46,33.92,9.05,4.48,18.14,9.05,28.93,8,9.41-.91,18.66-8.26,18.64-17.71-.05-23.28,2-46.56-2.2-69.85-5-27.7-10.72-54.98-24.6-79.89-4.23-7.59-8.06-15.4-11.39-21.81,18.86-15.43,37.58-30.27,55.75-45.75,22.51-19.19,39.01-42.83,49.94-70.35,21.59-54.39,26.22-111.08,23.07-168.83Zm-44.63,53.84c-.82,33.47-9.65,65.39-21.23,96.51-7.9,21.23-20.47,39.61-38.01,54.31-10.11,8.48-19.62,17.8-30.42,25.27-11.25,7.79-23.26,14.86-35.79,20.31-14.53,6.32-18.61,21.98-11.49,36.36,8.19,16.53,17.59,32.46,26.32,48.72,8.46,15.74,13.08,32.69,15.67,50.32,1.41,9.57,3.48,19.06,5.46,29.69-16.02-7.87-30.56-15.48-45.5-22.24-19.41-8.77-39.09-16.96-58.73-25.19-19.03-7.98-36.53-18.26-52.47-31.53-10.14-8.45-22.31-7.07-33.34-1.64-14.73,7.25-28.69,16.05-43.33,23.49-10.82,5.5-22.07,10.26-33.38,14.72-37.03,14.57-74.16,28.97-113.39,36.72-8.09,1.6-16.55,2.09-24.82,1.99-57.67-.69-115.36-1.15-173.02-2.76-38.01-1.06-75.94-4.76-111.99-17.98-13.22-4.85-26.12-11.43-37.97-19.07-30.36-19.58-60.11-40.1-89.98-60.43-21.97-14.95-43.69-30.29-65.62-45.29-16.33-11.16-29.56-25.46-41.19-41.16-16.68-22.53-32.48-45.66-44.08-71.37-5.84-12.92-9.38-26.13-9.07-40.58,.53-24.97,.43-49.96,.04-74.94-.53-34.33,6.58-67.23,16.24-99.93,12.26-41.45,22.21-83.61,35.43-124.73,11.61-36.1,25.15-72.08,50.33-101.38,14.74-17.16,31.59-32.72,48.77-47.53,29.37-25.3,59.66-49.55,89.8-73.93,3.15-2.54,7.91-3.17,11.98-4.48,3.05-.98,6.21-1.62,9.31-2.45,6.16-1.67,12.23-4.41,18.47-4.84,11.32-.8,22.74-.55,34.11-.15,13.35,.48,25.58-3.08,37.7-8.25,7.43-3.17,15.47-4.85,23.17-7.42,3.43-1.14,7.39-2.07,9.92-4.39,11.09-10.2,25.04-12.99,38.96-15.74,19.51-3.87,39.1-7.31,58.68-10.78,3.98-.71,8.07-1.01,12.11-1,32.91,.05,65.82,.23,98.73,.35,19.09,.07,36.63,6.43,54.11,13.15,18.57,7.13,37.22,14.02,55.79,21.14,27.44,10.52,55,20.79,82.18,31.96,8.08,3.33,15.82,8.47,22.41,14.27,18.33,16.16,37.94,30.25,58.55,43.46,17.81,11.42,33.61,26.08,49.86,39.82,21.59,18.27,41.03,38.87,58.55,60.93,10.33,13.02,18.18,28.28,25.54,43.32,8.64,17.63,15.42,36.17,23.23,54.23,4.02,9.3,8.91,18.24,12.64,27.65,4.38,11.09,8.96,22.28,11.64,33.84,6.68,28.86,13.41,57.78,17.95,87.02,2.62,16.88,1.63,34.43,1.2,51.64Zm-373.25-117.37c-26.45,3.89-41.12,24.64-35.8,50.61,3.49,17.01,15.74,27,33.18,27.05,21.47,.08,41.85-20.17,42.48-42.18,.64-22.84-17.29-38.8-39.87-35.48Zm-182.3,4.77c-15.82,1.85-31.96,9.87-42.57,26.09-11.94,18.24-.59,42.61,20.82,46.87,4.12,.81,8.26,2.03,12.1,3.71,16,6.99,33.77,.12,40.65-15.94,1.67-3.92,3.39-7.82,4.96-11.77,9.46-23.79-7.15-48.74-35.96-48.95Zm-190.84,6c-16.97-.05-31.36,9.01-36.79,23.17-5.27,13.77-.77,30.44,11.2,40.86,4.12,3.6,8.42,7.02,12.85,10.23,10.59,7.65,25.23,7.91,35.22-.39,10.63-8.85,17.5-20.5,18.41-34.52,1.45-22.23-16.64-39.29-40.9-39.36Z"/><path class="cls-1" d="M1439.7,866.11c-.23-4.25-.8-8.51-1.66-12.67-6.02-29.22-11.57-58.56-18.49-87.57-3.32-13.91-9.02-27.27-14.14-40.7-2.81-7.37-6.94-14.22-9.94-21.52-5.56-13.51-9.97-27.53-16.23-40.7-13.74-28.9-27.09-57.7-49.46-81.94-22.77-24.68-46.47-48.25-71.43-70.56-12.36-11.05-25.67-21.4-39.79-30.04-18.82-11.51-36.45-24.32-52.49-39.37-10.08-9.44-21.54-16.61-34.43-21.43-17.47-6.52-35.1-12.62-52.5-19.32-29.73-11.44-59.32-23.27-89.02-34.79-7.57-2.93-15.34-5.33-23.03-7.93-21.46-7.27-43.86-5.3-65.88-6.01-29.23-.94-58.51-.28-87.77-.21-3.84,0-7.73,.24-11.51,.9-21.79,3.84-43.71,7.15-65.26,12.04-13.74,3.11-27.68,7.17-40.11,13.58-8.87,4.56-17.42,9.13-27.07,11.71-4.48,1.2-8.62,3.63-13.1,4.84-6.58,1.78-13.29,3.87-20.03,4.22-13.17,.68-26.43-.25-39.6,.41-13.05,.66-25.87,2.74-35.82,12.81-4.35,4.41-9.21,8.35-14.03,12.26-32.18,26.07-64.94,51.46-96.42,78.33-18.62,15.91-36.55,33.02-52.49,51.57-28.02,32.62-43.27,72.42-56.09,112.7-13.22,41.55-22.86,84.25-35.91,125.87-12.93,41.22-18.44,83.02-17.32,126.03,.6,23.14,.58,46.33-.12,69.47-.53,17.78,3.9,34.14,10.94,50.08,12.31,27.86,29.23,52.96,47.34,77.21,14.87,19.91,31.64,38.17,52.23,52.49,20.48,14.27,40.9,28.61,61.44,42.8,27.4,18.91,55.36,37.04,82.2,56.71,37.4,27.42,79.63,41.45,125.03,45.23,47.12,3.92,94.44,5.83,141.72,7.42,33.48,1.12,67.05,.64,100.56,.04,12.49-.21,25.12-1.9,37.36-4.46,33.89-7.07,66.19-19.3,98.6-31.22,27.17-10,53.09-22.41,78.13-36.76,2.73-1.56,4.4-1.66,6.94,.21,16.1,11.85,33.53,21.33,52.05,28.88,17.09,6.98,34.31,13.76,50.97,21.69,22.73,10.81,44.9,22.76,67.46,33.92,9.05,4.48,18.14,9.05,28.93,8,9.41-.91,18.66-8.26,18.64-17.71-.05-23.28,2-46.56-2.2-69.85-5-27.7-10.72-54.98-24.6-79.89-4.23-7.59-8.06-15.4-11.39-21.81,18.86-15.43,37.58-30.27,55.75-45.75,22.51-19.19,39.01-42.83,49.94-70.35,21.59-54.39,26.22-111.08,23.07-168.83Zm-44.63,53.84c-.82,33.47-9.65,65.39-21.23,96.51-7.9,21.23-20.47,39.61-38.01,54.31-10.11,8.48-19.62,17.8-30.42,25.27-11.25,7.79-23.26,14.86-35.79,20.31-14.53,6.32-18.61,21.98-11.49,36.36,8.19,16.53,17.59,32.46,26.32,48.72,8.46,15.74,13.08,32.69,15.67,50.32,1.41,9.57,3.48,19.06,5.46,29.69-16.02-7.87-30.56-15.48-45.5-22.24-19.41-8.77-39.09-16.96-58.73-25.19-19.03-7.98-36.53-18.26-52.47-31.53-10.14-8.45-22.31-7.07-33.34-1.64-14.73,7.25-28.69,16.05-43.33,23.49-10.82,5.5-22.07,10.26-33.38,14.72-37.03,14.57-74.16,28.97-113.39,36.72-8.09,1.6-16.55,2.09-24.82,1.99-57.67-.69-115.36-1.15-173.02-2.76-38.01-1.06-75.94-4.76-111.99-17.98-13.22-4.85-26.12-11.43-37.97-19.07-30.36-19.58-60.11-40.1-89.98-60.43-21.97-14.95-43.69-30.29-65.62-45.29-16.33-11.16-29.56-25.46-41.19-41.16-16.68-22.53-32.48-45.66-44.08-71.37-5.84-12.92-9.38-26.13-9.07-40.58,.53-24.97,.43-49.96,.04-74.94-.53-34.33,6.58-67.23,16.24-99.93,12.26-41.45,22.21-83.61,35.43-124.73,11.61-36.1,25.15-72.08,50.33-101.38,14.74-17.16,31.59-32.72,48.77-47.53,29.37-25.3,59.66-49.55,89.8-73.93,3.15-2.54,7.91-3.17,11.98-4.48,3.05-.98,6.21-1.62,9.31-2.45,6.16-1.67,12.23-4.41,18.47-4.84,11.32-.8,22.74-.55,34.11-.15,13.35,.48,25.58-3.08,37.7-8.25,7.43-3.17,15.47-4.85,23.17-7.42,3.43-1.14,7.39-2.07,9.92-4.39,11.09-10.2,25.04-12.99,38.96-15.74,19.51-3.87,39.1-7.31,58.68-10.78,3.98-.71,8.07-1.01,12.11-1,32.91,.05,65.82,.23,98.73,.35,19.09,.07,36.63,6.43,54.11,13.15,18.57,7.13,37.22,14.02,55.79,21.14,27.44,10.52,55,20.79,82.18,31.96,8.08,3.33,15.82,8.47,22.41,14.27,18.33,16.16,37.94,30.25,58.55,43.46,17.81,11.42,33.61,26.08,49.86,39.82,21.59,18.27,41.03,38.87,58.55,60.93,10.33,13.02,18.18,28.28,25.54,43.32,8.64,17.63,15.42,36.17,23.23,54.23,4.02,9.3,8.91,18.24,12.64,27.65,4.38,11.09,8.96,22.28,11.64,33.84,6.68,28.86,13.41,57.78,17.95,87.02,2.62,16.88,1.63,34.43,1.2,51.64Z"/><path class="cls-1" d="M875.48,856.3c-1.57,3.96-3.29,7.86-4.96,11.77-6.88,16.06-24.65,22.93-40.65,15.94-3.84-1.68-7.97-2.9-12.1-3.71-21.41-4.25-32.76-28.62-20.82-46.87,10.61-16.22,26.74-24.24,42.57-26.09,28.81,.21,45.42,25.16,35.96,48.95Z"/><path class="cls-1" d="M689.59,852.71c-.91,14.02-7.78,25.67-18.41,34.52-10,8.3-24.63,8.04-35.22,.39-4.44-3.21-8.73-6.64-12.85-10.23-11.97-10.43-16.47-27.1-11.2-40.86,5.43-14.16,19.82-23.23,36.79-23.17,24.26,.07,42.35,17.13,40.9,39.36Z"/><path class="cls-1" d="M1061.69,838.06c-.63,22.02-21.01,42.26-42.48,42.18-17.45-.05-29.7-10.04-33.18-27.05-5.33-25.97,9.35-46.73,35.8-50.61,22.57-3.32,40.51,12.65,39.87,35.48Z"/></g></svg>