<svg xmlns="http://www.w3.org/2000/svg" xmlns:xlink="http://www.w3.org/1999/xlink" width="76" height="84" viewBox="0 0 76 84">
    <defs>
        <path id="a481ho9cda" d="M0 0H76V84H0z"/>
        <path id="d6evv2c3nc" d="M0.22 0.235L3.156 0.235 3.156 8.131 0.22 8.131z"/>
    </defs>
    <g fill="none" fill-rule="evenodd">
        <g>
            <g>
                <g transform="translate(-194 -3342) translate(0 3128) translate(194 214)">
                    <mask id="w8t1o6qrgb" fill="#fff">
                        <use xlink:href="#a481ho9cda"/>
                    </mask>
                    <g mask="url(#w8t1o6qrgb)">
                        <g>
                            <path fill="#E27149" d="M26.812 60.687c-.578-.777-.988-.596-1.641-.1l1.641.1m-7.108-.617l2.745.229.062-.377c-.76-.175-1.517-.368-2.285-.5-.096-.016-.25.3-.522.648m-3.508-1.2c-.32-.206-.486-.352-.679-.432-.974-.4-2.165-.56-2.883-1.229-.948-.883-1.63-.58-2.647-.14.394.316.637.665.944.734 1.687.382 3.39.695 5.265 1.068M27.4 77.909l.304-.106c-.386-5.281-1.277-10.53-.928-15.91l-2.462-.485c.23 3.69.445 7.162-.132 10.214l3.218 6.287m-11.172-4.457l.3 1.51.21-.006c.192-.446.384-.893.6-1.402l-1.155-.058c.46-2.925.903-5.852 1.392-8.774.122-.722.39-1.42.586-2.13.22-.795.752-.981 1.603-.776.212 1.944-.094 3.853-.44 5.761-.341 1.883-.394 3.832-1.377 5.562 1.928.54 1.713.063 2.153 2.234.19.946.54 1.862.865 2.774.09.25.349.439.53.656l.302-.067c.12-1.039.234-2.079.363-3.117.125-1.007.105-2.073.45-3 .268-.725.391-1.402.385-2.142-.024-3.03-.475-6.064.088-9.138-1.682-.096-3.305-.326-4.909-.231-.998.058-1.926-.022-2.876-.237-.812-.182-1.635-.322-2.443-.522-.436-.109-.878-.253-1.27-.468-.619-.34-1.198-.755-1.78-1.129-.108.119-.156.147-.164.184-.031.134-.074.272-.07.406.095 2.271-.848 4.077-2.325 5.753-2.17 2.464-4.82 9.195-3.709 8.842 2.483-.837 3.63-2.773 4.285-4.787.614-1.893 1.152-3.788 2.065-5.566.523-1.018.667-1.108 2.027-.825l-2.407 6.823c.118.621.376 1.117.256 1.492-.472 1.477-.885 2.777-.56 4.233.06.276.315.92 1.008.986.891-.6 1.427-1.327 1.897-2.14 1.033-1.794 2.525-2.033 4.12-.7M7.341 1.498C6.894 1.04 7.587.272 8.431.027 9.278-.22 10.73 1.31 10.73 1.31c.926.515 1.781 1.16 2.663 1.755 1.65 1.115 3.259 2.298 4.954 3.338 1.898 1.166 3.316 2.788 4.667 4.496.976 1.233 1.93 2.483 2.908 3.713 2.334 2.939 3.095 6.324 3.001 10.01-.093 3.618-.58 7.171-1.295 10.712-.438 2.166-1.279 4.172-2.228 6.124-1.153 2.368-2.604 4.594-3.722 6.976-1.035 2.203-2.25 4.36-2.725 6.98 1.21.54 2.419 1.09 3.636 1.62.978.427 1.967.83 2.95 1.245.213.091.422.191.63.294 2.2 1.087 2.816 1.926 2.467 4.324-.47 3.23.124 6.39.304 9.575.092 1.621.303 3.235.448 4.853.03.323.02.651.007.975-.048 1.236-.517 1.97-1.37 2.153-.868.188-1.628-.243-2.214-1.314-.266-.487-.454-1.016-.687-1.522-.212-.46-.435-.912-.773-1.613-.316 1.004-.49 1.816-.827 2.554-.261.57-.646 1.145-1.121 1.546-.842.712-1.948.46-2.644-.52-.292-.414-.51-.883-.741-1.338-.231-.453-.436-.922-.749-1.589-.35.38-.649.687-.928 1.01-.475.55-1.058.9-1.79.967-1.144.106-1.641-.377-1.556-1.541.03-.414.168-.818.21-1.232.038-.351.009-.709.009-1.345-.646.68-1.1 1.175-1.57 1.652-.704.716-1.514 1.196-2.563 1.24-1.43.06-2.177-.47-2.396-1.908-.118-.768-.086-1.558-.129-2.486-.383.272-.675.466-.952.68-1.317 1.01-2.831 1.352-4.453 1.305-.888-.026-1.877-.176-1.764-.897 1.462-3.072 2.916-6.155 4.402-9.224.238-.492.612-.922.938-1.37.748-1.02 1.325-2.086 1.38-3.409.077-1.827.813-3.31 2.512-4.192 1.254-.651 2.597-.486 3.928-.414.229.012.456.093.686.109 1.27.088 1.972-.328 2.462-1.515.475-1.158.943-2.32 1.353-3.504.75-2.172 2.003-4.06 3.251-5.958 2.606-3.967 4.29-8.304 5.175-12.963.13-.68.429-1.33.527-2.01.165-1.137.24-2.286.332-3.432.022-.274-.084-.557-.065-.831.174-2.47-.725-4.754-1.313-7.074-.21-.831-1.041-1.497-1.557-2.26-.353-.52-.612-1.108-.984-1.615-.79-1.08-1.592-2.156-2.45-3.183-1.69-2.026-3.987-3.31-6.07-4.853-2.356-1.742-4.878-3.207-7.43-4.63 0 0 .326.182-.122-.275" transform="translate(18 -15)"/>
                            <path fill="#E26C3C" d="M23.828 83.467c.245-1.275 2.192-.78 2.056.233-.25 1.144.3 2.066.777 2.997.402.782.865 1.532 1.278 2.309.464.875.66 1.743-.367 2.618-.643.454-1.55-2.514-2.293-3.784-.768-1.312-1.33-2.733-1.451-4.373M10.577 90.588c-.903 0-.891-1.078-.46-2.08.47-1.093.75-2.266 1.13-3.398.205-.608.36-1.26.696-1.793.49-.78.975-.773 1.866-.055.391.551-1.725 4.421-2.62 6.64-.094.237-.232.686-.612.686M.529 88.29c-.22-.338-.105-.686.01-1.016.059-.13.212-.282.303-.365.237-.218.497-.411.757-.603 1.188-.878 2.314-1.811 3.207-3.016.64-.861 1.199-1.72 1.964-1.606 1.223.35-4.561 6.934-5.435 6.934-.228 0-.542-.11-.806-.328" transform="translate(18 -15)"/>
                            <g transform="translate(18 -15) translate(16.262 84.172)">
                                <mask id="2n7far1ppd" fill="#fff">
                                    <use xlink:href="#d6evv2c3nc"/>
                                </mask>
                                <path fill="#E27149" d="M.975 8.047c-.315.33-.656-.4-.685-.592-.066-.442-.148-1.038.081-1.341.672-.89.582-1.91.773-2.894.164-.846.476-1.672.81-2.47.11-.261.5-.405.893-.513.838-.136-.104 5.367-1.872 7.81" mask="url(#2n7far1ppd)"/>
                            </g>
                            <path fill="#E27149" d="M10.407 72.698c.035-.34.024-.565.085-.767.617-2.039 1.15-4.11 1.91-6.096.453-1.188 1.209-2.28 1.943-3.335.445-.636.544-.567 1.446-.402-.846 2.734-1.75 5.447-2.51 8.2-.412 1.494-1.634 3-2.874 2.4" transform="translate(18 -15)"/>
                        </g>
                    </g>
                </g>
            </g>
        </g>
    </g>
</svg>
