<svg xmlns="http://www.w3.org/2000/svg" xmlns:xlink="http://www.w3.org/1999/xlink" width="52" height="63" viewBox="0 0 52 63">
    <defs>
        <path id="11k0pq3hja" d="M0 0.563L51.82 0.563 51.82 61.71 0 61.71z"/>
    </defs>
    <g fill="none" fill-rule="evenodd">
        <g>
            <g>
                <g>
                    <g>
                        <g transform="translate(-617 -3559) translate(0 3128) translate(194 214) translate(423 217) translate(0 .042)">
                            <mask id="r6tp28bfyb" fill="#fff">
                                <use xlink:href="#11k0pq3hja"/>
                            </mask>
                            <path fill="#28ACC9" d="M20.58 29.553l-.901 3.584 1.816-.383-.916-3.201m.11-.75c2.577-1.333 3.869-1.238 4.766.25-.587.925-1.398 1.848-1.139 3.206.811-.163 1.62-.011 2.267-.652-.036-.331-.02-.66-.112-.956-.428-1.393-.855-2.789-1.357-4.156-.098-.268-.515-.571-.806-.592-1.09-.08-2.193-.062-3.31.464l-.309 2.435m4.074-4.71c-.513-2.675-.96-5.046-1.438-7.41-.035-.174-.308-.3-.488-.464-1.014.556-1.2 1.523-1.338 2.462-.147.994-.188 2.006-.233 3.013-.036.804-.007 1.611-.007 2.6 1.225-.071 2.242-.128 3.504-.202m6.441 6.73c-.3-.96-.588-1.773-.807-2.605-.368-1.399.153-2.01 1.55-1.926.671.041 1.348-.01 2.02.029.355.02.715.111 1.057.22.933.295 1.805.175 2.59-.39 1.13-.81 2.368-1.377 3.73-1.598 1.39-.227 2.798-.407 4.203-.469.922-.04 1.275-.497 1.597-1.557-2.23.226-4.062 1.288-6.076 1.531-2.004.243-3.995.6-5.99.92-2.015.322-4.026.66-6.177 1.013.164 1.598.387 3.117 1.093 4.527.276.554.703.667 1.21.304M7.397 33.612c.31-1.305.926-2.23 2.405-2.205.164.003.426-.344.488-.572.24-.874.974-1.181 1.669-1.513.565-.27 1.177-.437 1.758-.676 1.216-.5 2.26-.142 2.846.797v4.647c.432-.348.93-.543 1.032-.864.654-2.068.846-4.198.712-6.44-1.403.18-2.625.65-3.872 1.108-2.101.772-4.267 1.369-6.39 2.086-.86.29-1.717.625-2.115 1.589-.187.452-.588.713-1.115.615-.76-.141-1.254.282-1.61.829-.386.59-.654 1.258-.972 1.893 1.19-.468 2.61-.122 3.386-1.335.094-.148.511-.124.777-.115.308.01.613.092 1 .156M29.1 24.08c-.295-.885-.64-1.663-.808-2.478-.268-1.299-.411-2.623-.622-3.934-.529-3.294-.98-6.605-1.645-9.871-.258-1.263-.967-2.448-1.554-3.626-.325-.653-1.025-.817-1.682-.635-2.088.575-3.722 1.777-4.593 3.801-.61 1.422-1.106 2.896-1.6 4.364-.435 1.291-1.02 2.563-.616 4.004.091.324-.097.72-.12 1.084-.052.822-.078 1.646-.123 2.468-.09 1.644.341 3.293-.092 4.94-.092.352.068.772.118 1.222.408-.041.682-.037.94-.1 2.243-.546 2.254-.55 2.293-2.902.037-2.317.477-4.559 1.167-6.765.327-1.046 1.117-1.664 1.964-2.218.518-.34 1.037-.216 1.505.214.537.494 1.2.878 1.645 1.44.502.632.991 1.366 1.188 2.132.335 1.308.417 2.68.646 4.019.203 1.171 1.018 2.338 1.99 2.841m9.66 18.477c3.051-1.48 6.304-2.387 9.563-3.378.216-.92.108-1.784-.339-2.669-.273.105-.481.193-.695.266-1.469.505-2.934 1.023-4.413 1.501-.62.2-1.246.24-1.777-.58.608-.29 1.114-.58 1.652-.78 1.505-.564 3.032-1.071 4.53-1.65.295-.113.7-.432.72-.682.053-.697-.07-1.41-.128-2.193-1.2.438-2.196.933-3.249 1.148-.994.204-2.024.957-3.323.046 2.11-1.13 4.199-1.65 6.508-1.86-.256-1.556.043-3.087-.397-4.697-.263.196-.45.27-.534.407-.61.986-1.54 1.546-2.559 2.008-.627.285-1.214.666-1.851.92-1.787.708-3.55 1.531-5.4 2.012-2.078.541-4.24.749-6.365 1.114-5.105.878-10.21 1.762-15.314 2.646-.18.031-.374.044-.531.126-2.137 1.108-4.51 1.511-6.768 2.254-1.513.498-3.062.885-4.636 1.334-.098 1.075-.06 1.207.635 2.109 5.198-1.39 5.61-1.417 6.65-.367-.864.847-2.057.658-3.067.963-1.029.311-2.124.403-3.043.564.2 2.232.4 4.435.598 6.634 1 0 1.918-.071 2.82.02.932.093 1.848.344 2.77.527-.472 1.089-1.311 1.533-2.278 1.759-.926.216-1.867.364-2.893.559.132 1.503.083 2.953.415 4.307.795 3.235.566 3.169 3.904 3.537.228.025.462.04.689.02 1.872-.165 3.745-.337 5.617-.515 5.64-.538 11.187-1.59 16.608-3.231 3.689-1.116 7.327-2.396 10.988-3.607 1.698-.562 3.402-1.11 5.087-1.712 1.002-.358 1.073-.66.517-1.864-1.294 1.07-2.738 1.912-4.382 2.073-1.571.154-3.17.81-4.865.182 1.153-1.396 6.819-2.828 9.425-2.406-.082-1.072.28-2.119-.244-3.149-.383-.754-.435-1.547-.334-2.373.131-1.07-.147-2.03-.773-2.883-3.932 1.305-6.348 1.736-9.538 1.56M2.317 51.523c.283-.305.5-.48.636-.703.202-.33.477-.688.493-1.045.06-1.375.004-2.755.039-4.132.063-2.42-1.012-4.54-1.742-6.752-.078-.236-.33-.427-.528-.61-1.408-1.31-1.627-3.22-.475-4.824.669-.931 1.427-1.799 2.168-2.676.171-.203.413-.377.657-.484 2.85-1.237 5.7-2.471 8.565-3.673.479-.2.768-.464.837-.97.012-.091.07-.18.065-.267-.129-2.429.532-4.826.184-7.277-.35-2.472-.13-4.954.277-7.415.126-.77.122-1.574.341-2.315 1.172-3.97 3.78-6.5 7.77-7.621C22.995.369 24.36.626 25.68.97c1 .26 1.695 1.014 2.166 1.99.572 1.189 1.241 2.332 1.896 3.479.321.56.557 1.078.498 1.786-.051.605.237 1.243.398 1.861.169.652.396 1.29.543 1.948.44 1.96.854 3.925 1.274 5.89.077.356.148.716.196 1.077.123.901.254 1.801.336 2.706.048.533.008 1.075.008 1.802 1.18-.106 2.368-.113 3.513-.336 2.43-.474 4.9-.879 7.233-1.668 1.45-.49 2.766-.359 4.157-.201.699.079 1.312.37 1.514 1.004 0 .792-.047 1.587.008 2.375.246 3.565.5 7.13.792 10.691.285 3.472.604 6.942.944 10.408.13 1.321.34 2.635.555 3.945.36 2.216-.126 3.208-2.208 4.106-1.135.489-2.32.874-3.498 1.255-2.222.718-4.443 1.442-6.687 2.085-2.554.732-5.133 1.38-7.7 2.066-4.36 1.166-8.813 1.833-13.3 2.1-3.334.198-6.676.624-10.037.169-1.932-.262-3.085-.984-3.569-2.896-.448-1.768-.694-3.59-.962-5.399-.074-.5-.163-.872-.646-1.1-.238-.113-.433-.319-.788-.59" mask="url(#r6tp28bfyb)"/>
                        </g>
                        <path fill="#28ACC9" d="M16.26 43.305c-.232 1.118-.884 1.631-1.8 1.836-.624.14-1.262.23-1.897.306-1.132.138-2.268.241-3.401.369-.86.097-1.721.223-2.59-.425.215-.18.352-.373.536-.441 1.718-.632 3.437-1.268 5.171-1.853 1.318-.445 2.654-.727 3.981.208M19.002 45.999c.789-.847 1.83-1.056 2.83-1.265 1.342-.28 2.71-.44 4.066-.643 1.358-.203 2.715-.419 4.078-.58.457-.053.932.044 1.582.083-.218.37-.275.603-.396.645-.991.335-1.976.747-2.998.925-2.476.432-4.97.758-7.459 1.109-.554.078-1.161.35-1.703-.274M39.305 47.587c.812-.835 1.86-1.057 2.847-1.376 1.179-.38 2.388-.669 3.56-1.067.915-.31 1.778-.308 2.715.099-.02.631-.562.8-.941 1.059-1.48 1.002-3.15 1.437-4.915 1.585-.73.061-1.456.177-2.18.286-.445.068-.821.027-1.086-.586M18.514 38.744c1.827-.736 3.463-1.986 5.587-1.92.648.02 1.419-.02 1.606.718.178.707-.43 1.154-1.03 1.418-.659.293-1.337.64-2.034.721-.989.115-2.007.059-3.003-.027-.403-.036-.782-.343-1.171-.525l.045-.385M7.191 57.033c2.333-1.377 4.688-1.93 7.29-1.62.017.851-.303 1.396-1.102 1.672-1.636.564-3.328.59-5.021.504-.398-.02-.778-.363-1.167-.556M21.322 49.688c-1.285 1.569-2.796 1.672-4.299 1.708-.724.016-1.463-.095-2.172-.25-.244-.054-.565-.412-.579-.647-.012-.195.339-.537.586-.606 1.589-.447 3.204-.795 4.869-.659.47.04.925.257 1.595.454M25.693 49.529c.506-.645 1.062-.743 1.657-.852 1.801-.329 3.598-.687 5.381-1.1.708-.162 1.363-.543 2.066-.734.385-.105.82-.019 1.345-.019-1.294 1.706-7.044 3.17-10.449 2.705M37.8 38.167c-.157.995-.793 1.496-1.738 1.649-1.439.233-2.878.466-4.324.649-.243.031-.519-.194-1.086-.423 2.466-1.207 4.817-1.505 7.148-1.875M31.116 36.296c1.826-1.312 4.382-1.755 7.187-1.22-1.867 1.37-3.995 1.15-5.922 1.61-.566.136-.58.076-1.265-.39M27.971 54.315c.543-.673 1.365-.822 2.088-.866 1.298-.08 2.447-1.001 3.813-.713-.88 1.804-2.582 1.912-4.158 2.22-.615.12-.99-.08-1.743-.641M23.478 55.47c-1.201.716-2.593.708-3.922.912-.178.027-.481-.234-.584-.433-.066-.129.076-.467.224-.576.246-.183.563-.32.866-.365.855-.124 1.716-.228 2.577-.257.3-.011.608.22.912.34l-.073.378" transform="translate(-617 -3559) translate(0 3128) translate(194 214) translate(423 217)"/>
                    </g>
                </g>
            </g>
        </g>
    </g>
</svg>
