<svg xmlns="http://www.w3.org/2000/svg" xmlns:xlink="http://www.w3.org/1999/xlink" width="38" height="55" viewBox="0 0 38 55">
    <defs>
        <path id="1noa3gngga" d="M0.137 0.314L2.03 0.314 2.03 9.332 0.137 9.332z"/>
    </defs>
    <g fill="none" fill-rule="evenodd">
        <g>
            <g>
                <g>
                    <g>
                        <path fill="#DF6331" d="M12.094 13.634c.216-.593.636-.942 1.202-1.232 1.619-.828 3.232-.75 4.882-.139.6.223 1.204.422 1.866.457.83.044 1.528.434 2.082 1.067.305.347.633.65 1.057.873.555.294.755.863.697 1.449-.075.764.275 1.34.662 1.922.112.168.28.332.307.515.083.581.347 1.058.684 1.526.374.52.741 1.057 1.014 1.633.37.78 1.107 1.199 1.635 1.818.033.038.09.054.126.09.538.53.502.914-.122 1.382-.783.587-1.684.696-2.676.659-.385.441-.669 1.096-1.462 1.023-.026.458-.065.867-.069 1.278-.014 1.518-.683 2.599-2.147 3.21.217.535.025 1.016-.22 1.504-.097.189-.166.487-.081.65.11.213.037.307-.037.475-.07.16-.051.358-.08.624-.094.091-.347.23-.418.435-.065.186.08.44.106.666.037.331.058.665.069.998.011.357.002.715.002 1.094 1.182.447 2.401.568 3.643.597 1.122.027 2.213.18 3.13.941.23.192.539.333.833.395.753.158 1.315.608 1.798 1.147.602.672.76 1.518.646 2.384-.09.687-.076 1.31.268 1.942.336.618.04 1.319-.484 1.84-.407.403-.926.512-1.395.73-.266.124-.652-.01-.947-.026-.183.214-.328.546-.52.575-.335.052-.77.02-1.032-.164-.433-.305-.823-.31-1.309-.23-.461.076-.924.104-1.327-.357-.263-.3-.347-.431-.039-.69.076-.063.13-.153.214-.254l-.478-.928c-.74.426-1.489.5-2.265.105-.072.09-.157.159-.195.248-.42 1.005-1.22 1.407-2.26 1.437-.094.003-.232-.035-.277.013-.473.512-1.172.501-1.745.777-.66.318-1.198.179-1.633-.403-.09-.121-.193-.234-.297-.36-.633 1.086-.682.98-2.212.918-.409-.016-.816-.091-1.225-.103-.367-.01-.553-.172-.666-.518-.257-.79-.149-1.602-.061-2.38.112-.995.412-1.968.634-2.95.022-.1.093-.192.103-.292.105-1.073.907-1.622 1.652-2.211.285-.225.598-.415.868-.655.242-.215.516-.28.817-.37 1.126-.33 2.024-.984 2.526-2.083.082-.178.118-.401.103-.597-.099-1.236-.234-2.469-.32-3.705-.033-.464-.2-.818-.49-1.179-.986-1.221-1.687-2.59-1.953-4.155-.12-.713-.218-1.431-.355-2.142-.09-.477-.231-.944-.353-1.415-.026-.1-.072-.195-.099-.294-.513-1.851-1.398-3.555-2.101-5.33-.171-.433-.293-.886-.476-1.312-.242-.56.076-2.581.2-2.923M27.771 52.247c-.253.46-.493.83-.669 1.228-.19.435-.525.709-.928.882-.218.094-.565.155-.734.046-.44-.288-.977-.458-1.246-.998-.168-.337-.463-.61-.722-.939-.367.296-.614.586-.774.992-.265.673-.728 1.04-1.536 1.057-.952.02-1.632-.328-2.164-1.07-.043-.06-.112-.102-.173-.149-.019-.015-.048-.017-.12-.04-.19.112-.416.228-.623.374-1.004.703-2.39.5-3.154-.46-.236-.296-.502-.568-.777-.875-.46.455-.855.854-1.263 1.24-.13.123-.28.24-.444.306-.483.193-1.05-.256-.854-.725.355-.846.645-1.755 1.489-2.304.651-.423 1.55-.455 2.192-.021.414.28.818.577 1.307.923.577-.63 1.317-.966 2.24-1.165 1.066-.229 1.712.273 2.484.777.158-.144.305-.283.458-.412.726-.619 1.583-.73 2.48-.574.186.033.372.25.497.425.206.294.352.629.54.936.143.23.312.444.532.753.261-.481.492-.848.666-1.24.442-.99 1.34-1.07 2.216-1.057.796.013 1.315.517 1.55 1.287.011.035.072.055.145.11.257-.41.553-.8.761-1.23.351-.728 1.718-.913 2.29-.753.187.052.418.29.448.472.06.362.231.618.474.86.626.629.48 1.434.474 2.198-.003.3-.288.328-.521.355-.688.075-1.413-.304-1.735-.91-.107-.202-.195-.415-.326-.697-.36.496-.68.95-.766 1.515-.069.463-.326.67-.767.726-.811.104-1.545-.008-2.082-.702-.265-.344-.524-.692-.865-1.14M24.212 2.018c.736.452.328 1.898-.186 2.84-.428.784-.895 1.612-1.03 2.47-.16 1.006-.728 1.74-1.169 2.569-.045.086-.125.187-.209.212-.312.09-.68.482-.994.235-.164-.33-.091-.64.004-.961.42-1.408.833-2.818 1.237-4.23.064-.222.054-.463.109-.688.12-.5.206-1.018.402-1.489.385-.922.794-1.108 1.836-.958M0 17.018c.117-.73 1.718.302 2.167.316 1.238.038 2.475.337 3.706.466.913.095 1.39-.168 2.186.299.273.16.473.52.6.833.084.212-.079.386-.382.45-.918.189-1.802.129-2.73-.012-1.559-.236-2.88-.652-4.332-1.165C1.01 18.132 0 17.563 0 17.018M25.515 11.75c-.384-.613-.06-1.085.31-1.58.495-.66.904-1.383 1.38-2.059.43-.609.88-1.208 1.363-1.775.21-.245.507-.446.804-.581.495-.225.991-.486 1.69-.527.346 0 .572.279.572.401 0 .648-.41.712-.794 1.106-.63.646-1.284 1.269-1.885 1.939-.533.596-1.008 1.245-1.51 1.87-.048.061-.107.114-.149.18-.409.637-1.275 1.406-1.78 1.027M30.323 14.05c-.316-.76-.247-1.098.277-1.589.958-.897 1.893-1.818 2.867-2.696.788-.71 1.65-1.312 2.855-1.457.25 0 .472.284.392.44-.005.535-.097.607-.343.929-.154.201-.365.363-.562.529-1.003.84-2.001 1.686-3.018 2.51-.578.466-1.018 1.341-1.808 1.439-.184.023-.567.001-.66-.106" transform="translate(-218 -4073) translate(194 3831) translate(0 229) translate(24 13)"/>
                        <g transform="translate(-218 -4073) translate(194 3831) translate(0 229) translate(24 13) translate(15.552 .01)">
                            <mask id="x3to5bkoab" fill="#fff">
                                <use xlink:href="#1noa3gngga"/>
                            </mask>
                            <path fill="#DF6331" d="M1.215.314c.81 0 .833 1.505.81 1.63-.158.806.116 1.652-.253 2.438-.228.486-.26.998-.06 1.51.128.33.073.623-.054.962-.213.575-.317 1.19-.476 1.82-.098.793-.574.793-.765.402-.235-.503-.32-2.305-.264-3.915.044-1.285.01-2.573.01-4.007C.136.8.343.314 1.214.314" mask="url(#x3to5bkoab)"/>
                        </g>
                        <path fill="#DF6331" d="M10.77 2.336c.126.272.256.548.378.829.03.068.06.155.044.222-.254 1.097.046 2.127.309 3.18.217.87.284 1.778.424 2.716.083.498-.204.936-.342.984-.776.27-.84-.58-.988-1.38-.014-.076-.031-.153-.055-.226-.457-1.396-.926-2.788-1.363-4.19-.106-.338-.146-.71-.146-1.065 0-.63-.145-1.361.487-1.435.296-.034.77 0 1.253.365M2.342 9.173c.561-.72 1.142.232 1.79.728.591.451 1.24.832 1.882 1.21.734.431 1.482.842 2.24 1.229.458.234.76.602.991 1.029.082.153.102.425.018.558-.079.123-.35.208-.51.178-.374-.072-.741-.202-1.097-.346-1.735-.704-3.23-1.792-4.666-2.966-.14-.113-1.026-.87-.648-1.62M37.439 16.147c.032.58.005.305-.118.802-.053.215-.591.446-.834.531-1.284.448-2.58.861-3.877 1.268-.43.136-.877.218-1.336.33-.433 0-.474-.408-.322-.754.37-.461.94-.579 1.44-.818.624-.3 1.285-.546 1.858-.923.81-.534 1.702-.695 2.623-.81.28-.035.524.004.566.374" transform="translate(-218 -4073) translate(194 3831) translate(0 229) translate(24 13)"/>
                    </g>
                </g>
            </g>
        </g>
    </g>
</svg>
