<svg xmlns="http://www.w3.org/2000/svg" xmlns:xlink="http://www.w3.org/1999/xlink" width="55" height="61" viewBox="0 0 55 61">
    <defs>
        <path id="5z8x0q6i5a" d="M0 0L29.566 0 29.566 31.029 0 31.029z"/>
        <path id="nwsu801f5c" d="M0 0.173L24.189 0.173 24.189 59.76 0 59.76z"/>
        <path id="892npfqcwe" d="M0.21 0.147L14.392 0.147 14.392 12.412 0.21 12.412z"/>
    </defs>
    <g fill="none" fill-rule="evenodd">
        <g>
            <g>
                <g>
                    <g>
                        <g transform="translate(-722 -3118) translate(193 2699) translate(505 409) translate(24 10) translate(0 25)">
                            <mask id="bqysl3ldib" fill="#fff">
                                <use xlink:href="#5z8x0q6i5a"/>
                            </mask>
                            <path fill="#FFD129" d="M17.29 13.513c.151.253 1.605.696 2.39.825 1.002.165 1.982.413 2.845.972.844.547 1.153 1.15 1.245 2.203.018.218.409.562.515.762.1.188.26.344.364.53.285.512.4 1-.17 1.171-.524.27-.866.026-1.359-.243-.225-.122-.582-.7-.684-.989-.353-.608-.4-.827-.59-1.333-.151-.603-.675-.624-1.204-.985-1.889-.717-3.99-1.238-4.532-1.12 0 1-.015 2.006.004 3.011.025 1.378.03 2.76.126 4.133.139 1.967.087 3.95.46 5.901.035.179-.088.4-.171.585-.069.154-.278.295-.266.427.052.537-.317.89-.493 1.326-.121.301-.245.421-.57.282-.172-.074-.374-.076-.575-.113-.139-.37-.13-.737-.1-1.13.073-.965.144-1.937.104-2.9-.092-2.168-.255-4.333-.382-6.5-.035-.602-.04-1.207-.066-1.81-.045-1.011-.101-2.021-.14-3.032-.014-.37-.245-.497-.549-.503-1.436-.03-2.805.132-3.756 1.409-.309.415-.67.735-1.175.955-.327.143-.6.529-.637.99-.033.401-.147.795-.217 1.194-.076.428-.431.58-.757.732-.347.162-.66-.02-.704-.402-.122-1.052-.206-2.157.326-3.08.356-.616.77-1.287 1.416-1.705.65-.422 1.308-.83 1.962-1.247.068-.044.129-.1.264-.206-.564-.174-1.038.007-1.499.08-.912.147-1.82.336-2.718.552-.496.118-.973.32-1.455.495-.505.183-.994.416-1.51.557-.531.146-1.481.428-1.476-.447.062-.542 1.169-.732 1.75-1.077 1.378-.818 2.847-1.446 4.38-1.887.665-.192 1.399-.16 2.103-.202.289-.017.729.014 1.02.039.22 0 .184-.154.203-.194-.057-.651-.435-1.116-1.13-1.485-.266-.141-1.02-.639-1.232-.743-.558-.272-.425-.415-1.252-.634-.193-.09-.753-.358-.96-.378-.791-.078-1.804-.33-2.598-.388-.043-.004-2.064-.17-3.043-.476-.155-.049-.294-.171-.421-.282-.567-.499-.496-.887.235-1.148.3-.107.63-.13.95-.17 1.584-.197 3.194-.382 4.751-.03.959.216 1.95.534 2.777 1.144.357.263.652.416 1.048.823.377.328 1.427 1.528 1.516 1.303.09-.135-1.161-1.865-1.39-2.237C9.36 5.367 8.263 4.078 6.7 3.265c-.378-.197-.785-.372-1.2-.454-.38-.075-.933-.058-.843-.518.564-.694 1.53-.958 2.354-.665.916.327 1.751.815 2.54 1.376.42.299.85.611 1.186.995.999 1.139 2.134 2.186 2.607 3.703.087.281.28.53.42.794l.92 1.735c.037-.108.086-.212.108-.322.341-1.672.056-3.345-.013-5.016-.012-.292-.126-.587-.229-.868-.17-.465-.344-.933-.564-1.376-.276-.555-.603-1.086-.903-1.63-.13-.236-.247-.478-.385-.744.585-.325 1.024-.41 1.577.008 1.042.786 1.916 1.657 2.258 2.963.065.247.17.493.303.712.57.944.661 1.99.688 3.054.007.255.001.51.001.845.544-.338.881-.794 1.091-1.283.412-.96 1.165-1.617 1.96-2.17.539-.376 1.272-.493 1.935-.661.54-.137 1.11-.147 1.655-.272.681-.158 1.168.23 1.652.56.409.278.75.66 1.1 1.016.069.07.04.237.056.351-.335.347-.59.09-.871.087-.185-.002-.376-.069-.551-.138-.387-.151-.763-.24-1.192-.159-.547.103-1.108.15-1.665.18-.677.038-1.182.413-1.628.845-.524.507-1.01 1.063-1.451 1.643-.308.405-.518.885-.762 1.336-.286.53-.563 1.065-.838 1.6-.054.105-.083.223-.126.34.722-.235 1.392-.506 2.087-.664.765-.175 1.538-.293 2.348-.225.727.06 1.431.17 2.132.35.956.243 1.814.648 2.54 1.343.666.638 1.384 1.223 2.077 1.834.347.307.654.553.398 1.048-.453.5-.853.175-1.134-.105-.643-.32-1.424-.544-1.795-1.146-.638-1.04-1.556-1.609-2.65-1.922-.986-.282-2.01-.29-2.993.077-1.027.383-1.742.292-2.647.93-.19.134-1.145.532-.962.861" mask="url(#bqysl3ldib)"/>
                        </g>
                        <g>
                            <g transform="translate(-722 -3118) translate(193 2699) translate(505 409) translate(24 10) translate(22) translate(0 .067)">
                                <mask id="rg64a5fp3d" fill="#fff">
                                    <use xlink:href="#nwsu801f5c"/>
                                </mask>
                                <path fill="#FFD129" d="M15.54 55.529c.355-.26.253-.555.076-.869-.848-1.506-1.446-3.121-1.94-4.771-.302-1.007-.552-2.03-.795-3.052-.237-1.004-.445-2.015-.647-3.027-.066-.332-.075-.676-.113-1.046l-.85.063c.028.302.028.55.076.79.173.862.369 1.72.542 2.582.142.712.194 1.449.41 2.136.436 1.38.977 2.727 1.435 4.102.32.957.915 1.754 1.408 2.61.101.175.203.542.398.482m-.238-33.782c-.642-.057-.963-.433-1.169-.947-.042-.105-.115-.197-.169-.298-.315-.582-.515-1.192-.488-1.865.014-.339.003-.678.003-1.063-.595.156-.837.666-1.327.97.09.285.192.562.258.848.031.137.038.315-.025.43-.188.344-.784.434-1.086.18-.277-.232-.543-.477-.85-.75l-1.232.453c-.217 1.87.814 3.12 2.16 3.916.063.038.14.057.214.072.749.151 1.485.053 2.214-.13.118-.03.238-.13.315-.23.384-.498.753-1.008 1.182-1.586m-6.516-3.634c.765-.194 1.494-.356 2.209-.57.286-.084.59-.229.797-.436.757-.76 1.516-1.536 1.989-2.513.752-1.554 1.387-3.158 1.503-4.906.089-1.354.212-2.717-.274-4.035-.365-.993-.746-1.92-1.812-2.455-1.096-.55-2.117-.453-3.134.033-.937.446-1.701 1.146-2.339 1.964-.434.556-.603.31-1.015.884-.793 1.106-1.543 1.432-2.025 2.055-.047.118-.738 1.087-.81 1.23-.24.465-.21.87-.356 1.151-.061.123-.133.204-.142.293-.09.926-.328 1.83-.137 2.79.149.743.225 1.48.635 2.149.225.369.37.798.493 1.217.249.841.84 1.23 1.662 1.32.368.04.744.165 1.14.018-.053-.531-.087-1.036-.378-1.496-.204-.322-.124-.486.266-.562.257-.05.53-.032.797-.028.385.006.686.307.66.773-.024.401.077.755.27 1.124M7.5 19.908l-.912-.148-.188.784c-.025.102-.057.203-.068.306-.045.441-.412.571-.729.709-.278.12-.47-.102-.6-.32-.127-.211-.235-.438-.313-.67-.086-.26-.02-.476.243-.627.156-.09.28-.234.461-.392-.739-.349-1.418-.686-2.112-.99-.344-.15-.555-.38-.665-.73-.084-.27-.19-.533-.308-.853-.39.218-.614.02-.803-.269-.23-.35-.472-.694-.489-1.167.1-.055.2-.105.294-.162.447-.272.589-.566.456-1.069-.262-.991-.355-1.995-.284-3.016.023-.34.068-.679.107-1.052-.254-.047-.514-.085-.77-.144-.349-.08-.635-.245-.778-.605-.139-.347.1-.694.344-1.054.61-.3 1.095-.228 1.79.03L3.892 5.89c-.309-.32-.625-.642-.935-.97-.078-.082-.177-.177-.195-.278-.023-.135-.026-.362.05-.41.378-.237.724-.595 1.243-.462.056.014.116.01.17.026.843.237 1.319.771 1.842-.017.138-.207.504-.49.968-.961.335-.125.495-.29.853-.498-.053-.686.489-1.073.916-1.527.181-.191.406-.313.67-.184.275.135.559.282.555.66v.278l2.158-.4c.09-.204.192-.472.325-.722.108-.204.291-.324.525-.205.213.108.489.19.433.526-.031.185-.07.368-.117.61 1.213.265 1.933 1.203 2.838 1.988.185-.053.397-.138.617-.17.239-.036.501-.082.725-.02.54.15.665.688.25 1.068-.206.187-.476.321-.738.421-.476.183-.555.237-.441.696.281 1.138.42 2.292.437 3.475.243.095.48.164.694.278.271.144.321.394.103.606-.156.15-.37.256-.577.333-.208.078-.411.147-.444.392-.15 1.11-.624 2.118-.997 3.158l.484.509c.14.146.265.329.141.51-.097.143-.28.295-.438.312-.232.025-.477-.067-.75-.114-.412.675-.65 1.422-.652 2.242 0 .096 0 .193-.018.287-.218 1.153.054 2.205.667 3.182.106.169.26.308.411.485l.444-.414-.124-.625c-.501-.231-.793-.735-.74-1.277.031-.323.236-.528.514-.637.264-.104.545-.19.826-.218.315-.03.552-.164.728-.402.238-.322.487-.645.67-1 .485-.947 1.446-.905 2.13-.617.4.168.469.372.428.933.494.376.487.367.953-.013.265-.216.56-.395.842-.592.437-.304.65-.733 1.359-.949.494.356.166.678-.056 1.02-.108.166-.058.356.103.518.428.43.479.983.433 1.547-.035.443-.352.775-.807.827-.336.039-.682.033-1.022.012-.457-.03-.918-.063-1.366-.153-.25-.05-.486-.203-.709-.341-.207-.128-.389-.299-.634-.492-.051.166-.088.264-.11.365-.149.668-.282 1.339-.443 2.004-.134.554-.508.947-1.06.993-.553.046-.754.375-.932.792-.037.087-.058.184-.07.278-.134.99-.632 1.839-1.067 2.706-.529 1.052-.937 2.131-1.114 3.303-.076.504-.277.989-.416 1.484-.371 1.326-.712 2.653-.866 4.031-.125 1.125-.248 2.246-.198 3.377.014.315.024.505-.036 1.025.072.06.003 1.03-.02 1.18-.173 1.137.027 1.48.042 2.62.016 1.222.253 2.428.69 3.586.563 1.485 1.054 2.998 1.656 4.465.368.897.872 1.741 1.346 2.591.325.582.686 1.146 1.065 1.693.35.505.747.978 1.112 1.452.209.313-1.05.713-1.6.979-.49.236-.908.62-1.353.946-.586.426-1.163.865-1.751 1.287-.32.23-1.197.57-1.507.461-.326-.114.318-.623.52-.952.027-.045.42-.578.14-.548-.316.143-.501.336-.75.453-.39.182-.824.677-1.37.647-.36.167-.57.017-.604-.29-.031-.281.204-.521.524-.57.045-.007.486-.477.24-.54-.168-.092-.81-.01-.76-.46.116-.234.69-.428.89-.53.581-.102.581-.102 1.16-.14.36.1 1.31-.15 1.152-.323-.393-.734-.783-1.472-1.182-2.205-.766-1.405-1.322-2.89-1.71-4.438-.271-1.078-.56-2.153-.78-3.24-.218-1.069-.399-2.146-.397-3.246.001-.288-.158-.574-.223-.866-.053-.236-.115-.48-.106-.719.04-.938.167-1.877.143-2.813-.015-.575-.057-1.148.036-1.714.233-1.418.526-2.826.727-4.247.236-1.68.728-3.286 1.217-4.9.229-.751.476-1.489.789-2.208.209-.481.117-.647-.37-.805-.797-.258-1.573-.543-2.223-1.118-.485-.429-1.044-.774-1.552-1.18-.32-.253-.512-.59-.588-1.01-.113-.62-.28-1.23-.43-1.87" mask="url(#rg64a5fp3d)"/>
                            </g>
                            <g transform="translate(-722 -3118) translate(193 2699) translate(505 409) translate(24 10) translate(22) translate(17.76 42.787)">
                                <mask id="2rlfriu92f" fill="#fff">
                                    <use xlink:href="#892npfqcwe"/>
                                </mask>
                                <path fill="#FFD129" d="M.59.147c.421.123.557.417.701.785.457 1.17.802 2.405 1.555 3.429.494.673 1.106 1.26 1.678 1.873.247.266.513.517.792.748.277.228.555.48.878.623 1.294.573 2.631 1.023 4.01 1.354.422.1.82.304 1.222.479.258.112.496.269.751.388.57.265 1.15.508 1.716.781.26.125.518.296.498.638-.021.355-.217.63-.549.742-.396.133-.81.218-1.22.304-.26.053-.527.067-.79.101-.41.052-.74.026-1.07-.341-.67-.749-1.556-1.233-2.456-1.67-.6-.292-1.232-.527-1.815-.85-.566-.316-1.112-.68-1.623-1.079-1.89-1.477-3.16-3.431-4.12-5.59C.472 2.245.388 1.539.233.869.163.561.247.298.59.147" mask="url(#2rlfriu92f)"/>
                            </g>
                            <path fill="#FFD129" d="M19.933 35.41c.045-.815.086-1.734.151-2.652.016-.22.098-.439.17-.652.108-.32.41-.327.668-.346.287-.02.404.221.434.45.072.546.232 1.121.128 1.64-.17.845-.022 1.68-.103 2.51-.123 1.271.201 2.463.516 3.657.154.587.427 1.147.94 1.54.105.08.23.163.288.275.409.773 1.147 1.192 1.794 1.714.882.713 1.618 1.57 2.318 2.457.321.407.132 1.032-.369 1.128-.444.085-.906.084-1.36.103-.275.012-.453-.164-.617-.366-.658-.816-1.32-1.63-1.987-2.438-.45-.545-.975-1.04-1.35-1.63-.482-.754-.872-1.57-1.254-2.383-.352-.746-.314-1.575-.357-2.374-.045-.84-.01-1.687-.01-2.634" transform="translate(-722 -3118) translate(193 2699) translate(505 409) translate(24 10) translate(22)"/>
                        </g>
                    </g>
                </g>
            </g>
        </g>
    </g>
</svg>
