<svg xmlns="http://www.w3.org/2000/svg" xmlns:xlink="http://www.w3.org/1999/xlink" width="52" height="57" viewBox="0 0 52 57">
    <defs>
        <path id="kiy9lvciza" d="M0.182 0.055L23.807 0.055 23.807 49.732 0.182 49.732z"/>
        <path id="l2m4k29flc" d="M0 0.007L27.107 0.007 27.107 7.223 0 7.223z"/>
    </defs>
    <g fill="none" fill-rule="evenodd">
        <g>
            <g>
                <g>
                    <g>
                        <g transform="translate(-214 -2384) translate(0 1883) translate(194 490) translate(20 11) translate(27.6 .245)">
                            <mask id="cymhmx8d6b" fill="#fff">
                                <use xlink:href="#kiy9lvciza"/>
                            </mask>
                            <path fill="#658E3C" d="M13.12 35.1c.653-.086 1.23.12 1.814.326.262.092.564.068.926.103-.308-.714-.908-.628-1.376-.79-.518-.178-.948.016-1.363.361m-.766 9.364c-.36.285-.603.583-.916.705-.567.22-1.175.336-1.766.496-.558.152-1.026.021-1.412-.421-.151-.174-.34-.315-.558-.514l-.53 1.417c.149.045.351.084.35.11-.014.183.036.268.228.22.644-.163 1.308-.271 1.925-.506.8-.305 1.59-.478 2.437-.277.138.033.306.091.422.044.407-.169.727.04 1.086.162.501.17 1.015.375 1.643.215l-.446-1.317c-.903-.105-1.797.459-2.463-.334m-5.82-11c.426-.398.63-.992 1.348-.973-.042-.255-.037-.472-.115-.655-.228-.54-.495-1.054-.528-1.668-.016-.307-.235-.551-.642-.539-.304.01-.625-.044-.911-.144-.203-.071-.433-.231-.528-.415-.416-.804-.782-1.634-1.179-2.449-.078-.159-.2-.392-.33-.413-.506-.08-.574-.45-.638-.833-.16-.943-.31-1.887-.461-2.832-.104-.645-.22-.758-.868-.817-1.415-.13-1.871-.963-1.19-2.226.278-.515.413-1.056.547-1.617.21-.881.443-.915 1.024-1.982.226-.405.317-.848.448-1.17.311-.77.57-1.494.625-2.553.049-.775.443-1.805 1.51-2.165.234-.418.029-.732-.284-.99-.294-.242-.598-.485-.934-.66-.36-.188-.506-.463-.589-.838-.19-.868-.073-1.71.2-2.59-.02-.209-.15-.367-.32-.434-.343-.179-.694-.375-.975-.904-.004-.117-.019-.237-.05-.35-.186-.66.023-1.34.575-1.676.405-.246.866-.176 1.304-.079.18.04.343.151.526.235.326.187.679.659 1.053.714.563.68.609 1.718.088 2.456-.138.196-.29.387-.391.602-.387.816-.33.985.407 1.51 1.006.718 1.355 1.722 1.277 2.925.425.107.526.074.512-.29-.015-.402-.06-.819-.186-1.198-.209-.63-.245-1.272-.18-1.908.08-.775.307-1.511 1.047-1.921-.08-.406-.111-.769-.225-1.104-.2-.588-.093-1.133.147-1.669C8.157.71 8.55.526 9.507.845c.357.131.332 1.186.353 1.703.005.127.093.273.185.37.178.188.385.346.573.51.01.06.02.107.027.154.166 1.047-.353 1.676-1.264 2.065-.088.038-.182.061-.266.107-.39.213-.6.503-.536.989.072.542.1 1.094.102 1.642.002.565-.05 1.13-.082 1.797.14.101.383.28.66.482.284-.343.36-.73.402-1.125.082-.76.166-1.52.233-2.28.058-.653.368-1.115.956-1.407.32-.16.611-.387.94-.523.957-.395 1.012-.72.94-1.607-.077-.935.175-1.803.277-2.7.033-.29.248-.45.531-.517.604-.144 1.203-.31 1.81-.434.406-.083.918.156.98.408.124.507-.039.887-.494 1.13-.105.055-.222.087-.332.13-.41.164-.56.478-.57.905-.019.764-.065 1.528-.09 2.292-.023.68-.35 1.103-.992 1.338-.65.237-1.29.51-1.913.81-.186.091-.44.34-.427.495.11 1.228-.381 2.355-.516 3.594-.009.08.35.21.54.318.568-.814.9-1.647.987-2.615.051-.574.357-1.129.573-1.682.045-.115.183-.229.304-.27.446-.155.903-.28 1.375-.422.327-.91.694-1.869 1.705-2.217.877-.302 1.81-.654 2.78-.13.196.234.2.41.215.6.029.377-.4.571-.713.687-.31.115-.633.2-.952.29-.495.14-.905.418-.973.939-.156 1.192-.98 1.601-1.993 1.83-.117.027-.233.06-.348.091-.022.006-.04.024-.18.11-.118.548-.246 1.197-.402 1.838-.044.177-.132.398-.272.485-.601.376-.815.967-.966 1.608l.617 1.343c.086-.14.163-.22.19-.314.225-.804.408-1.622.67-2.413.374-1.13 1.195-1.551 2.368-1.284l.546.124c.111-.272.212-.532.323-.788.29-.67.666-1.273 1.326-1.643.122-.068.271-.16.393-.143 1.003.143 1.98.365 2.73 1.125.017.017.034.034.047.054.228.346.448.704.266 1.133-.123.288-.574.36-1.107.21-.183-.052-.36-.137-.545-.173-.28-.054-.566-.08-.896-.122-.394.684-.622 1.38-.274 2.164.123.278.196.605-.078.786-.186.122-.499.134-.732.085-.67-.142-1.335-.321-1.989-.527-.289-.09-.484-.025-.597.216-.171.365-.426.751-.422 1.125.015 1.067-.502 1.633-1.48 1.88-.092.024-.181.06-.271.094-.018.006-.03.03-.083.085v1.274c.183-.295.333-.513.458-.744.241-.449.61-.655 1.115-.624l1.964.116c.1-.168.24-.362.336-.577.437-.99 1.296-1.218 2.247-1.206.396.005.8.141 1.183.27.713.24 1.313.407.782 1.145-.238.218-.576.283-.826.321-.188.03-.382.017-.572.04-.644.08-.714.155-.769.799-.016.19-.006.387-.047.572-.183.821-.674 1.32-1.668 1.067-.637-.162-1.252-.407-1.87-.612-.858-.296-1.852 1.71-1.868 2.96.221.062.508.088.73.221.215.13.363.37.582.605.389-.426.758-.846 1.145-1.248.771-.798 1.718-.922 2.704-.558.59.219 1.168.52 1.63.98.083.082.159.177.22.277.17.28.251.587.066.882-.172.274-.476.292-.77.288-.072-.001-.158.008-.213-.026-.59-.369-1.316-.295-1.925-.594-.538.188-.834.498-.946 1.119-.105.586-.964.5-1.613.704-.248.556.225 1.5.525 2.063.694 0 .942-.11 1.47-.312.218-.083.416-.23.638-.293.872-.249 1.532-.236 2.277.68.089.108.17.223.238.312l2.162-1.04.089.343.562-.243.095.122-.659.692.61-.062c-.042.176-.03.344-.11.43-.7.754-1.4 1.513-2.388 1.91-.809.325-1.205.222-1.745-.467-.28-.356-.55-.718-.862-1.126-.546.216-1.07.427-1.598.632-1.309.509-1.68.364-2.34-.89-.199-.378-.415-.749-.627-1.12-.06-.105-.133-.2-.167-.25-.693.09-1.054.437-1.316.97-.326.665-.765 1.276-1.065 1.95-.299.668-.488 1.385-.718 2.083-.021.063-.02.154.009.211.42.8.305 1.678.374 2.53.017.207.07.411.11.645.677-.033 1.318-.09 1.958-.089 1.133.005 2.267.041 3.4.077.188.006.405.027.556.123.773.49 1.546.986 2.281 1.53.207.154.371.462.414.722.097.607.11 1.228.155 1.843.026.352.041.704.073 1.055.09 1.02.28 2.04.258 3.057-.028 1.254.221 2.46.405 3.678.04.27.18 1.587.027 1.728-.403.178-.59.366-1.003.512-.27.094-.594.194-.777.263-.442.1-.748.212-1.312.34h-1.204c-.184-.153-.49-.41-.81-.675-.284.27-.614.601-.966.906-.1.085-.264.102-.403.131-.958.2-1.924.367-2.874.598-.988.24-1.99.285-2.981.166-.757-.09-1.486-.062-2.226.059-.347.057-.603.12-.603.12-.6.186-.994.261-1.372.39-.56.284-1.118.288-1.816.321-.498.024-.82-.012-.983-.317-.308-.578-.516-1.228-.66-1.872-.25-1.118-.285-2.274-.446-3.402-.19-1.327-.173-2.626-.018-3.928.178-1.506.692-2.936 1.301-4.318.308-.698.78-1.42 1.439-1.72.632-.288 1.2-.741 1.893-.886.224-.047.473.004.707.035.281.037.56.1.806.145" mask="url(#cymhmx8d6b)"/>
                        </g>
                        <g transform="translate(-214 -2384) translate(0 1883) translate(194 490) translate(20 11) translate(0 25.145)">
                            <mask id="qs0umtvfqd" fill="#fff">
                                <use xlink:href="#l2m4k29flc"/>
                            </mask>
                            <path fill="#658E3C" d="M27.055 1.594c.302.75-.76 1.5-2.13 1.825-.256.06-.98-.078-2.049.2-.698.198-1.383.791-1.849 1.416-1.04 1.395-2.56 1.552-4.141 1.371-.305-.035-.593-.288-.87-.468-.136-.089-.23-.242-.343-.366-.602-.655-.81-.61-1.165.244-.32.773-.91 1.248-1.72 1.348-.636.079-1.297.08-1.931-.003-.599-.078-1.13-.386-1.499-.904L8.27 4.726c-.386.25-.816.432-1.117.741-.608.625-1.364.75-2.16.784-.306.014-.617-.057-.926-.088-1.139-.114-1.875-.78-2.368-1.755-.4-.79-.79-1.586-1.15-2.394C.346 1.565.212 1.088 0 .487.114-.28.993-.002 1.257.451c.066.112.391.74.507.825.468.712.825.974.946 1.701.13.782.748 1.25 1.371 1.77.526-.394 1.07-.781 1.592-1.197.746-.596 1.546-.924 2.526-.712.37.08.766.027 1.149.061.634.056 1.136.302 1.404.94.143.34.373.643.616 1.05.367-.339.668-.595.944-.876.666-.68 1.379-1.079 2.417-.967.992.106 1.936.21 2.796.939.241-.333.498-.612.663-.937.166-.328.394-.435.737-.45.74-.033 1.478-.085 2.217-.146.821-.066 1.506-.394 2.01-1.073.106-.141.293-.307.448-.313.75-.029 1.486-.21 2.256-.092.493.075 1.199.04 1.199.62" mask="url(#qs0umtvfqd)"/>
                        </g>
                        <path fill="#658E3C" d="M9.57 22.154c-.336.223-.51.49-.62.851-.114.38-.285.76-.514 1.082-.329.463-.864.673-1.4.723-.413.038-.842-.11-1.265-.16-.594-.072-1.188-.148-1.784-.191-1.08-.079-2.291-1.058-2.558-2.094-.135-.522-.065-.702.48-.811.626-.127 1.27-.23 1.906-.224.638.006 1.202.292 1.593.842.093.132.215.243.322.363.523-.125.702-.562.875-.925.384-.807.965-1.2 1.852-1.373.831-.163 1.614-.078 2.416.037.404.059.64.316.59.762-.052.453.121.777.347 1.127.15.234.295.513.314.78.038.517.307.895.597 1.272.209.27.42.263.63-.018.142-.19.23-.424.382-.606.212-.254.43-.529.702-.7.387-.244.705-.517 1.013-.867.338-.386.929-.48 1.445-.368.786.171 1.553.428 2.327.65.342.097.561.301.703.646.113.276.338.505.58.851.227-.384.466-.665.57-.989.239-.747.84-.993 1.489-1.203.111-.037.243-.02.35-.066.28-.119.598-.422.815-.359.724-.127 1.311.196 1.924.473.147.066.362.281.362.557-.124.269-.284.47-.62.512-.423.054-.837.204-1.26.227-.56.03-.963.226-1.143.777-.148.45-.288.901-.422 1.355-.179.607-.48 1.042-1.16 1.22-.49.128-.93.339-1.434.078-.308-.159-.574-.324-.626-.706-.013-.103-.068-.23-.147-.287-.364-.264-.47-.66-.54-1.057-.105-.584-.583-.865-.973-1.182-.144-.117-.574-.018-.786.118-.29.187-.496.503-.74.763-.373.395-.72.821-1.127 1.176-.8.695-1.925.702-2.89-.064-.69-.55-1.357-1.143-1.963-1.783-.28-.296-.389-.752-.611-1.209M28.976 31.468c-.513.615-1.21.533-1.817.697-.066.018-.143.001-.215.005-1.095.046-1.234.15-1.57 1.262-.16.531-.566.768-1.047.867-.889.183-1.785.34-2.684.463-.371.05-.658.191-.804.512-.652 1.43-1.905 1.695-3.282 1.727-.594.013-1.116-.207-1.624-.502-.871-.505-1.362-.4-2.068.32-1.073 1.093-2.378 1.476-3.867 1.129-.358-.084-.686-.317-1.018-.499-.544-.297-1.088-.596-1.616-.92-.353-.216-.639-.107-.919.113-.356.28-.708.568-1.059.856-.43.352-.456.871-.56 1.36-.057.276-.129.552-.227.815-.134.358-.392.523-.79.434-.384-.086-.727-.343-.718-.7.017-.761.105-1.521.176-2.28.011-.114.066-.242.142-.326 1.007-1.102 2.421-2.12 4.105-1.313.495.238.971.516 1.455.779.23.125.45.275.688.384.346.16.667.149 1.006-.093.703-.5 1.473-.909 2.148-1.44.88-.695 1.802-.668 2.777-.34.496.167.973.39 1.473.543.14.043.381-.021.486-.126.182-.182.284-.441.436-.656.567-.796 1.203-1.454 2.294-1.484.591-.016 1.184-.159 1.765-.294.177-.04.348-.22.468-.377.302-.4.572-.825.858-1.237.532-.765 1.27-1.024 2.176-.912.473.059.951.083 1.428.106.642.032 1.44-.223 1.792.412.073.132.212.394.212.715M45.375 52.088c-.578.025-1.142-.038-1.734.145-.632.194-1.349.164-2.026.142-.904-.03-1.788-.121-2.7.075-1.018.22-2.055.433-3.125.218-.355-.07-.757.029-1.125.106-1.159.245-2.297.573-3.51.435-.543-.061-.9-.315-1.084-.776-.191-.479.057-.874.402-1.202.281-.267.586-.445 1-.487.66-.068 1.32-.19 1.964-.347.837-.206 1.69-.216 2.525-.155.478.035.893-.093 1.324-.175 1.27-.244 2.536-.423 3.831-.205.198.033.417-.074.628-.1.707-.084 1.415-.159 2.122-.241.13-.015.31-.002.379-.08.478-.53 1.087-.4 1.676-.36.474.03.946.082 1.418.13.403.042.813.056 1.205.146.61.14 1.124 1.09.903 1.666-.161.417-.564.588-.963.663-.723.136-1.456.22-2.187.317-.306.04-.616.057-.923.085M30.223 55.863c.113-.747.49-1.07 1.222-1.071 1.382-.004 2.764-.063 4.145-.118.596-.024 1.19-.113 1.785-.142 1.193-.059 2.387-.104 3.581-.14.522-.017 1.045.012 1.567 0 .188-.004.378-.055.56-.104.51-.138 1.006-.175 1.546-.11.803.095 1.615.112 2.397.344.225.066.448.147.658.248.294.143.527.35.48.721-.048.375-.192.73-.579.835-.568.155-1.154.252-1.736.354-.21.036-.43.011-.645.02-1.11.043-2.22.108-3.33.127-1.27.02-2.538-.017-3.808.003-.953.015-1.906.122-2.86.115-1.025-.007-2.054-.062-3.075-.168-.563-.059-1.094-.292-1.529-.696-.099-.092-.24-.14-.38-.218" transform="translate(-214 -2384) translate(0 1883) translate(194 490) translate(20 11)"/>
                    </g>
                </g>
            </g>
        </g>
    </g>
</svg>
