<svg xmlns="http://www.w3.org/2000/svg" xmlns:xlink="http://www.w3.org/1999/xlink" width="42" height="50" viewBox="0 0 42 50">
    <defs>
        <path id="vcsk44cnpa" d="M0 0.447L41.114 0.447 41.114 48.96 0 48.96z"/>
    </defs>
    <g fill="none" fill-rule="evenodd">
        <g>
            <g>
                <g>
                    <g>
                        <g>
                            <g transform="translate(-838 -3474) translate(0 3083) translate(814 173) translate(0 203) translate(24 15) translate(0 .033)">
                                <mask id="90plcwisib" fill="#fff">
                                    <use xlink:href="#vcsk44cnpa"/>
                                </mask>
                                <path fill="#00A6CA" d="M16.328 23.447l-.715 2.843 1.441-.303-.726-2.54m.087-.596c2.044-1.057 3.069-.982 3.78.2-.465.733-1.108 1.465-.903 2.543.644-.13 1.285-.009 1.799-.517-.029-.263-.017-.524-.09-.76-.339-1.104-.677-2.212-1.075-3.296-.079-.213-.41-.453-.64-.47-.866-.064-1.74-.05-2.627.368l-.244 1.932m3.232-3.737c-.407-2.122-.761-4.004-1.141-5.88-.028-.137-.244-.237-.387-.367-.805.441-.952 1.209-1.061 1.953-.117.789-.15 1.592-.186 2.39-.028.639-.005 1.28-.005 2.064.972-.057 1.779-.102 2.78-.16m5.11 5.338c-.238-.76-.467-1.406-.64-2.066-.292-1.11.121-1.595 1.23-1.528.532.033 1.07-.007 1.602.023.282.016.567.088.839.174.74.234 1.432.14 2.055-.309.896-.643 1.879-1.092 2.959-1.268 1.103-.18 2.22-.323 3.335-.372.731-.032 1.011-.394 1.267-1.235-1.77.179-3.223 1.022-4.821 1.215-1.59.192-3.17.475-4.752.73-1.599.255-3.195.523-4.901.803.13 1.268.307 2.473.867 3.592.219.44.558.53.96.241M5.87 26.667c.246-1.035.735-1.769 1.908-1.75.13.003.338-.272.387-.453.191-.693.773-.937 1.324-1.2.448-.214.934-.347 1.395-.536.965-.397 1.794-.113 2.258.631v3.688c.343-.277.738-.431.819-.686.519-1.641.67-3.331.565-5.11-1.113.144-2.083.516-3.072.88-1.667.612-3.386 1.086-5.07 1.654-.682.23-1.362.497-1.678 1.26-.149.36-.467.567-.885.49-.602-.113-.994.223-1.277.657-.305.468-.519.998-.771 1.502.944-.371 2.07-.097 2.686-1.06.075-.117.406-.098.617-.09.244.008.486.072.794.123m17.219-7.562c-.234-.702-.508-1.32-.64-1.967-.214-1.03-.327-2.08-.494-3.12-.42-2.614-.778-5.24-1.306-7.832-.204-1.002-.767-1.942-1.233-2.877-.258-.518-.813-.648-1.335-.504-1.656.457-2.952 1.41-3.643 3.016-.485 1.128-.878 2.297-1.27 3.462-.345 1.025-.809 2.033-.488 3.177.072.257-.077.571-.095.86-.042.652-.062 1.306-.098 1.958-.07 1.305.27 2.613-.073 3.92-.073.279.053.612.094.969.323-.033.54-.03.746-.08 1.779-.433 1.788-.435 1.818-2.302.03-1.838.379-3.617.926-5.367.26-.83.886-1.32 1.558-1.76.412-.269.823-.171 1.195.17.426.392.951.697 1.305 1.142.398.502.786 1.084.942 1.692.266 1.038.33 2.127.513 3.188.16.93.807 1.856 1.578 2.255m7.665 14.66c2.42-1.176 5.001-1.894 7.587-2.681.171-.73.086-1.415-.269-2.117-.217.083-.382.153-.551.21-1.166.401-2.328.812-3.502 1.192-.492.159-.988.19-1.41-.46.483-.232.884-.46 1.311-.62 1.194-.447 2.405-.85 3.595-1.308.234-.09.555-.344.57-.542.042-.553-.055-1.118-.101-1.74-.952.348-1.742.74-2.578.911-.789.162-1.606.76-2.637.036 1.675-.895 3.332-1.31 5.164-1.475-.203-1.234.034-2.45-.315-3.727-.209.156-.356.215-.423.324-.484.781-1.222 1.225-2.03 1.592-.499.226-.964.529-1.47.73-1.417.562-2.816 1.215-4.284 1.597-1.648.429-3.364.593-5.05.883-4.05.697-8.1 1.398-12.15 2.1-.142.024-.297.035-.42.1-1.696.88-3.579 1.199-5.37 1.788-1.201.395-2.43.702-3.678 1.058-.078.853-.049.958.503 1.673 4.124-1.103 4.45-1.124 5.276-.29-.685.672-1.632.522-2.433.764-.816.246-1.686.319-2.415.447l.475 5.263c.793 0 1.522-.056 2.237.016.74.074 1.466.273 2.199.418-.375.864-1.041 1.217-1.808 1.396-.735.171-1.482.289-2.296.443.105 1.193.066 2.343.33 3.418.63 2.566.449 2.513 3.097 2.805.18.02.367.032.547.017 1.485-.131 2.97-.268 4.456-.41 4.475-.426 8.876-1.261 13.176-2.563 2.927-.885 5.814-1.9 8.718-2.861 1.348-.446 2.7-.881 4.036-1.359.796-.284.852-.523.41-1.479-1.026.85-2.172 1.517-3.476 1.645-1.246.123-2.514.643-3.86.144.915-1.107 5.41-2.243 7.478-1.908-.065-.85.222-1.681-.193-2.499-.304-.598-.346-1.227-.266-1.882.104-.85-.117-1.611-.613-2.287-3.12 1.035-5.036 1.376-7.567 1.237M1.839 40.877c.224-.242.396-.38.504-.557.16-.262.378-.546.391-.829.048-1.091.003-2.186.031-3.278.05-1.92-.803-3.603-1.382-5.357-.062-.188-.262-.339-.419-.484-1.117-1.04-1.291-2.555-.377-3.828.53-.739 1.133-1.427 1.72-2.123.136-.16.328-.3.522-.384 2.26-.981 4.522-1.96 6.795-2.914.38-.159.61-.368.664-.77.01-.072.055-.142.052-.212-.103-1.926.421-3.828.146-5.773-.278-1.961-.103-3.93.22-5.883.1-.611.096-1.249.27-1.837.93-3.149 2.999-5.157 6.164-6.046 1.104-.31 2.187-.106 3.235.167.793.207 1.345.805 1.719 1.58.454.942.984 1.85 1.504 2.76.255.444.442.855.395 1.417-.04.48.188.986.316 1.476.134.518.314 1.024.43 1.545.35 1.555.678 3.114 1.011 4.673.061.283.118.569.156.855.097.715.201 1.429.266 2.147.039.423.007.853.007 1.43.936-.085 1.878-.09 2.787-.267 1.928-.376 3.887-.697 5.738-1.323 1.15-.39 2.195-.285 3.299-.16.554.063 1.041.294 1.2.797 0 .628-.036 1.259.007 1.884.195 2.828.397 5.657.628 8.482.226 2.755.48 5.508.75 8.258.103 1.048.27 2.09.44 3.13.285 1.757-.1 2.545-1.752 3.257-.9.388-1.84.694-2.776.996-1.762.57-3.524 1.144-5.304 1.654-2.027.581-4.073 1.095-6.11 1.64-3.459.925-6.992 1.454-10.552 1.665-2.645.157-5.297.495-7.963.134-1.533-.207-2.447-.78-2.831-2.297-.356-1.403-.551-2.848-.764-4.284-.058-.396-.129-.691-.512-.873-.189-.089-.344-.252-.625-.468" mask="url(#90plcwisib)"/>
                            </g>
                            <path fill="#00A6CA" d="M12.901 34.357c-.184.888-.701 1.295-1.428 1.457-.495.111-1.001.182-1.506.243-.897.11-1.799.191-2.698.292-.682.077-1.365.178-2.054-.336.17-.144.279-.297.425-.35 1.363-.502 2.726-1.006 4.103-1.47 1.045-.353 2.105-.577 3.158.164M15.076 36.494c.626-.672 1.452-.837 2.245-1.003 1.065-.221 2.15-.348 3.227-.51 1.077-.16 2.154-.332 3.235-.46.363-.043.739.035 1.255.066-.173.293-.218.479-.314.511-.787.267-1.568.593-2.379.734-1.964.343-3.943.602-5.917.88-.44.062-.922.277-1.352-.218M31.184 37.755c.645-.662 1.476-.84 2.26-1.092.935-.302 1.894-.53 2.824-.846.726-.247 1.41-.245 2.154.078-.016.501-.446.635-.747.84-1.174.795-2.5 1.14-3.9 1.258-.579.049-1.154.14-1.729.227-.353.053-.652.021-.862-.465M14.689 30.739c1.45-.584 2.748-1.576 4.433-1.523.514.016 1.125-.016 1.273.57.142.56-.34.915-.816 1.125-.523.231-1.06.507-1.614.571-.785.091-1.592.047-2.383-.021-.32-.029-.62-.272-.929-.417l.036-.305M5.706 45.25c1.85-1.094 3.719-1.532 5.783-1.287.014.676-.24 1.108-.874 1.327-1.298.448-2.64.469-3.984.4-.315-.016-.617-.288-.925-.44M16.917 39.421c-1.02 1.246-2.218 1.328-3.41 1.355-.575.014-1.162-.074-1.724-.198-.194-.043-.448-.326-.46-.513-.01-.155.27-.426.465-.48 1.26-.355 2.542-.631 3.863-.523.373.03.734.203 1.266.36M20.385 39.295c.401-.511.842-.59 1.314-.675 1.43-.261 2.855-.545 4.27-.873.561-.129 1.08-.431 1.64-.582.304-.083.65-.015 1.066-.015-1.027 1.353-5.589 2.514-8.29 2.145M29.99 30.28c-.124.79-.63 1.188-1.379 1.31-1.141.184-2.283.37-3.43.514-.193.025-.412-.153-.862-.335 1.956-.958 3.822-1.194 5.672-1.488M24.687 28.797c1.449-1.041 3.477-1.393 5.703-.968-1.482 1.087-3.17.912-4.7 1.278-.448.107-.46.06-1.003-.31M22.192 43.093c.43-.535 1.083-.653 1.657-.688 1.03-.062 1.941-.794 3.025-.565-.699 1.431-2.049 1.517-3.299 1.761-.488.095-.785-.063-1.383-.508M18.627 44.009c-.953.568-2.057.562-3.111.723-.141.022-.382-.185-.463-.343-.053-.102.06-.37.177-.457.196-.145.447-.254.687-.29.679-.098 1.361-.18 2.045-.204.238-.008.482.175.723.271-.018.1-.038.2-.058.3" transform="translate(-838 -3474) translate(0 3083) translate(814 173) translate(0 203) translate(24 15)"/>
                        </g>
                    </g>
                </g>
            </g>
        </g>
    </g>
</svg>
