<svg xmlns="http://www.w3.org/2000/svg" xmlns:xlink="http://www.w3.org/1999/xlink" width="31" height="59" viewBox="0 0 31 59">
    <defs>
        <path id="rf3al5nsaa" d="M0.001 0.483L30.469 0.483 30.469 57.765 0.001 57.765z"/>
    </defs>
    <g fill="none" fill-rule="evenodd">
        <g>
            <g>
                <g>
                    <g>
                        <g transform="translate(-217 -3463) translate(0 3128) translate(194 214) translate(23 121) translate(0 .45)">
                            <mask id="wn9o4pvleb" fill="#fff">
                                <use xlink:href="#rf3al5nsaa"/>
                            </mask>
                            <path fill="#658E3C" d="M24.048 3.739c-.745-.24-1.416-.528-2.118-.67-4.217-.846-8.26.335-12.3 1.221-1.237.273-2.162 1.334-3.077 2.893 1.297-.123 2.109-.106 2.874-.29 2.334-.565 4.687-.707 7.082-.624 1.78.063 3.566-.022 5.348-.112 1.252-.065 2.096-.67 2.19-2.418m.321 3.908L5.332 9.355c.306 2.305.513 2.66 2.659 2.75 2.673.11 5.364.071 8.036-.083 1.92-.111 3.852-.383 5.719-.834 1.59-.383 2.908-1.271 2.622-3.54m1.612 27.78c-.204-.687-.351-1.318-.58-1.918-.743-1.944-1.543-3.864-2.262-5.816-.435-1.18-.637-2.456-1.161-3.588-.732-1.585-1.184-3.176-1.184-4.935.001-2.04-.13-4.078-.206-6.16-1.841.204-3.536.412-5.236.575-1.768.17-3.541.3-5.528.463-.127 1.962-.306 3.876-.362 5.792-.135 4.52-1.137 8.797-3.343 12.768-1.477 2.659-2.405 5.415-1.729 8.534.235 1.08.183 2.222.275 3.334.21 2.523.359 5.052.662 7.564.237 1.96 1.075 2.616 2.992 2.453 2.593-.222 5.206-.386 7.756-.867 2.307-.435 4.698-.886 6.353-2.905 2.108-2.578 3.692-5.417 4.332-8.701.32-1.641.453-3.323-.439-4.948-1.825 2.025-3.222 2.724-5.464 1.917-.01-3.461 1.141-4.294 5.124-3.562m-2.707-23.12c.187 2.717.167 5.493.626 8.188.42 2.467 1.232 4.89 2.096 7.253.84 2.296 1.96 4.492 2.966 6.727 2.733 6.067 1.641 11.649-2.384 16.686-1.074 1.344-2.64 2.51-4.225 3.189-4.382 1.875-8.959 3.086-13.774 3.399-4.22.273-6.809-2.958-7.55-5.953-.389-1.57-.395-3.24-.496-4.87-.175-2.82-.17-5.655-.466-8.462-.279-2.653.336-4.996 1.76-7.183 1.097-1.683 2.112-3.366 2.567-5.395.278-1.25 1.124-2.364 1.623-3.577.22-.536.324-1.17.291-1.747-.13-2.215-.332-4.424-.52-6.768-.515-.238-1.106-.515-1.7-.785-1.638-.745-2.495-1.995-2.667-3.807-.075-.77-.372-1.548-.7-2.26-.474-1.037-.307-1.9.52-2.605C3.477 2.436 5.77.76 8.976.892c1.92.079 3.858-.203 5.785-.356C18 .28 21.125.982 24.233 1.724c2.234.533 2.352.86 2.419 2.998.065 2.066.193 4.03-1.294 5.67-.582.64-1.276 1.18-2.085 1.917" mask="url(#wn9o4pvleb)"/>
                        </g>
                        <path fill="#658E3C" d="M16.13 36.373c.12-2.283 1.845-3.384 3.078-4.726.591-.644 3.071.355 3.44 1.257.119.288.086.745-.069 1.016-1.175 2.064-3.843 3.116-6.449 2.453M12.274 46.204c1.612 1.142 1.764 1.598.919 3.045-.822 1.408-1.978 2.413-3.683 2.508-.455.025-.928-.234-1.558-.41.981-2.299 1.98-4.285 4.322-5.143M15.885 33.236c-.248.47-.317.815-.528.968-.948.689-1.885 1.425-2.924 1.95-.974.49-2.513-.435-1.785-1.761.521-.949 1.09-1.921 1.85-2.664.284-.279 1.247-.087 1.77.163.612.29 1.082.88 1.617 1.344M15.848 29.358c-.124-1.37.218-2.726 1.43-3.367 1.352-.718 2.668-.052 3.754.9-.951 2.663-2.387 3.34-5.184 2.467M9.112 44.064c.207-2.89 1.26-4.043 3.262-3.707 1.023.17 1.376.787.985 1.715-.656 1.554-2.176 2.3-4.247 1.992M25.55 41.904c-.715 1.818-1.211 3.195-1.803 4.529-.227.517-.596 1.027-1.031 1.383-.512.422-1.312.033-1.27-.616.13-2.05 1.028-3.803 2.425-5.264.22-.229.882-.032 1.678-.032M14.341 52.87c.315-2.033 1.15-3.522 2.779-4.484.324-.192.948-.243 1.212-.053.246.177.32.786.253 1.167-.345 1.97-2.03 3.376-4.244 3.37M20.083 42.184c-1.07 2.041-1.91 3.68-3.956 4.337-.382-1.823.569-4.084 1.943-4.57.486-.171 1.132.115 2.013.233M16.203 22.8c-.639.59-1.035 1.142-1.574 1.402-.547.266-1.234.248-1.862.342-.047.007-.156-.09-.155-.133.044-.614-.043-1.29.192-1.821.335-.754.972-1.396 1.918-1.002.486.202.855.686 1.481 1.212" transform="translate(-217 -3463) translate(0 3128) translate(194 214) translate(23 121)"/>
                    </g>
                </g>
            </g>
        </g>
    </g>
</svg>
