<svg xmlns="http://www.w3.org/2000/svg" xmlns:xlink="http://www.w3.org/1999/xlink" width="56" height="42" viewBox="0 0 56 42">
    <defs>
        <path id="zj2nnxcyna" d="M0.759 0L55.897 0 55.897 41.354 0.759 41.354z"/>
    </defs>
    <g fill="none" fill-rule="evenodd">
        <g>
            <g>
                <g>
                    <g transform="translate(-986 -3580) translate(0 3128) translate(194 214) translate(792 238)">
                        <mask id="kmbclpx6eb" fill="#fff">
                            <use xlink:href="#zj2nnxcyna"/>
                        </mask>
                        <path fill="#E26C3C" d="M47.425 6.161l1.103 1.77c.724-1.297.724-1.297-.134-2.317-.285.162-.582.329-.97.547M5.344 26.931c-1.101.82-1.24 1.912-1.607 2.865-.42 1.086-.21 1.587.684 2.293.686.542 1.309 1.167 1.96 1.755.232.21.462.423.7.626.874.741 1.753 1.478 2.627 2.22.368.314.726.638 1.09.956-.605-1.906-1.74-3.345-3.157-4.616-1.703-1.529-2.807-3.37-2.297-6.1m9.063 10.901c2.83-.583 4.953-2.26 7.104-3.793 1.61-1.147 2.986-2.627 4.495-3.925 3.814-3.282 7.579-6.63 11.667-9.564.922-.661 1.595-1.468 2.267-2.34.439-.567.989-1.061 1.546-1.515 1.38-1.124 2.824-2.17 4.186-3.315 1.38-1.163 1.626-2.653.91-4.286-.442-1.01-1.012-1.965-1.435-2.983-.342-.821-.82-.88-1.615-.702-2.82.63-5.22 2.095-7.544 3.72-.662.462-1.272.817-2.15.725-.504-.052-1.15.171-1.562.492-3.09 2.397-6.687 3.899-10.026 5.849-2.215 1.292-4.487 2.484-6.665 3.835-2.267 1.407-4.455 2.948-6.67 4.44-.982.66-1.947 1.346-3.015 2.085 2.165.64 3.802 1.711 5.107 3.364 1.537 1.944 2.411 4.153 2.933 6.546.097.441.29.861.467 1.367m37.57-29.903c.219 1.489-.605 2.53-1.663 3.485-.32.29-.757.739-.73 1.082.19 2.51-1.297 4.02-3.02 5.391-.822.652-1.743 1.174-2.561 1.83-.324.258-.742.777-.675 1.078.165.748-.244 1.074-.674 1.458-1.099.979-2.121 2.066-3.312 2.912-1.66 1.18-3.454 2.169-5.176 3.265-.748.475-1.484.98-2.181 1.53-2.182 1.725-4.346 3.471-6.511 5.22-.732.591-1.435 1.224-2.167 1.817-.61.494-1.192 1.065-1.88 1.412-1.816.919-3.636 1.868-5.543 2.556-2.214.798-4.392.347-6.212-1.138-2.472-2.018-4.799-4.215-7.255-6.253C.595 32.06.537 30.086 1.01 28.103c.308-1.295.92-2.655 1.783-3.64.933-1.065 2.26-1.831 3.518-2.541 2.275-1.285 4.636-2.417 6.942-3.648.74-.394 1.486-.633 2.31-.828 1.139-.27 2.196-.942 3.249-1.514 3.45-1.869 6.913-3.714 10.307-5.68 1.984-1.15 3.853-2.504 5.754-3.793.385-.26.677-.653 1.028-.97.423-.384.807-.874 1.304-1.102 2.181-1.002 4.363-2.076 6.89-1.357.34.096.824.185 1.07.019 1.673-1.13 3.974-.887 5.398-2.546.505-.586 1.134-.555 1.862-.426.728.13 1.34.381 1.68 1.011.595 1.107 1.117 2.255 1.638 3.4.347.759.106 1.277-.654 1.661-1.015.514-1.98 1.127-3.112 1.78" mask="url(#kmbclpx6eb)"/>
                    </g>
                </g>
            </g>
        </g>
    </g>
</svg>
