<svg xmlns="http://www.w3.org/2000/svg" xmlns:xlink="http://www.w3.org/1999/xlink" width="41" height="57" viewBox="0 0 41 57">
    <defs>
        <path id="ver2f0ohsa" d="M0 0.279L40.052 0.279 40.052 55.849 0 55.849z"/>
        <path id="d2mdglvtgc" d="M0.29 0.212L1.52 0.212 1.52 0.72 0.29 0.72z"/>
    </defs>
    <g fill="none" fill-rule="evenodd">
        <g>
            <g>
                <g>
                    <g>
                        <g transform="translate(-218 -1802) translate(194 1417) translate(0 374) translate(24 11) translate(0 .08)">
                            <mask id="6ta0rl65zb" fill="#fff">
                                <use xlink:href="#ver2f0ohsa"/>
                            </mask>
                            <path fill="#6B9149" d="M16.886 10.366l-.168.013.052.535.147-.01-.03-.538zM6.09 29.126c.544.402.95.27 1.277.103.306-.155.294-.492.114-.868l-1.391.765zM1.912 19.87c.147.755-.48 1.705.693 2.333-.157-.883-.333-1.631-.693-2.333zm11.51 2.377c.167.444.287.767.44 1.179.561-.55 1.277-.69 1.72-1.339-.757-.201-1.363.136-2.16.16zm13.102 10.131l.182.102c.225-.146.45-.292.606-.391-.123-1.07-.232-2.03-.34-2.991l-.07-.004-.378 3.284zM11.798 25.82c-.448.31-.983.54-1.438 1.077l2.37.389c-.188-.617-.2-1.222-.932-1.466zm20.615-.017c-.432.062-.707.166-.69.637.04 1.112.05 2.224.076 3.336.002.075.05.15.105.3l.644-.374c-.482-1.314-.159-2.6-.135-3.9zm-6.661 1.183c1.236.388 1.899.19 2.632-.738-.485-.038-.97-.055-1.448-.122-.453-.064-.865-.435-1.401-.198l.217 1.058zm-.432 6.441c.7-.49.708-.488.763-.935.118-.962.232-1.926.334-2.89.02-.202-.022-.41-.036-.623-.554.06-.66.352-.69.779-.057.82-.18 1.634-.269 2.452-.039.363-.06.728-.102 1.217zM11.33 23.183c-.738.59-1.252 1.255-1.73 1.945-.217.314-.152.643.23.917.424-.273.842-.57 1.286-.818.481-.268.611-.639.457-1.146-.08-.265-.145-.535-.243-.898zm10.34 14.049l-.185.113c.039.424.066.849.119 1.27.042.336.115.667.17.983.96.194 1.613.168 2.183-.089l-2.286-2.277zm11.95-12.228c-.407.169-.71.244-.7.662.029 1.191.055 2.382.086 3.705l1.404-.717c-.923-1.088-.716-2.332-.79-3.65zm-5.074 6.583v-3.604c-.903.18-1.05.258-1.026.71.053.972.15 1.943.236 2.913.007.074.068.144.117.245l.673-.264zm-6.656-7.711c-.886-1.067-2.009-1.619-3.294-1.838-.441-.075-.958-.16-1.307.306.469.603 1.968 1.096 4.6 1.532zm8.3 1.587c-.483-.44-.936-.565-1.44-.504-1.184.141-2.176-.416-3.138-.951-.64-.357-1.258-.646-2.012-.669.549.522 1.072 1.033 1.614 1.525.094.084.26.102.398.126 1.27.22 2.538.446 3.811.638.214.032.45-.092.767-.165zm-22.345 1.21c.516-1.181.645-2.42 1.587-3.488l-3.066.478c.683.991.466 2.242 1.48 3.01zm9.41 3.964l-.056.213 2.912 2.445.125-2.833-2.981.175zm-3.952-1.787l.055-.187c-.113-.12-.208-.32-.34-.35-1.339-.29-2.682-.554-4.065-.833l-.517 1.608 4.867-.238zm16.747-.766l.165-.008c.06.791.118 1.583.186 2.374.006.07.073.136.14.254l.57-.27v-3.91l-1.97 1.093v3.716l.909-.383v-2.866zM1.755 10.065l-.181-.01c-.078.403-.211.805-.221 1.21-.04 1.607-.02 3.211.404 4.78.086.316.168.634.268 1.012l1.19-.604c-.286-1.133-.57-2.184-.813-3.245-.238-1.042-.433-2.095-.647-3.143zm13.488 13.621c.947.53 1.927.728 2.905.946 1.616.36 3.28.568 4.75 1.427.156.091.355.11.55.166.014-.863-.02-.93-.634-1.17-.24-.095-.488-.168-.736-.235-1.795-.49-3.608-.918-5.376-1.49-.607-.197-.967-.066-1.46.356zm6.156 4.85l.037-.174c-1.914-.768-5.892-1.829-6.485-1.73.164 1.316.472 1.64 1.736 1.816.284.039.572.081.858.084 1.285.008 2.57.004 3.854.004zm5.927-11.379c-.589.068-.687.078-.95.534-.58 1.011-.772 2.12-.798 3.282l2.833.455-1.085-4.27zM16.6 2.937c-.062 2.704.622 5.302.892 7.928.919.211 1.217-.481 1.685-1.022-.326-.737-.693-1.483-.987-2.257-.296-.777-.507-1.585-.775-2.372-.259-.759-.352-1.579-.815-2.276zm6.883 25.065l.198-.253c-.144-.173-.254-.416-.439-.507-1.132-.557-2.282-1.057-3.514-1.386-1.685-.451-3.44-.697-5.01-1.534-.097-.052-.255.013-.43.027l.287 1.298c.183.053.318.111.456.13 2.148.28 4.197.935 6.242 1.614.725.24 1.473.41 2.21.61zm8.446-3.693c-.172-.117-.231-.175-.303-.203-2.234-.864-4.569-1.33-6.92-1.733-.648-.111-1.286-.283-1.928-.427l-1.173-.264c.562.691 1.22 1.058 2.084 1.091.87.034 1.639.353 2.391.859.64.43 1.46.719 2.228.797.82.086 1.548.31 2.302.7l1.319-.82zM3.44 17.204l-1.444.764L3.2 22.63c.84.097 1.573.28 2.423.06-.744-1.867-1.447-3.635-2.183-5.486zm17.295-.687l1.193 4.106 2.115.17c.087-.666.126-1.265.253-1.844.13-.592.347-1.164.566-1.874-1.468.517-2.686.041-4.127-.558zm-17.21 7.087c.5 1.757 1.148 3.346 2.166 4.82.68-.349 1.323-.627 1.805-1.081-.44-1.072-.842-2.085-1.279-3.082-.091-.21-.292-.497-.472-.521-.699-.093-1.409-.095-2.22-.136zm1.606 5.23c-.664-1.566-1.363-2.984-1.856-4.47-.282-.85-.739-1.369-1.608-1.748.592 2.446.42 4.888.644 7.364 1.077-.168 1.964-.657 2.82-1.146zM20.62 30.57c.13.91.352 1.748.344 2.584-.009.978.486 1.6 1.116 2.214.638.622.788.652 1.624.18l-.324-5.2c-.888.07-1.764.142-2.76.222zM8.11 22.301l-2.088-6.063-1.753.706c0 .17-.036.323.006.448.447 1.32.534 2.73 1.182 4.009.76 1.501.702 1.542 2.337 1.054.08-.024.153-.073.317-.154zm6.842-20.024c-.09-.425.173-1.007 1.017-.545-.89-.686-1.818-.724-2.937-.463 1.012 2.862.921 5.845 1.29 8.778l-.387-.826-.135.05.543 2.811 1.882-.713c-.458-3.065-1.058-6.04-1.273-9.092zm-9.19 13.137l-2.084-9.47c-.378.513-.749.944-1.038 1.424-.338.561-.693 1.153-.15 1.814.077.093.036.278.061.42.303 1.724.592 3.45.921 5.17.089.461.3.899.464 1.375l1.826-.733zM10.16 1.918c.207.43.4.699.465.996.16.726.305 1.463.37 2.203.064.73-.026 1.475.042 2.206.078.82.23 1.636.398 2.443.16.766.683 1.421.498 2.306-.122.583.3.826.871.63.399-.137.784-.312 1.21-.485-.362-1.85-.735-3.643-1.061-5.444-.325-1.789-.224-3.644-.795-5.424l-1.998.569zm19.244 14.166c.097 1.983.74 3.843 1.35 5.833.344.122.827.3 1.315.464.475.159.955.302 1.481.468.264-1.013.252-1.952.122-2.84-.148-1.01-.474-2.009-.85-2.962-.452-1.139-1.79-1.752-3.418-.963zM4.29 5.368c.733 3.276 1.36 6.471 2.183 9.732l2.565-1.165C7.782 10.62 7.029 7.254 6.452 3.674L4.29 5.368zm7.33 7.763C10.886 9.464 9.588 5.955 9.78 2.064L7.235 3.242l.274 1.381c.217 1.095.565 2.184.613 3.286.048 1.043.19 2.039.495 3.024.287.926.576 1.85.886 2.842l2.117-.644zm-4.966 27.59l.04.208L20.9 39.735l-.424-3.777c-.635.211-1.206.368-1.75.592-.439.182-.828.489-1.27.661-.506.198-1.059.276-1.57.463-1.912.703-3.81 1.443-5.726 2.137-.748.271-1.493.562-2.327.558-.392-.002-.785.228-1.178.352zm-3.979.464c1.446-1.918 2.708-3.774 4.16-5.467 1.46-1.703 3.11-3.243 4.671-4.849-.974 0-1.947-.019-2.92.005-1.088.026-2.176.084-3.263.14-.542.03-1.082.102-1.625.123-.25.01-.518-.01-.748-.096-.495-.183-.84.122-.83.562.035 1.544.14 3.086.18 4.63.036 1.375.461 2.72.295 4.11-.026.218.04.447.08.842zm32.159-5.311c-.474-2.027-.615-4.083-.474-6.287-.399.213-.688.377-.984.526-1.411.712-2.784 1.523-4.249 2.098-1.172.46-2.22 1.064-3.21 1.808-.74.556-.741.57-.437 1.523.13 0 .272.006.414-.001 2.21-.118 4.422-.243 6.634-.355.46-.023.92-.014 1.38.009.133.006.262.11.47.202-.324.205-.716.32-.747.498-.087.506-.41.496-.756.486-.656-.02-1.311-.089-1.966-.09-1.552-.005-3.103.014-4.654.034-.246.003-.49.06-.835.106l.74 3.673c2.931-1.41 5.76-2.784 8.674-4.23zM9.614 16.113l.128-.039c.094.265.197.526.28.794.398 1.288.777 2.583 1.192 3.866.246.76.34.767 1.133.581.837-.197 1.682-.369 2.53-.505.763-.122.848-.147.72-.929-.248-1.498-.55-2.988-.834-4.48-.139-.725-.291-1.448-.46-2.287l-1.64.525c.085.319.173.533.195.754.07.679 0 1.266.135 2.038.18.623.506 3.302.563 3.638.035.206-.223.13-.337-.067-.685-1.26-1.016-4.61-1.37-5.988-.249.047-.445.069-.631.123-.469.137-1.056.163-1.367.467-.409.4-.906.195-1.314.45-.552.342-1.17.577-1.8.877l1.765 6.466 2.427-.685c-.456-1.942-.886-3.77-1.314-5.599zm10.22 19.428c-.175-.23-.275-.4-.41-.533-1.298-1.306-2.69-2.506-4.16-3.614-.684-.516-1.393-.647-2.144-.144-.168.112-.352.204-.5.338-2.032 1.827-4.062 3.655-5.758 5.816-.85 1.084-1.726 2.147-2.587 3.222-.02.026.007.092.017.18.859-.356 1.693-.731 2.549-1.049 2.154-.802 4.31-1.604 6.481-2.358 2.107-.731 4.123-1.777 6.511-1.858zM16.12 18.594c.099.069.258.118.285.208.19.632.355 1.272.515 1.867 1.087.165 1.087.165 3.296-.847-.278-2.686-.697-5.362-1.342-7.998-1.176.188-1.177.188-.967 1.214.139.675.274 1.35.42 2.024.25 1.147.51 2.293.765 3.44.063.28.153.556.184.84.03.277-.054.633-.185.727-.243.192-.628.518-1.094.32-.166-.32-.372-.569-.323-1.04-.067-.37-.178-.51-.222-.814-.173-1.192-.353-2.385-.564-3.57-.155-.872-.362-1.733-.556-2.642-.723.16-1.362.349-1.925.904.476.641.043 1.703 1.047 2.047.091.313.204.601.259.9.147.807.27 1.619.403 2.424-.226-.39-.432-.759-.44-1.259-.008-.506-.226-1.01-.353-1.513l-.195.048.57 2.933.422-.213zm6.506 31.425l1.713.205-.582.994c.107.079.248.21.412.3.445.243.484.347.22.808-.14.243-.3.475-.495.783-.648-.679-1.24-.121-1.851.006-.095-.61.53-.5.722-.8-.245-.564-.568-.99-1.251-1.109-.502-.087-.513-.218-.434-1.007-.555-.074-1.017-.106-1.382.513-.344.583-1.136.447-1.609-.187l.645-.998-1.612-.262c-.104-.397-.57-.812-.04-1.395.124.177.23.277.274.4.198.553.538.705 1.155.765.734.07 1.462.048 2.16.09.051-.319.055-.654.172-.942.072-.178.304-.376.49-.405.405-.064.827-.038 1.24-.018.053.003.096.185.165.328.21-.114.426-.197.6-.333.344-.27.651-.332 1.105-.179.46.156.994.09 1.498.12-.205-.782-.466-1.56-.602-2.358-.128-.757-.125-1.536-.183-2.305-.012-.168-.004-.35-.063-.501-.207-.53-.44-1.049-.67-1.588h-2.47c.067 1.144.395 4.736.465 5.968-.343.9-1.027.304-1.167-.675.316-1.071-.128-4.138-.206-5.186-.336 0-.646-.026-.95.004-2.605.249-5.206.549-7.815.752-2.064.16-4.136.218-6.206.297-.795.03-1.593-.031-2.389-.013-1.03.023-1.476.668-1.173 1.675.145.48.155.94.075 1.441-.168 1.048-.282 2.108-.366 3.166-.063.802-.121 1.589-.307 2.384-.186.794-.136 1.644-.202 2.469-.069.856-.153 1.712-.23 2.559-.978.176-1.164.026-1.074-.913.082-.859.18-1.718.32-2.568.129-.77.272-1.522-.092-2.27-.071-.145-.074-.34-.059-.508.126-1.345.253-2.69.401-4.032.038-.34.132-.676.233-1.003.084-.276.114-.51.046-.819-.1-.461-.12-.996.02-1.44.224-.713.174-1.417.18-2.133.005-.602-.028-1.219.092-1.801.247-1.205.179-2.404.12-3.612-.104-2.125-.195-4.25-.294-6.375-.076-1.61-.141-3.22-.247-4.827-.03-.45-.191-.891-.284-1.338-.11-.535-.213-1.07-.312-1.606-.11-.59-.219-1.18-.31-1.774-.043-.277-.024-.562-.065-.84-.279-1.897-.14-3.798.054-5.682.33-3.222 1.418-6.102 4.114-8.147.686-.52 1.32-1.155 2.081-1.52C8.943 1.357 11.498.13 14.431.293c.453.025.911.132 1.349.263.811.244 1.442.746 1.753 1.547.416 1.07.781 2.158 1.16 3.24.296.842.584 1.685.869 2.53.293.87.578 1.742.867 2.613.027.08.096.158.095.236-.005.304-.103.626-.033.908.315 1.253.613 2.52 1.281 3.646.456.767 1.22 1.098 2.062.975 1.53-.224 3.069-.386 4.547-.943.925-.348 1.94-.496 2.93-.618.993-.122 1.747.479 2.424 1.113.796.744 1.312 1.687 1.597 2.723.366 1.328.585 2.672.465 4.08-.13 1.544-.089 3.104-.118 4.657-.013.639-.043 1.273-.258 1.886-.035.103-.018.229-.005.342.273 2.34.51 4.693 1.21 6.952.476 1.537.732 3.115 1.099 4.671.32 1.36.698 2.716 1.42 3.943.172.29.253.635.367.958.177.5.346 1.003.54 1.57-.051.018-.226.075-.396.145-.156.065-.306.144-.486.23-.387-.11-.577-.391-.658-.793-.168-.842-.3-1.698-.554-2.516-.313-1.01-.756-1.977-1.101-2.978-.233-.676-.505-1.37-.558-2.07-.07-.949-.531-1.675-1.016-2.5-.352.176-.68.344-1.012.502-.986.469-1.974.934-2.962 1.4-.077.036-.158.093-.238.094-1.2.028-2.173.701-3.235 1.122l-1.503.6c.017.164.039.383.064.602l.506 4.344c.077.651.111 1.311.243 1.952.071.344.309.654.48.995.604-.16 1.2-.07 1.7-.46l-.297-.363c.165-.099.317-.247.492-.285 1.307-.284 2.596-.65 3.942-.748.53-.038 1.066-.224 1.56-.435.326-.14.562-.194.87.015.275.188.594.31.878.454-.078 1.252-1.173 1.747-2.078 2.246-.174.096-.381.132-.56.223-.094.048-.16.154-.24.236-1.099-.335-2.183-.43-3.187.102-.74-.29-1.471-.605-2.225-.855-.24-.08-.537.013-.83.029.14.53.14.53.528.769-.226.711.05 1.954.756 3.436.466.405 1.299-.211 1.577.696-.206.129-.404.312-.636.384-.242.074-.32.147-.409.415-.165.496-1.1.5-1.347.015-.214-.42-.34-.888-.48-1.342-.21-.687-.368-1.39-.61-2.065-.112-.31-.369-.569-.605-.917.167-.366.105-1.34-.275-1.582-.286-.183-.76-.311-1.05-.201-.708.268-1.47.505-1.933 1.214-.11.17-.376.238-.57.353v-.57l-.802.2v.198l.83.142z" mask="url(#6ta0rl65zb)"/>
                        </g>
                        <path fill="#6B9149" d="M7.798 52.593c-.004.206.044.43-.02.615-.186.533-.567.947-1.077 1.148-.374.148-.567.4-.823.67-.526.555-1.21.936-2.003.952-.613.013-.813-.337-.683-.947.036-.168-.067-.366-.102-.533.974-.242 2.025-.457 3.045-.774.645-.202 1.227-.58 1.67-1.123.005.004-.007-.008-.007-.008M9.23 52.643c.4-.47.952-.57 1.535-.638.497.496-.293.7-.25 1.167l.87-.173c.08.415-.145.616-.427.84-.258.205-.44.505-.712.833l-.362-.225c-.681.522-1.224-.162-2.009-.16l1.368-1.643-.014-.001zM15.011 51.976c-.772.79-1.672 1.33-2.214 1.38l-.21-.668c.409.038.752-.095.944-.515.039-.084.202-.14.317-.156.165-.024.337.007.506.003.17-.004.34-.021.657-.044M12.403 51.998h-.944c.014-.086.006-.148.033-.184.139-.186.287-.366.432-.548l.48.732" transform="translate(-218 -1802) translate(194 1417) translate(0 374) translate(24 11)"/>
                        <g transform="translate(-218 -1802) translate(194 1417) translate(0 374) translate(24 11) translate(3.24 55.88)">
                            <mask id="32exhogzgd" fill="#fff">
                                <use xlink:href="#d2mdglvtgc"/>
                            </mask>
                            <path fill="#6B9149" d="M.29.455L1.482.212 1.52.39C1.205.622.915.965.29.455" mask="url(#32exhogzgd)"/>
                        </g>
                        <path fill="#6B9149" d="M24.072 49.658l1.204-.398.06.17-1.2.411-.064-.183M9.243 52.644c-.48-.014-.958-.03-1.441-.047l.004.004c.478-.267.947-.132 1.419.043.004-.002.018 0 .018 0M33.43 27.689v.477l-.03.001v-.47l.03-.008" transform="translate(-218 -1802) translate(194 1417) translate(0 374) translate(24 11)"/>
                    </g>
                </g>
            </g>
        </g>
    </g>
</svg>
