<svg xmlns="http://www.w3.org/2000/svg" xmlns:xlink="http://www.w3.org/1999/xlink" width="43" height="69" viewBox="0 0 43 69">
    <defs>
        <path id="59xx9n01wa" d="M0.334 0.206L27.906 0.206 27.906 4.01 0.334 4.01z"/>
        <path id="woti9fr2sb" d="M0.103 0.225L7.505 0.225 7.505 3.955 0.103 3.955z"/>
    </defs>
    <g fill="none" fill-rule="evenodd">
        <g>
            <g>
                <g>
                    <g>
                        <g>
                            <g>
                                <path fill="#658E3C" d="M13.606 14.974c.243-.667.716-1.06 1.351-1.386 1.822-.932 3.637-.844 5.493-.156.676.25 1.354.475 2.1.514.934.049 1.72.488 2.342 1.2.342.39.712.73 1.188.983.625.33.85.97.785 1.629-.084.86.309 1.507.745 2.163.126.188.315.373.345.579.094.654.39 1.19.77 1.717.42.584.833 1.189 1.14 1.837.417.878 1.245 1.349 1.84 2.044.037.043.1.062.142.103.605.595.564 1.028-.138 1.554-.88.66-1.895.783-3.01.741-.433.497-.753 1.233-1.645 1.152-.03.514-.073.975-.077 1.436-.017 1.708-.769 2.924-2.416 3.612.244.602.029 1.143-.248 1.692-.109.213-.186.548-.09.73.124.241.04.347-.043.536-.079.18-.057.403-.089.702-.106.103-.39.26-.47.489-.074.21.09.494.119.75.04.372.065.747.077 1.122.013.402.003.804.003 1.231 1.33.502 2.701.639 4.098.672 1.262.03 2.49.201 3.52 1.058.26.216.607.375.938.445.847.177 1.48.683 2.023 1.29.677.756.855 1.708.728 2.682-.102.773-.086 1.474.3 2.185.378.695.045 1.483-.544 2.069-.458.455-1.042.577-1.57.823-.3.139-.734-.012-1.065-.03-.205.24-.37.614-.586.647-.375.058-.865.022-1.16-.185-.487-.343-.926-.35-1.472-.26-.52.087-1.04.118-1.494-.4-.295-.337-.39-.486-.043-.775.085-.072.146-.174.24-.287l-.538-1.044c-.831.479-1.674.561-2.547.118-.081.101-.177.179-.22.278-.473 1.132-1.373 1.584-2.542 1.618-.106.003-.262-.04-.312.015-.532.576-1.319.563-1.963.873-.742.358-1.348.202-1.837-.453-.102-.136-.217-.263-.334-.405-.712 1.221-.768 1.103-2.49 1.033-.459-.019-.917-.103-1.377-.116-.413-.012-.622-.194-.749-.583-.289-.89-.167-1.802-.069-2.678.126-1.118.463-2.214.714-3.318.024-.113.104-.217.116-.329.117-1.207 1.02-1.824 1.859-2.488.32-.252.672-.467.975-.736.273-.242.58-.316.92-.416 1.266-.372 2.276-1.107 2.842-2.343.092-.201.132-.452.114-.673-.11-1.39-.262-2.777-.36-4.167-.036-.522-.224-.92-.55-1.327-1.11-1.374-1.898-2.914-2.197-4.674-.136-.803-.245-1.61-.4-2.41-.102-.536-.26-1.062-.397-1.592-.03-.112-.08-.219-.11-.33-.578-2.083-1.574-4-2.365-5.997-.193-.487-.33-.997-.536-1.476-.271-.63.086-2.904.226-3.288M31.243 58.414c-.285.517-.555.933-.753 1.381-.215.489-.591.798-1.045.993-.245.105-.635.174-.825.05-.495-.323-1.1-.514-1.402-1.121-.189-.38-.521-.687-.812-1.057-.413.333-.691.66-.87 1.116-.299.757-.82 1.17-1.729 1.19-1.071.023-1.836-.37-2.434-1.205-.048-.068-.127-.115-.195-.167-.021-.017-.054-.02-.135-.046-.213.127-.468.258-.7.421-1.13.791-2.689.562-3.55-.517-.264-.333-.564-.64-.872-.985-.519.512-.963.961-1.422 1.396-.145.138-.316.27-.5.343-.543.217-1.181-.288-.96-.815.399-.952.725-1.975 1.675-2.592.732-.476 1.744-.512 2.465-.024.466.316.92.65 1.47 1.04.65-.71 1.483-1.088 2.522-1.311 1.199-.258 1.925.307 2.793.873.179-.161.344-.317.516-.464.817-.696 1.78-.82 2.79-.645.21.037.42.28.559.478.232.33.396.708.608 1.053.16.26.35.5.598.848.294-.542.554-.954.75-1.395.497-1.114 1.507-1.206 2.492-1.19.896.015 1.48.581 1.745 1.448.012.04.08.062.163.123.289-.46.621-.899.855-1.383.396-.818 1.933-1.027 2.577-.847.21.058.47.325.504.53.068.408.26.696.532.97.705.706.54 1.612.534 2.47-.003.339-.324.37-.586.4-.774.085-1.59-.342-1.952-1.023-.12-.228-.22-.467-.366-.784-.405.558-.766 1.068-.862 1.704-.077.521-.368.754-.863.817-.913.117-1.738-.009-2.342-.79-.3-.387-.59-.779-.973-1.283" transform="translate(-802 -3826) translate(-1 2270) translate(196 484) translate(0 1016) translate(567 16) translate(40 40)"/>
                                <g transform="translate(-802 -3826) translate(-1 2270) translate(196 484) translate(0 1016) translate(567 16) translate(40 40) translate(13.486 63.07)"/>
                                <path fill="#658E3C" d="M27.238 1.905c.828.51.37 2.136-.209 3.197-.481.881-1.006 1.813-1.159 2.778-.18 1.131-.82 1.957-1.315 2.89-.05.096-.14.21-.235.238-.35.102-.764.542-1.118.265-.185-.372-.103-.72.005-1.082.472-1.584.937-3.17 1.392-4.759.07-.249.06-.52.122-.774.135-.562.231-1.145.452-1.674.433-1.038.893-1.247 2.065-1.079M0 18.78c.132-.821 1.932.34 2.437.356 1.393.043 2.786.38 4.17.524 1.027.108 1.564-.188 2.46.337.307.18.532.586.674.937.095.24-.088.434-.43.505-1.031.213-2.026.146-3.071-.012-1.753-.266-3.24-.733-4.873-1.311C1.135 20.034 0 19.394 0 18.781M28.704 12.855c-.432-.69-.067-1.221.35-1.777.556-.743 1.017-1.557 1.552-2.317.483-.686.989-1.36 1.533-1.997.237-.276.57-.502.904-.654.557-.253 1.115-.547 1.903-.593.388 0 .642.314.642.452 0 .729-.462.8-.893 1.244-.708.727-1.444 1.426-2.12 2.18-.6.671-1.135 1.402-1.699 2.105-.054.068-.12.128-.168.201-.46.717-1.434 1.583-2.004 1.156M34.113 15.44c-.356-.853-.277-1.233.312-1.786 1.078-1.009 2.13-2.044 3.225-3.032.887-.8 1.856-1.477 3.213-1.64.28 0 .53.319.44.495-.006.602-.109.682-.386 1.045-.174.227-.41.409-.632.595-1.128.945-2.252 1.897-3.396 2.823-.65.525-1.144 1.51-2.034 1.62-.206.025-.638.002-.742-.12M18.863 0c.911 0 .937 1.694.91 1.835-.177.906.131 1.857-.284 2.742-.256.546-.292 1.123-.068 1.698.145.372.083.7-.06 1.083-.24.647-.357 1.34-.535 2.048-.111.891-.647.891-.86.452-.266-.566-.36-2.593-.298-4.405.05-1.446.01-2.894.01-4.507-.028-.4.205-.946 1.185-.946M12.117 2.263c.14.306.287.617.425.933.033.077.066.174.048.25-.284 1.234.053 2.393.348 3.578.245.98.32 2 .478 3.056.093.559-.23 1.052-.385 1.106-.874.303-.945-.651-1.111-1.553-.016-.085-.036-.171-.063-.254-.513-1.57-1.04-3.136-1.533-4.713-.119-.38-.164-.798-.164-1.199 0-.707-.163-1.53.547-1.614.333-.038.866 0 1.41.41M2.634 9.955c.632-.81 1.285.261 2.015.82.665.507 1.394.935 2.117 1.36.826.486 1.667.947 2.519 1.383.516.264.856.677 1.115 1.158.093.171.116.478.02.627-.088.139-.392.235-.573.2-.42-.08-.834-.227-1.234-.389-1.952-.791-3.633-2.015-5.25-3.336-.157-.128-1.153-.98-.729-1.823" transform="translate(-802 -3826) translate(-1 2270) translate(196 484) translate(0 1016) translate(567 16) translate(40 40)"/>
                                <g transform="translate(-802 -3826) translate(-1 2270) translate(196 484) translate(0 1016) translate(567 16) translate(40 40) translate(34.627 17.143)">
                                    <mask id="av1fp0dvjc" fill="#fff">
                                        <use xlink:href="#woti9fr2sb"/>
                                    </mask>
                                    <path fill="#658E3C" d="M7.491.658c.037.652.006.343-.133.902-.06.242-.664.502-.937.597-1.445.504-2.903.97-4.363 1.428-.484.152-.986.244-1.503.37-.487 0-.532-.458-.362-.848.416-.52 1.059-.651 1.62-.92.703-.337 1.446-.614 2.091-1.04.91-.6 1.914-.78 2.95-.91.315-.04.59.005.637.421" mask="url(#av1fp0dvjc)"/>
                                </g>
                            </g>
                        </g>
                    </g>
                </g>
            </g>
        </g>
    </g>
</svg>
