<svg xmlns="http://www.w3.org/2000/svg" xmlns:xlink="http://www.w3.org/1999/xlink" width="48" height="52" viewBox="0 0 48 52">
    <defs>
        <path id="pda1wtacna" d="M0.039 0.493L5.865 0.493 5.865 13.452 0.039 13.452z"/>
    </defs>
    <g fill="none" fill-rule="evenodd">
        <g>
            <g>
                <g>
                    <g>
                        <path fill="#DF6331" d="M31.04 25.348c.014-.198.02-.399.042-.596.284-2.423-.788-4.176-2.774-5.406-.91-.563-1.91-.982-2.89-1.424-.945-.427-1.947-.35-2.943-.207-1.102.159-2.208.477-3.303.438-.969-.033-1.544.438-1.99 1.06-1.674 2.336-2.782 4.85-2.658 7.854.067 1.635.443 3.173.982 4.65.48 1.314 1.547 2.294 2.826 2.933.853.426 1.769.724 2.621 1.147.967.48 1.973.675 3.008.438 3.015-.69 5.112-2.46 6.215-5.388.67-1.778 1.021-3.595.864-5.499m-20.563 1.505c.042-1.737.475-3.371 1.084-4.929.383-.98.963-1.952 1.682-2.713 1.084-1.146 2.25-2.267 3.819-2.79.15-.048 1.255-.349 1.405-.364 2.375-.437 3.231-.214 5.331-.412.157-.015.316-.013.474-.03 3.323-.368 5.96 1 8.203 3.295.567.58.835 1.32.844 2.175.01.987.173 1.972.207 2.96.026.789-.06 1.58-.064 2.37-.004.509.009 1.024.086 1.524.144.922.16 1.817-.227 2.694-.386.874-.728 1.768-1.118 2.64-.629 1.41-1.838 2.305-3.02 3.169-3.882 2.837-7.997 2.726-12.216.814-.363-.164-.722-.342-1.094-.482-2.758-1.036-4.284-3.076-4.795-5.918-.238-1.328-.403-2.668-.601-4.003M36.206 32.325c.34-.44 3.75 1.29 5.515 2.269 1.854 1.028 3.233 2.534 4.584 4.091.275.317.475.747.577 1.158.203.821-.435 1.46-1.238 1.211-.597-.184-1.196-.475-1.693-.851-1.678-1.27-3.408-2.449-5.25-3.473-.971-.54-1.838-1.249-2.523-2.153-.67-.881-.68-1.212.028-2.252M20.92 13.932c-.396.24-.902.07-1.125 0-.223-.069-.438-.198-.543-.614-.03-.206-.091-.395-.078-.58.142-1.987-.436-3.863-.895-5.755-.29-1.193-.645-2.37-.965-3.557-.154-.576.462-1.461 1.021-1.482 1.416-.052 2.482.782 2.768 2.19.54 2.658.865 5.331.711 8.056-.047.832-.343 1.318-.894 1.742" transform="translate(-834 -1667) translate(-1 1255) translate(811 398) translate(24 14)"/>
                        <g transform="translate(-834 -1667) translate(-1 1255) translate(811 398) translate(24 14) translate(26.5 .007)">
                            <mask id="6bzxd8mfnb" fill="#fff">
                                <use xlink:href="#pda1wtacna"/>
                            </mask>
                            <path fill="#DF6331" d="M.2 13.23c-.468-.961.179-3.796.774-5.554.431-1.276.834-2.175 1.102-3.5.215-1.063 1.317-2.75 2.388-3.417.208-.043 1.06-.496 1.3-.114.468.885-.812 3.465-1.274 5.048-.533 1.83-1.233 3.61-1.854 5.415-.27.788-.328 1.493-.997 1.942-.257.172-1.282.697-1.44.18" mask="url(#6bzxd8mfnb)"/>
                        </g>
                        <path fill="#DF6331" d="M33.895 16.036c.213-.791.74-1.011 1.15-1.374 1.7-1.509 3.38-3.062 5.465-4.044.528-.249 1.144-.313 1.718-.468.946-.255 1.218.635 1.755 1.06.094.075.062.386.005.56-.061.178-.207.34-.346.48-2.062 2.058-4.43 3.616-7.25 4.44-.899.263-2.284.46-2.497-.654M35.099 24.852c.055-.373 1.152-.772 1.732-.927 1.42-.38 2.905-.525 4.3-.973 1.572-.505 3.129-.386 4.706-.254.387.032.818.113 1.13.32.293.196.577.565.643.9.09.458-.214.873-.673 1.01-.915.275-1.836.595-2.777.7-1.968.219-3.949.343-5.928.445-1.438.075-3.296-.063-3.133-1.221M18.505 50.95c-1.065-.653-.957-1.625-.809-2.594.06-.392.114-.787.193-1.176.439-2.183.87-4.367 1.34-6.543.084-.388.068-.957.675-.99.547-.03.927.22 1.245.719.639 1.003.835 2.036.564 3.188-.437 1.856-.858 3.716-1.268 5.578-.222 1.011-.942 2.144-1.94 1.818M12.87 38.03c.758.819-.772 1.51-1.53 1.748-2.048.64-4.117 1.214-6.188 1.777-.439.12-1.118.534-1.399.12-.427-.878-.08-2.043.75-2.513 1.004-.57 1.23-.636 2.531-1.23.034-.02 1.528-.421 1.563-.423 1.607-.088 3.646-.306 4.272.52M14.154 14.44c-1.172 1.039-2.875-.512-3.58-1.966-.45-.929-.962-1.828-1.444-2.74-.408-.776-.554-1.13.14-1.755.681-.516 1.743.029 2.317.974.594.976 1.304 1.882 1.96 2.82.136.193.241.41.391.588.822.973.888 1.446.216 2.079M2.251 18.6c.551-.982.814-1.12 1.714-.943.117.023.233.06.344.103 1.517.589 3.049 1.144 4.547 1.78 1.256.533 1.28.66 1.007 1.988-.427 1.17-8.052-2.033-7.612-2.928M8.357 28.668c.313 1.248-.929 1.415-1.906 1.46-1.703.078-3.399-.005-5.096-.07-.45-.016-1.248.102-1.355-.31.119-1.084.664-1.462 1.582-1.55 1.021-.1 2.032-.465 3.044-.454 1.27.015 3.419 0 3.731.924M29.55 38.136c.568-.287 1.931.62 2.614 1.518.74.972 1.774 1.72 2.308 2.867.131.284.28.584.313.888.078.74-.527 1.216-1.233.94-.392-.153-.768-.42-1.07-.718-.532-.528-1.02-1.105-1.494-1.688-.626-.767-1.257-1.536-1.82-2.349-.422-.607-.092-1.183.382-1.458" transform="translate(-834 -1667) translate(-1 1255) translate(811 398) translate(24 14)"/>
                    </g>
                </g>
            </g>
        </g>
    </g>
</svg>
