<svg xmlns="http://www.w3.org/2000/svg" xmlns:xlink="http://www.w3.org/1999/xlink" width="88" height="60" viewBox="0 0 88 60">
    <defs>
        <path id="swjmcdlska" d="M0 0.542L29.608 0.542 29.608 46.893 0 46.893z"/>
        <path id="txt7ee46sc" d="M0.135 0.556L3.676 0.556 3.676 10.896 0.135 10.896z"/>
    </defs>
    <g fill="none" fill-rule="evenodd">
        <g>
            <g>
                <g>
                    <g>
                        <g>
                            <g>
                                <g transform="translate(-235 -3343) translate(-1 2270) translate(196 484) translate(0 508) translate(0 33) translate(40 48) translate(0 12.68)">
                                    <mask id="v5exswdypb" fill="#fff">
                                        <use xlink:href="#swjmcdlska"/>
                                    </mask>
                                    <path fill="#DF6331" d="M15.722 33.957c1.508-.527 2.605-.902 3.695-1.295 1.248-.45 2.015-.308 2.573.871.48 1.018.742 2.18.892 3.305.254 1.899.387 3.816.485 5.731.056 1.123.668 2.839-.322 3.727-.36.322-.943.881-1.889.425-1.439-3.308-1.113-6.745-2.023-10.078-1.279.434-2.51 1.002-3.805 1.255-2.028.397-3.367 1.594-4.672 3.094-.996 1.146-2.328 2.023-3.595 2.899-1.162.803-2.35.887-3.504-.22-.736-.705-1.688-1.178-2.469-1.844-1.33-1.136-1.441-2.904-.333-4.445.596-.917 1.562.709 2.189 1.38.701.754 1.458 1.43 2.669 1.296.805-.088 1.395-.24 1.973-.925 1.026-1.208 2.254-2.242 3.473-3.423 0-1.934.02-4.042-.009-6.149-.013-.884-.122-1.768-.212-2.65-.23-2.298-.67-4.57-.041-6.9.331-1.23.15-2.51-.118-3.809-.664-3.214-1.202-6.46-1.607-9.717-.206-1.679-.04-3.406.012-5.112.008-.262.308-.516.478-.781 1.845-.494 1.85 2.829 1.672 4.36-.383 3.3.378 6.402 1.059 9.543.038.178.157.34.28.587 1.046-.473 2.05-.978 3.094-1.38.788-.305 1.528-.174 2.012.632.292.486.581.975.92 1.542 1.177-.477 1.982-1.296 2.715-2.156 1.246-1.464 2.4-3.006 3.628-4.485C26.23 7.682 27.31 6.08 26.97 3.903c-.054-.348.1-.78.287-1.098.173-.297.528-.7.781-.685.375.02.888.281 1.065.596.731 1.298.578 2.713.115 4.034-1.03 2.943-2.547 5.605-4.75 7.87-.933.96-1.652 2.127-2.535 3.14-.663.755-1.332 1.6-2.183 2.07-1.106.609-1.585 1.48-1.71 2.597-.24 2.162-.223 4.332-1.183 6.4-.43.924-.532 1.918-.703 2.988-.088.552-.068 1.291-.43 2.142" mask="url(#v5exswdypb)"/>
                                </g>
                                <path fill="#DF6331" d="M49.322 54.968c-.047-1.127-.145-2.253-.134-3.38.027-2.629.34-5.137.335-7.765-.002-.595.313-2.043-.37-2.459-2.447.887-2.637 1.595-6.569 2.628-.707-.101-1.948 3.845-2.607 5.516-.542 1.374-.927 1.316-2.463 1.213-1.895-.128-2.66-1.283-3.35-2.72-.556-1.16-1.067-2.35-1.732-3.446-.625-1.032-1.339-2.888-.325-3.495 1.854-.43 2.298 1.628 3.234 2.898.573 1.313 1.312 2.234 1.827 3.456l.448.048c.265-.586.634-1.146.771-1.759.478-2.134.884-4.284 1.297-6.432.147-.758.273-1.512.61-2.287.62-2.962.673-4.076 1.038-6.798.083-.607.363-1.343.14-1.839-.953-2.112-1.002-4.38-1.261-6.596-.32-2.743-.4-5.514-.586-8.272-.055-.815-.175-1.514.686-2.04.462 0 .707.127.757 1.062.423 2.994.812 5.667 1.335 8.642.274 1.565.778 3.14 1.482 4.559.42.845.923 2.009 2.194 2.097 3.19-1.083 5.008-3.498 5.994-6.677.15-.483.44-.92.65-1.385.528-1.165 1.005-2.352 1.578-3.493.472-.936.847-2.034 2.266-2.179 1.152.382.076 3.043-.475 4.54-1.236 3.366-3.395 6.193-5.16 9.244-.976 1.688-2.468 2.53-4.312 2.983l-1.309 9.348c1.322-.673 2.456-1.331 3.653-1.836 1.184-.499 1.86-.13 2.184 1.075.504 1.883.625 3.745.3 5.725-.305 1.863-.058 3.814-.104 5.726-.024 1.007-.043 2.038-.282 3.005-.124.504-.383.894-.764 1.335-.573.202-.841.202-.976-.242M72.382 58.39c-1.6-.285-.563-5.1-.586-7.752-.178-2.841.771-7.525-1.553-7.962-2.52-.01-3.335.808-4.38 1.92-1.03 1.096-1.785 2.573-1.487 4.408.136 1.382.207 3.109.142 4.332-.045.89-.44 1.434-1.316 1.333-.809-.236-.591-1.96-.623-2.882-.061-1.802 0-3.607.008-5.41.009-2.058.547-3.798 2.587-4.79 1.643-.8 1.958-2.383 2.12-4.007.068-.698.068-1.407.2-2.092.348-1.78.268-3.357-.476-5.175-1.213-2.966-1.296-5.721-1.31-9.49-.004-.84-.03-4.54.964-4.592 1.65-.134.952 3.65 1.044 4.447.211 1.851.5 3.787.675 5.643.06.617.298 1.216.36 1.456 1.401 1.424 2.603 1.828 3.832 1.174.826-.457 1.934-1.493 2.476-2.377 1.178-1.92 1.74-3.659 2.734-5.68.535-1.085 1.218-2.595.972-3.921-.283-1.525.101-3.268 1.382-1.988.976 1.516.481 4.133-.384 5.966-.878 1.86-1.655 3.769-2.478 5.656-.875 2.008-1.934 3.178-3.674 4.447-.874.636-.911 1.625-.977 2.762.152 1.326-.471 2.76-.547 4.103-.057.999.093 1.908.661 2.752.662.984 1.016 2.068.98 3.273-.083 2.748-.14 5.499-.22 8.247-.033 1.096-.16 2.192-.137 3.286.022 1.062.139 2.914-.989 2.914M19.245 24.788c-.714.674-1.774.674-2.175 0-.882-2.79-1.385-5.59-.293-8.404.499-1.281 1.446-2.341 1.973-3.654.377-.943 2.255-.54 2.585.618.644 2.261 1.098 4.567 0 6.86-.713 1.484-1.368 2.994-2.09 4.58" transform="translate(-235 -3343) translate(-1 2270) translate(196 484) translate(0 508) translate(0 33) translate(40 48)"/>
                                <path fill="#DF6331" d="M46.553 25.154c-2.038.662-2.172-.975-1.98-2.85.2-1.964.533-3.917.848-5.868.08-.498.28-.987.489-1.45.278-.624.47-1.589 1.344-1.354.72.194 1.62.75 1.88 1.376.41.984.948 1.72 1.713 2.424.33.305.435 1.037.37 1.539-.07.529-.34 1.176-.743 1.492-1.62 1.27-1.726 2.725-3.921 4.691M73.374 15.788c2.326.478 1.33 4.18.565 6.168-.396 1.89-.817 4.315-2.956 4.315-1.246-.438-.728-2.416-.7-3.537.026-1.029.264-2.275.263-3.302-.005-1.86.47-3.908 2.828-3.644" transform="translate(-235 -3343) translate(-1 2270) translate(196 484) translate(0 508) translate(0 33) translate(40 48)"/>
                                <g transform="translate(-235 -3343) translate(-1 2270) translate(196 484) translate(0 508) translate(0 33) translate(40 48) translate(83.275 12.68)">
                                    <mask id="dnz6k9xw3d" fill="#fff">
                                        <use xlink:href="#txt7ee46sc"/>
                                    </mask>
                                    <path fill="#DF6331" d="M2.908.556c.767 0 .7 1.415.753 1.974.204 2.193-1.745 8.567-2.592 8.362C.15 10.896-.034 9.845.27 9.04c.935-2.456 1.875-4.903 2.007-7.573.007-.156-.084-.665.63-.912" mask="url(#dnz6k9xw3d)"/>
                                </g>
                                <path fill="#DF6331" d="M29.607 1.945c1.583-.202-1.321 8.594-1.746 8.863-1.105.63-1.033-.46-.739-1.38.646-2.025.91-2.561 1.415-5.036.028-.09.497-2.447 1.07-2.447M14.385.658c.419 0 .7.959.707 1.332.05 2.739.027 5.478.027 8.25-.652.107-.948-.344-.963-.877-.082-2.697-.11-5.394-.146-8.092-.001-.103 0-.613.375-.613M55.948.939c.988-.358.927 1.645.662 2.621-.548 2.013-1.056 5.934-1.713 6.134-.899-.331-1.003-.927-.896-1.576.084-.502.292-.981.425-1.474.504-1.87.758-5.302 1.522-5.705M5.31 15.174c-.351-1.115-.806-2.208-1.025-3.348-.313-1.627-.494-3.284-.627-4.937-.022-.278.144-.755.742-.9.514 0 .623.598.581.838-.45 2.676.376 5.18.94 7.723.036.162.053.474.006.654-.104.319-.584.165-.617-.03M40.067.58c.597-.216 2.888 7.263 2.047 7.563-.776.384-1.09-1.016-1.274-1.593-1.153-3.592-1.86-5.654-.773-5.97M68.234 7.138c.56-.148.886.547.895.791.068 1.813.608 4.833.204 5.821-.665.542-1.08-.2-1.116-.634-.144-1.695-.32-3.769-.36-5.47-.004-.1 0-.528.377-.508M9.036.505c.194 2.552.562 5.351.562 7.395-.212.963-.787-.243-.807-.397-.298-2.319-.547-4.645-.767-6.973-.015-.161 0-.41.446-.53.178.032.486 0 .566.505M34.247 7.284c.946-.662 1.229 3.665.252 7.06-.47.236-.715-.314-.724-.48-.125-2.14-.252-5.655.472-6.58M63.12 8.638c.99-.861 1.813 3.512 1.986 5.654-.153.525-.604-.078-.741-.372-.734-1.573-1.8-4.716-1.244-5.282M48.83 2.887c.89-1.141 1.67 4.922 1.859 6.978 0 .37-.255.664-.593.37-.246-.235-.403-.93-.483-1.213-.571-1.996-1.437-5.491-.783-6.135M60.904 19.19c.882-.04 2.196 5.296 1.43 5.875-.784.239-2.569-5.876-1.43-5.876M22.93 9.089c-.357 1.079-1.02-.286-1.023-.822-.001-1.144.05-2.294.18-3.429.027-.257.219-.697.725-.697.424 0 .434.493.424.729-.063 1.395.001 2.165-.307 4.219M75.902 7.002c.69-.243 1.81 3.272 1.494 4.074-.06.151-.283.358-.4.34-.276-.043-.649-.132-.78-.334-.68-1.05-1.207-3.919-.314-4.08" transform="translate(-235 -3343) translate(-1 2270) translate(196 484) translate(0 508) translate(0 33) translate(40 48)"/>
                            </g>
                        </g>
                    </g>
                </g>
            </g>
        </g>
    </g>
</svg>
