<svg xmlns="http://www.w3.org/2000/svg" xmlns:xlink="http://www.w3.org/1999/xlink" width="37" height="57" viewBox="0 0 37 57">
    <defs>
        <path id="kbuj1bu2xa" d="M0 0.41L36.381 0.41 36.381 55.123 0 55.123z"/>
    </defs>
    <g fill="none" fill-rule="evenodd">
        <g>
            <g>
                <g>
                    <g>
                        <g>
                            <g transform="translate(-802 -2838) translate(-1 2270) translate(196 484) translate(567 33) translate(40 51) translate(0 .025)">
                                <mask id="71t0tsqgrb" fill="#fff">
                                    <use xlink:href="#kbuj1bu2xa"/>
                                </mask>
                                <path fill="#07A6C9" d="M21.994 5.509c-.689.23-.689.23-1.913-.397l.345 3.138c-.09.133-.415.266-.609.412-.366.274-.289.577.336 1.262.198.2.3.522.382.806.36 1.248 1.287 1.742 2.463 2.045 2.446.628 6.709-.88 8.213-3.251.562-.886 1.224-1.708 1.79-2.59.25-.388.393-.847.554-1.284.165-.449.291-1.453.921-1.518.672-.071 1.467-.275 1.789.49.042.101.067.67.116.779-.06.097-.337.41-.418.475-1.268.988-2.025 2.385-2.937 3.657-.857 1.197-1.761 2.391-3.125 3.01-2.246 1.019-4.56 1.836-7.114 1.32-1.736-.352-2.747-1.06-3.681-2.722-.525 1.2-1.01 2.33-1.512 3.452-.687 1.533-.79 3.207-1.18 4.81-.118.483-.217.97-.316 1.457-.338 1.676-.602 3.37-1.027 5.023-.558 2.163-.408 4.328-.232 6.502.014.166.149.333.257.478.11.148.257.268.395.407.08-.01.18.008.236-.034 1.666-.653 2.346-1.063 3.548-1.527.692-.267 1.376-.554 2.065-.828.752-.299 1.508-.507 2.333-.273.285.08.608.015.907.06.79.117 1.058.505 1.104 1.32.026.492-.096.887-.293 1.331-.277.622-.398 1.316-.562 1.984-.275 1.125-.574 2.245-.781 3.382-.207 1.137-.314 2.292-.484 3.589.686-.412 1.288-.724 1.835-1.113.742-.526 1.44-1.115 2.162-1.67.593-.457 1.419-1.13 2.182-.877.28.094.574.233.722.577.086.202.14.505.144.75 0 .318-.012.402-.606.722-.35.006-1.054.258-1.36.481-1.414 1.031-2.792 2.113-4.217 3.127-.41.29-1.406 1.472-1.896 1.615-.73.213-1.244-.24-1.744-.629-.895-.693-.173-2.633-.046-3.815.274-2.537.144-5.025.906-7.453.032-.104.062-.207.124-.417-.266.073-.468.103-.65.181-.59.257-3.67 1.308-4.293 1.476-.396.106-.773.29-1.147.462-.5.231-.65.519-.511 1.067.296 1.174 1.064 5.637 1.222 6.168.287.969.077 1.787-.597 2.6-.616.748-1.329 1.26-2.156 1.728-.655.372-3.25 2.52-3.776 2.816-.898.506-1.962.952-3.117.75-.19.019-1.56-.074-1.847-.057-.148 1.061-.364 2.986-.52 4.097-.287.263-.66.25-.807.26-.766.05-.93-.445-.837-1.212.091-.74-.016-1.426.087-2.164.045-.325.06-.834.029-1.155-.067-.66.319-1.353.606-1.875.082-.15.911-.081 1.084-.069 1.644.112 3.021-.608 4.272-1.504 1.088-.78 1.995-1.81 3.037-2.663.54-.44.556-.977.541-1.554-.04-1.693-.394-3.344-.686-5.005-.507-2.88-1.091-5.752-1.425-8.653-.346-3.005-.16-6.004.881-8.903 1.008-2.801 1.965-5.62 2.94-8.434.016-.045-.007-.104-.016-.21-.839.34-1.66.684-2.49 1.008-1.025.401-2.048.81-3.087 1.174-1.29.452-2.426 1.183-3.575 1.896-.604.376-1.287.654-1.694 1.293-.178.278-.395.537-.536.833-.425.888-.82 1.79-1.244 2.725-.275-.015-.565.051-.744-.06-.27-.17-.535-.43-.665-.716-.093-.2-.049-.576.09-.751.452-.573.735-1.215 1.041-1.867.312-.663.793-1.253 1.247-1.84.177-.228.46-.396.725-.53.839-.423 1.733-.748 2.528-1.236 1.31-.806 2.733-1.316 4.17-1.803.94-.32 1.907-.567 2.83-.928.611-.24 1.185-.594 1.742-.95.694-.442 1.332-.975 2.036-1.4.398-.242 1.012 0 1.611-.223.143-.963.354-2.417.082-3.586-.22-.942-.44-1.888-.232-2.861.135-.633.31-1.238 1.066-1.436.77-.201 1.503.203 1.583.995.047.47.287.8.484 1.19.344.68.556 1.426.804 2.15.078.23.094.48.138.713" mask="url(#71t0tsqgrb)"/>
                            </g>
                        </g>
                    </g>
                </g>
            </g>
        </g>
    </g>
</svg>
