<?xml version="1.0" encoding="UTF-8"?>
<svg id="Calque_1" data-name="Calque 1" xmlns="http://www.w3.org/2000/svg" version="1.1" viewBox="0 0 160 70">
  <defs>
    <style>
      .cls-1, .cls-2 {
        fill: #d01f25;
      }

      .cls-1, .cls-3, .cls-4 {
        stroke-width: 0px;
      }

      .cls-2, .cls-5 {
        font-family: Montserrat-Bold, Montserrat;
        font-size: 11.7px;
        font-weight: 700;
      }

      .cls-5, .cls-4 {
        fill: #273240;
      }

      .cls-6 {
        font-family: Montserrat-Medium, Montserrat;
        font-size: 7.2px;
        font-weight: 500;
        letter-spacing: .1em;
      }

      .cls-6, .cls-3 {
        fill: #b8c3c9;
      }
    </style>
  </defs>
  <g>
    <circle class="cls-1" cx="7.7" cy="34.9" r="5.6"/>
    <g>
      <circle class="cls-4" cx="30.6" cy="11.9" r="5.6"/>
      <circle class="cls-4" cx="42.5" cy="23.8" r="5.6"/>
      <path class="cls-4" d="M36.2,12.8c-.6,3.8,1.6,6,5.4,5.4l-4.7,4.7c.6-3.8-1.6-6-5.4-5.4l4.7-4.7Z"/>
    </g>
    <g>
      <circle class="cls-4" cx="42.9" cy="47.2" r="5.6"/>
      <circle class="cls-4" cx="31.4" cy="58.6" r="5.6"/>
      <path class="cls-4" d="M42,52.7c-3.5-.6-5.6,1.5-5,5l-4.7-4.7c3.5.6,5.6-1.5,5-5l4.7,4.7Z"/>
    </g>
    <g>
      <circle class="cls-1" cx="54.4" cy="35.7" r="5.6"/>
      <circle class="cls-1" cx="31" cy="35.3" r="5.6"/>
      <path class="cls-1" d="M50.3,39.6c-3.9-4-11.4-4.2-15.4-.3v-8c4,4,11.5,4.2,15.5.3v8Z"/>
    </g>
    <g>
      <circle class="cls-3" cx="19.1" cy="23.4" r="5.6"/>
      <circle class="cls-3" cx="19.5" cy="46.8" r="5.6"/>
      <path class="cls-3" d="M23.2,27.3c-3.9,4-3.8,11.5.3,15.4h-8c3.9-3.9,3.8-11.4-.3-15.3h8Z"/>
    </g>
  </g>
  <text transform="translate(71.5 27.5)"><tspan class="cls-5"><tspan x="0" y="0">CLUBS</tspan></tspan><tspan class="cls-2"><tspan x="0" y="14">UTILISATEURS</tspan></tspan><tspan class="cls-6"><tspan x="0" y="24.1">ORACLE</tspan></tspan></text>
</svg>